M48
; DRILL file {KiCad 8.0.9} date 2025-03-02T14:01:41+0100
; FORMAT={-:-/ absolute / metric / decimal}
; #@! TF.CreationDate,2025-03-02T14:01:41+01:00
; #@! TF.GenerationSoftware,Kicad,Pcbnew,8.0.9
; #@! TF.FileFunction,Plated,1,2,PTH
FMAT,2
METRIC
; #@! TA.AperFunction,Plated,PTH,ViaDrill
T1C0.300
; #@! TA.AperFunction,Plated,PTH,ComponentDrill
T2C0.600
; #@! TA.AperFunction,Plated,PTH,ViaDrill
T3C0.700
; #@! TA.AperFunction,Plated,PTH,ComponentDrill
T4C0.750
; #@! TA.AperFunction,Plated,PTH,ComponentDrill
T5C0.800
; #@! TA.AperFunction,Plated,PTH,ComponentDrill
T6C1.000
; #@! TA.AperFunction,Plated,PTH,ComponentDrill
T7C1.200
; #@! TA.AperFunction,Plated,PTH,ComponentDrill
T8C1.300
; #@! TA.AperFunction,Plated,PTH,ComponentDrill
T9C3.200
%
G90
G05
T1
X32.385Y-56.515
X44.45Y-39.37
X44.45Y-49.53
X45.72Y-56.515
X72.21Y-48.895
T2
X41.045Y-35.56
X41.045Y-56.515
X42.545Y-35.56
X42.545Y-56.515
X52.475Y-31.115
X53.975Y-31.115
X85.725Y-31.115
X87.225Y-31.115
T3
X64.135Y-57.15
X73.66Y-57.15
T4
X40.64Y-41.275
X40.64Y-61.595
X41.91Y-41.275
X41.91Y-61.595
X43.18Y-41.275
X43.18Y-61.595
T5
X32.385Y-45.085
X32.385Y-48.895
X32.385Y-52.07
X32.385Y-61.595
X32.385Y-65.405
X32.425Y-41.275
X33.02Y-27.94
X33.02Y-31.115
X37.385Y-61.595
X37.425Y-41.275
X42.545Y-45.085
X42.545Y-48.895
X42.545Y-52.07
X42.545Y-65.405
X43.18Y-27.94
X43.18Y-31.115
X46.355Y-39.37
X46.355Y-41.91
X46.355Y-44.45
X46.355Y-46.99
X47.665Y-35.56
X50.8Y-51.435
X52.665Y-35.56
X53.975Y-39.37
X53.975Y-41.91
X53.975Y-44.45
X53.975Y-46.99
X60.96Y-51.435
X60.96Y-54.65
X60.96Y-59.65
X78.74Y-51.435
X78.74Y-54.65
X78.74Y-59.65
X85.725Y-39.37
X85.725Y-41.91
X85.725Y-44.45
X85.725Y-46.99
X87.075Y-35.56
X88.9Y-51.435
X92.075Y-35.56
X93.345Y-39.37
X93.345Y-41.91
X93.345Y-44.45
X93.345Y-46.99
T6
X29.101Y-50.8
X29.101Y-53.34
X29.101Y-58.42
X29.101Y-60.96
X29.101Y-63.5
X53.34Y-57.322
X53.34Y-62.322
X58.42Y-66.04
X60.96Y-66.04
X63.5Y-66.04
X68.58Y-66.04
X71.12Y-66.04
X86.36Y-57.23
X86.36Y-62.23
X93.98Y-51.435
X93.98Y-53.975
X93.98Y-59.055
X93.98Y-61.595
X93.98Y-64.135
T7
X69.85Y-54.69
X69.85Y-59.69
T8
X64.77Y-29.21
X64.77Y-39.37
X69.93Y-29.21
X69.93Y-39.37
X74.93Y-29.21
X74.93Y-39.37
T9
X48.26Y-29.21
X91.44Y-29.21
M30
