G04 #@! TF.GenerationSoftware,KiCad,Pcbnew,8.0.9*
G04 #@! TF.CreationDate,2025-03-02T13:58:42+01:00*
G04 #@! TF.ProjectId,cjss202,636a7373-3230-4322-9e6b-696361645f70,rev?*
G04 #@! TF.SameCoordinates,Original*
G04 #@! TF.FileFunction,Legend,Top*
G04 #@! TF.FilePolarity,Positive*
%FSLAX46Y46*%
G04 Gerber Fmt 4.6, Leading zero omitted, Abs format (unit mm)*
G04 Created by KiCad (PCBNEW 8.0.9) date 2025-03-02 13:58:42*
%MOMM*%
%LPD*%
G01*
G04 APERTURE LIST*
%ADD10C,0.300000*%
%ADD11C,0.150000*%
%ADD12C,0.240000*%
%ADD13C,0.120000*%
%ADD14C,1.600000*%
%ADD15R,1.700000X1.700000*%
%ADD16O,1.700000X1.700000*%
%ADD17R,1.200000X1.200000*%
%ADD18C,1.200000*%
%ADD19C,3.200000*%
%ADD20R,2.000000X2.000000*%
%ADD21C,2.000000*%
%ADD22O,1.600000X1.600000*%
%ADD23R,2.400000X2.400000*%
%ADD24C,2.400000*%
%ADD25C,2.340000*%
%ADD26R,1.050000X1.500000*%
%ADD27O,1.050000X1.500000*%
%ADD28R,1.600000X1.600000*%
%ADD29C,5.600000*%
G04 APERTURE END LIST*
D10*
X30480000Y-35560000D02*
G75*
G02*
X34290000Y-35560000I1905000J0D01*
G01*
X30480000Y-35560000D02*
X34290000Y-35560000D01*
X32385000Y-35560000D02*
X32385000Y-36830000D01*
X32385000Y-36830000D02*
X31115000Y-38100000D01*
X33020000Y-34925000D02*
G75*
G02*
X31750000Y-34925000I-635000J0D01*
G01*
X31750000Y-34925000D02*
G75*
G02*
X33020000Y-34925000I635000J0D01*
G01*
X32385000Y-36830000D02*
X33655000Y-38100000D01*
D11*
X33670714Y-61383152D02*
X33670714Y-62049819D01*
X33432619Y-61002200D02*
X33194524Y-61716485D01*
X33194524Y-61716485D02*
X33813571Y-61716485D01*
X34099286Y-61049819D02*
X34765952Y-61049819D01*
X34765952Y-61049819D02*
X34337381Y-62049819D01*
X35337381Y-61049819D02*
X35432619Y-61049819D01*
X35432619Y-61049819D02*
X35527857Y-61097438D01*
X35527857Y-61097438D02*
X35575476Y-61145057D01*
X35575476Y-61145057D02*
X35623095Y-61240295D01*
X35623095Y-61240295D02*
X35670714Y-61430771D01*
X35670714Y-61430771D02*
X35670714Y-61668866D01*
X35670714Y-61668866D02*
X35623095Y-61859342D01*
X35623095Y-61859342D02*
X35575476Y-61954580D01*
X35575476Y-61954580D02*
X35527857Y-62002200D01*
X35527857Y-62002200D02*
X35432619Y-62049819D01*
X35432619Y-62049819D02*
X35337381Y-62049819D01*
X35337381Y-62049819D02*
X35242143Y-62002200D01*
X35242143Y-62002200D02*
X35194524Y-61954580D01*
X35194524Y-61954580D02*
X35146905Y-61859342D01*
X35146905Y-61859342D02*
X35099286Y-61668866D01*
X35099286Y-61668866D02*
X35099286Y-61430771D01*
X35099286Y-61430771D02*
X35146905Y-61240295D01*
X35146905Y-61240295D02*
X35194524Y-61145057D01*
X35194524Y-61145057D02*
X35242143Y-61097438D01*
X35242143Y-61097438D02*
X35337381Y-61049819D01*
X36099286Y-61383152D02*
X36099286Y-62049819D01*
X36099286Y-61478390D02*
X36146905Y-61430771D01*
X36146905Y-61430771D02*
X36242143Y-61383152D01*
X36242143Y-61383152D02*
X36385000Y-61383152D01*
X36385000Y-61383152D02*
X36480238Y-61430771D01*
X36480238Y-61430771D02*
X36527857Y-61526009D01*
X36527857Y-61526009D02*
X36527857Y-62049819D01*
X79189942Y-55935714D02*
X79237561Y-55983333D01*
X79237561Y-55983333D02*
X79285180Y-56078571D01*
X79285180Y-56078571D02*
X79285180Y-56316666D01*
X79285180Y-56316666D02*
X79237561Y-56411904D01*
X79237561Y-56411904D02*
X79189942Y-56459523D01*
X79189942Y-56459523D02*
X79094704Y-56507142D01*
X79094704Y-56507142D02*
X78999466Y-56507142D01*
X78999466Y-56507142D02*
X78856609Y-56459523D01*
X78856609Y-56459523D02*
X78285180Y-55888095D01*
X78285180Y-55888095D02*
X78285180Y-56507142D01*
X79189942Y-56888095D02*
X79237561Y-56935714D01*
X79237561Y-56935714D02*
X79285180Y-57030952D01*
X79285180Y-57030952D02*
X79285180Y-57269047D01*
X79285180Y-57269047D02*
X79237561Y-57364285D01*
X79237561Y-57364285D02*
X79189942Y-57411904D01*
X79189942Y-57411904D02*
X79094704Y-57459523D01*
X79094704Y-57459523D02*
X78999466Y-57459523D01*
X78999466Y-57459523D02*
X78856609Y-57411904D01*
X78856609Y-57411904D02*
X78285180Y-56840476D01*
X78285180Y-56840476D02*
X78285180Y-57459523D01*
X78951847Y-57888095D02*
X78285180Y-57888095D01*
X78856609Y-57888095D02*
X78904228Y-57935714D01*
X78904228Y-57935714D02*
X78951847Y-58030952D01*
X78951847Y-58030952D02*
X78951847Y-58173809D01*
X78951847Y-58173809D02*
X78904228Y-58269047D01*
X78904228Y-58269047D02*
X78808990Y-58316666D01*
X78808990Y-58316666D02*
X78285180Y-58316666D01*
X30371704Y-48363476D02*
X31171704Y-48363476D01*
X31171704Y-48363476D02*
X31171704Y-48744428D01*
X31171704Y-48744428D02*
X31133609Y-48839666D01*
X31133609Y-48839666D02*
X31095514Y-48887285D01*
X31095514Y-48887285D02*
X31019323Y-48934904D01*
X31019323Y-48934904D02*
X30905038Y-48934904D01*
X30905038Y-48934904D02*
X30828847Y-48887285D01*
X30828847Y-48887285D02*
X30790752Y-48839666D01*
X30790752Y-48839666D02*
X30752657Y-48744428D01*
X30752657Y-48744428D02*
X30752657Y-48363476D01*
X31171704Y-49553952D02*
X31171704Y-49744428D01*
X31171704Y-49744428D02*
X31133609Y-49839666D01*
X31133609Y-49839666D02*
X31057419Y-49934904D01*
X31057419Y-49934904D02*
X30905038Y-49982523D01*
X30905038Y-49982523D02*
X30638371Y-49982523D01*
X30638371Y-49982523D02*
X30485990Y-49934904D01*
X30485990Y-49934904D02*
X30409800Y-49839666D01*
X30409800Y-49839666D02*
X30371704Y-49744428D01*
X30371704Y-49744428D02*
X30371704Y-49553952D01*
X30371704Y-49553952D02*
X30409800Y-49458714D01*
X30409800Y-49458714D02*
X30485990Y-49363476D01*
X30485990Y-49363476D02*
X30638371Y-49315857D01*
X30638371Y-49315857D02*
X30905038Y-49315857D01*
X30905038Y-49315857D02*
X31057419Y-49363476D01*
X31057419Y-49363476D02*
X31133609Y-49458714D01*
X31133609Y-49458714D02*
X31171704Y-49553952D01*
X31171704Y-50315857D02*
X30371704Y-50553952D01*
X30371704Y-50553952D02*
X30943133Y-50744428D01*
X30943133Y-50744428D02*
X30371704Y-50934904D01*
X30371704Y-50934904D02*
X31171704Y-51173000D01*
X30790752Y-51553952D02*
X30790752Y-51887285D01*
X30371704Y-52030142D02*
X30371704Y-51553952D01*
X30371704Y-51553952D02*
X31171704Y-51553952D01*
X31171704Y-51553952D02*
X31171704Y-52030142D01*
X30371704Y-53030142D02*
X30752657Y-52696809D01*
X30371704Y-52458714D02*
X31171704Y-52458714D01*
X31171704Y-52458714D02*
X31171704Y-52839666D01*
X31171704Y-52839666D02*
X31133609Y-52934904D01*
X31133609Y-52934904D02*
X31095514Y-52982523D01*
X31095514Y-52982523D02*
X31019323Y-53030142D01*
X31019323Y-53030142D02*
X30905038Y-53030142D01*
X30905038Y-53030142D02*
X30828847Y-52982523D01*
X30828847Y-52982523D02*
X30790752Y-52934904D01*
X30790752Y-52934904D02*
X30752657Y-52839666D01*
X30752657Y-52839666D02*
X30752657Y-52458714D01*
X85665476Y-27653152D02*
X85665476Y-28319819D01*
X85427381Y-27272200D02*
X85189286Y-27986485D01*
X85189286Y-27986485D02*
X85808333Y-27986485D01*
X86094048Y-27319819D02*
X86760714Y-27319819D01*
X86760714Y-27319819D02*
X86332143Y-28319819D01*
X87141667Y-27653152D02*
X87141667Y-28653152D01*
X87617857Y-28176961D02*
X87665476Y-28272200D01*
X87665476Y-28272200D02*
X87760714Y-28319819D01*
X87141667Y-28176961D02*
X87189286Y-28272200D01*
X87189286Y-28272200D02*
X87284524Y-28319819D01*
X87284524Y-28319819D02*
X87475000Y-28319819D01*
X87475000Y-28319819D02*
X87570238Y-28272200D01*
X87570238Y-28272200D02*
X87617857Y-28176961D01*
X87617857Y-28176961D02*
X87617857Y-27653152D01*
X33710714Y-41063152D02*
X33710714Y-41729819D01*
X33472619Y-40682200D02*
X33234524Y-41396485D01*
X33234524Y-41396485D02*
X33853571Y-41396485D01*
X34139286Y-40729819D02*
X34805952Y-40729819D01*
X34805952Y-40729819D02*
X34377381Y-41729819D01*
X35377381Y-40729819D02*
X35472619Y-40729819D01*
X35472619Y-40729819D02*
X35567857Y-40777438D01*
X35567857Y-40777438D02*
X35615476Y-40825057D01*
X35615476Y-40825057D02*
X35663095Y-40920295D01*
X35663095Y-40920295D02*
X35710714Y-41110771D01*
X35710714Y-41110771D02*
X35710714Y-41348866D01*
X35710714Y-41348866D02*
X35663095Y-41539342D01*
X35663095Y-41539342D02*
X35615476Y-41634580D01*
X35615476Y-41634580D02*
X35567857Y-41682200D01*
X35567857Y-41682200D02*
X35472619Y-41729819D01*
X35472619Y-41729819D02*
X35377381Y-41729819D01*
X35377381Y-41729819D02*
X35282143Y-41682200D01*
X35282143Y-41682200D02*
X35234524Y-41634580D01*
X35234524Y-41634580D02*
X35186905Y-41539342D01*
X35186905Y-41539342D02*
X35139286Y-41348866D01*
X35139286Y-41348866D02*
X35139286Y-41110771D01*
X35139286Y-41110771D02*
X35186905Y-40920295D01*
X35186905Y-40920295D02*
X35234524Y-40825057D01*
X35234524Y-40825057D02*
X35282143Y-40777438D01*
X35282143Y-40777438D02*
X35377381Y-40729819D01*
X36139286Y-41063152D02*
X36139286Y-41729819D01*
X36139286Y-41158390D02*
X36186905Y-41110771D01*
X36186905Y-41110771D02*
X36282143Y-41063152D01*
X36282143Y-41063152D02*
X36425000Y-41063152D01*
X36425000Y-41063152D02*
X36520238Y-41110771D01*
X36520238Y-41110771D02*
X36567857Y-41206009D01*
X36567857Y-41206009D02*
X36567857Y-41729819D01*
X36179286Y-33840057D02*
X36226905Y-33792438D01*
X36226905Y-33792438D02*
X36322143Y-33744819D01*
X36322143Y-33744819D02*
X36560238Y-33744819D01*
X36560238Y-33744819D02*
X36655476Y-33792438D01*
X36655476Y-33792438D02*
X36703095Y-33840057D01*
X36703095Y-33840057D02*
X36750714Y-33935295D01*
X36750714Y-33935295D02*
X36750714Y-34030533D01*
X36750714Y-34030533D02*
X36703095Y-34173390D01*
X36703095Y-34173390D02*
X36131667Y-34744819D01*
X36131667Y-34744819D02*
X36750714Y-34744819D01*
X37179286Y-34078152D02*
X37179286Y-35078152D01*
X37655476Y-34601961D02*
X37703095Y-34697200D01*
X37703095Y-34697200D02*
X37798333Y-34744819D01*
X37179286Y-34601961D02*
X37226905Y-34697200D01*
X37226905Y-34697200D02*
X37322143Y-34744819D01*
X37322143Y-34744819D02*
X37512619Y-34744819D01*
X37512619Y-34744819D02*
X37607857Y-34697200D01*
X37607857Y-34697200D02*
X37655476Y-34601961D01*
X37655476Y-34601961D02*
X37655476Y-34078152D01*
X38179286Y-33840057D02*
X38226905Y-33792438D01*
X38226905Y-33792438D02*
X38322143Y-33744819D01*
X38322143Y-33744819D02*
X38560238Y-33744819D01*
X38560238Y-33744819D02*
X38655476Y-33792438D01*
X38655476Y-33792438D02*
X38703095Y-33840057D01*
X38703095Y-33840057D02*
X38750714Y-33935295D01*
X38750714Y-33935295D02*
X38750714Y-34030533D01*
X38750714Y-34030533D02*
X38703095Y-34173390D01*
X38703095Y-34173390D02*
X38131667Y-34744819D01*
X38131667Y-34744819D02*
X38750714Y-34744819D01*
X30536752Y-58317095D02*
X30498657Y-58459952D01*
X30498657Y-58459952D02*
X30460561Y-58507571D01*
X30460561Y-58507571D02*
X30384371Y-58555190D01*
X30384371Y-58555190D02*
X30270085Y-58555190D01*
X30270085Y-58555190D02*
X30193895Y-58507571D01*
X30193895Y-58507571D02*
X30155800Y-58459952D01*
X30155800Y-58459952D02*
X30117704Y-58364714D01*
X30117704Y-58364714D02*
X30117704Y-57983762D01*
X30117704Y-57983762D02*
X30917704Y-57983762D01*
X30917704Y-57983762D02*
X30917704Y-58317095D01*
X30917704Y-58317095D02*
X30879609Y-58412333D01*
X30879609Y-58412333D02*
X30841514Y-58459952D01*
X30841514Y-58459952D02*
X30765323Y-58507571D01*
X30765323Y-58507571D02*
X30689133Y-58507571D01*
X30689133Y-58507571D02*
X30612942Y-58459952D01*
X30612942Y-58459952D02*
X30574847Y-58412333D01*
X30574847Y-58412333D02*
X30536752Y-58317095D01*
X30536752Y-58317095D02*
X30536752Y-57983762D01*
X30917704Y-58983762D02*
X30270085Y-58983762D01*
X30270085Y-58983762D02*
X30193895Y-59031381D01*
X30193895Y-59031381D02*
X30155800Y-59079000D01*
X30155800Y-59079000D02*
X30117704Y-59174238D01*
X30117704Y-59174238D02*
X30117704Y-59364714D01*
X30117704Y-59364714D02*
X30155800Y-59459952D01*
X30155800Y-59459952D02*
X30193895Y-59507571D01*
X30193895Y-59507571D02*
X30270085Y-59555190D01*
X30270085Y-59555190D02*
X30917704Y-59555190D01*
X30536752Y-60364714D02*
X30536752Y-60031381D01*
X30117704Y-60031381D02*
X30917704Y-60031381D01*
X30917704Y-60031381D02*
X30917704Y-60507571D01*
X30536752Y-61221857D02*
X30536752Y-60888524D01*
X30117704Y-60888524D02*
X30917704Y-60888524D01*
X30917704Y-60888524D02*
X30917704Y-61364714D01*
X30536752Y-61745667D02*
X30536752Y-62079000D01*
X30117704Y-62221857D02*
X30117704Y-61745667D01*
X30117704Y-61745667D02*
X30917704Y-61745667D01*
X30917704Y-61745667D02*
X30917704Y-62221857D01*
X30117704Y-63221857D02*
X30498657Y-62888524D01*
X30117704Y-62650429D02*
X30917704Y-62650429D01*
X30917704Y-62650429D02*
X30917704Y-63031381D01*
X30917704Y-63031381D02*
X30879609Y-63126619D01*
X30879609Y-63126619D02*
X30841514Y-63174238D01*
X30841514Y-63174238D02*
X30765323Y-63221857D01*
X30765323Y-63221857D02*
X30651038Y-63221857D01*
X30651038Y-63221857D02*
X30574847Y-63174238D01*
X30574847Y-63174238D02*
X30536752Y-63126619D01*
X30536752Y-63126619D02*
X30498657Y-63031381D01*
X30498657Y-63031381D02*
X30498657Y-62650429D01*
X67540476Y-64878295D02*
X67540476Y-64078295D01*
X67540476Y-64078295D02*
X67921428Y-64078295D01*
X67921428Y-64078295D02*
X68016666Y-64116390D01*
X68016666Y-64116390D02*
X68064285Y-64154485D01*
X68064285Y-64154485D02*
X68111904Y-64230676D01*
X68111904Y-64230676D02*
X68111904Y-64344961D01*
X68111904Y-64344961D02*
X68064285Y-64421152D01*
X68064285Y-64421152D02*
X68016666Y-64459247D01*
X68016666Y-64459247D02*
X67921428Y-64497342D01*
X67921428Y-64497342D02*
X67540476Y-64497342D01*
X68730952Y-64078295D02*
X68921428Y-64078295D01*
X68921428Y-64078295D02*
X69016666Y-64116390D01*
X69016666Y-64116390D02*
X69111904Y-64192580D01*
X69111904Y-64192580D02*
X69159523Y-64344961D01*
X69159523Y-64344961D02*
X69159523Y-64611628D01*
X69159523Y-64611628D02*
X69111904Y-64764009D01*
X69111904Y-64764009D02*
X69016666Y-64840200D01*
X69016666Y-64840200D02*
X68921428Y-64878295D01*
X68921428Y-64878295D02*
X68730952Y-64878295D01*
X68730952Y-64878295D02*
X68635714Y-64840200D01*
X68635714Y-64840200D02*
X68540476Y-64764009D01*
X68540476Y-64764009D02*
X68492857Y-64611628D01*
X68492857Y-64611628D02*
X68492857Y-64344961D01*
X68492857Y-64344961D02*
X68540476Y-64192580D01*
X68540476Y-64192580D02*
X68635714Y-64116390D01*
X68635714Y-64116390D02*
X68730952Y-64078295D01*
X69492857Y-64078295D02*
X69730952Y-64878295D01*
X69730952Y-64878295D02*
X69921428Y-64306866D01*
X69921428Y-64306866D02*
X70111904Y-64878295D01*
X70111904Y-64878295D02*
X70350000Y-64078295D01*
X70730952Y-64459247D02*
X71064285Y-64459247D01*
X71207142Y-64878295D02*
X70730952Y-64878295D01*
X70730952Y-64878295D02*
X70730952Y-64078295D01*
X70730952Y-64078295D02*
X71207142Y-64078295D01*
X72207142Y-64878295D02*
X71873809Y-64497342D01*
X71635714Y-64878295D02*
X71635714Y-64078295D01*
X71635714Y-64078295D02*
X72016666Y-64078295D01*
X72016666Y-64078295D02*
X72111904Y-64116390D01*
X72111904Y-64116390D02*
X72159523Y-64154485D01*
X72159523Y-64154485D02*
X72207142Y-64230676D01*
X72207142Y-64230676D02*
X72207142Y-64344961D01*
X72207142Y-64344961D02*
X72159523Y-64421152D01*
X72159523Y-64421152D02*
X72111904Y-64459247D01*
X72111904Y-64459247D02*
X72016666Y-64497342D01*
X72016666Y-64497342D02*
X71635714Y-64497342D01*
X85304762Y-66872200D02*
X85447619Y-66919819D01*
X85447619Y-66919819D02*
X85685714Y-66919819D01*
X85685714Y-66919819D02*
X85780952Y-66872200D01*
X85780952Y-66872200D02*
X85828571Y-66824580D01*
X85828571Y-66824580D02*
X85876190Y-66729342D01*
X85876190Y-66729342D02*
X85876190Y-66634104D01*
X85876190Y-66634104D02*
X85828571Y-66538866D01*
X85828571Y-66538866D02*
X85780952Y-66491247D01*
X85780952Y-66491247D02*
X85685714Y-66443628D01*
X85685714Y-66443628D02*
X85495238Y-66396009D01*
X85495238Y-66396009D02*
X85400000Y-66348390D01*
X85400000Y-66348390D02*
X85352381Y-66300771D01*
X85352381Y-66300771D02*
X85304762Y-66205533D01*
X85304762Y-66205533D02*
X85304762Y-66110295D01*
X85304762Y-66110295D02*
X85352381Y-66015057D01*
X85352381Y-66015057D02*
X85400000Y-65967438D01*
X85400000Y-65967438D02*
X85495238Y-65919819D01*
X85495238Y-65919819D02*
X85733333Y-65919819D01*
X85733333Y-65919819D02*
X85876190Y-65967438D01*
X86304762Y-66919819D02*
X86304762Y-65919819D01*
X86304762Y-65919819D02*
X86685714Y-65919819D01*
X86685714Y-65919819D02*
X86780952Y-65967438D01*
X86780952Y-65967438D02*
X86828571Y-66015057D01*
X86828571Y-66015057D02*
X86876190Y-66110295D01*
X86876190Y-66110295D02*
X86876190Y-66253152D01*
X86876190Y-66253152D02*
X86828571Y-66348390D01*
X86828571Y-66348390D02*
X86780952Y-66396009D01*
X86780952Y-66396009D02*
X86685714Y-66443628D01*
X86685714Y-66443628D02*
X86304762Y-66443628D01*
X87304762Y-66396009D02*
X87638095Y-66396009D01*
X87780952Y-66919819D02*
X87304762Y-66919819D01*
X87304762Y-66919819D02*
X87304762Y-65919819D01*
X87304762Y-65919819D02*
X87780952Y-65919819D01*
X88161905Y-66634104D02*
X88638095Y-66634104D01*
X88066667Y-66919819D02*
X88400000Y-65919819D01*
X88400000Y-65919819D02*
X88733333Y-66919819D01*
X89066667Y-66919819D02*
X89066667Y-65919819D01*
X89638095Y-66919819D02*
X89209524Y-66348390D01*
X89638095Y-65919819D02*
X89066667Y-66491247D01*
X90066667Y-66396009D02*
X90400000Y-66396009D01*
X90542857Y-66919819D02*
X90066667Y-66919819D01*
X90066667Y-66919819D02*
X90066667Y-65919819D01*
X90066667Y-65919819D02*
X90542857Y-65919819D01*
X91542857Y-66919819D02*
X91209524Y-66443628D01*
X90971429Y-66919819D02*
X90971429Y-65919819D01*
X90971429Y-65919819D02*
X91352381Y-65919819D01*
X91352381Y-65919819D02*
X91447619Y-65967438D01*
X91447619Y-65967438D02*
X91495238Y-66015057D01*
X91495238Y-66015057D02*
X91542857Y-66110295D01*
X91542857Y-66110295D02*
X91542857Y-66253152D01*
X91542857Y-66253152D02*
X91495238Y-66348390D01*
X91495238Y-66348390D02*
X91447619Y-66396009D01*
X91447619Y-66396009D02*
X91352381Y-66443628D01*
X91352381Y-66443628D02*
X90971429Y-66443628D01*
X91923810Y-66872200D02*
X92066667Y-66919819D01*
X92066667Y-66919819D02*
X92304762Y-66919819D01*
X92304762Y-66919819D02*
X92400000Y-66872200D01*
X92400000Y-66872200D02*
X92447619Y-66824580D01*
X92447619Y-66824580D02*
X92495238Y-66729342D01*
X92495238Y-66729342D02*
X92495238Y-66634104D01*
X92495238Y-66634104D02*
X92447619Y-66538866D01*
X92447619Y-66538866D02*
X92400000Y-66491247D01*
X92400000Y-66491247D02*
X92304762Y-66443628D01*
X92304762Y-66443628D02*
X92114286Y-66396009D01*
X92114286Y-66396009D02*
X92019048Y-66348390D01*
X92019048Y-66348390D02*
X91971429Y-66300771D01*
X91971429Y-66300771D02*
X91923810Y-66205533D01*
X91923810Y-66205533D02*
X91923810Y-66110295D01*
X91923810Y-66110295D02*
X91971429Y-66015057D01*
X91971429Y-66015057D02*
X92019048Y-65967438D01*
X92019048Y-65967438D02*
X92114286Y-65919819D01*
X92114286Y-65919819D02*
X92352381Y-65919819D01*
X92352381Y-65919819D02*
X92495238Y-65967438D01*
X51673333Y-59509819D02*
X51101905Y-59509819D01*
X51387619Y-59509819D02*
X51387619Y-58509819D01*
X51387619Y-58509819D02*
X51292381Y-58652676D01*
X51292381Y-58652676D02*
X51197143Y-58747914D01*
X51197143Y-58747914D02*
X51101905Y-58795533D01*
X52292381Y-58509819D02*
X52387619Y-58509819D01*
X52387619Y-58509819D02*
X52482857Y-58557438D01*
X52482857Y-58557438D02*
X52530476Y-58605057D01*
X52530476Y-58605057D02*
X52578095Y-58700295D01*
X52578095Y-58700295D02*
X52625714Y-58890771D01*
X52625714Y-58890771D02*
X52625714Y-59128866D01*
X52625714Y-59128866D02*
X52578095Y-59319342D01*
X52578095Y-59319342D02*
X52530476Y-59414580D01*
X52530476Y-59414580D02*
X52482857Y-59462200D01*
X52482857Y-59462200D02*
X52387619Y-59509819D01*
X52387619Y-59509819D02*
X52292381Y-59509819D01*
X52292381Y-59509819D02*
X52197143Y-59462200D01*
X52197143Y-59462200D02*
X52149524Y-59414580D01*
X52149524Y-59414580D02*
X52101905Y-59319342D01*
X52101905Y-59319342D02*
X52054286Y-59128866D01*
X52054286Y-59128866D02*
X52054286Y-58890771D01*
X52054286Y-58890771D02*
X52101905Y-58700295D01*
X52101905Y-58700295D02*
X52149524Y-58605057D01*
X52149524Y-58605057D02*
X52197143Y-58557438D01*
X52197143Y-58557438D02*
X52292381Y-58509819D01*
X53244762Y-58509819D02*
X53340000Y-58509819D01*
X53340000Y-58509819D02*
X53435238Y-58557438D01*
X53435238Y-58557438D02*
X53482857Y-58605057D01*
X53482857Y-58605057D02*
X53530476Y-58700295D01*
X53530476Y-58700295D02*
X53578095Y-58890771D01*
X53578095Y-58890771D02*
X53578095Y-59128866D01*
X53578095Y-59128866D02*
X53530476Y-59319342D01*
X53530476Y-59319342D02*
X53482857Y-59414580D01*
X53482857Y-59414580D02*
X53435238Y-59462200D01*
X53435238Y-59462200D02*
X53340000Y-59509819D01*
X53340000Y-59509819D02*
X53244762Y-59509819D01*
X53244762Y-59509819D02*
X53149524Y-59462200D01*
X53149524Y-59462200D02*
X53101905Y-59414580D01*
X53101905Y-59414580D02*
X53054286Y-59319342D01*
X53054286Y-59319342D02*
X53006667Y-59128866D01*
X53006667Y-59128866D02*
X53006667Y-58890771D01*
X53006667Y-58890771D02*
X53054286Y-58700295D01*
X53054286Y-58700295D02*
X53101905Y-58605057D01*
X53101905Y-58605057D02*
X53149524Y-58557438D01*
X53149524Y-58557438D02*
X53244762Y-58509819D01*
X54197143Y-58509819D02*
X54292381Y-58509819D01*
X54292381Y-58509819D02*
X54387619Y-58557438D01*
X54387619Y-58557438D02*
X54435238Y-58605057D01*
X54435238Y-58605057D02*
X54482857Y-58700295D01*
X54482857Y-58700295D02*
X54530476Y-58890771D01*
X54530476Y-58890771D02*
X54530476Y-59128866D01*
X54530476Y-59128866D02*
X54482857Y-59319342D01*
X54482857Y-59319342D02*
X54435238Y-59414580D01*
X54435238Y-59414580D02*
X54387619Y-59462200D01*
X54387619Y-59462200D02*
X54292381Y-59509819D01*
X54292381Y-59509819D02*
X54197143Y-59509819D01*
X54197143Y-59509819D02*
X54101905Y-59462200D01*
X54101905Y-59462200D02*
X54054286Y-59414580D01*
X54054286Y-59414580D02*
X54006667Y-59319342D01*
X54006667Y-59319342D02*
X53959048Y-59128866D01*
X53959048Y-59128866D02*
X53959048Y-58890771D01*
X53959048Y-58890771D02*
X54006667Y-58700295D01*
X54006667Y-58700295D02*
X54054286Y-58605057D01*
X54054286Y-58605057D02*
X54101905Y-58557438D01*
X54101905Y-58557438D02*
X54197143Y-58509819D01*
X54959048Y-58843152D02*
X54959048Y-59843152D01*
X55435238Y-59366961D02*
X55482857Y-59462200D01*
X55482857Y-59462200D02*
X55578095Y-59509819D01*
X54959048Y-59366961D02*
X55006667Y-59462200D01*
X55006667Y-59462200D02*
X55101905Y-59509819D01*
X55101905Y-59509819D02*
X55292381Y-59509819D01*
X55292381Y-59509819D02*
X55387619Y-59462200D01*
X55387619Y-59462200D02*
X55435238Y-59366961D01*
X55435238Y-59366961D02*
X55435238Y-58843152D01*
X83058095Y-50985057D02*
X83105714Y-50937438D01*
X83105714Y-50937438D02*
X83200952Y-50889819D01*
X83200952Y-50889819D02*
X83439047Y-50889819D01*
X83439047Y-50889819D02*
X83534285Y-50937438D01*
X83534285Y-50937438D02*
X83581904Y-50985057D01*
X83581904Y-50985057D02*
X83629523Y-51080295D01*
X83629523Y-51080295D02*
X83629523Y-51175533D01*
X83629523Y-51175533D02*
X83581904Y-51318390D01*
X83581904Y-51318390D02*
X83010476Y-51889819D01*
X83010476Y-51889819D02*
X83629523Y-51889819D01*
X84010476Y-50985057D02*
X84058095Y-50937438D01*
X84058095Y-50937438D02*
X84153333Y-50889819D01*
X84153333Y-50889819D02*
X84391428Y-50889819D01*
X84391428Y-50889819D02*
X84486666Y-50937438D01*
X84486666Y-50937438D02*
X84534285Y-50985057D01*
X84534285Y-50985057D02*
X84581904Y-51080295D01*
X84581904Y-51080295D02*
X84581904Y-51175533D01*
X84581904Y-51175533D02*
X84534285Y-51318390D01*
X84534285Y-51318390D02*
X83962857Y-51889819D01*
X83962857Y-51889819D02*
X84581904Y-51889819D01*
X35726905Y-51620057D02*
X35774524Y-51572438D01*
X35774524Y-51572438D02*
X35869762Y-51524819D01*
X35869762Y-51524819D02*
X36107857Y-51524819D01*
X36107857Y-51524819D02*
X36203095Y-51572438D01*
X36203095Y-51572438D02*
X36250714Y-51620057D01*
X36250714Y-51620057D02*
X36298333Y-51715295D01*
X36298333Y-51715295D02*
X36298333Y-51810533D01*
X36298333Y-51810533D02*
X36250714Y-51953390D01*
X36250714Y-51953390D02*
X35679286Y-52524819D01*
X35679286Y-52524819D02*
X36298333Y-52524819D01*
X36631667Y-51524819D02*
X37298333Y-51524819D01*
X37298333Y-51524819D02*
X36869762Y-52524819D01*
X37869762Y-51524819D02*
X37965000Y-51524819D01*
X37965000Y-51524819D02*
X38060238Y-51572438D01*
X38060238Y-51572438D02*
X38107857Y-51620057D01*
X38107857Y-51620057D02*
X38155476Y-51715295D01*
X38155476Y-51715295D02*
X38203095Y-51905771D01*
X38203095Y-51905771D02*
X38203095Y-52143866D01*
X38203095Y-52143866D02*
X38155476Y-52334342D01*
X38155476Y-52334342D02*
X38107857Y-52429580D01*
X38107857Y-52429580D02*
X38060238Y-52477200D01*
X38060238Y-52477200D02*
X37965000Y-52524819D01*
X37965000Y-52524819D02*
X37869762Y-52524819D01*
X37869762Y-52524819D02*
X37774524Y-52477200D01*
X37774524Y-52477200D02*
X37726905Y-52429580D01*
X37726905Y-52429580D02*
X37679286Y-52334342D01*
X37679286Y-52334342D02*
X37631667Y-52143866D01*
X37631667Y-52143866D02*
X37631667Y-51905771D01*
X37631667Y-51905771D02*
X37679286Y-51715295D01*
X37679286Y-51715295D02*
X37726905Y-51620057D01*
X37726905Y-51620057D02*
X37774524Y-51572438D01*
X37774524Y-51572438D02*
X37869762Y-51524819D01*
X38631667Y-52524819D02*
X38631667Y-51524819D01*
X39203095Y-52524819D02*
X38774524Y-51953390D01*
X39203095Y-51524819D02*
X38631667Y-52096247D01*
X84693333Y-59509819D02*
X84121905Y-59509819D01*
X84407619Y-59509819D02*
X84407619Y-58509819D01*
X84407619Y-58509819D02*
X84312381Y-58652676D01*
X84312381Y-58652676D02*
X84217143Y-58747914D01*
X84217143Y-58747914D02*
X84121905Y-58795533D01*
X85312381Y-58509819D02*
X85407619Y-58509819D01*
X85407619Y-58509819D02*
X85502857Y-58557438D01*
X85502857Y-58557438D02*
X85550476Y-58605057D01*
X85550476Y-58605057D02*
X85598095Y-58700295D01*
X85598095Y-58700295D02*
X85645714Y-58890771D01*
X85645714Y-58890771D02*
X85645714Y-59128866D01*
X85645714Y-59128866D02*
X85598095Y-59319342D01*
X85598095Y-59319342D02*
X85550476Y-59414580D01*
X85550476Y-59414580D02*
X85502857Y-59462200D01*
X85502857Y-59462200D02*
X85407619Y-59509819D01*
X85407619Y-59509819D02*
X85312381Y-59509819D01*
X85312381Y-59509819D02*
X85217143Y-59462200D01*
X85217143Y-59462200D02*
X85169524Y-59414580D01*
X85169524Y-59414580D02*
X85121905Y-59319342D01*
X85121905Y-59319342D02*
X85074286Y-59128866D01*
X85074286Y-59128866D02*
X85074286Y-58890771D01*
X85074286Y-58890771D02*
X85121905Y-58700295D01*
X85121905Y-58700295D02*
X85169524Y-58605057D01*
X85169524Y-58605057D02*
X85217143Y-58557438D01*
X85217143Y-58557438D02*
X85312381Y-58509819D01*
X86264762Y-58509819D02*
X86360000Y-58509819D01*
X86360000Y-58509819D02*
X86455238Y-58557438D01*
X86455238Y-58557438D02*
X86502857Y-58605057D01*
X86502857Y-58605057D02*
X86550476Y-58700295D01*
X86550476Y-58700295D02*
X86598095Y-58890771D01*
X86598095Y-58890771D02*
X86598095Y-59128866D01*
X86598095Y-59128866D02*
X86550476Y-59319342D01*
X86550476Y-59319342D02*
X86502857Y-59414580D01*
X86502857Y-59414580D02*
X86455238Y-59462200D01*
X86455238Y-59462200D02*
X86360000Y-59509819D01*
X86360000Y-59509819D02*
X86264762Y-59509819D01*
X86264762Y-59509819D02*
X86169524Y-59462200D01*
X86169524Y-59462200D02*
X86121905Y-59414580D01*
X86121905Y-59414580D02*
X86074286Y-59319342D01*
X86074286Y-59319342D02*
X86026667Y-59128866D01*
X86026667Y-59128866D02*
X86026667Y-58890771D01*
X86026667Y-58890771D02*
X86074286Y-58700295D01*
X86074286Y-58700295D02*
X86121905Y-58605057D01*
X86121905Y-58605057D02*
X86169524Y-58557438D01*
X86169524Y-58557438D02*
X86264762Y-58509819D01*
X87217143Y-58509819D02*
X87312381Y-58509819D01*
X87312381Y-58509819D02*
X87407619Y-58557438D01*
X87407619Y-58557438D02*
X87455238Y-58605057D01*
X87455238Y-58605057D02*
X87502857Y-58700295D01*
X87502857Y-58700295D02*
X87550476Y-58890771D01*
X87550476Y-58890771D02*
X87550476Y-59128866D01*
X87550476Y-59128866D02*
X87502857Y-59319342D01*
X87502857Y-59319342D02*
X87455238Y-59414580D01*
X87455238Y-59414580D02*
X87407619Y-59462200D01*
X87407619Y-59462200D02*
X87312381Y-59509819D01*
X87312381Y-59509819D02*
X87217143Y-59509819D01*
X87217143Y-59509819D02*
X87121905Y-59462200D01*
X87121905Y-59462200D02*
X87074286Y-59414580D01*
X87074286Y-59414580D02*
X87026667Y-59319342D01*
X87026667Y-59319342D02*
X86979048Y-59128866D01*
X86979048Y-59128866D02*
X86979048Y-58890771D01*
X86979048Y-58890771D02*
X87026667Y-58700295D01*
X87026667Y-58700295D02*
X87074286Y-58605057D01*
X87074286Y-58605057D02*
X87121905Y-58557438D01*
X87121905Y-58557438D02*
X87217143Y-58509819D01*
X87979048Y-58843152D02*
X87979048Y-59843152D01*
X88455238Y-59366961D02*
X88502857Y-59462200D01*
X88502857Y-59462200D02*
X88598095Y-59509819D01*
X87979048Y-59366961D02*
X88026667Y-59462200D01*
X88026667Y-59462200D02*
X88121905Y-59509819D01*
X88121905Y-59509819D02*
X88312381Y-59509819D01*
X88312381Y-59509819D02*
X88407619Y-59462200D01*
X88407619Y-59462200D02*
X88455238Y-59366961D01*
X88455238Y-59366961D02*
X88455238Y-58843152D01*
X37314285Y-27394819D02*
X37123809Y-27394819D01*
X37123809Y-27394819D02*
X37028571Y-27442438D01*
X37028571Y-27442438D02*
X36980952Y-27490057D01*
X36980952Y-27490057D02*
X36885714Y-27632914D01*
X36885714Y-27632914D02*
X36838095Y-27823390D01*
X36838095Y-27823390D02*
X36838095Y-28204342D01*
X36838095Y-28204342D02*
X36885714Y-28299580D01*
X36885714Y-28299580D02*
X36933333Y-28347200D01*
X36933333Y-28347200D02*
X37028571Y-28394819D01*
X37028571Y-28394819D02*
X37219047Y-28394819D01*
X37219047Y-28394819D02*
X37314285Y-28347200D01*
X37314285Y-28347200D02*
X37361904Y-28299580D01*
X37361904Y-28299580D02*
X37409523Y-28204342D01*
X37409523Y-28204342D02*
X37409523Y-27966247D01*
X37409523Y-27966247D02*
X37361904Y-27871009D01*
X37361904Y-27871009D02*
X37314285Y-27823390D01*
X37314285Y-27823390D02*
X37219047Y-27775771D01*
X37219047Y-27775771D02*
X37028571Y-27775771D01*
X37028571Y-27775771D02*
X36933333Y-27823390D01*
X36933333Y-27823390D02*
X36885714Y-27871009D01*
X36885714Y-27871009D02*
X36838095Y-27966247D01*
X37838095Y-28394819D02*
X37838095Y-27394819D01*
X38409523Y-28394819D02*
X37980952Y-27823390D01*
X38409523Y-27394819D02*
X37838095Y-27966247D01*
X38980952Y-27823390D02*
X38885714Y-27775771D01*
X38885714Y-27775771D02*
X38838095Y-27728152D01*
X38838095Y-27728152D02*
X38790476Y-27632914D01*
X38790476Y-27632914D02*
X38790476Y-27585295D01*
X38790476Y-27585295D02*
X38838095Y-27490057D01*
X38838095Y-27490057D02*
X38885714Y-27442438D01*
X38885714Y-27442438D02*
X38980952Y-27394819D01*
X38980952Y-27394819D02*
X39171428Y-27394819D01*
X39171428Y-27394819D02*
X39266666Y-27442438D01*
X39266666Y-27442438D02*
X39314285Y-27490057D01*
X39314285Y-27490057D02*
X39361904Y-27585295D01*
X39361904Y-27585295D02*
X39361904Y-27632914D01*
X39361904Y-27632914D02*
X39314285Y-27728152D01*
X39314285Y-27728152D02*
X39266666Y-27775771D01*
X39266666Y-27775771D02*
X39171428Y-27823390D01*
X39171428Y-27823390D02*
X38980952Y-27823390D01*
X38980952Y-27823390D02*
X38885714Y-27871009D01*
X38885714Y-27871009D02*
X38838095Y-27918628D01*
X38838095Y-27918628D02*
X38790476Y-28013866D01*
X38790476Y-28013866D02*
X38790476Y-28204342D01*
X38790476Y-28204342D02*
X38838095Y-28299580D01*
X38838095Y-28299580D02*
X38885714Y-28347200D01*
X38885714Y-28347200D02*
X38980952Y-28394819D01*
X38980952Y-28394819D02*
X39171428Y-28394819D01*
X39171428Y-28394819D02*
X39266666Y-28347200D01*
X39266666Y-28347200D02*
X39314285Y-28299580D01*
X39314285Y-28299580D02*
X39361904Y-28204342D01*
X39361904Y-28204342D02*
X39361904Y-28013866D01*
X39361904Y-28013866D02*
X39314285Y-27918628D01*
X39314285Y-27918628D02*
X39266666Y-27871009D01*
X39266666Y-27871009D02*
X39171428Y-27823390D01*
X67611905Y-52255057D02*
X67659524Y-52207438D01*
X67659524Y-52207438D02*
X67754762Y-52159819D01*
X67754762Y-52159819D02*
X67992857Y-52159819D01*
X67992857Y-52159819D02*
X68088095Y-52207438D01*
X68088095Y-52207438D02*
X68135714Y-52255057D01*
X68135714Y-52255057D02*
X68183333Y-52350295D01*
X68183333Y-52350295D02*
X68183333Y-52445533D01*
X68183333Y-52445533D02*
X68135714Y-52588390D01*
X68135714Y-52588390D02*
X67564286Y-53159819D01*
X67564286Y-53159819D02*
X68183333Y-53159819D01*
X68564286Y-52255057D02*
X68611905Y-52207438D01*
X68611905Y-52207438D02*
X68707143Y-52159819D01*
X68707143Y-52159819D02*
X68945238Y-52159819D01*
X68945238Y-52159819D02*
X69040476Y-52207438D01*
X69040476Y-52207438D02*
X69088095Y-52255057D01*
X69088095Y-52255057D02*
X69135714Y-52350295D01*
X69135714Y-52350295D02*
X69135714Y-52445533D01*
X69135714Y-52445533D02*
X69088095Y-52588390D01*
X69088095Y-52588390D02*
X68516667Y-53159819D01*
X68516667Y-53159819D02*
X69135714Y-53159819D01*
X69754762Y-52159819D02*
X69850000Y-52159819D01*
X69850000Y-52159819D02*
X69945238Y-52207438D01*
X69945238Y-52207438D02*
X69992857Y-52255057D01*
X69992857Y-52255057D02*
X70040476Y-52350295D01*
X70040476Y-52350295D02*
X70088095Y-52540771D01*
X70088095Y-52540771D02*
X70088095Y-52778866D01*
X70088095Y-52778866D02*
X70040476Y-52969342D01*
X70040476Y-52969342D02*
X69992857Y-53064580D01*
X69992857Y-53064580D02*
X69945238Y-53112200D01*
X69945238Y-53112200D02*
X69850000Y-53159819D01*
X69850000Y-53159819D02*
X69754762Y-53159819D01*
X69754762Y-53159819D02*
X69659524Y-53112200D01*
X69659524Y-53112200D02*
X69611905Y-53064580D01*
X69611905Y-53064580D02*
X69564286Y-52969342D01*
X69564286Y-52969342D02*
X69516667Y-52778866D01*
X69516667Y-52778866D02*
X69516667Y-52540771D01*
X69516667Y-52540771D02*
X69564286Y-52350295D01*
X69564286Y-52350295D02*
X69611905Y-52255057D01*
X69611905Y-52255057D02*
X69659524Y-52207438D01*
X69659524Y-52207438D02*
X69754762Y-52159819D01*
X70707143Y-52159819D02*
X70802381Y-52159819D01*
X70802381Y-52159819D02*
X70897619Y-52207438D01*
X70897619Y-52207438D02*
X70945238Y-52255057D01*
X70945238Y-52255057D02*
X70992857Y-52350295D01*
X70992857Y-52350295D02*
X71040476Y-52540771D01*
X71040476Y-52540771D02*
X71040476Y-52778866D01*
X71040476Y-52778866D02*
X70992857Y-52969342D01*
X70992857Y-52969342D02*
X70945238Y-53064580D01*
X70945238Y-53064580D02*
X70897619Y-53112200D01*
X70897619Y-53112200D02*
X70802381Y-53159819D01*
X70802381Y-53159819D02*
X70707143Y-53159819D01*
X70707143Y-53159819D02*
X70611905Y-53112200D01*
X70611905Y-53112200D02*
X70564286Y-53064580D01*
X70564286Y-53064580D02*
X70516667Y-52969342D01*
X70516667Y-52969342D02*
X70469048Y-52778866D01*
X70469048Y-52778866D02*
X70469048Y-52540771D01*
X70469048Y-52540771D02*
X70516667Y-52350295D01*
X70516667Y-52350295D02*
X70564286Y-52255057D01*
X70564286Y-52255057D02*
X70611905Y-52207438D01*
X70611905Y-52207438D02*
X70707143Y-52159819D01*
X71469048Y-52493152D02*
X71469048Y-53493152D01*
X71945238Y-53016961D02*
X71992857Y-53112200D01*
X71992857Y-53112200D02*
X72088095Y-53159819D01*
X71469048Y-53016961D02*
X71516667Y-53112200D01*
X71516667Y-53112200D02*
X71611905Y-53159819D01*
X71611905Y-53159819D02*
X71802381Y-53159819D01*
X71802381Y-53159819D02*
X71897619Y-53112200D01*
X71897619Y-53112200D02*
X71945238Y-53016961D01*
X71945238Y-53016961D02*
X71945238Y-52493152D01*
X67611904Y-34744819D02*
X67040476Y-34744819D01*
X67326190Y-34744819D02*
X67326190Y-33744819D01*
X67326190Y-33744819D02*
X67230952Y-33887676D01*
X67230952Y-33887676D02*
X67135714Y-33982914D01*
X67135714Y-33982914D02*
X67040476Y-34030533D01*
X68230952Y-33744819D02*
X68326190Y-33744819D01*
X68326190Y-33744819D02*
X68421428Y-33792438D01*
X68421428Y-33792438D02*
X68469047Y-33840057D01*
X68469047Y-33840057D02*
X68516666Y-33935295D01*
X68516666Y-33935295D02*
X68564285Y-34125771D01*
X68564285Y-34125771D02*
X68564285Y-34363866D01*
X68564285Y-34363866D02*
X68516666Y-34554342D01*
X68516666Y-34554342D02*
X68469047Y-34649580D01*
X68469047Y-34649580D02*
X68421428Y-34697200D01*
X68421428Y-34697200D02*
X68326190Y-34744819D01*
X68326190Y-34744819D02*
X68230952Y-34744819D01*
X68230952Y-34744819D02*
X68135714Y-34697200D01*
X68135714Y-34697200D02*
X68088095Y-34649580D01*
X68088095Y-34649580D02*
X68040476Y-34554342D01*
X68040476Y-34554342D02*
X67992857Y-34363866D01*
X67992857Y-34363866D02*
X67992857Y-34125771D01*
X67992857Y-34125771D02*
X68040476Y-33935295D01*
X68040476Y-33935295D02*
X68088095Y-33840057D01*
X68088095Y-33840057D02*
X68135714Y-33792438D01*
X68135714Y-33792438D02*
X68230952Y-33744819D01*
X68992857Y-34744819D02*
X68992857Y-33744819D01*
X69564285Y-34744819D02*
X69135714Y-34173390D01*
X69564285Y-33744819D02*
X68992857Y-34316247D01*
X70897619Y-34744819D02*
X70802381Y-34697200D01*
X70802381Y-34697200D02*
X70754762Y-34601961D01*
X70754762Y-34601961D02*
X70754762Y-33744819D01*
X71421429Y-34744819D02*
X71326191Y-34697200D01*
X71326191Y-34697200D02*
X71278572Y-34649580D01*
X71278572Y-34649580D02*
X71230953Y-34554342D01*
X71230953Y-34554342D02*
X71230953Y-34268628D01*
X71230953Y-34268628D02*
X71278572Y-34173390D01*
X71278572Y-34173390D02*
X71326191Y-34125771D01*
X71326191Y-34125771D02*
X71421429Y-34078152D01*
X71421429Y-34078152D02*
X71564286Y-34078152D01*
X71564286Y-34078152D02*
X71659524Y-34125771D01*
X71659524Y-34125771D02*
X71707143Y-34173390D01*
X71707143Y-34173390D02*
X71754762Y-34268628D01*
X71754762Y-34268628D02*
X71754762Y-34554342D01*
X71754762Y-34554342D02*
X71707143Y-34649580D01*
X71707143Y-34649580D02*
X71659524Y-34697200D01*
X71659524Y-34697200D02*
X71564286Y-34744819D01*
X71564286Y-34744819D02*
X71421429Y-34744819D01*
X72611905Y-34078152D02*
X72611905Y-34887676D01*
X72611905Y-34887676D02*
X72564286Y-34982914D01*
X72564286Y-34982914D02*
X72516667Y-35030533D01*
X72516667Y-35030533D02*
X72421429Y-35078152D01*
X72421429Y-35078152D02*
X72278572Y-35078152D01*
X72278572Y-35078152D02*
X72183334Y-35030533D01*
X72611905Y-34697200D02*
X72516667Y-34744819D01*
X72516667Y-34744819D02*
X72326191Y-34744819D01*
X72326191Y-34744819D02*
X72230953Y-34697200D01*
X72230953Y-34697200D02*
X72183334Y-34649580D01*
X72183334Y-34649580D02*
X72135715Y-34554342D01*
X72135715Y-34554342D02*
X72135715Y-34268628D01*
X72135715Y-34268628D02*
X72183334Y-34173390D01*
X72183334Y-34173390D02*
X72230953Y-34125771D01*
X72230953Y-34125771D02*
X72326191Y-34078152D01*
X72326191Y-34078152D02*
X72516667Y-34078152D01*
X72516667Y-34078152D02*
X72611905Y-34125771D01*
X36179286Y-54795057D02*
X36226905Y-54747438D01*
X36226905Y-54747438D02*
X36322143Y-54699819D01*
X36322143Y-54699819D02*
X36560238Y-54699819D01*
X36560238Y-54699819D02*
X36655476Y-54747438D01*
X36655476Y-54747438D02*
X36703095Y-54795057D01*
X36703095Y-54795057D02*
X36750714Y-54890295D01*
X36750714Y-54890295D02*
X36750714Y-54985533D01*
X36750714Y-54985533D02*
X36703095Y-55128390D01*
X36703095Y-55128390D02*
X36131667Y-55699819D01*
X36131667Y-55699819D02*
X36750714Y-55699819D01*
X37179286Y-55033152D02*
X37179286Y-56033152D01*
X37655476Y-55556961D02*
X37703095Y-55652200D01*
X37703095Y-55652200D02*
X37798333Y-55699819D01*
X37179286Y-55556961D02*
X37226905Y-55652200D01*
X37226905Y-55652200D02*
X37322143Y-55699819D01*
X37322143Y-55699819D02*
X37512619Y-55699819D01*
X37512619Y-55699819D02*
X37607857Y-55652200D01*
X37607857Y-55652200D02*
X37655476Y-55556961D01*
X37655476Y-55556961D02*
X37655476Y-55033152D01*
X38179286Y-54795057D02*
X38226905Y-54747438D01*
X38226905Y-54747438D02*
X38322143Y-54699819D01*
X38322143Y-54699819D02*
X38560238Y-54699819D01*
X38560238Y-54699819D02*
X38655476Y-54747438D01*
X38655476Y-54747438D02*
X38703095Y-54795057D01*
X38703095Y-54795057D02*
X38750714Y-54890295D01*
X38750714Y-54890295D02*
X38750714Y-54985533D01*
X38750714Y-54985533D02*
X38703095Y-55128390D01*
X38703095Y-55128390D02*
X38131667Y-55699819D01*
X38131667Y-55699819D02*
X38750714Y-55699819D01*
X52415476Y-27653152D02*
X52415476Y-28319819D01*
X52177381Y-27272200D02*
X51939286Y-27986485D01*
X51939286Y-27986485D02*
X52558333Y-27986485D01*
X52844048Y-27319819D02*
X53510714Y-27319819D01*
X53510714Y-27319819D02*
X53082143Y-28319819D01*
X53891667Y-27653152D02*
X53891667Y-28653152D01*
X54367857Y-28176961D02*
X54415476Y-28272200D01*
X54415476Y-28272200D02*
X54510714Y-28319819D01*
X53891667Y-28176961D02*
X53939286Y-28272200D01*
X53939286Y-28272200D02*
X54034524Y-28319819D01*
X54034524Y-28319819D02*
X54225000Y-28319819D01*
X54225000Y-28319819D02*
X54320238Y-28272200D01*
X54320238Y-28272200D02*
X54367857Y-28176961D01*
X54367857Y-28176961D02*
X54367857Y-27653152D01*
X36298333Y-65859819D02*
X35726905Y-65859819D01*
X36012619Y-65859819D02*
X36012619Y-64859819D01*
X36012619Y-64859819D02*
X35917381Y-65002676D01*
X35917381Y-65002676D02*
X35822143Y-65097914D01*
X35822143Y-65097914D02*
X35726905Y-65145533D01*
X36869762Y-65288390D02*
X36774524Y-65240771D01*
X36774524Y-65240771D02*
X36726905Y-65193152D01*
X36726905Y-65193152D02*
X36679286Y-65097914D01*
X36679286Y-65097914D02*
X36679286Y-65050295D01*
X36679286Y-65050295D02*
X36726905Y-64955057D01*
X36726905Y-64955057D02*
X36774524Y-64907438D01*
X36774524Y-64907438D02*
X36869762Y-64859819D01*
X36869762Y-64859819D02*
X37060238Y-64859819D01*
X37060238Y-64859819D02*
X37155476Y-64907438D01*
X37155476Y-64907438D02*
X37203095Y-64955057D01*
X37203095Y-64955057D02*
X37250714Y-65050295D01*
X37250714Y-65050295D02*
X37250714Y-65097914D01*
X37250714Y-65097914D02*
X37203095Y-65193152D01*
X37203095Y-65193152D02*
X37155476Y-65240771D01*
X37155476Y-65240771D02*
X37060238Y-65288390D01*
X37060238Y-65288390D02*
X36869762Y-65288390D01*
X36869762Y-65288390D02*
X36774524Y-65336009D01*
X36774524Y-65336009D02*
X36726905Y-65383628D01*
X36726905Y-65383628D02*
X36679286Y-65478866D01*
X36679286Y-65478866D02*
X36679286Y-65669342D01*
X36679286Y-65669342D02*
X36726905Y-65764580D01*
X36726905Y-65764580D02*
X36774524Y-65812200D01*
X36774524Y-65812200D02*
X36869762Y-65859819D01*
X36869762Y-65859819D02*
X37060238Y-65859819D01*
X37060238Y-65859819D02*
X37155476Y-65812200D01*
X37155476Y-65812200D02*
X37203095Y-65764580D01*
X37203095Y-65764580D02*
X37250714Y-65669342D01*
X37250714Y-65669342D02*
X37250714Y-65478866D01*
X37250714Y-65478866D02*
X37203095Y-65383628D01*
X37203095Y-65383628D02*
X37155476Y-65336009D01*
X37155476Y-65336009D02*
X37060238Y-65288390D01*
X37869762Y-64859819D02*
X37965000Y-64859819D01*
X37965000Y-64859819D02*
X38060238Y-64907438D01*
X38060238Y-64907438D02*
X38107857Y-64955057D01*
X38107857Y-64955057D02*
X38155476Y-65050295D01*
X38155476Y-65050295D02*
X38203095Y-65240771D01*
X38203095Y-65240771D02*
X38203095Y-65478866D01*
X38203095Y-65478866D02*
X38155476Y-65669342D01*
X38155476Y-65669342D02*
X38107857Y-65764580D01*
X38107857Y-65764580D02*
X38060238Y-65812200D01*
X38060238Y-65812200D02*
X37965000Y-65859819D01*
X37965000Y-65859819D02*
X37869762Y-65859819D01*
X37869762Y-65859819D02*
X37774524Y-65812200D01*
X37774524Y-65812200D02*
X37726905Y-65764580D01*
X37726905Y-65764580D02*
X37679286Y-65669342D01*
X37679286Y-65669342D02*
X37631667Y-65478866D01*
X37631667Y-65478866D02*
X37631667Y-65240771D01*
X37631667Y-65240771D02*
X37679286Y-65050295D01*
X37679286Y-65050295D02*
X37726905Y-64955057D01*
X37726905Y-64955057D02*
X37774524Y-64907438D01*
X37774524Y-64907438D02*
X37869762Y-64859819D01*
X38631667Y-65859819D02*
X38631667Y-64859819D01*
X39203095Y-65859819D02*
X38774524Y-65288390D01*
X39203095Y-64859819D02*
X38631667Y-65431247D01*
X36242857Y-38031009D02*
X36385714Y-38078628D01*
X36385714Y-38078628D02*
X36433333Y-38126247D01*
X36433333Y-38126247D02*
X36480952Y-38221485D01*
X36480952Y-38221485D02*
X36480952Y-38364342D01*
X36480952Y-38364342D02*
X36433333Y-38459580D01*
X36433333Y-38459580D02*
X36385714Y-38507200D01*
X36385714Y-38507200D02*
X36290476Y-38554819D01*
X36290476Y-38554819D02*
X35909524Y-38554819D01*
X35909524Y-38554819D02*
X35909524Y-37554819D01*
X35909524Y-37554819D02*
X36242857Y-37554819D01*
X36242857Y-37554819D02*
X36338095Y-37602438D01*
X36338095Y-37602438D02*
X36385714Y-37650057D01*
X36385714Y-37650057D02*
X36433333Y-37745295D01*
X36433333Y-37745295D02*
X36433333Y-37840533D01*
X36433333Y-37840533D02*
X36385714Y-37935771D01*
X36385714Y-37935771D02*
X36338095Y-37983390D01*
X36338095Y-37983390D02*
X36242857Y-38031009D01*
X36242857Y-38031009D02*
X35909524Y-38031009D01*
X37480952Y-38459580D02*
X37433333Y-38507200D01*
X37433333Y-38507200D02*
X37290476Y-38554819D01*
X37290476Y-38554819D02*
X37195238Y-38554819D01*
X37195238Y-38554819D02*
X37052381Y-38507200D01*
X37052381Y-38507200D02*
X36957143Y-38411961D01*
X36957143Y-38411961D02*
X36909524Y-38316723D01*
X36909524Y-38316723D02*
X36861905Y-38126247D01*
X36861905Y-38126247D02*
X36861905Y-37983390D01*
X36861905Y-37983390D02*
X36909524Y-37792914D01*
X36909524Y-37792914D02*
X36957143Y-37697676D01*
X36957143Y-37697676D02*
X37052381Y-37602438D01*
X37052381Y-37602438D02*
X37195238Y-37554819D01*
X37195238Y-37554819D02*
X37290476Y-37554819D01*
X37290476Y-37554819D02*
X37433333Y-37602438D01*
X37433333Y-37602438D02*
X37480952Y-37650057D01*
X38385714Y-37554819D02*
X37909524Y-37554819D01*
X37909524Y-37554819D02*
X37861905Y-38031009D01*
X37861905Y-38031009D02*
X37909524Y-37983390D01*
X37909524Y-37983390D02*
X38004762Y-37935771D01*
X38004762Y-37935771D02*
X38242857Y-37935771D01*
X38242857Y-37935771D02*
X38338095Y-37983390D01*
X38338095Y-37983390D02*
X38385714Y-38031009D01*
X38385714Y-38031009D02*
X38433333Y-38126247D01*
X38433333Y-38126247D02*
X38433333Y-38364342D01*
X38433333Y-38364342D02*
X38385714Y-38459580D01*
X38385714Y-38459580D02*
X38338095Y-38507200D01*
X38338095Y-38507200D02*
X38242857Y-38554819D01*
X38242857Y-38554819D02*
X38004762Y-38554819D01*
X38004762Y-38554819D02*
X37909524Y-38507200D01*
X37909524Y-38507200D02*
X37861905Y-38459580D01*
X39290476Y-37888152D02*
X39290476Y-38554819D01*
X39052381Y-37507200D02*
X38814286Y-38221485D01*
X38814286Y-38221485D02*
X39433333Y-38221485D01*
X39957143Y-37983390D02*
X39861905Y-37935771D01*
X39861905Y-37935771D02*
X39814286Y-37888152D01*
X39814286Y-37888152D02*
X39766667Y-37792914D01*
X39766667Y-37792914D02*
X39766667Y-37745295D01*
X39766667Y-37745295D02*
X39814286Y-37650057D01*
X39814286Y-37650057D02*
X39861905Y-37602438D01*
X39861905Y-37602438D02*
X39957143Y-37554819D01*
X39957143Y-37554819D02*
X40147619Y-37554819D01*
X40147619Y-37554819D02*
X40242857Y-37602438D01*
X40242857Y-37602438D02*
X40290476Y-37650057D01*
X40290476Y-37650057D02*
X40338095Y-37745295D01*
X40338095Y-37745295D02*
X40338095Y-37792914D01*
X40338095Y-37792914D02*
X40290476Y-37888152D01*
X40290476Y-37888152D02*
X40242857Y-37935771D01*
X40242857Y-37935771D02*
X40147619Y-37983390D01*
X40147619Y-37983390D02*
X39957143Y-37983390D01*
X39957143Y-37983390D02*
X39861905Y-38031009D01*
X39861905Y-38031009D02*
X39814286Y-38078628D01*
X39814286Y-38078628D02*
X39766667Y-38173866D01*
X39766667Y-38173866D02*
X39766667Y-38364342D01*
X39766667Y-38364342D02*
X39814286Y-38459580D01*
X39814286Y-38459580D02*
X39861905Y-38507200D01*
X39861905Y-38507200D02*
X39957143Y-38554819D01*
X39957143Y-38554819D02*
X40147619Y-38554819D01*
X40147619Y-38554819D02*
X40242857Y-38507200D01*
X40242857Y-38507200D02*
X40290476Y-38459580D01*
X40290476Y-38459580D02*
X40338095Y-38364342D01*
X40338095Y-38364342D02*
X40338095Y-38173866D01*
X40338095Y-38173866D02*
X40290476Y-38078628D01*
X40290476Y-38078628D02*
X40242857Y-38031009D01*
X40242857Y-38031009D02*
X40147619Y-37983390D01*
X55118095Y-50985057D02*
X55165714Y-50937438D01*
X55165714Y-50937438D02*
X55260952Y-50889819D01*
X55260952Y-50889819D02*
X55499047Y-50889819D01*
X55499047Y-50889819D02*
X55594285Y-50937438D01*
X55594285Y-50937438D02*
X55641904Y-50985057D01*
X55641904Y-50985057D02*
X55689523Y-51080295D01*
X55689523Y-51080295D02*
X55689523Y-51175533D01*
X55689523Y-51175533D02*
X55641904Y-51318390D01*
X55641904Y-51318390D02*
X55070476Y-51889819D01*
X55070476Y-51889819D02*
X55689523Y-51889819D01*
X56070476Y-50985057D02*
X56118095Y-50937438D01*
X56118095Y-50937438D02*
X56213333Y-50889819D01*
X56213333Y-50889819D02*
X56451428Y-50889819D01*
X56451428Y-50889819D02*
X56546666Y-50937438D01*
X56546666Y-50937438D02*
X56594285Y-50985057D01*
X56594285Y-50985057D02*
X56641904Y-51080295D01*
X56641904Y-51080295D02*
X56641904Y-51175533D01*
X56641904Y-51175533D02*
X56594285Y-51318390D01*
X56594285Y-51318390D02*
X56022857Y-51889819D01*
X56022857Y-51889819D02*
X56641904Y-51889819D01*
X61409942Y-55935714D02*
X61457561Y-55983333D01*
X61457561Y-55983333D02*
X61505180Y-56078571D01*
X61505180Y-56078571D02*
X61505180Y-56316666D01*
X61505180Y-56316666D02*
X61457561Y-56411904D01*
X61457561Y-56411904D02*
X61409942Y-56459523D01*
X61409942Y-56459523D02*
X61314704Y-56507142D01*
X61314704Y-56507142D02*
X61219466Y-56507142D01*
X61219466Y-56507142D02*
X61076609Y-56459523D01*
X61076609Y-56459523D02*
X60505180Y-55888095D01*
X60505180Y-55888095D02*
X60505180Y-56507142D01*
X61409942Y-56888095D02*
X61457561Y-56935714D01*
X61457561Y-56935714D02*
X61505180Y-57030952D01*
X61505180Y-57030952D02*
X61505180Y-57269047D01*
X61505180Y-57269047D02*
X61457561Y-57364285D01*
X61457561Y-57364285D02*
X61409942Y-57411904D01*
X61409942Y-57411904D02*
X61314704Y-57459523D01*
X61314704Y-57459523D02*
X61219466Y-57459523D01*
X61219466Y-57459523D02*
X61076609Y-57411904D01*
X61076609Y-57411904D02*
X60505180Y-56840476D01*
X60505180Y-56840476D02*
X60505180Y-57459523D01*
X61171847Y-57888095D02*
X60505180Y-57888095D01*
X61076609Y-57888095D02*
X61124228Y-57935714D01*
X61124228Y-57935714D02*
X61171847Y-58030952D01*
X61171847Y-58030952D02*
X61171847Y-58173809D01*
X61171847Y-58173809D02*
X61124228Y-58269047D01*
X61124228Y-58269047D02*
X61028990Y-58316666D01*
X61028990Y-58316666D02*
X60505180Y-58316666D01*
X48950714Y-35110057D02*
X48998333Y-35062438D01*
X48998333Y-35062438D02*
X49093571Y-35014819D01*
X49093571Y-35014819D02*
X49331666Y-35014819D01*
X49331666Y-35014819D02*
X49426904Y-35062438D01*
X49426904Y-35062438D02*
X49474523Y-35110057D01*
X49474523Y-35110057D02*
X49522142Y-35205295D01*
X49522142Y-35205295D02*
X49522142Y-35300533D01*
X49522142Y-35300533D02*
X49474523Y-35443390D01*
X49474523Y-35443390D02*
X48903095Y-36014819D01*
X48903095Y-36014819D02*
X49522142Y-36014819D01*
X49903095Y-35110057D02*
X49950714Y-35062438D01*
X49950714Y-35062438D02*
X50045952Y-35014819D01*
X50045952Y-35014819D02*
X50284047Y-35014819D01*
X50284047Y-35014819D02*
X50379285Y-35062438D01*
X50379285Y-35062438D02*
X50426904Y-35110057D01*
X50426904Y-35110057D02*
X50474523Y-35205295D01*
X50474523Y-35205295D02*
X50474523Y-35300533D01*
X50474523Y-35300533D02*
X50426904Y-35443390D01*
X50426904Y-35443390D02*
X49855476Y-36014819D01*
X49855476Y-36014819D02*
X50474523Y-36014819D01*
X50903095Y-35348152D02*
X50903095Y-36014819D01*
X50903095Y-35443390D02*
X50950714Y-35395771D01*
X50950714Y-35395771D02*
X51045952Y-35348152D01*
X51045952Y-35348152D02*
X51188809Y-35348152D01*
X51188809Y-35348152D02*
X51284047Y-35395771D01*
X51284047Y-35395771D02*
X51331666Y-35491009D01*
X51331666Y-35491009D02*
X51331666Y-36014819D01*
X36361905Y-30665057D02*
X36409524Y-30617438D01*
X36409524Y-30617438D02*
X36504762Y-30569819D01*
X36504762Y-30569819D02*
X36742857Y-30569819D01*
X36742857Y-30569819D02*
X36838095Y-30617438D01*
X36838095Y-30617438D02*
X36885714Y-30665057D01*
X36885714Y-30665057D02*
X36933333Y-30760295D01*
X36933333Y-30760295D02*
X36933333Y-30855533D01*
X36933333Y-30855533D02*
X36885714Y-30998390D01*
X36885714Y-30998390D02*
X36314286Y-31569819D01*
X36314286Y-31569819D02*
X36933333Y-31569819D01*
X37266667Y-30569819D02*
X37933333Y-30569819D01*
X37933333Y-30569819D02*
X37504762Y-31569819D01*
X38504762Y-30569819D02*
X38600000Y-30569819D01*
X38600000Y-30569819D02*
X38695238Y-30617438D01*
X38695238Y-30617438D02*
X38742857Y-30665057D01*
X38742857Y-30665057D02*
X38790476Y-30760295D01*
X38790476Y-30760295D02*
X38838095Y-30950771D01*
X38838095Y-30950771D02*
X38838095Y-31188866D01*
X38838095Y-31188866D02*
X38790476Y-31379342D01*
X38790476Y-31379342D02*
X38742857Y-31474580D01*
X38742857Y-31474580D02*
X38695238Y-31522200D01*
X38695238Y-31522200D02*
X38600000Y-31569819D01*
X38600000Y-31569819D02*
X38504762Y-31569819D01*
X38504762Y-31569819D02*
X38409524Y-31522200D01*
X38409524Y-31522200D02*
X38361905Y-31474580D01*
X38361905Y-31474580D02*
X38314286Y-31379342D01*
X38314286Y-31379342D02*
X38266667Y-31188866D01*
X38266667Y-31188866D02*
X38266667Y-30950771D01*
X38266667Y-30950771D02*
X38314286Y-30760295D01*
X38314286Y-30760295D02*
X38361905Y-30665057D01*
X38361905Y-30665057D02*
X38409524Y-30617438D01*
X38409524Y-30617438D02*
X38504762Y-30569819D01*
X39266667Y-31569819D02*
X39266667Y-30569819D01*
X39838095Y-31569819D02*
X39409524Y-30998390D01*
X39838095Y-30569819D02*
X39266667Y-31141247D01*
X35607857Y-58351009D02*
X35750714Y-58398628D01*
X35750714Y-58398628D02*
X35798333Y-58446247D01*
X35798333Y-58446247D02*
X35845952Y-58541485D01*
X35845952Y-58541485D02*
X35845952Y-58684342D01*
X35845952Y-58684342D02*
X35798333Y-58779580D01*
X35798333Y-58779580D02*
X35750714Y-58827200D01*
X35750714Y-58827200D02*
X35655476Y-58874819D01*
X35655476Y-58874819D02*
X35274524Y-58874819D01*
X35274524Y-58874819D02*
X35274524Y-57874819D01*
X35274524Y-57874819D02*
X35607857Y-57874819D01*
X35607857Y-57874819D02*
X35703095Y-57922438D01*
X35703095Y-57922438D02*
X35750714Y-57970057D01*
X35750714Y-57970057D02*
X35798333Y-58065295D01*
X35798333Y-58065295D02*
X35798333Y-58160533D01*
X35798333Y-58160533D02*
X35750714Y-58255771D01*
X35750714Y-58255771D02*
X35703095Y-58303390D01*
X35703095Y-58303390D02*
X35607857Y-58351009D01*
X35607857Y-58351009D02*
X35274524Y-58351009D01*
X36845952Y-58779580D02*
X36798333Y-58827200D01*
X36798333Y-58827200D02*
X36655476Y-58874819D01*
X36655476Y-58874819D02*
X36560238Y-58874819D01*
X36560238Y-58874819D02*
X36417381Y-58827200D01*
X36417381Y-58827200D02*
X36322143Y-58731961D01*
X36322143Y-58731961D02*
X36274524Y-58636723D01*
X36274524Y-58636723D02*
X36226905Y-58446247D01*
X36226905Y-58446247D02*
X36226905Y-58303390D01*
X36226905Y-58303390D02*
X36274524Y-58112914D01*
X36274524Y-58112914D02*
X36322143Y-58017676D01*
X36322143Y-58017676D02*
X36417381Y-57922438D01*
X36417381Y-57922438D02*
X36560238Y-57874819D01*
X36560238Y-57874819D02*
X36655476Y-57874819D01*
X36655476Y-57874819D02*
X36798333Y-57922438D01*
X36798333Y-57922438D02*
X36845952Y-57970057D01*
X37750714Y-57874819D02*
X37274524Y-57874819D01*
X37274524Y-57874819D02*
X37226905Y-58351009D01*
X37226905Y-58351009D02*
X37274524Y-58303390D01*
X37274524Y-58303390D02*
X37369762Y-58255771D01*
X37369762Y-58255771D02*
X37607857Y-58255771D01*
X37607857Y-58255771D02*
X37703095Y-58303390D01*
X37703095Y-58303390D02*
X37750714Y-58351009D01*
X37750714Y-58351009D02*
X37798333Y-58446247D01*
X37798333Y-58446247D02*
X37798333Y-58684342D01*
X37798333Y-58684342D02*
X37750714Y-58779580D01*
X37750714Y-58779580D02*
X37703095Y-58827200D01*
X37703095Y-58827200D02*
X37607857Y-58874819D01*
X37607857Y-58874819D02*
X37369762Y-58874819D01*
X37369762Y-58874819D02*
X37274524Y-58827200D01*
X37274524Y-58827200D02*
X37226905Y-58779580D01*
X38655476Y-58208152D02*
X38655476Y-58874819D01*
X38417381Y-57827200D02*
X38179286Y-58541485D01*
X38179286Y-58541485D02*
X38798333Y-58541485D01*
X39322143Y-58303390D02*
X39226905Y-58255771D01*
X39226905Y-58255771D02*
X39179286Y-58208152D01*
X39179286Y-58208152D02*
X39131667Y-58112914D01*
X39131667Y-58112914D02*
X39131667Y-58065295D01*
X39131667Y-58065295D02*
X39179286Y-57970057D01*
X39179286Y-57970057D02*
X39226905Y-57922438D01*
X39226905Y-57922438D02*
X39322143Y-57874819D01*
X39322143Y-57874819D02*
X39512619Y-57874819D01*
X39512619Y-57874819D02*
X39607857Y-57922438D01*
X39607857Y-57922438D02*
X39655476Y-57970057D01*
X39655476Y-57970057D02*
X39703095Y-58065295D01*
X39703095Y-58065295D02*
X39703095Y-58112914D01*
X39703095Y-58112914D02*
X39655476Y-58208152D01*
X39655476Y-58208152D02*
X39607857Y-58255771D01*
X39607857Y-58255771D02*
X39512619Y-58303390D01*
X39512619Y-58303390D02*
X39322143Y-58303390D01*
X39322143Y-58303390D02*
X39226905Y-58351009D01*
X39226905Y-58351009D02*
X39179286Y-58398628D01*
X39179286Y-58398628D02*
X39131667Y-58493866D01*
X39131667Y-58493866D02*
X39131667Y-58684342D01*
X39131667Y-58684342D02*
X39179286Y-58779580D01*
X39179286Y-58779580D02*
X39226905Y-58827200D01*
X39226905Y-58827200D02*
X39322143Y-58874819D01*
X39322143Y-58874819D02*
X39512619Y-58874819D01*
X39512619Y-58874819D02*
X39607857Y-58827200D01*
X39607857Y-58827200D02*
X39655476Y-58779580D01*
X39655476Y-58779580D02*
X39703095Y-58684342D01*
X39703095Y-58684342D02*
X39703095Y-58493866D01*
X39703095Y-58493866D02*
X39655476Y-58398628D01*
X39655476Y-58398628D02*
X39607857Y-58351009D01*
X39607857Y-58351009D02*
X39512619Y-58303390D01*
X49710180Y-39870476D02*
X49710180Y-39394286D01*
X49710180Y-39394286D02*
X50710180Y-39394286D01*
X49710180Y-40203810D02*
X50710180Y-40203810D01*
X50710180Y-40203810D02*
X49995895Y-40537143D01*
X49995895Y-40537143D02*
X50710180Y-40870476D01*
X50710180Y-40870476D02*
X49710180Y-40870476D01*
X50710180Y-41251429D02*
X50710180Y-41870476D01*
X50710180Y-41870476D02*
X50329228Y-41537143D01*
X50329228Y-41537143D02*
X50329228Y-41680000D01*
X50329228Y-41680000D02*
X50281609Y-41775238D01*
X50281609Y-41775238D02*
X50233990Y-41822857D01*
X50233990Y-41822857D02*
X50138752Y-41870476D01*
X50138752Y-41870476D02*
X49900657Y-41870476D01*
X49900657Y-41870476D02*
X49805419Y-41822857D01*
X49805419Y-41822857D02*
X49757800Y-41775238D01*
X49757800Y-41775238D02*
X49710180Y-41680000D01*
X49710180Y-41680000D02*
X49710180Y-41394286D01*
X49710180Y-41394286D02*
X49757800Y-41299048D01*
X49757800Y-41299048D02*
X49805419Y-41251429D01*
X50281609Y-42441905D02*
X50329228Y-42346667D01*
X50329228Y-42346667D02*
X50376847Y-42299048D01*
X50376847Y-42299048D02*
X50472085Y-42251429D01*
X50472085Y-42251429D02*
X50519704Y-42251429D01*
X50519704Y-42251429D02*
X50614942Y-42299048D01*
X50614942Y-42299048D02*
X50662561Y-42346667D01*
X50662561Y-42346667D02*
X50710180Y-42441905D01*
X50710180Y-42441905D02*
X50710180Y-42632381D01*
X50710180Y-42632381D02*
X50662561Y-42727619D01*
X50662561Y-42727619D02*
X50614942Y-42775238D01*
X50614942Y-42775238D02*
X50519704Y-42822857D01*
X50519704Y-42822857D02*
X50472085Y-42822857D01*
X50472085Y-42822857D02*
X50376847Y-42775238D01*
X50376847Y-42775238D02*
X50329228Y-42727619D01*
X50329228Y-42727619D02*
X50281609Y-42632381D01*
X50281609Y-42632381D02*
X50281609Y-42441905D01*
X50281609Y-42441905D02*
X50233990Y-42346667D01*
X50233990Y-42346667D02*
X50186371Y-42299048D01*
X50186371Y-42299048D02*
X50091133Y-42251429D01*
X50091133Y-42251429D02*
X49900657Y-42251429D01*
X49900657Y-42251429D02*
X49805419Y-42299048D01*
X49805419Y-42299048D02*
X49757800Y-42346667D01*
X49757800Y-42346667D02*
X49710180Y-42441905D01*
X49710180Y-42441905D02*
X49710180Y-42632381D01*
X49710180Y-42632381D02*
X49757800Y-42727619D01*
X49757800Y-42727619D02*
X49805419Y-42775238D01*
X49805419Y-42775238D02*
X49900657Y-42822857D01*
X49900657Y-42822857D02*
X50091133Y-42822857D01*
X50091133Y-42822857D02*
X50186371Y-42775238D01*
X50186371Y-42775238D02*
X50233990Y-42727619D01*
X50233990Y-42727619D02*
X50281609Y-42632381D01*
X50710180Y-43680000D02*
X50710180Y-43489524D01*
X50710180Y-43489524D02*
X50662561Y-43394286D01*
X50662561Y-43394286D02*
X50614942Y-43346667D01*
X50614942Y-43346667D02*
X50472085Y-43251429D01*
X50472085Y-43251429D02*
X50281609Y-43203810D01*
X50281609Y-43203810D02*
X49900657Y-43203810D01*
X49900657Y-43203810D02*
X49805419Y-43251429D01*
X49805419Y-43251429D02*
X49757800Y-43299048D01*
X49757800Y-43299048D02*
X49710180Y-43394286D01*
X49710180Y-43394286D02*
X49710180Y-43584762D01*
X49710180Y-43584762D02*
X49757800Y-43680000D01*
X49757800Y-43680000D02*
X49805419Y-43727619D01*
X49805419Y-43727619D02*
X49900657Y-43775238D01*
X49900657Y-43775238D02*
X50138752Y-43775238D01*
X50138752Y-43775238D02*
X50233990Y-43727619D01*
X50233990Y-43727619D02*
X50281609Y-43680000D01*
X50281609Y-43680000D02*
X50329228Y-43584762D01*
X50329228Y-43584762D02*
X50329228Y-43394286D01*
X50329228Y-43394286D02*
X50281609Y-43299048D01*
X50281609Y-43299048D02*
X50233990Y-43251429D01*
X50233990Y-43251429D02*
X50138752Y-43203810D01*
X50091133Y-44203810D02*
X50091133Y-44965715D01*
X49710180Y-45441905D02*
X50710180Y-45441905D01*
X50710180Y-45441905D02*
X49710180Y-46013333D01*
X49710180Y-46013333D02*
X50710180Y-46013333D01*
X50376847Y-46918095D02*
X49710180Y-46918095D01*
X50757800Y-46680000D02*
X50043514Y-46441905D01*
X50043514Y-46441905D02*
X50043514Y-47060952D01*
X36679285Y-48349819D02*
X36488809Y-48349819D01*
X36488809Y-48349819D02*
X36393571Y-48397438D01*
X36393571Y-48397438D02*
X36345952Y-48445057D01*
X36345952Y-48445057D02*
X36250714Y-48587914D01*
X36250714Y-48587914D02*
X36203095Y-48778390D01*
X36203095Y-48778390D02*
X36203095Y-49159342D01*
X36203095Y-49159342D02*
X36250714Y-49254580D01*
X36250714Y-49254580D02*
X36298333Y-49302200D01*
X36298333Y-49302200D02*
X36393571Y-49349819D01*
X36393571Y-49349819D02*
X36584047Y-49349819D01*
X36584047Y-49349819D02*
X36679285Y-49302200D01*
X36679285Y-49302200D02*
X36726904Y-49254580D01*
X36726904Y-49254580D02*
X36774523Y-49159342D01*
X36774523Y-49159342D02*
X36774523Y-48921247D01*
X36774523Y-48921247D02*
X36726904Y-48826009D01*
X36726904Y-48826009D02*
X36679285Y-48778390D01*
X36679285Y-48778390D02*
X36584047Y-48730771D01*
X36584047Y-48730771D02*
X36393571Y-48730771D01*
X36393571Y-48730771D02*
X36298333Y-48778390D01*
X36298333Y-48778390D02*
X36250714Y-48826009D01*
X36250714Y-48826009D02*
X36203095Y-48921247D01*
X37203095Y-49349819D02*
X37203095Y-48349819D01*
X37774523Y-49349819D02*
X37345952Y-48778390D01*
X37774523Y-48349819D02*
X37203095Y-48921247D01*
X38345952Y-48778390D02*
X38250714Y-48730771D01*
X38250714Y-48730771D02*
X38203095Y-48683152D01*
X38203095Y-48683152D02*
X38155476Y-48587914D01*
X38155476Y-48587914D02*
X38155476Y-48540295D01*
X38155476Y-48540295D02*
X38203095Y-48445057D01*
X38203095Y-48445057D02*
X38250714Y-48397438D01*
X38250714Y-48397438D02*
X38345952Y-48349819D01*
X38345952Y-48349819D02*
X38536428Y-48349819D01*
X38536428Y-48349819D02*
X38631666Y-48397438D01*
X38631666Y-48397438D02*
X38679285Y-48445057D01*
X38679285Y-48445057D02*
X38726904Y-48540295D01*
X38726904Y-48540295D02*
X38726904Y-48587914D01*
X38726904Y-48587914D02*
X38679285Y-48683152D01*
X38679285Y-48683152D02*
X38631666Y-48730771D01*
X38631666Y-48730771D02*
X38536428Y-48778390D01*
X38536428Y-48778390D02*
X38345952Y-48778390D01*
X38345952Y-48778390D02*
X38250714Y-48826009D01*
X38250714Y-48826009D02*
X38203095Y-48873628D01*
X38203095Y-48873628D02*
X38155476Y-48968866D01*
X38155476Y-48968866D02*
X38155476Y-49159342D01*
X38155476Y-49159342D02*
X38203095Y-49254580D01*
X38203095Y-49254580D02*
X38250714Y-49302200D01*
X38250714Y-49302200D02*
X38345952Y-49349819D01*
X38345952Y-49349819D02*
X38536428Y-49349819D01*
X38536428Y-49349819D02*
X38631666Y-49302200D01*
X38631666Y-49302200D02*
X38679285Y-49254580D01*
X38679285Y-49254580D02*
X38726904Y-49159342D01*
X38726904Y-49159342D02*
X38726904Y-48968866D01*
X38726904Y-48968866D02*
X38679285Y-48873628D01*
X38679285Y-48873628D02*
X38631666Y-48826009D01*
X38631666Y-48826009D02*
X38536428Y-48778390D01*
X88360714Y-35110057D02*
X88408333Y-35062438D01*
X88408333Y-35062438D02*
X88503571Y-35014819D01*
X88503571Y-35014819D02*
X88741666Y-35014819D01*
X88741666Y-35014819D02*
X88836904Y-35062438D01*
X88836904Y-35062438D02*
X88884523Y-35110057D01*
X88884523Y-35110057D02*
X88932142Y-35205295D01*
X88932142Y-35205295D02*
X88932142Y-35300533D01*
X88932142Y-35300533D02*
X88884523Y-35443390D01*
X88884523Y-35443390D02*
X88313095Y-36014819D01*
X88313095Y-36014819D02*
X88932142Y-36014819D01*
X89313095Y-35110057D02*
X89360714Y-35062438D01*
X89360714Y-35062438D02*
X89455952Y-35014819D01*
X89455952Y-35014819D02*
X89694047Y-35014819D01*
X89694047Y-35014819D02*
X89789285Y-35062438D01*
X89789285Y-35062438D02*
X89836904Y-35110057D01*
X89836904Y-35110057D02*
X89884523Y-35205295D01*
X89884523Y-35205295D02*
X89884523Y-35300533D01*
X89884523Y-35300533D02*
X89836904Y-35443390D01*
X89836904Y-35443390D02*
X89265476Y-36014819D01*
X89265476Y-36014819D02*
X89884523Y-36014819D01*
X90313095Y-35348152D02*
X90313095Y-36014819D01*
X90313095Y-35443390D02*
X90360714Y-35395771D01*
X90360714Y-35395771D02*
X90455952Y-35348152D01*
X90455952Y-35348152D02*
X90598809Y-35348152D01*
X90598809Y-35348152D02*
X90694047Y-35395771D01*
X90694047Y-35395771D02*
X90741666Y-35491009D01*
X90741666Y-35491009D02*
X90741666Y-36014819D01*
D12*
X91354480Y-48685715D02*
X91354480Y-49600001D01*
X90897337Y-49142858D02*
X91811622Y-49142858D01*
X90897337Y-50800000D02*
X90897337Y-50114286D01*
X90897337Y-50457143D02*
X92097337Y-50457143D01*
X92097337Y-50457143D02*
X91925908Y-50342857D01*
X91925908Y-50342857D02*
X91811622Y-50228572D01*
X91811622Y-50228572D02*
X91754480Y-50114286D01*
X91983051Y-51257143D02*
X92040194Y-51314286D01*
X92040194Y-51314286D02*
X92097337Y-51428572D01*
X92097337Y-51428572D02*
X92097337Y-51714286D01*
X92097337Y-51714286D02*
X92040194Y-51828572D01*
X92040194Y-51828572D02*
X91983051Y-51885714D01*
X91983051Y-51885714D02*
X91868765Y-51942857D01*
X91868765Y-51942857D02*
X91754480Y-51942857D01*
X91754480Y-51942857D02*
X91583051Y-51885714D01*
X91583051Y-51885714D02*
X90897337Y-51200000D01*
X90897337Y-51200000D02*
X90897337Y-51942857D01*
X92097337Y-52285714D02*
X90897337Y-52685714D01*
X90897337Y-52685714D02*
X92097337Y-53085714D01*
D11*
X89080180Y-39870476D02*
X89080180Y-39394286D01*
X89080180Y-39394286D02*
X90080180Y-39394286D01*
X89080180Y-40203810D02*
X90080180Y-40203810D01*
X90080180Y-40203810D02*
X89365895Y-40537143D01*
X89365895Y-40537143D02*
X90080180Y-40870476D01*
X90080180Y-40870476D02*
X89080180Y-40870476D01*
X90080180Y-41251429D02*
X90080180Y-41870476D01*
X90080180Y-41870476D02*
X89699228Y-41537143D01*
X89699228Y-41537143D02*
X89699228Y-41680000D01*
X89699228Y-41680000D02*
X89651609Y-41775238D01*
X89651609Y-41775238D02*
X89603990Y-41822857D01*
X89603990Y-41822857D02*
X89508752Y-41870476D01*
X89508752Y-41870476D02*
X89270657Y-41870476D01*
X89270657Y-41870476D02*
X89175419Y-41822857D01*
X89175419Y-41822857D02*
X89127800Y-41775238D01*
X89127800Y-41775238D02*
X89080180Y-41680000D01*
X89080180Y-41680000D02*
X89080180Y-41394286D01*
X89080180Y-41394286D02*
X89127800Y-41299048D01*
X89127800Y-41299048D02*
X89175419Y-41251429D01*
X89651609Y-42441905D02*
X89699228Y-42346667D01*
X89699228Y-42346667D02*
X89746847Y-42299048D01*
X89746847Y-42299048D02*
X89842085Y-42251429D01*
X89842085Y-42251429D02*
X89889704Y-42251429D01*
X89889704Y-42251429D02*
X89984942Y-42299048D01*
X89984942Y-42299048D02*
X90032561Y-42346667D01*
X90032561Y-42346667D02*
X90080180Y-42441905D01*
X90080180Y-42441905D02*
X90080180Y-42632381D01*
X90080180Y-42632381D02*
X90032561Y-42727619D01*
X90032561Y-42727619D02*
X89984942Y-42775238D01*
X89984942Y-42775238D02*
X89889704Y-42822857D01*
X89889704Y-42822857D02*
X89842085Y-42822857D01*
X89842085Y-42822857D02*
X89746847Y-42775238D01*
X89746847Y-42775238D02*
X89699228Y-42727619D01*
X89699228Y-42727619D02*
X89651609Y-42632381D01*
X89651609Y-42632381D02*
X89651609Y-42441905D01*
X89651609Y-42441905D02*
X89603990Y-42346667D01*
X89603990Y-42346667D02*
X89556371Y-42299048D01*
X89556371Y-42299048D02*
X89461133Y-42251429D01*
X89461133Y-42251429D02*
X89270657Y-42251429D01*
X89270657Y-42251429D02*
X89175419Y-42299048D01*
X89175419Y-42299048D02*
X89127800Y-42346667D01*
X89127800Y-42346667D02*
X89080180Y-42441905D01*
X89080180Y-42441905D02*
X89080180Y-42632381D01*
X89080180Y-42632381D02*
X89127800Y-42727619D01*
X89127800Y-42727619D02*
X89175419Y-42775238D01*
X89175419Y-42775238D02*
X89270657Y-42822857D01*
X89270657Y-42822857D02*
X89461133Y-42822857D01*
X89461133Y-42822857D02*
X89556371Y-42775238D01*
X89556371Y-42775238D02*
X89603990Y-42727619D01*
X89603990Y-42727619D02*
X89651609Y-42632381D01*
X90080180Y-43680000D02*
X90080180Y-43489524D01*
X90080180Y-43489524D02*
X90032561Y-43394286D01*
X90032561Y-43394286D02*
X89984942Y-43346667D01*
X89984942Y-43346667D02*
X89842085Y-43251429D01*
X89842085Y-43251429D02*
X89651609Y-43203810D01*
X89651609Y-43203810D02*
X89270657Y-43203810D01*
X89270657Y-43203810D02*
X89175419Y-43251429D01*
X89175419Y-43251429D02*
X89127800Y-43299048D01*
X89127800Y-43299048D02*
X89080180Y-43394286D01*
X89080180Y-43394286D02*
X89080180Y-43584762D01*
X89080180Y-43584762D02*
X89127800Y-43680000D01*
X89127800Y-43680000D02*
X89175419Y-43727619D01*
X89175419Y-43727619D02*
X89270657Y-43775238D01*
X89270657Y-43775238D02*
X89508752Y-43775238D01*
X89508752Y-43775238D02*
X89603990Y-43727619D01*
X89603990Y-43727619D02*
X89651609Y-43680000D01*
X89651609Y-43680000D02*
X89699228Y-43584762D01*
X89699228Y-43584762D02*
X89699228Y-43394286D01*
X89699228Y-43394286D02*
X89651609Y-43299048D01*
X89651609Y-43299048D02*
X89603990Y-43251429D01*
X89603990Y-43251429D02*
X89508752Y-43203810D01*
X89461133Y-44203810D02*
X89461133Y-44965715D01*
X89080180Y-45441905D02*
X90080180Y-45441905D01*
X90080180Y-45441905D02*
X89080180Y-46013333D01*
X89080180Y-46013333D02*
X90080180Y-46013333D01*
X89746847Y-46918095D02*
X89080180Y-46918095D01*
X90127800Y-46680000D02*
X89413514Y-46441905D01*
X89413514Y-46441905D02*
X89413514Y-47060952D01*
X36298333Y-45539819D02*
X35726905Y-45539819D01*
X36012619Y-45539819D02*
X36012619Y-44539819D01*
X36012619Y-44539819D02*
X35917381Y-44682676D01*
X35917381Y-44682676D02*
X35822143Y-44777914D01*
X35822143Y-44777914D02*
X35726905Y-44825533D01*
X36869762Y-44968390D02*
X36774524Y-44920771D01*
X36774524Y-44920771D02*
X36726905Y-44873152D01*
X36726905Y-44873152D02*
X36679286Y-44777914D01*
X36679286Y-44777914D02*
X36679286Y-44730295D01*
X36679286Y-44730295D02*
X36726905Y-44635057D01*
X36726905Y-44635057D02*
X36774524Y-44587438D01*
X36774524Y-44587438D02*
X36869762Y-44539819D01*
X36869762Y-44539819D02*
X37060238Y-44539819D01*
X37060238Y-44539819D02*
X37155476Y-44587438D01*
X37155476Y-44587438D02*
X37203095Y-44635057D01*
X37203095Y-44635057D02*
X37250714Y-44730295D01*
X37250714Y-44730295D02*
X37250714Y-44777914D01*
X37250714Y-44777914D02*
X37203095Y-44873152D01*
X37203095Y-44873152D02*
X37155476Y-44920771D01*
X37155476Y-44920771D02*
X37060238Y-44968390D01*
X37060238Y-44968390D02*
X36869762Y-44968390D01*
X36869762Y-44968390D02*
X36774524Y-45016009D01*
X36774524Y-45016009D02*
X36726905Y-45063628D01*
X36726905Y-45063628D02*
X36679286Y-45158866D01*
X36679286Y-45158866D02*
X36679286Y-45349342D01*
X36679286Y-45349342D02*
X36726905Y-45444580D01*
X36726905Y-45444580D02*
X36774524Y-45492200D01*
X36774524Y-45492200D02*
X36869762Y-45539819D01*
X36869762Y-45539819D02*
X37060238Y-45539819D01*
X37060238Y-45539819D02*
X37155476Y-45492200D01*
X37155476Y-45492200D02*
X37203095Y-45444580D01*
X37203095Y-45444580D02*
X37250714Y-45349342D01*
X37250714Y-45349342D02*
X37250714Y-45158866D01*
X37250714Y-45158866D02*
X37203095Y-45063628D01*
X37203095Y-45063628D02*
X37155476Y-45016009D01*
X37155476Y-45016009D02*
X37060238Y-44968390D01*
X37869762Y-44539819D02*
X37965000Y-44539819D01*
X37965000Y-44539819D02*
X38060238Y-44587438D01*
X38060238Y-44587438D02*
X38107857Y-44635057D01*
X38107857Y-44635057D02*
X38155476Y-44730295D01*
X38155476Y-44730295D02*
X38203095Y-44920771D01*
X38203095Y-44920771D02*
X38203095Y-45158866D01*
X38203095Y-45158866D02*
X38155476Y-45349342D01*
X38155476Y-45349342D02*
X38107857Y-45444580D01*
X38107857Y-45444580D02*
X38060238Y-45492200D01*
X38060238Y-45492200D02*
X37965000Y-45539819D01*
X37965000Y-45539819D02*
X37869762Y-45539819D01*
X37869762Y-45539819D02*
X37774524Y-45492200D01*
X37774524Y-45492200D02*
X37726905Y-45444580D01*
X37726905Y-45444580D02*
X37679286Y-45349342D01*
X37679286Y-45349342D02*
X37631667Y-45158866D01*
X37631667Y-45158866D02*
X37631667Y-44920771D01*
X37631667Y-44920771D02*
X37679286Y-44730295D01*
X37679286Y-44730295D02*
X37726905Y-44635057D01*
X37726905Y-44635057D02*
X37774524Y-44587438D01*
X37774524Y-44587438D02*
X37869762Y-44539819D01*
X38631667Y-45539819D02*
X38631667Y-44539819D01*
X39203095Y-45539819D02*
X38774524Y-44968390D01*
X39203095Y-44539819D02*
X38631667Y-45111247D01*
X59031429Y-64589819D02*
X59031429Y-63589819D01*
X59507619Y-64589819D02*
X59507619Y-63589819D01*
X59507619Y-63589819D02*
X60079047Y-64589819D01*
X60079047Y-64589819D02*
X60079047Y-63589819D01*
X60555238Y-64589819D02*
X60555238Y-63589819D01*
X60555238Y-63589819D02*
X60936190Y-63589819D01*
X60936190Y-63589819D02*
X61031428Y-63637438D01*
X61031428Y-63637438D02*
X61079047Y-63685057D01*
X61079047Y-63685057D02*
X61126666Y-63780295D01*
X61126666Y-63780295D02*
X61126666Y-63923152D01*
X61126666Y-63923152D02*
X61079047Y-64018390D01*
X61079047Y-64018390D02*
X61031428Y-64066009D01*
X61031428Y-64066009D02*
X60936190Y-64113628D01*
X60936190Y-64113628D02*
X60555238Y-64113628D01*
X61555238Y-63589819D02*
X61555238Y-64399342D01*
X61555238Y-64399342D02*
X61602857Y-64494580D01*
X61602857Y-64494580D02*
X61650476Y-64542200D01*
X61650476Y-64542200D02*
X61745714Y-64589819D01*
X61745714Y-64589819D02*
X61936190Y-64589819D01*
X61936190Y-64589819D02*
X62031428Y-64542200D01*
X62031428Y-64542200D02*
X62079047Y-64494580D01*
X62079047Y-64494580D02*
X62126666Y-64399342D01*
X62126666Y-64399342D02*
X62126666Y-63589819D01*
X62460000Y-63589819D02*
X63031428Y-63589819D01*
X62745714Y-64589819D02*
X62745714Y-63589819D01*
D13*
X31165000Y-59975000D02*
X31165000Y-63215000D01*
X31165000Y-59975000D02*
X38605000Y-59975000D01*
X31165000Y-63215000D02*
X38605000Y-63215000D01*
X38605000Y-59975000D02*
X38605000Y-63215000D01*
X77370000Y-54030000D02*
X77370000Y-60270000D01*
X77815000Y-54030000D02*
X77370000Y-54030000D01*
X77815000Y-60270000D02*
X77370000Y-60270000D01*
X80110000Y-54030000D02*
X79665000Y-54030000D01*
X80110000Y-54030000D02*
X80110000Y-60270000D01*
X80110000Y-60270000D02*
X79665000Y-60270000D01*
X19001051Y-50420000D02*
X25001051Y-50420000D01*
X19001051Y-51180000D02*
X19001051Y-50420000D01*
X19001051Y-52960000D02*
X25001051Y-52960000D01*
X19001051Y-53720000D02*
X19001051Y-52960000D01*
X25001051Y-49470000D02*
X25001051Y-54670000D01*
X25001051Y-51180000D02*
X19001051Y-51180000D01*
X25001051Y-53060000D02*
X19001051Y-53060000D01*
X25001051Y-53180000D02*
X19001051Y-53180000D01*
X25001051Y-53300000D02*
X19001051Y-53300000D01*
X25001051Y-53420000D02*
X19001051Y-53420000D01*
X25001051Y-53540000D02*
X19001051Y-53540000D01*
X25001051Y-53660000D02*
X19001051Y-53660000D01*
X25001051Y-53720000D02*
X19001051Y-53720000D01*
X25001051Y-54670000D02*
X27661051Y-54670000D01*
X27661051Y-49470000D02*
X25001051Y-49470000D01*
X27661051Y-52070000D02*
X25001051Y-52070000D01*
X27661051Y-54670000D02*
X27661051Y-49470000D01*
X27991051Y-52960000D02*
X27661051Y-52960000D01*
X27991051Y-53720000D02*
X27661051Y-53720000D01*
X28058122Y-50420000D02*
X27661051Y-50420000D01*
X28058122Y-51180000D02*
X27661051Y-51180000D01*
X30371051Y-53340000D02*
X30371051Y-54610000D01*
X30371051Y-54610000D02*
X29101051Y-54610000D01*
X84394000Y-31485000D02*
X84394000Y-30745000D01*
X84434000Y-31652000D02*
X84434000Y-30578000D01*
X84474000Y-31779000D02*
X84474000Y-30451000D01*
X84514000Y-31883000D02*
X84514000Y-30347000D01*
X84554000Y-31974000D02*
X84554000Y-30256000D01*
X84594000Y-32055000D02*
X84594000Y-30175000D01*
X84634000Y-32128000D02*
X84634000Y-30102000D01*
X84674000Y-32195000D02*
X84674000Y-30035000D01*
X84714000Y-32257000D02*
X84714000Y-29973000D01*
X84754000Y-32315000D02*
X84754000Y-29915000D01*
X84794000Y-32369000D02*
X84794000Y-29861000D01*
X84834000Y-32419000D02*
X84834000Y-29811000D01*
X84874000Y-32466000D02*
X84874000Y-29764000D01*
X84914000Y-30275000D02*
X84914000Y-29719000D01*
X84914000Y-32511000D02*
X84914000Y-31955000D01*
X84954000Y-30275000D02*
X84954000Y-29677000D01*
X84954000Y-32553000D02*
X84954000Y-31955000D01*
X84994000Y-30275000D02*
X84994000Y-29637000D01*
X84994000Y-32593000D02*
X84994000Y-31955000D01*
X85034000Y-30275000D02*
X85034000Y-29599000D01*
X85034000Y-32631000D02*
X85034000Y-31955000D01*
X85074000Y-30275000D02*
X85074000Y-29563000D01*
X85074000Y-32667000D02*
X85074000Y-31955000D01*
X85114000Y-30275000D02*
X85114000Y-29528000D01*
X85114000Y-32702000D02*
X85114000Y-31955000D01*
X85154000Y-30275000D02*
X85154000Y-29496000D01*
X85154000Y-32734000D02*
X85154000Y-31955000D01*
X85194000Y-30275000D02*
X85194000Y-29465000D01*
X85194000Y-32765000D02*
X85194000Y-31955000D01*
X85234000Y-30275000D02*
X85234000Y-29435000D01*
X85234000Y-32795000D02*
X85234000Y-31955000D01*
X85274000Y-30275000D02*
X85274000Y-29407000D01*
X85274000Y-32823000D02*
X85274000Y-31955000D01*
X85314000Y-30275000D02*
X85314000Y-29380000D01*
X85314000Y-32850000D02*
X85314000Y-31955000D01*
X85354000Y-30275000D02*
X85354000Y-29355000D01*
X85354000Y-32875000D02*
X85354000Y-31955000D01*
X85394000Y-30275000D02*
X85394000Y-29330000D01*
X85394000Y-32900000D02*
X85394000Y-31955000D01*
X85434000Y-30275000D02*
X85434000Y-29307000D01*
X85434000Y-32923000D02*
X85434000Y-31955000D01*
X85474000Y-30275000D02*
X85474000Y-29285000D01*
X85474000Y-32945000D02*
X85474000Y-31955000D01*
X85514000Y-30275000D02*
X85514000Y-29264000D01*
X85514000Y-32966000D02*
X85514000Y-31955000D01*
X85554000Y-30275000D02*
X85554000Y-29245000D01*
X85554000Y-32985000D02*
X85554000Y-31955000D01*
X85594000Y-30275000D02*
X85594000Y-29226000D01*
X85594000Y-33004000D02*
X85594000Y-31955000D01*
X85634000Y-30275000D02*
X85634000Y-29208000D01*
X85634000Y-33022000D02*
X85634000Y-31955000D01*
X85674000Y-30275000D02*
X85674000Y-29191000D01*
X85674000Y-33039000D02*
X85674000Y-31955000D01*
X85714000Y-30275000D02*
X85714000Y-29175000D01*
X85714000Y-33055000D02*
X85714000Y-31955000D01*
X85754000Y-30275000D02*
X85754000Y-29161000D01*
X85754000Y-33069000D02*
X85754000Y-31955000D01*
X85795000Y-30275000D02*
X85795000Y-29147000D01*
X85795000Y-33083000D02*
X85795000Y-31955000D01*
X85835000Y-30275000D02*
X85835000Y-29133000D01*
X85835000Y-33097000D02*
X85835000Y-31955000D01*
X85875000Y-30275000D02*
X85875000Y-29121000D01*
X85875000Y-33109000D02*
X85875000Y-31955000D01*
X85915000Y-30275000D02*
X85915000Y-29110000D01*
X85915000Y-33120000D02*
X85915000Y-31955000D01*
X85955000Y-30275000D02*
X85955000Y-29099000D01*
X85955000Y-33131000D02*
X85955000Y-31955000D01*
X85995000Y-30275000D02*
X85995000Y-29090000D01*
X85995000Y-33140000D02*
X85995000Y-31955000D01*
X86035000Y-30275000D02*
X86035000Y-29081000D01*
X86035000Y-33149000D02*
X86035000Y-31955000D01*
X86075000Y-30275000D02*
X86075000Y-29073000D01*
X86075000Y-33157000D02*
X86075000Y-31955000D01*
X86115000Y-30275000D02*
X86115000Y-29065000D01*
X86115000Y-33165000D02*
X86115000Y-31955000D01*
X86155000Y-30275000D02*
X86155000Y-29059000D01*
X86155000Y-33171000D02*
X86155000Y-31955000D01*
X86195000Y-30275000D02*
X86195000Y-29053000D01*
X86195000Y-33177000D02*
X86195000Y-31955000D01*
X86235000Y-30275000D02*
X86235000Y-29048000D01*
X86235000Y-33182000D02*
X86235000Y-31955000D01*
X86275000Y-30275000D02*
X86275000Y-29044000D01*
X86275000Y-33186000D02*
X86275000Y-31955000D01*
X86315000Y-30275000D02*
X86315000Y-29041000D01*
X86315000Y-33189000D02*
X86315000Y-31955000D01*
X86355000Y-30275000D02*
X86355000Y-29038000D01*
X86355000Y-33192000D02*
X86355000Y-31955000D01*
X86395000Y-30275000D02*
X86395000Y-29036000D01*
X86395000Y-33194000D02*
X86395000Y-31955000D01*
X86435000Y-30275000D02*
X86435000Y-29035000D01*
X86435000Y-33195000D02*
X86435000Y-31955000D01*
X86475000Y-30275000D02*
X86475000Y-29035000D01*
X86475000Y-33195000D02*
X86475000Y-31955000D01*
X88544801Y-32510000D02*
X88544801Y-32110000D01*
X88744801Y-32310000D02*
X88344801Y-32310000D01*
X88595000Y-31115000D02*
G75*
G02*
X84355000Y-31115000I-2120000J0D01*
G01*
X84355000Y-31115000D02*
G75*
G02*
X88595000Y-31115000I2120000J0D01*
G01*
X31205000Y-39655000D02*
X31205000Y-42895000D01*
X31205000Y-39655000D02*
X38645000Y-39655000D01*
X31205000Y-42895000D02*
X38645000Y-42895000D01*
X38645000Y-39655000D02*
X38645000Y-42895000D01*
X39525199Y-34365000D02*
X39925199Y-34365000D01*
X39725199Y-34165000D02*
X39725199Y-34565000D01*
X41795000Y-33480000D02*
X41795000Y-34720000D01*
X41795000Y-36400000D02*
X41795000Y-37640000D01*
X41835000Y-33480000D02*
X41835000Y-34720000D01*
X41835000Y-36400000D02*
X41835000Y-37640000D01*
X41875000Y-33481000D02*
X41875000Y-34720000D01*
X41875000Y-36400000D02*
X41875000Y-37639000D01*
X41915000Y-33483000D02*
X41915000Y-34720000D01*
X41915000Y-36400000D02*
X41915000Y-37637000D01*
X41955000Y-33486000D02*
X41955000Y-34720000D01*
X41955000Y-36400000D02*
X41955000Y-37634000D01*
X41995000Y-33489000D02*
X41995000Y-34720000D01*
X41995000Y-36400000D02*
X41995000Y-37631000D01*
X42035000Y-33493000D02*
X42035000Y-34720000D01*
X42035000Y-36400000D02*
X42035000Y-37627000D01*
X42075000Y-33498000D02*
X42075000Y-34720000D01*
X42075000Y-36400000D02*
X42075000Y-37622000D01*
X42115000Y-33504000D02*
X42115000Y-34720000D01*
X42115000Y-36400000D02*
X42115000Y-37616000D01*
X42155000Y-33510000D02*
X42155000Y-34720000D01*
X42155000Y-36400000D02*
X42155000Y-37610000D01*
X42195000Y-33518000D02*
X42195000Y-34720000D01*
X42195000Y-36400000D02*
X42195000Y-37602000D01*
X42235000Y-33526000D02*
X42235000Y-34720000D01*
X42235000Y-36400000D02*
X42235000Y-37594000D01*
X42275000Y-33535000D02*
X42275000Y-34720000D01*
X42275000Y-36400000D02*
X42275000Y-37585000D01*
X42315000Y-33544000D02*
X42315000Y-34720000D01*
X42315000Y-36400000D02*
X42315000Y-37576000D01*
X42355000Y-33555000D02*
X42355000Y-34720000D01*
X42355000Y-36400000D02*
X42355000Y-37565000D01*
X42395000Y-33566000D02*
X42395000Y-34720000D01*
X42395000Y-36400000D02*
X42395000Y-37554000D01*
X42435000Y-33578000D02*
X42435000Y-34720000D01*
X42435000Y-36400000D02*
X42435000Y-37542000D01*
X42475000Y-33592000D02*
X42475000Y-34720000D01*
X42475000Y-36400000D02*
X42475000Y-37528000D01*
X42516000Y-33606000D02*
X42516000Y-34720000D01*
X42516000Y-36400000D02*
X42516000Y-37514000D01*
X42556000Y-33620000D02*
X42556000Y-34720000D01*
X42556000Y-36400000D02*
X42556000Y-37500000D01*
X42596000Y-33636000D02*
X42596000Y-34720000D01*
X42596000Y-36400000D02*
X42596000Y-37484000D01*
X42636000Y-33653000D02*
X42636000Y-34720000D01*
X42636000Y-36400000D02*
X42636000Y-37467000D01*
X42676000Y-33671000D02*
X42676000Y-34720000D01*
X42676000Y-36400000D02*
X42676000Y-37449000D01*
X42716000Y-33690000D02*
X42716000Y-34720000D01*
X42716000Y-36400000D02*
X42716000Y-37430000D01*
X42756000Y-33709000D02*
X42756000Y-34720000D01*
X42756000Y-36400000D02*
X42756000Y-37411000D01*
X42796000Y-33730000D02*
X42796000Y-34720000D01*
X42796000Y-36400000D02*
X42796000Y-37390000D01*
X42836000Y-33752000D02*
X42836000Y-34720000D01*
X42836000Y-36400000D02*
X42836000Y-37368000D01*
X42876000Y-33775000D02*
X42876000Y-34720000D01*
X42876000Y-36400000D02*
X42876000Y-37345000D01*
X42916000Y-33800000D02*
X42916000Y-34720000D01*
X42916000Y-36400000D02*
X42916000Y-37320000D01*
X42956000Y-33825000D02*
X42956000Y-34720000D01*
X42956000Y-36400000D02*
X42956000Y-37295000D01*
X42996000Y-33852000D02*
X42996000Y-34720000D01*
X42996000Y-36400000D02*
X42996000Y-37268000D01*
X43036000Y-33880000D02*
X43036000Y-34720000D01*
X43036000Y-36400000D02*
X43036000Y-37240000D01*
X43076000Y-33910000D02*
X43076000Y-34720000D01*
X43076000Y-36400000D02*
X43076000Y-37210000D01*
X43116000Y-33941000D02*
X43116000Y-34720000D01*
X43116000Y-36400000D02*
X43116000Y-37179000D01*
X43156000Y-33973000D02*
X43156000Y-34720000D01*
X43156000Y-36400000D02*
X43156000Y-37147000D01*
X43196000Y-34008000D02*
X43196000Y-34720000D01*
X43196000Y-36400000D02*
X43196000Y-37112000D01*
X43236000Y-34044000D02*
X43236000Y-34720000D01*
X43236000Y-36400000D02*
X43236000Y-37076000D01*
X43276000Y-34082000D02*
X43276000Y-34720000D01*
X43276000Y-36400000D02*
X43276000Y-37038000D01*
X43316000Y-34122000D02*
X43316000Y-34720000D01*
X43316000Y-36400000D02*
X43316000Y-36998000D01*
X43356000Y-34164000D02*
X43356000Y-34720000D01*
X43356000Y-36400000D02*
X43356000Y-36956000D01*
X43396000Y-34209000D02*
X43396000Y-36911000D01*
X43436000Y-34256000D02*
X43436000Y-36864000D01*
X43476000Y-34306000D02*
X43476000Y-36814000D01*
X43516000Y-34360000D02*
X43516000Y-36760000D01*
X43556000Y-34418000D02*
X43556000Y-36702000D01*
X43596000Y-34480000D02*
X43596000Y-36640000D01*
X43636000Y-34547000D02*
X43636000Y-36573000D01*
X43676000Y-34620000D02*
X43676000Y-36500000D01*
X43716000Y-34701000D02*
X43716000Y-36419000D01*
X43756000Y-34792000D02*
X43756000Y-36328000D01*
X43796000Y-34896000D02*
X43796000Y-36224000D01*
X43836000Y-35023000D02*
X43836000Y-36097000D01*
X43876000Y-35190000D02*
X43876000Y-35930000D01*
X43915000Y-35560000D02*
G75*
G02*
X39675000Y-35560000I-2120000J0D01*
G01*
X39675000Y-35560000D02*
G75*
G02*
X43915000Y-35560000I2120000J0D01*
G01*
X19001051Y-58040000D02*
X25001051Y-58040000D01*
X19001051Y-58800000D02*
X19001051Y-58040000D01*
X19001051Y-60580000D02*
X25001051Y-60580000D01*
X19001051Y-61340000D02*
X19001051Y-60580000D01*
X19001051Y-63120000D02*
X25001051Y-63120000D01*
X19001051Y-63880000D02*
X19001051Y-63120000D01*
X25001051Y-57090000D02*
X25001051Y-64830000D01*
X25001051Y-58800000D02*
X19001051Y-58800000D01*
X25001051Y-61340000D02*
X19001051Y-61340000D01*
X25001051Y-63220000D02*
X19001051Y-63220000D01*
X25001051Y-63340000D02*
X19001051Y-63340000D01*
X25001051Y-63460000D02*
X19001051Y-63460000D01*
X25001051Y-63580000D02*
X19001051Y-63580000D01*
X25001051Y-63700000D02*
X19001051Y-63700000D01*
X25001051Y-63820000D02*
X19001051Y-63820000D01*
X25001051Y-63880000D02*
X19001051Y-63880000D01*
X25001051Y-64830000D02*
X27661051Y-64830000D01*
X27661051Y-57090000D02*
X25001051Y-57090000D01*
X27661051Y-59690000D02*
X25001051Y-59690000D01*
X27661051Y-62230000D02*
X25001051Y-62230000D01*
X27661051Y-64830000D02*
X27661051Y-57090000D01*
X27991051Y-63120000D02*
X27661051Y-63120000D01*
X27991051Y-63880000D02*
X27661051Y-63880000D01*
X28058122Y-58040000D02*
X27661051Y-58040000D01*
X28058122Y-58800000D02*
X27661051Y-58800000D01*
X28058122Y-60580000D02*
X27661051Y-60580000D01*
X28058122Y-61340000D02*
X27661051Y-61340000D01*
X30371051Y-63500000D02*
X30371051Y-64770000D01*
X30371051Y-64770000D02*
X29101051Y-64770000D01*
X67250000Y-67480000D02*
X67250000Y-70140000D01*
X67250000Y-70140000D02*
X72450000Y-70140000D01*
X68200000Y-67082929D02*
X68200000Y-67480000D01*
X68200000Y-76140000D02*
X68200000Y-70140000D01*
X68960000Y-67082929D02*
X68960000Y-67480000D01*
X68960000Y-70140000D02*
X68960000Y-76140000D01*
X68960000Y-76140000D02*
X68200000Y-76140000D01*
X69850000Y-67480000D02*
X69850000Y-70140000D01*
X70740000Y-67150000D02*
X70740000Y-67480000D01*
X70740000Y-76140000D02*
X70740000Y-70140000D01*
X70840000Y-70140000D02*
X70840000Y-76140000D01*
X70960000Y-70140000D02*
X70960000Y-76140000D01*
X71080000Y-70140000D02*
X71080000Y-76140000D01*
X71120000Y-64770000D02*
X72390000Y-64770000D01*
X71200000Y-70140000D02*
X71200000Y-76140000D01*
X71320000Y-70140000D02*
X71320000Y-76140000D01*
X71440000Y-70140000D02*
X71440000Y-76140000D01*
X71500000Y-67150000D02*
X71500000Y-67480000D01*
X71500000Y-70140000D02*
X71500000Y-76140000D01*
X71500000Y-76140000D02*
X70740000Y-76140000D01*
X72390000Y-64770000D02*
X72390000Y-66040000D01*
X72450000Y-67480000D02*
X67250000Y-67480000D01*
X72450000Y-70140000D02*
X72450000Y-67480000D01*
X92650000Y-57725000D02*
X93980000Y-57725000D01*
X92650000Y-59055000D02*
X92650000Y-57725000D01*
X92650000Y-60325000D02*
X92650000Y-65465000D01*
X92650000Y-60325000D02*
X95310000Y-60325000D01*
X92650000Y-65465000D02*
X95310000Y-65465000D01*
X95310000Y-60325000D02*
X95310000Y-65465000D01*
X52099000Y-61103323D02*
X48422000Y-61103323D01*
X52099000Y-61143323D02*
X48433000Y-61143323D01*
X52099000Y-61183323D02*
X48443000Y-61183323D01*
X52099000Y-61223323D02*
X48455000Y-61223323D01*
X52099000Y-61263323D02*
X48466000Y-61263323D01*
X52099000Y-61303323D02*
X48478000Y-61303323D01*
X52099000Y-61343323D02*
X48490000Y-61343323D01*
X52099000Y-61383323D02*
X48503000Y-61383323D01*
X52099000Y-61423323D02*
X48516000Y-61423323D01*
X52099000Y-61463323D02*
X48529000Y-61463323D01*
X52099000Y-61503323D02*
X48543000Y-61503323D01*
X52099000Y-61543323D02*
X48557000Y-61543323D01*
X52099000Y-61583323D02*
X48572000Y-61583323D01*
X52099000Y-61623323D02*
X48586000Y-61623323D01*
X52099000Y-61663323D02*
X48602000Y-61663323D01*
X52099000Y-61703323D02*
X48617000Y-61703323D01*
X52099000Y-61743323D02*
X48633000Y-61743323D01*
X52099000Y-61783323D02*
X48650000Y-61783323D01*
X52099000Y-61823323D02*
X48666000Y-61823323D01*
X52099000Y-61863323D02*
X48683000Y-61863323D01*
X52099000Y-61903323D02*
X48701000Y-61903323D01*
X52099000Y-61943323D02*
X48719000Y-61943323D01*
X52099000Y-61983323D02*
X48737000Y-61983323D01*
X52099000Y-62023323D02*
X48756000Y-62023323D01*
X52099000Y-62063323D02*
X48776000Y-62063323D01*
X52099000Y-62103323D02*
X48795000Y-62103323D01*
X52099000Y-62143323D02*
X48815000Y-62143323D01*
X52099000Y-62183323D02*
X48836000Y-62183323D01*
X52099000Y-62223323D02*
X48857000Y-62223323D01*
X52099000Y-62263323D02*
X48878000Y-62263323D01*
X52099000Y-62303323D02*
X48900000Y-62303323D01*
X52099000Y-62343323D02*
X48923000Y-62343323D01*
X52099000Y-62383323D02*
X48945000Y-62383323D01*
X52099000Y-62423323D02*
X48969000Y-62423323D01*
X52099000Y-62463323D02*
X48993000Y-62463323D01*
X52099000Y-62503323D02*
X49017000Y-62503323D01*
X52099000Y-62543323D02*
X49042000Y-62543323D01*
X52099000Y-62583323D02*
X49067000Y-62583323D01*
X52099000Y-62623323D02*
X49093000Y-62623323D01*
X52099000Y-62663323D02*
X49119000Y-62663323D01*
X52099000Y-62703323D02*
X49146000Y-62703323D01*
X52099000Y-62743323D02*
X49174000Y-62743323D01*
X52099000Y-62783323D02*
X49202000Y-62783323D01*
X52099000Y-62823323D02*
X49230000Y-62823323D01*
X52099000Y-62863323D02*
X49260000Y-62863323D01*
X52099000Y-62903323D02*
X49290000Y-62903323D01*
X52099000Y-62943323D02*
X49320000Y-62943323D01*
X52099000Y-62983323D02*
X49351000Y-62983323D01*
X52099000Y-63023323D02*
X49383000Y-63023323D01*
X52099000Y-63063323D02*
X49415000Y-63063323D01*
X52099000Y-63103323D02*
X49448000Y-63103323D01*
X52099000Y-63143323D02*
X49482000Y-63143323D01*
X52099000Y-63183323D02*
X49516000Y-63183323D01*
X52099000Y-63223323D02*
X49551000Y-63223323D01*
X52099000Y-63263323D02*
X49587000Y-63263323D01*
X52099000Y-63303323D02*
X49624000Y-63303323D01*
X52099000Y-63343323D02*
X49661000Y-63343323D01*
X52099000Y-63383323D02*
X49700000Y-63383323D01*
X52099000Y-63423323D02*
X49739000Y-63423323D01*
X52099000Y-63463323D02*
X49779000Y-63463323D01*
X52099000Y-63503323D02*
X49820000Y-63503323D01*
X52099000Y-63543323D02*
X49862000Y-63543323D01*
X53939000Y-64903323D02*
X52741000Y-64903323D01*
X54202000Y-64863323D02*
X52478000Y-64863323D01*
X54402000Y-64823323D02*
X52278000Y-64823323D01*
X54570000Y-64783323D02*
X52110000Y-64783323D01*
X54718000Y-64743323D02*
X51962000Y-64743323D01*
X54850000Y-64703323D02*
X51830000Y-64703323D01*
X54970000Y-64663323D02*
X51710000Y-64663323D01*
X55082000Y-64623323D02*
X51598000Y-64623323D01*
X55186000Y-64583323D02*
X51494000Y-64583323D01*
X55284000Y-64543323D02*
X51396000Y-64543323D01*
X55377000Y-64503323D02*
X51303000Y-64503323D01*
X55465000Y-64463323D02*
X51215000Y-64463323D01*
X55549000Y-64423323D02*
X51131000Y-64423323D01*
X55629000Y-64383323D02*
X51051000Y-64383323D01*
X55705000Y-64343323D02*
X50975000Y-64343323D01*
X55779000Y-64303323D02*
X50901000Y-64303323D01*
X55850000Y-64263323D02*
X50830000Y-64263323D01*
X55919000Y-64223323D02*
X50761000Y-64223323D01*
X55985000Y-64183323D02*
X50695000Y-64183323D01*
X56049000Y-64143323D02*
X50631000Y-64143323D01*
X56110000Y-64103323D02*
X50570000Y-64103323D01*
X56170000Y-64063323D02*
X50510000Y-64063323D01*
X56215000Y-54342677D02*
X56215000Y-55342677D01*
X56229000Y-64023323D02*
X50451000Y-64023323D01*
X56285000Y-63983323D02*
X50395000Y-63983323D01*
X56340000Y-63943323D02*
X50340000Y-63943323D01*
X56394000Y-63903323D02*
X50286000Y-63903323D01*
X56446000Y-63863323D02*
X50234000Y-63863323D01*
X56496000Y-63823323D02*
X50184000Y-63823323D01*
X56546000Y-63783323D02*
X50134000Y-63783323D01*
X56594000Y-63743323D02*
X50086000Y-63743323D01*
X56641000Y-63703323D02*
X50039000Y-63703323D01*
X56687000Y-63663323D02*
X49993000Y-63663323D01*
X56715000Y-54842677D02*
X55715000Y-54842677D01*
X56732000Y-63623323D02*
X49948000Y-63623323D01*
X56776000Y-63583323D02*
X49904000Y-63583323D01*
X56818000Y-63543323D02*
X54581000Y-63543323D01*
X56860000Y-63503323D02*
X54581000Y-63503323D01*
X56901000Y-63463323D02*
X54581000Y-63463323D01*
X56941000Y-63423323D02*
X54581000Y-63423323D01*
X56980000Y-63383323D02*
X54581000Y-63383323D01*
X57019000Y-63343323D02*
X54581000Y-63343323D01*
X57056000Y-63303323D02*
X54581000Y-63303323D01*
X57093000Y-63263323D02*
X54581000Y-63263323D01*
X57129000Y-63223323D02*
X54581000Y-63223323D01*
X57164000Y-63183323D02*
X54581000Y-63183323D01*
X57198000Y-63143323D02*
X54581000Y-63143323D01*
X57232000Y-63103323D02*
X54581000Y-63103323D01*
X57265000Y-63063323D02*
X54581000Y-63063323D01*
X57297000Y-63023323D02*
X54581000Y-63023323D01*
X57329000Y-62983323D02*
X54581000Y-62983323D01*
X57360000Y-62943323D02*
X54581000Y-62943323D01*
X57390000Y-62903323D02*
X54581000Y-62903323D01*
X57420000Y-62863323D02*
X54581000Y-62863323D01*
X57450000Y-62823323D02*
X54581000Y-62823323D01*
X57478000Y-62783323D02*
X54581000Y-62783323D01*
X57506000Y-62743323D02*
X54581000Y-62743323D01*
X57534000Y-62703323D02*
X54581000Y-62703323D01*
X57561000Y-62663323D02*
X54581000Y-62663323D01*
X57587000Y-62623323D02*
X54581000Y-62623323D01*
X57613000Y-62583323D02*
X54581000Y-62583323D01*
X57638000Y-62543323D02*
X54581000Y-62543323D01*
X57663000Y-62503323D02*
X54581000Y-62503323D01*
X57687000Y-62463323D02*
X54581000Y-62463323D01*
X57711000Y-62423323D02*
X54581000Y-62423323D01*
X57735000Y-62383323D02*
X54581000Y-62383323D01*
X57757000Y-62343323D02*
X54581000Y-62343323D01*
X57780000Y-62303323D02*
X54581000Y-62303323D01*
X57802000Y-62263323D02*
X54581000Y-62263323D01*
X57823000Y-62223323D02*
X54581000Y-62223323D01*
X57844000Y-62183323D02*
X54581000Y-62183323D01*
X57865000Y-62143323D02*
X54581000Y-62143323D01*
X57885000Y-62103323D02*
X54581000Y-62103323D01*
X57904000Y-62063323D02*
X54581000Y-62063323D01*
X57924000Y-62023323D02*
X54581000Y-62023323D01*
X57943000Y-61983323D02*
X54581000Y-61983323D01*
X57961000Y-61943323D02*
X54581000Y-61943323D01*
X57979000Y-61903323D02*
X54581000Y-61903323D01*
X57997000Y-61863323D02*
X54581000Y-61863323D01*
X58014000Y-61823323D02*
X54581000Y-61823323D01*
X58030000Y-61783323D02*
X54581000Y-61783323D01*
X58047000Y-61743323D02*
X54581000Y-61743323D01*
X58063000Y-61703323D02*
X54581000Y-61703323D01*
X58078000Y-61663323D02*
X54581000Y-61663323D01*
X58094000Y-61623323D02*
X54581000Y-61623323D01*
X58108000Y-61583323D02*
X54581000Y-61583323D01*
X58123000Y-61543323D02*
X54581000Y-61543323D01*
X58137000Y-61503323D02*
X54581000Y-61503323D01*
X58151000Y-61463323D02*
X54581000Y-61463323D01*
X58164000Y-61423323D02*
X54581000Y-61423323D01*
X58177000Y-61383323D02*
X54581000Y-61383323D01*
X58190000Y-61343323D02*
X54581000Y-61343323D01*
X58202000Y-61303323D02*
X54581000Y-61303323D01*
X58214000Y-61263323D02*
X54581000Y-61263323D01*
X58225000Y-61223323D02*
X54581000Y-61223323D01*
X58237000Y-61183323D02*
X54581000Y-61183323D01*
X58247000Y-61143323D02*
X54581000Y-61143323D01*
X58258000Y-61103323D02*
X54581000Y-61103323D01*
X58268000Y-61063323D02*
X48412000Y-61063323D01*
X58278000Y-61023323D02*
X48402000Y-61023323D01*
X58287000Y-60983323D02*
X48393000Y-60983323D01*
X58296000Y-60943323D02*
X48384000Y-60943323D01*
X58305000Y-60903323D02*
X48375000Y-60903323D01*
X58314000Y-60863323D02*
X48366000Y-60863323D01*
X58322000Y-60823323D02*
X48358000Y-60823323D01*
X58330000Y-60783323D02*
X48350000Y-60783323D01*
X58337000Y-60743323D02*
X48343000Y-60743323D01*
X58344000Y-60703323D02*
X48336000Y-60703323D01*
X58351000Y-60663323D02*
X48329000Y-60663323D01*
X58358000Y-60623323D02*
X48322000Y-60623323D01*
X58364000Y-60583323D02*
X48316000Y-60583323D01*
X58370000Y-60543323D02*
X48310000Y-60543323D01*
X58375000Y-60502323D02*
X48305000Y-60502323D01*
X58380000Y-60462323D02*
X48300000Y-60462323D01*
X58385000Y-60422323D02*
X48295000Y-60422323D01*
X58390000Y-60382323D02*
X48290000Y-60382323D01*
X58394000Y-60342323D02*
X48286000Y-60342323D01*
X58398000Y-60302323D02*
X48282000Y-60302323D01*
X58402000Y-60262323D02*
X48278000Y-60262323D01*
X58405000Y-60222323D02*
X48275000Y-60222323D01*
X58408000Y-60182323D02*
X48272000Y-60182323D01*
X58410000Y-60142323D02*
X48270000Y-60142323D01*
X58413000Y-60102323D02*
X48267000Y-60102323D01*
X58415000Y-60062323D02*
X48265000Y-60062323D01*
X58417000Y-60022323D02*
X48263000Y-60022323D01*
X58418000Y-59982323D02*
X48262000Y-59982323D01*
X58419000Y-59942323D02*
X48261000Y-59942323D01*
X58420000Y-59822323D02*
X48260000Y-59822323D01*
X58420000Y-59862323D02*
X48260000Y-59862323D01*
X58420000Y-59902323D02*
X48260000Y-59902323D01*
X58460000Y-59822323D02*
G75*
G02*
X48220000Y-59822323I-5120000J0D01*
G01*
X48220000Y-59822323D02*
G75*
G02*
X58460000Y-59822323I5120000J0D01*
G01*
X79780000Y-51435000D02*
X80550000Y-51435000D01*
X80550000Y-50065000D02*
X80550000Y-52805000D01*
X80550000Y-52805000D02*
X87090000Y-52805000D01*
X87090000Y-50065000D02*
X80550000Y-50065000D01*
X87090000Y-52805000D02*
X87090000Y-50065000D01*
X87860000Y-51435000D02*
X87090000Y-51435000D01*
X33425000Y-52070000D02*
X34195000Y-52070000D01*
X34195000Y-50700000D02*
X34195000Y-53440000D01*
X34195000Y-53440000D02*
X40735000Y-53440000D01*
X40735000Y-50700000D02*
X34195000Y-50700000D01*
X40735000Y-53440000D02*
X40735000Y-50700000D01*
X41505000Y-52070000D02*
X40735000Y-52070000D01*
X85119000Y-61011000D02*
X81442000Y-61011000D01*
X85119000Y-61051000D02*
X81453000Y-61051000D01*
X85119000Y-61091000D02*
X81463000Y-61091000D01*
X85119000Y-61131000D02*
X81475000Y-61131000D01*
X85119000Y-61171000D02*
X81486000Y-61171000D01*
X85119000Y-61211000D02*
X81498000Y-61211000D01*
X85119000Y-61251000D02*
X81510000Y-61251000D01*
X85119000Y-61291000D02*
X81523000Y-61291000D01*
X85119000Y-61331000D02*
X81536000Y-61331000D01*
X85119000Y-61371000D02*
X81549000Y-61371000D01*
X85119000Y-61411000D02*
X81563000Y-61411000D01*
X85119000Y-61451000D02*
X81577000Y-61451000D01*
X85119000Y-61491000D02*
X81592000Y-61491000D01*
X85119000Y-61531000D02*
X81606000Y-61531000D01*
X85119000Y-61571000D02*
X81622000Y-61571000D01*
X85119000Y-61611000D02*
X81637000Y-61611000D01*
X85119000Y-61651000D02*
X81653000Y-61651000D01*
X85119000Y-61691000D02*
X81670000Y-61691000D01*
X85119000Y-61731000D02*
X81686000Y-61731000D01*
X85119000Y-61771000D02*
X81703000Y-61771000D01*
X85119000Y-61811000D02*
X81721000Y-61811000D01*
X85119000Y-61851000D02*
X81739000Y-61851000D01*
X85119000Y-61891000D02*
X81757000Y-61891000D01*
X85119000Y-61931000D02*
X81776000Y-61931000D01*
X85119000Y-61971000D02*
X81796000Y-61971000D01*
X85119000Y-62011000D02*
X81815000Y-62011000D01*
X85119000Y-62051000D02*
X81835000Y-62051000D01*
X85119000Y-62091000D02*
X81856000Y-62091000D01*
X85119000Y-62131000D02*
X81877000Y-62131000D01*
X85119000Y-62171000D02*
X81898000Y-62171000D01*
X85119000Y-62211000D02*
X81920000Y-62211000D01*
X85119000Y-62251000D02*
X81943000Y-62251000D01*
X85119000Y-62291000D02*
X81965000Y-62291000D01*
X85119000Y-62331000D02*
X81989000Y-62331000D01*
X85119000Y-62371000D02*
X82013000Y-62371000D01*
X85119000Y-62411000D02*
X82037000Y-62411000D01*
X85119000Y-62451000D02*
X82062000Y-62451000D01*
X85119000Y-62491000D02*
X82087000Y-62491000D01*
X85119000Y-62531000D02*
X82113000Y-62531000D01*
X85119000Y-62571000D02*
X82139000Y-62571000D01*
X85119000Y-62611000D02*
X82166000Y-62611000D01*
X85119000Y-62651000D02*
X82194000Y-62651000D01*
X85119000Y-62691000D02*
X82222000Y-62691000D01*
X85119000Y-62731000D02*
X82250000Y-62731000D01*
X85119000Y-62771000D02*
X82280000Y-62771000D01*
X85119000Y-62811000D02*
X82310000Y-62811000D01*
X85119000Y-62851000D02*
X82340000Y-62851000D01*
X85119000Y-62891000D02*
X82371000Y-62891000D01*
X85119000Y-62931000D02*
X82403000Y-62931000D01*
X85119000Y-62971000D02*
X82435000Y-62971000D01*
X85119000Y-63011000D02*
X82468000Y-63011000D01*
X85119000Y-63051000D02*
X82502000Y-63051000D01*
X85119000Y-63091000D02*
X82536000Y-63091000D01*
X85119000Y-63131000D02*
X82571000Y-63131000D01*
X85119000Y-63171000D02*
X82607000Y-63171000D01*
X85119000Y-63211000D02*
X82644000Y-63211000D01*
X85119000Y-63251000D02*
X82681000Y-63251000D01*
X85119000Y-63291000D02*
X82720000Y-63291000D01*
X85119000Y-63331000D02*
X82759000Y-63331000D01*
X85119000Y-63371000D02*
X82799000Y-63371000D01*
X85119000Y-63411000D02*
X82840000Y-63411000D01*
X85119000Y-63451000D02*
X82882000Y-63451000D01*
X86959000Y-64811000D02*
X85761000Y-64811000D01*
X87222000Y-64771000D02*
X85498000Y-64771000D01*
X87422000Y-64731000D02*
X85298000Y-64731000D01*
X87590000Y-64691000D02*
X85130000Y-64691000D01*
X87738000Y-64651000D02*
X84982000Y-64651000D01*
X87870000Y-64611000D02*
X84850000Y-64611000D01*
X87990000Y-64571000D02*
X84730000Y-64571000D01*
X88102000Y-64531000D02*
X84618000Y-64531000D01*
X88206000Y-64491000D02*
X84514000Y-64491000D01*
X88304000Y-64451000D02*
X84416000Y-64451000D01*
X88397000Y-64411000D02*
X84323000Y-64411000D01*
X88485000Y-64371000D02*
X84235000Y-64371000D01*
X88569000Y-64331000D02*
X84151000Y-64331000D01*
X88649000Y-64291000D02*
X84071000Y-64291000D01*
X88725000Y-64251000D02*
X83995000Y-64251000D01*
X88799000Y-64211000D02*
X83921000Y-64211000D01*
X88870000Y-64171000D02*
X83850000Y-64171000D01*
X88939000Y-64131000D02*
X83781000Y-64131000D01*
X89005000Y-64091000D02*
X83715000Y-64091000D01*
X89069000Y-64051000D02*
X83651000Y-64051000D01*
X89130000Y-64011000D02*
X83590000Y-64011000D01*
X89190000Y-63971000D02*
X83530000Y-63971000D01*
X89235000Y-54250354D02*
X89235000Y-55250354D01*
X89249000Y-63931000D02*
X83471000Y-63931000D01*
X89305000Y-63891000D02*
X83415000Y-63891000D01*
X89360000Y-63851000D02*
X83360000Y-63851000D01*
X89414000Y-63811000D02*
X83306000Y-63811000D01*
X89466000Y-63771000D02*
X83254000Y-63771000D01*
X89516000Y-63731000D02*
X83204000Y-63731000D01*
X89566000Y-63691000D02*
X83154000Y-63691000D01*
X89614000Y-63651000D02*
X83106000Y-63651000D01*
X89661000Y-63611000D02*
X83059000Y-63611000D01*
X89707000Y-63571000D02*
X83013000Y-63571000D01*
X89735000Y-54750354D02*
X88735000Y-54750354D01*
X89752000Y-63531000D02*
X82968000Y-63531000D01*
X89796000Y-63491000D02*
X82924000Y-63491000D01*
X89838000Y-63451000D02*
X87601000Y-63451000D01*
X89880000Y-63411000D02*
X87601000Y-63411000D01*
X89921000Y-63371000D02*
X87601000Y-63371000D01*
X89961000Y-63331000D02*
X87601000Y-63331000D01*
X90000000Y-63291000D02*
X87601000Y-63291000D01*
X90039000Y-63251000D02*
X87601000Y-63251000D01*
X90076000Y-63211000D02*
X87601000Y-63211000D01*
X90113000Y-63171000D02*
X87601000Y-63171000D01*
X90149000Y-63131000D02*
X87601000Y-63131000D01*
X90184000Y-63091000D02*
X87601000Y-63091000D01*
X90218000Y-63051000D02*
X87601000Y-63051000D01*
X90252000Y-63011000D02*
X87601000Y-63011000D01*
X90285000Y-62971000D02*
X87601000Y-62971000D01*
X90317000Y-62931000D02*
X87601000Y-62931000D01*
X90349000Y-62891000D02*
X87601000Y-62891000D01*
X90380000Y-62851000D02*
X87601000Y-62851000D01*
X90410000Y-62811000D02*
X87601000Y-62811000D01*
X90440000Y-62771000D02*
X87601000Y-62771000D01*
X90470000Y-62731000D02*
X87601000Y-62731000D01*
X90498000Y-62691000D02*
X87601000Y-62691000D01*
X90526000Y-62651000D02*
X87601000Y-62651000D01*
X90554000Y-62611000D02*
X87601000Y-62611000D01*
X90581000Y-62571000D02*
X87601000Y-62571000D01*
X90607000Y-62531000D02*
X87601000Y-62531000D01*
X90633000Y-62491000D02*
X87601000Y-62491000D01*
X90658000Y-62451000D02*
X87601000Y-62451000D01*
X90683000Y-62411000D02*
X87601000Y-62411000D01*
X90707000Y-62371000D02*
X87601000Y-62371000D01*
X90731000Y-62331000D02*
X87601000Y-62331000D01*
X90755000Y-62291000D02*
X87601000Y-62291000D01*
X90777000Y-62251000D02*
X87601000Y-62251000D01*
X90800000Y-62211000D02*
X87601000Y-62211000D01*
X90822000Y-62171000D02*
X87601000Y-62171000D01*
X90843000Y-62131000D02*
X87601000Y-62131000D01*
X90864000Y-62091000D02*
X87601000Y-62091000D01*
X90885000Y-62051000D02*
X87601000Y-62051000D01*
X90905000Y-62011000D02*
X87601000Y-62011000D01*
X90924000Y-61971000D02*
X87601000Y-61971000D01*
X90944000Y-61931000D02*
X87601000Y-61931000D01*
X90963000Y-61891000D02*
X87601000Y-61891000D01*
X90981000Y-61851000D02*
X87601000Y-61851000D01*
X90999000Y-61811000D02*
X87601000Y-61811000D01*
X91017000Y-61771000D02*
X87601000Y-61771000D01*
X91034000Y-61731000D02*
X87601000Y-61731000D01*
X91050000Y-61691000D02*
X87601000Y-61691000D01*
X91067000Y-61651000D02*
X87601000Y-61651000D01*
X91083000Y-61611000D02*
X87601000Y-61611000D01*
X91098000Y-61571000D02*
X87601000Y-61571000D01*
X91114000Y-61531000D02*
X87601000Y-61531000D01*
X91128000Y-61491000D02*
X87601000Y-61491000D01*
X91143000Y-61451000D02*
X87601000Y-61451000D01*
X91157000Y-61411000D02*
X87601000Y-61411000D01*
X91171000Y-61371000D02*
X87601000Y-61371000D01*
X91184000Y-61331000D02*
X87601000Y-61331000D01*
X91197000Y-61291000D02*
X87601000Y-61291000D01*
X91210000Y-61251000D02*
X87601000Y-61251000D01*
X91222000Y-61211000D02*
X87601000Y-61211000D01*
X91234000Y-61171000D02*
X87601000Y-61171000D01*
X91245000Y-61131000D02*
X87601000Y-61131000D01*
X91257000Y-61091000D02*
X87601000Y-61091000D01*
X91267000Y-61051000D02*
X87601000Y-61051000D01*
X91278000Y-61011000D02*
X87601000Y-61011000D01*
X91288000Y-60971000D02*
X81432000Y-60971000D01*
X91298000Y-60931000D02*
X81422000Y-60931000D01*
X91307000Y-60891000D02*
X81413000Y-60891000D01*
X91316000Y-60851000D02*
X81404000Y-60851000D01*
X91325000Y-60811000D02*
X81395000Y-60811000D01*
X91334000Y-60771000D02*
X81386000Y-60771000D01*
X91342000Y-60731000D02*
X81378000Y-60731000D01*
X91350000Y-60691000D02*
X81370000Y-60691000D01*
X91357000Y-60651000D02*
X81363000Y-60651000D01*
X91364000Y-60611000D02*
X81356000Y-60611000D01*
X91371000Y-60571000D02*
X81349000Y-60571000D01*
X91378000Y-60531000D02*
X81342000Y-60531000D01*
X91384000Y-60491000D02*
X81336000Y-60491000D01*
X91390000Y-60451000D02*
X81330000Y-60451000D01*
X91395000Y-60410000D02*
X81325000Y-60410000D01*
X91400000Y-60370000D02*
X81320000Y-60370000D01*
X91405000Y-60330000D02*
X81315000Y-60330000D01*
X91410000Y-60290000D02*
X81310000Y-60290000D01*
X91414000Y-60250000D02*
X81306000Y-60250000D01*
X91418000Y-60210000D02*
X81302000Y-60210000D01*
X91422000Y-60170000D02*
X81298000Y-60170000D01*
X91425000Y-60130000D02*
X81295000Y-60130000D01*
X91428000Y-60090000D02*
X81292000Y-60090000D01*
X91430000Y-60050000D02*
X81290000Y-60050000D01*
X91433000Y-60010000D02*
X81287000Y-60010000D01*
X91435000Y-59970000D02*
X81285000Y-59970000D01*
X91437000Y-59930000D02*
X81283000Y-59930000D01*
X91438000Y-59890000D02*
X81282000Y-59890000D01*
X91439000Y-59850000D02*
X81281000Y-59850000D01*
X91440000Y-59730000D02*
X81280000Y-59730000D01*
X91440000Y-59770000D02*
X81280000Y-59770000D01*
X91440000Y-59810000D02*
X81280000Y-59810000D01*
X91480000Y-59730000D02*
G75*
G02*
X81240000Y-59730000I-5120000J0D01*
G01*
X81240000Y-59730000D02*
G75*
G02*
X91480000Y-59730000I5120000J0D01*
G01*
X34060000Y-27940000D02*
X34830000Y-27940000D01*
X34830000Y-26570000D02*
X34830000Y-29310000D01*
X34830000Y-29310000D02*
X41370000Y-29310000D01*
X41370000Y-26570000D02*
X34830000Y-26570000D01*
X41370000Y-29310000D02*
X41370000Y-26570000D01*
X42140000Y-27940000D02*
X41370000Y-27940000D01*
X68410000Y-58271000D02*
X63358000Y-58271000D01*
X68410000Y-58311000D02*
X63365000Y-58311000D01*
X68410000Y-58351000D02*
X63372000Y-58351000D01*
X68410000Y-58391000D02*
X63379000Y-58391000D01*
X68410000Y-58431000D02*
X63387000Y-58431000D01*
X68410000Y-58471000D02*
X63394000Y-58471000D01*
X68410000Y-58511000D02*
X63402000Y-58511000D01*
X68410000Y-58551000D02*
X63411000Y-58551000D01*
X68410000Y-58591000D02*
X63419000Y-58591000D01*
X68410000Y-58631000D02*
X63428000Y-58631000D01*
X68410000Y-58671000D02*
X63437000Y-58671000D01*
X68410000Y-58711000D02*
X63446000Y-58711000D01*
X68410000Y-58751000D02*
X63456000Y-58751000D01*
X68410000Y-58791000D02*
X63466000Y-58791000D01*
X68410000Y-58831000D02*
X63476000Y-58831000D01*
X68410000Y-58871000D02*
X63486000Y-58871000D01*
X68410000Y-58911000D02*
X63497000Y-58911000D01*
X68410000Y-58951000D02*
X63508000Y-58951000D01*
X68410000Y-58991000D02*
X63519000Y-58991000D01*
X68410000Y-59031000D02*
X63530000Y-59031000D01*
X68410000Y-59071000D02*
X63542000Y-59071000D01*
X68410000Y-59111000D02*
X63554000Y-59111000D01*
X68410000Y-59151000D02*
X63566000Y-59151000D01*
X68410000Y-59191000D02*
X63579000Y-59191000D01*
X68410000Y-59231000D02*
X63592000Y-59231000D01*
X68410000Y-59271000D02*
X63605000Y-59271000D01*
X68410000Y-59311000D02*
X63618000Y-59311000D01*
X68410000Y-59351000D02*
X63632000Y-59351000D01*
X68410000Y-59391000D02*
X63646000Y-59391000D01*
X68410000Y-59431000D02*
X63660000Y-59431000D01*
X68410000Y-59471000D02*
X63675000Y-59471000D01*
X68410000Y-59511000D02*
X63689000Y-59511000D01*
X68410000Y-59551000D02*
X63704000Y-59551000D01*
X68410000Y-59591000D02*
X63720000Y-59591000D01*
X68410000Y-59631000D02*
X63736000Y-59631000D01*
X68410000Y-59671000D02*
X63752000Y-59671000D01*
X68410000Y-59711000D02*
X63768000Y-59711000D01*
X68410000Y-59751000D02*
X63785000Y-59751000D01*
X68410000Y-59791000D02*
X63801000Y-59791000D01*
X68410000Y-59831000D02*
X63819000Y-59831000D01*
X68410000Y-59871000D02*
X63836000Y-59871000D01*
X68410000Y-59911000D02*
X63854000Y-59911000D01*
X68410000Y-59951000D02*
X63872000Y-59951000D01*
X68410000Y-59991000D02*
X63891000Y-59991000D01*
X68410000Y-60031000D02*
X63910000Y-60031000D01*
X68410000Y-60071000D02*
X63929000Y-60071000D01*
X68410000Y-60111000D02*
X63948000Y-60111000D01*
X68410000Y-60151000D02*
X63968000Y-60151000D01*
X68410000Y-60191000D02*
X63988000Y-60191000D01*
X68410000Y-60231000D02*
X64009000Y-60231000D01*
X68410000Y-60271000D02*
X64030000Y-60271000D01*
X68410000Y-60311000D02*
X64051000Y-60311000D01*
X68410000Y-60351000D02*
X64072000Y-60351000D01*
X68410000Y-60391000D02*
X64094000Y-60391000D01*
X68410000Y-60431000D02*
X64117000Y-60431000D01*
X68410000Y-60471000D02*
X64139000Y-60471000D01*
X68410000Y-60511000D02*
X64162000Y-60511000D01*
X68410000Y-60551000D02*
X64186000Y-60551000D01*
X68410000Y-60591000D02*
X64209000Y-60591000D01*
X68410000Y-60631000D02*
X64233000Y-60631000D01*
X68410000Y-60671000D02*
X64258000Y-60671000D01*
X68410000Y-60711000D02*
X64283000Y-60711000D01*
X68410000Y-60751000D02*
X64308000Y-60751000D01*
X68410000Y-60791000D02*
X64334000Y-60791000D01*
X68410000Y-60831000D02*
X64360000Y-60831000D01*
X68410000Y-60871000D02*
X64387000Y-60871000D01*
X68410000Y-60911000D02*
X64414000Y-60911000D01*
X68410000Y-60951000D02*
X64441000Y-60951000D01*
X68410000Y-60991000D02*
X64469000Y-60991000D01*
X68410000Y-61031000D02*
X64497000Y-61031000D01*
X68410000Y-61071000D02*
X64526000Y-61071000D01*
X68410000Y-61111000D02*
X64555000Y-61111000D01*
X70325000Y-63791000D02*
X69375000Y-63791000D01*
X70700000Y-63751000D02*
X69000000Y-63751000D01*
X70957000Y-63711000D02*
X68743000Y-63711000D01*
X71165000Y-63671000D02*
X68535000Y-63671000D01*
X71344000Y-63631000D02*
X68356000Y-63631000D01*
X71503000Y-63591000D02*
X68197000Y-63591000D01*
X71648000Y-63551000D02*
X68052000Y-63551000D01*
X71781000Y-63511000D02*
X67919000Y-63511000D01*
X71905000Y-63471000D02*
X67795000Y-63471000D01*
X72021000Y-63431000D02*
X67679000Y-63431000D01*
X72131000Y-63391000D02*
X67569000Y-63391000D01*
X72235000Y-63351000D02*
X67465000Y-63351000D01*
X72334000Y-63311000D02*
X67366000Y-63311000D01*
X72429000Y-63271000D02*
X67271000Y-63271000D01*
X72520000Y-63231000D02*
X67180000Y-63231000D01*
X72608000Y-63191000D02*
X67092000Y-63191000D01*
X72692000Y-63151000D02*
X67008000Y-63151000D01*
X72773000Y-63111000D02*
X66927000Y-63111000D01*
X72852000Y-63071000D02*
X66848000Y-63071000D01*
X72928000Y-63031000D02*
X66772000Y-63031000D01*
X73002000Y-62991000D02*
X66698000Y-62991000D01*
X73073000Y-62951000D02*
X66627000Y-62951000D01*
X73143000Y-62911000D02*
X66557000Y-62911000D01*
X73211000Y-62871000D02*
X66489000Y-62871000D01*
X73277000Y-62831000D02*
X66423000Y-62831000D01*
X73341000Y-62791000D02*
X66359000Y-62791000D01*
X73404000Y-62751000D02*
X66296000Y-62751000D01*
X73465000Y-62711000D02*
X66235000Y-62711000D01*
X73525000Y-62671000D02*
X66175000Y-62671000D01*
X73565000Y-50105431D02*
X73565000Y-51405431D01*
X73583000Y-62631000D02*
X66117000Y-62631000D01*
X73640000Y-62591000D02*
X66060000Y-62591000D01*
X73696000Y-62551000D02*
X66004000Y-62551000D01*
X73750000Y-62511000D02*
X65950000Y-62511000D01*
X73804000Y-62471000D02*
X65896000Y-62471000D01*
X73856000Y-62431000D02*
X65844000Y-62431000D01*
X73907000Y-62391000D02*
X65793000Y-62391000D01*
X73958000Y-62351000D02*
X65742000Y-62351000D01*
X74007000Y-62311000D02*
X65693000Y-62311000D01*
X74055000Y-62271000D02*
X65645000Y-62271000D01*
X74103000Y-62231000D02*
X65597000Y-62231000D01*
X74149000Y-62191000D02*
X65551000Y-62191000D01*
X74195000Y-62151000D02*
X65505000Y-62151000D01*
X74215000Y-50755431D02*
X72915000Y-50755431D01*
X74240000Y-62111000D02*
X65460000Y-62111000D01*
X74284000Y-62071000D02*
X65416000Y-62071000D01*
X74327000Y-62031000D02*
X65373000Y-62031000D01*
X74369000Y-61991000D02*
X65331000Y-61991000D01*
X74411000Y-61951000D02*
X65289000Y-61951000D01*
X74452000Y-61911000D02*
X65248000Y-61911000D01*
X74493000Y-61871000D02*
X65207000Y-61871000D01*
X74532000Y-61831000D02*
X65168000Y-61831000D01*
X74571000Y-61791000D02*
X65129000Y-61791000D01*
X74610000Y-61751000D02*
X65090000Y-61751000D01*
X74647000Y-61711000D02*
X65053000Y-61711000D01*
X74684000Y-61671000D02*
X65016000Y-61671000D01*
X74721000Y-61631000D02*
X64979000Y-61631000D01*
X74757000Y-61591000D02*
X64943000Y-61591000D01*
X74792000Y-61551000D02*
X64908000Y-61551000D01*
X74827000Y-61511000D02*
X64873000Y-61511000D01*
X74861000Y-61471000D02*
X64839000Y-61471000D01*
X74894000Y-61431000D02*
X64806000Y-61431000D01*
X74928000Y-61391000D02*
X64772000Y-61391000D01*
X74960000Y-61351000D02*
X64740000Y-61351000D01*
X74992000Y-61311000D02*
X64708000Y-61311000D01*
X75024000Y-61271000D02*
X64676000Y-61271000D01*
X75055000Y-61231000D02*
X64645000Y-61231000D01*
X75085000Y-61191000D02*
X64615000Y-61191000D01*
X75115000Y-61151000D02*
X64585000Y-61151000D01*
X75145000Y-61111000D02*
X71290000Y-61111000D01*
X75174000Y-61071000D02*
X71290000Y-61071000D01*
X75203000Y-61031000D02*
X71290000Y-61031000D01*
X75231000Y-60991000D02*
X71290000Y-60991000D01*
X75259000Y-60951000D02*
X71290000Y-60951000D01*
X75286000Y-60911000D02*
X71290000Y-60911000D01*
X75313000Y-60871000D02*
X71290000Y-60871000D01*
X75340000Y-60831000D02*
X71290000Y-60831000D01*
X75366000Y-60791000D02*
X71290000Y-60791000D01*
X75392000Y-60751000D02*
X71290000Y-60751000D01*
X75417000Y-60711000D02*
X71290000Y-60711000D01*
X75442000Y-60671000D02*
X71290000Y-60671000D01*
X75467000Y-60631000D02*
X71290000Y-60631000D01*
X75491000Y-60591000D02*
X71290000Y-60591000D01*
X75514000Y-60551000D02*
X71290000Y-60551000D01*
X75538000Y-60511000D02*
X71290000Y-60511000D01*
X75561000Y-60471000D02*
X71290000Y-60471000D01*
X75583000Y-60431000D02*
X71290000Y-60431000D01*
X75606000Y-60391000D02*
X71290000Y-60391000D01*
X75628000Y-60351000D02*
X71290000Y-60351000D01*
X75649000Y-60311000D02*
X71290000Y-60311000D01*
X75670000Y-60271000D02*
X71290000Y-60271000D01*
X75691000Y-60231000D02*
X71290000Y-60231000D01*
X75712000Y-60191000D02*
X71290000Y-60191000D01*
X75732000Y-60151000D02*
X71290000Y-60151000D01*
X75752000Y-60111000D02*
X71290000Y-60111000D01*
X75771000Y-60071000D02*
X71290000Y-60071000D01*
X75790000Y-60031000D02*
X71290000Y-60031000D01*
X75809000Y-59991000D02*
X71290000Y-59991000D01*
X75828000Y-59951000D02*
X71290000Y-59951000D01*
X75846000Y-59911000D02*
X71290000Y-59911000D01*
X75864000Y-59871000D02*
X71290000Y-59871000D01*
X75881000Y-59831000D02*
X71290000Y-59831000D01*
X75899000Y-59791000D02*
X71290000Y-59791000D01*
X75915000Y-59751000D02*
X71290000Y-59751000D01*
X75932000Y-59711000D02*
X71290000Y-59711000D01*
X75948000Y-59671000D02*
X71290000Y-59671000D01*
X75964000Y-59631000D02*
X71290000Y-59631000D01*
X75980000Y-59591000D02*
X71290000Y-59591000D01*
X75996000Y-59551000D02*
X71290000Y-59551000D01*
X76011000Y-59511000D02*
X71290000Y-59511000D01*
X76025000Y-59471000D02*
X71290000Y-59471000D01*
X76040000Y-59431000D02*
X71290000Y-59431000D01*
X76054000Y-59391000D02*
X71290000Y-59391000D01*
X76068000Y-59351000D02*
X71290000Y-59351000D01*
X76082000Y-59311000D02*
X71290000Y-59311000D01*
X76095000Y-59271000D02*
X71290000Y-59271000D01*
X76108000Y-59231000D02*
X71290000Y-59231000D01*
X76121000Y-59191000D02*
X71290000Y-59191000D01*
X76134000Y-59151000D02*
X71290000Y-59151000D01*
X76146000Y-59111000D02*
X71290000Y-59111000D01*
X76158000Y-59071000D02*
X71290000Y-59071000D01*
X76170000Y-59031000D02*
X71290000Y-59031000D01*
X76181000Y-58991000D02*
X71290000Y-58991000D01*
X76192000Y-58951000D02*
X71290000Y-58951000D01*
X76203000Y-58911000D02*
X71290000Y-58911000D01*
X76214000Y-58871000D02*
X71290000Y-58871000D01*
X76224000Y-58831000D02*
X71290000Y-58831000D01*
X76234000Y-58791000D02*
X71290000Y-58791000D01*
X76244000Y-58751000D02*
X71290000Y-58751000D01*
X76254000Y-58711000D02*
X71290000Y-58711000D01*
X76263000Y-58671000D02*
X71290000Y-58671000D01*
X76272000Y-58631000D02*
X71290000Y-58631000D01*
X76281000Y-58591000D02*
X71290000Y-58591000D01*
X76289000Y-58551000D02*
X71290000Y-58551000D01*
X76298000Y-58511000D02*
X71290000Y-58511000D01*
X76306000Y-58471000D02*
X71290000Y-58471000D01*
X76313000Y-58431000D02*
X71290000Y-58431000D01*
X76321000Y-58391000D02*
X71290000Y-58391000D01*
X76328000Y-58351000D02*
X71290000Y-58351000D01*
X76335000Y-58311000D02*
X71290000Y-58311000D01*
X76342000Y-58271000D02*
X71290000Y-58271000D01*
X76348000Y-58231000D02*
X63352000Y-58231000D01*
X76355000Y-58191000D02*
X63345000Y-58191000D01*
X76361000Y-58151000D02*
X63339000Y-58151000D01*
X76366000Y-58111000D02*
X63334000Y-58111000D01*
X76372000Y-58071000D02*
X63328000Y-58071000D01*
X76377000Y-58031000D02*
X63323000Y-58031000D01*
X76382000Y-57991000D02*
X63318000Y-57991000D01*
X76387000Y-57951000D02*
X63313000Y-57951000D01*
X76391000Y-57911000D02*
X63309000Y-57911000D01*
X76395000Y-57870000D02*
X63305000Y-57870000D01*
X76399000Y-57830000D02*
X63301000Y-57830000D01*
X76403000Y-57790000D02*
X63297000Y-57790000D01*
X76407000Y-57750000D02*
X63293000Y-57750000D01*
X76410000Y-57710000D02*
X63290000Y-57710000D01*
X76413000Y-57670000D02*
X63287000Y-57670000D01*
X76416000Y-57630000D02*
X63284000Y-57630000D01*
X76418000Y-57590000D02*
X63282000Y-57590000D01*
X76421000Y-57550000D02*
X63279000Y-57550000D01*
X76423000Y-57510000D02*
X63277000Y-57510000D01*
X76425000Y-57470000D02*
X63275000Y-57470000D01*
X76426000Y-57430000D02*
X63274000Y-57430000D01*
X76427000Y-57390000D02*
X63273000Y-57390000D01*
X76429000Y-57310000D02*
X63271000Y-57310000D01*
X76429000Y-57350000D02*
X63271000Y-57350000D01*
X76430000Y-57190000D02*
X63270000Y-57190000D01*
X76430000Y-57230000D02*
X63270000Y-57230000D01*
X76430000Y-57270000D02*
X63270000Y-57270000D01*
X76470000Y-57190000D02*
G75*
G02*
X63230000Y-57190000I-6620000J0D01*
G01*
X63230000Y-57190000D02*
G75*
G02*
X76470000Y-57190000I6620000J0D01*
G01*
X56134000Y-29210000D02*
X83566000Y-29210000D01*
X56134000Y-49022000D02*
X56134000Y-29210000D01*
X56134000Y-49022000D02*
X83566000Y-49022000D01*
X62738000Y-23114000D02*
X76962000Y-23114000D01*
X62738000Y-29210000D02*
X62754000Y-23114000D01*
X67310000Y1270000D02*
X72390000Y1270000D01*
X67310000Y-23114000D02*
X67310000Y1270000D01*
X72390000Y-23114000D02*
X72390000Y1270000D01*
X76962000Y-29210000D02*
X76962000Y-23114000D01*
X83566000Y-49022000D02*
X83566000Y-29210000D01*
X39525199Y-55320000D02*
X39925199Y-55320000D01*
X39725199Y-55120000D02*
X39725199Y-55520000D01*
X41795000Y-54435000D02*
X41795000Y-55675000D01*
X41795000Y-57355000D02*
X41795000Y-58595000D01*
X41835000Y-54435000D02*
X41835000Y-55675000D01*
X41835000Y-57355000D02*
X41835000Y-58595000D01*
X41875000Y-54436000D02*
X41875000Y-55675000D01*
X41875000Y-57355000D02*
X41875000Y-58594000D01*
X41915000Y-54438000D02*
X41915000Y-55675000D01*
X41915000Y-57355000D02*
X41915000Y-58592000D01*
X41955000Y-54441000D02*
X41955000Y-55675000D01*
X41955000Y-57355000D02*
X41955000Y-58589000D01*
X41995000Y-54444000D02*
X41995000Y-55675000D01*
X41995000Y-57355000D02*
X41995000Y-58586000D01*
X42035000Y-54448000D02*
X42035000Y-55675000D01*
X42035000Y-57355000D02*
X42035000Y-58582000D01*
X42075000Y-54453000D02*
X42075000Y-55675000D01*
X42075000Y-57355000D02*
X42075000Y-58577000D01*
X42115000Y-54459000D02*
X42115000Y-55675000D01*
X42115000Y-57355000D02*
X42115000Y-58571000D01*
X42155000Y-54465000D02*
X42155000Y-55675000D01*
X42155000Y-57355000D02*
X42155000Y-58565000D01*
X42195000Y-54473000D02*
X42195000Y-55675000D01*
X42195000Y-57355000D02*
X42195000Y-58557000D01*
X42235000Y-54481000D02*
X42235000Y-55675000D01*
X42235000Y-57355000D02*
X42235000Y-58549000D01*
X42275000Y-54490000D02*
X42275000Y-55675000D01*
X42275000Y-57355000D02*
X42275000Y-58540000D01*
X42315000Y-54499000D02*
X42315000Y-55675000D01*
X42315000Y-57355000D02*
X42315000Y-58531000D01*
X42355000Y-54510000D02*
X42355000Y-55675000D01*
X42355000Y-57355000D02*
X42355000Y-58520000D01*
X42395000Y-54521000D02*
X42395000Y-55675000D01*
X42395000Y-57355000D02*
X42395000Y-58509000D01*
X42435000Y-54533000D02*
X42435000Y-55675000D01*
X42435000Y-57355000D02*
X42435000Y-58497000D01*
X42475000Y-54547000D02*
X42475000Y-55675000D01*
X42475000Y-57355000D02*
X42475000Y-58483000D01*
X42516000Y-54561000D02*
X42516000Y-55675000D01*
X42516000Y-57355000D02*
X42516000Y-58469000D01*
X42556000Y-54575000D02*
X42556000Y-55675000D01*
X42556000Y-57355000D02*
X42556000Y-58455000D01*
X42596000Y-54591000D02*
X42596000Y-55675000D01*
X42596000Y-57355000D02*
X42596000Y-58439000D01*
X42636000Y-54608000D02*
X42636000Y-55675000D01*
X42636000Y-57355000D02*
X42636000Y-58422000D01*
X42676000Y-54626000D02*
X42676000Y-55675000D01*
X42676000Y-57355000D02*
X42676000Y-58404000D01*
X42716000Y-54645000D02*
X42716000Y-55675000D01*
X42716000Y-57355000D02*
X42716000Y-58385000D01*
X42756000Y-54664000D02*
X42756000Y-55675000D01*
X42756000Y-57355000D02*
X42756000Y-58366000D01*
X42796000Y-54685000D02*
X42796000Y-55675000D01*
X42796000Y-57355000D02*
X42796000Y-58345000D01*
X42836000Y-54707000D02*
X42836000Y-55675000D01*
X42836000Y-57355000D02*
X42836000Y-58323000D01*
X42876000Y-54730000D02*
X42876000Y-55675000D01*
X42876000Y-57355000D02*
X42876000Y-58300000D01*
X42916000Y-54755000D02*
X42916000Y-55675000D01*
X42916000Y-57355000D02*
X42916000Y-58275000D01*
X42956000Y-54780000D02*
X42956000Y-55675000D01*
X42956000Y-57355000D02*
X42956000Y-58250000D01*
X42996000Y-54807000D02*
X42996000Y-55675000D01*
X42996000Y-57355000D02*
X42996000Y-58223000D01*
X43036000Y-54835000D02*
X43036000Y-55675000D01*
X43036000Y-57355000D02*
X43036000Y-58195000D01*
X43076000Y-54865000D02*
X43076000Y-55675000D01*
X43076000Y-57355000D02*
X43076000Y-58165000D01*
X43116000Y-54896000D02*
X43116000Y-55675000D01*
X43116000Y-57355000D02*
X43116000Y-58134000D01*
X43156000Y-54928000D02*
X43156000Y-55675000D01*
X43156000Y-57355000D02*
X43156000Y-58102000D01*
X43196000Y-54963000D02*
X43196000Y-55675000D01*
X43196000Y-57355000D02*
X43196000Y-58067000D01*
X43236000Y-54999000D02*
X43236000Y-55675000D01*
X43236000Y-57355000D02*
X43236000Y-58031000D01*
X43276000Y-55037000D02*
X43276000Y-55675000D01*
X43276000Y-57355000D02*
X43276000Y-57993000D01*
X43316000Y-55077000D02*
X43316000Y-55675000D01*
X43316000Y-57355000D02*
X43316000Y-57953000D01*
X43356000Y-55119000D02*
X43356000Y-55675000D01*
X43356000Y-57355000D02*
X43356000Y-57911000D01*
X43396000Y-55164000D02*
X43396000Y-57866000D01*
X43436000Y-55211000D02*
X43436000Y-57819000D01*
X43476000Y-55261000D02*
X43476000Y-57769000D01*
X43516000Y-55315000D02*
X43516000Y-57715000D01*
X43556000Y-55373000D02*
X43556000Y-57657000D01*
X43596000Y-55435000D02*
X43596000Y-57595000D01*
X43636000Y-55502000D02*
X43636000Y-57528000D01*
X43676000Y-55575000D02*
X43676000Y-57455000D01*
X43716000Y-55656000D02*
X43716000Y-57374000D01*
X43756000Y-55747000D02*
X43756000Y-57283000D01*
X43796000Y-55851000D02*
X43796000Y-57179000D01*
X43836000Y-55978000D02*
X43836000Y-57052000D01*
X43876000Y-56145000D02*
X43876000Y-56885000D01*
X43915000Y-56515000D02*
G75*
G02*
X39675000Y-56515000I-2120000J0D01*
G01*
X39675000Y-56515000D02*
G75*
G02*
X43915000Y-56515000I2120000J0D01*
G01*
X51144000Y-31485000D02*
X51144000Y-30745000D01*
X51184000Y-31652000D02*
X51184000Y-30578000D01*
X51224000Y-31779000D02*
X51224000Y-30451000D01*
X51264000Y-31883000D02*
X51264000Y-30347000D01*
X51304000Y-31974000D02*
X51304000Y-30256000D01*
X51344000Y-32055000D02*
X51344000Y-30175000D01*
X51384000Y-32128000D02*
X51384000Y-30102000D01*
X51424000Y-32195000D02*
X51424000Y-30035000D01*
X51464000Y-32257000D02*
X51464000Y-29973000D01*
X51504000Y-32315000D02*
X51504000Y-29915000D01*
X51544000Y-32369000D02*
X51544000Y-29861000D01*
X51584000Y-32419000D02*
X51584000Y-29811000D01*
X51624000Y-32466000D02*
X51624000Y-29764000D01*
X51664000Y-30275000D02*
X51664000Y-29719000D01*
X51664000Y-32511000D02*
X51664000Y-31955000D01*
X51704000Y-30275000D02*
X51704000Y-29677000D01*
X51704000Y-32553000D02*
X51704000Y-31955000D01*
X51744000Y-30275000D02*
X51744000Y-29637000D01*
X51744000Y-32593000D02*
X51744000Y-31955000D01*
X51784000Y-30275000D02*
X51784000Y-29599000D01*
X51784000Y-32631000D02*
X51784000Y-31955000D01*
X51824000Y-30275000D02*
X51824000Y-29563000D01*
X51824000Y-32667000D02*
X51824000Y-31955000D01*
X51864000Y-30275000D02*
X51864000Y-29528000D01*
X51864000Y-32702000D02*
X51864000Y-31955000D01*
X51904000Y-30275000D02*
X51904000Y-29496000D01*
X51904000Y-32734000D02*
X51904000Y-31955000D01*
X51944000Y-30275000D02*
X51944000Y-29465000D01*
X51944000Y-32765000D02*
X51944000Y-31955000D01*
X51984000Y-30275000D02*
X51984000Y-29435000D01*
X51984000Y-32795000D02*
X51984000Y-31955000D01*
X52024000Y-30275000D02*
X52024000Y-29407000D01*
X52024000Y-32823000D02*
X52024000Y-31955000D01*
X52064000Y-30275000D02*
X52064000Y-29380000D01*
X52064000Y-32850000D02*
X52064000Y-31955000D01*
X52104000Y-30275000D02*
X52104000Y-29355000D01*
X52104000Y-32875000D02*
X52104000Y-31955000D01*
X52144000Y-30275000D02*
X52144000Y-29330000D01*
X52144000Y-32900000D02*
X52144000Y-31955000D01*
X52184000Y-30275000D02*
X52184000Y-29307000D01*
X52184000Y-32923000D02*
X52184000Y-31955000D01*
X52224000Y-30275000D02*
X52224000Y-29285000D01*
X52224000Y-32945000D02*
X52224000Y-31955000D01*
X52264000Y-30275000D02*
X52264000Y-29264000D01*
X52264000Y-32966000D02*
X52264000Y-31955000D01*
X52304000Y-30275000D02*
X52304000Y-29245000D01*
X52304000Y-32985000D02*
X52304000Y-31955000D01*
X52344000Y-30275000D02*
X52344000Y-29226000D01*
X52344000Y-33004000D02*
X52344000Y-31955000D01*
X52384000Y-30275000D02*
X52384000Y-29208000D01*
X52384000Y-33022000D02*
X52384000Y-31955000D01*
X52424000Y-30275000D02*
X52424000Y-29191000D01*
X52424000Y-33039000D02*
X52424000Y-31955000D01*
X52464000Y-30275000D02*
X52464000Y-29175000D01*
X52464000Y-33055000D02*
X52464000Y-31955000D01*
X52504000Y-30275000D02*
X52504000Y-29161000D01*
X52504000Y-33069000D02*
X52504000Y-31955000D01*
X52545000Y-30275000D02*
X52545000Y-29147000D01*
X52545000Y-33083000D02*
X52545000Y-31955000D01*
X52585000Y-30275000D02*
X52585000Y-29133000D01*
X52585000Y-33097000D02*
X52585000Y-31955000D01*
X52625000Y-30275000D02*
X52625000Y-29121000D01*
X52625000Y-33109000D02*
X52625000Y-31955000D01*
X52665000Y-30275000D02*
X52665000Y-29110000D01*
X52665000Y-33120000D02*
X52665000Y-31955000D01*
X52705000Y-30275000D02*
X52705000Y-29099000D01*
X52705000Y-33131000D02*
X52705000Y-31955000D01*
X52745000Y-30275000D02*
X52745000Y-29090000D01*
X52745000Y-33140000D02*
X52745000Y-31955000D01*
X52785000Y-30275000D02*
X52785000Y-29081000D01*
X52785000Y-33149000D02*
X52785000Y-31955000D01*
X52825000Y-30275000D02*
X52825000Y-29073000D01*
X52825000Y-33157000D02*
X52825000Y-31955000D01*
X52865000Y-30275000D02*
X52865000Y-29065000D01*
X52865000Y-33165000D02*
X52865000Y-31955000D01*
X52905000Y-30275000D02*
X52905000Y-29059000D01*
X52905000Y-33171000D02*
X52905000Y-31955000D01*
X52945000Y-30275000D02*
X52945000Y-29053000D01*
X52945000Y-33177000D02*
X52945000Y-31955000D01*
X52985000Y-30275000D02*
X52985000Y-29048000D01*
X52985000Y-33182000D02*
X52985000Y-31955000D01*
X53025000Y-30275000D02*
X53025000Y-29044000D01*
X53025000Y-33186000D02*
X53025000Y-31955000D01*
X53065000Y-30275000D02*
X53065000Y-29041000D01*
X53065000Y-33189000D02*
X53065000Y-31955000D01*
X53105000Y-30275000D02*
X53105000Y-29038000D01*
X53105000Y-33192000D02*
X53105000Y-31955000D01*
X53145000Y-30275000D02*
X53145000Y-29036000D01*
X53145000Y-33194000D02*
X53145000Y-31955000D01*
X53185000Y-30275000D02*
X53185000Y-29035000D01*
X53185000Y-33195000D02*
X53185000Y-31955000D01*
X53225000Y-30275000D02*
X53225000Y-29035000D01*
X53225000Y-33195000D02*
X53225000Y-31955000D01*
X55294801Y-32510000D02*
X55294801Y-32110000D01*
X55494801Y-32310000D02*
X55094801Y-32310000D01*
X55345000Y-31115000D02*
G75*
G02*
X51105000Y-31115000I-2120000J0D01*
G01*
X51105000Y-31115000D02*
G75*
G02*
X55345000Y-31115000I2120000J0D01*
G01*
X33425000Y-65405000D02*
X34195000Y-65405000D01*
X34195000Y-64035000D02*
X34195000Y-66775000D01*
X34195000Y-66775000D02*
X40735000Y-66775000D01*
X40735000Y-64035000D02*
X34195000Y-64035000D01*
X40735000Y-66775000D02*
X40735000Y-64035000D01*
X41505000Y-65405000D02*
X40735000Y-65405000D01*
X40110000Y-43125000D02*
X43710000Y-43125000D01*
X40071522Y-43113478D02*
G75*
G02*
X41910000Y-38674999I1838478J1838478D01*
G01*
X41910000Y-38675000D02*
G75*
G02*
X43748478Y-43113478I0J-2600000D01*
G01*
X51840000Y-51435000D02*
X52610000Y-51435000D01*
X52610000Y-50065000D02*
X52610000Y-52805000D01*
X52610000Y-52805000D02*
X59150000Y-52805000D01*
X59150000Y-50065000D02*
X52610000Y-50065000D01*
X59150000Y-52805000D02*
X59150000Y-50065000D01*
X59920000Y-51435000D02*
X59150000Y-51435000D01*
X59590000Y-54030000D02*
X59590000Y-60270000D01*
X60035000Y-54030000D02*
X59590000Y-54030000D01*
X60035000Y-60270000D02*
X59590000Y-60270000D01*
X62330000Y-54030000D02*
X61885000Y-54030000D01*
X62330000Y-54030000D02*
X62330000Y-60270000D01*
X62330000Y-60270000D02*
X61885000Y-60270000D01*
X47045000Y-34190000D02*
X47045000Y-34635000D01*
X47045000Y-34190000D02*
X53285000Y-34190000D01*
X47045000Y-36485000D02*
X47045000Y-36930000D01*
X47045000Y-36930000D02*
X53285000Y-36930000D01*
X53285000Y-34190000D02*
X53285000Y-34635000D01*
X53285000Y-36485000D02*
X53285000Y-36930000D01*
X34060000Y-31115000D02*
X34830000Y-31115000D01*
X34830000Y-29745000D02*
X34830000Y-32485000D01*
X34830000Y-32485000D02*
X41370000Y-32485000D01*
X41370000Y-29745000D02*
X34830000Y-29745000D01*
X41370000Y-32485000D02*
X41370000Y-29745000D01*
X42140000Y-31115000D02*
X41370000Y-31115000D01*
X40110000Y-63445000D02*
X43710000Y-63445000D01*
X40071522Y-63433478D02*
G75*
G02*
X41910000Y-58994999I1838478J1838478D01*
G01*
X41910000Y-58995000D02*
G75*
G02*
X43748478Y-63433478I0J-2600000D01*
G01*
X47515000Y-38040000D02*
X47515000Y-48320000D01*
X47515000Y-48320000D02*
X52815000Y-48320000D01*
X49165000Y-38040000D02*
X47515000Y-38040000D01*
X52815000Y-38040000D02*
X51165000Y-38040000D01*
X52815000Y-48320000D02*
X52815000Y-38040000D01*
X51165000Y-38040000D02*
G75*
G02*
X49165000Y-38040000I-1000000J0D01*
G01*
X33425000Y-48895000D02*
X34195000Y-48895000D01*
X34195000Y-47525000D02*
X34195000Y-50265000D01*
X34195000Y-50265000D02*
X40735000Y-50265000D01*
X40735000Y-47525000D02*
X34195000Y-47525000D01*
X40735000Y-50265000D02*
X40735000Y-47525000D01*
X41505000Y-48895000D02*
X40735000Y-48895000D01*
X86455000Y-34190000D02*
X86455000Y-34635000D01*
X86455000Y-34190000D02*
X92695000Y-34190000D01*
X86455000Y-36485000D02*
X86455000Y-36930000D01*
X86455000Y-36930000D02*
X92695000Y-36930000D01*
X92695000Y-34190000D02*
X92695000Y-34635000D01*
X92695000Y-36485000D02*
X92695000Y-36930000D01*
X92650000Y-50105000D02*
X93980000Y-50105000D01*
X92650000Y-51435000D02*
X92650000Y-50105000D01*
X92650000Y-52705000D02*
X92650000Y-55305000D01*
X92650000Y-52705000D02*
X95310000Y-52705000D01*
X92650000Y-55305000D02*
X95310000Y-55305000D01*
X95310000Y-52705000D02*
X95310000Y-55305000D01*
X86885000Y-38040000D02*
X86885000Y-48320000D01*
X86885000Y-48320000D02*
X92185000Y-48320000D01*
X88535000Y-38040000D02*
X86885000Y-38040000D01*
X92185000Y-38040000D02*
X90535000Y-38040000D01*
X92185000Y-48320000D02*
X92185000Y-38040000D01*
X90535000Y-38040000D02*
G75*
G02*
X88535000Y-38040000I-1000000J0D01*
G01*
X33425000Y-45085000D02*
X34195000Y-45085000D01*
X34195000Y-43715000D02*
X34195000Y-46455000D01*
X34195000Y-46455000D02*
X40735000Y-46455000D01*
X40735000Y-43715000D02*
X34195000Y-43715000D01*
X40735000Y-46455000D02*
X40735000Y-43715000D01*
X41505000Y-45085000D02*
X40735000Y-45085000D01*
X57090000Y-67480000D02*
X57090000Y-70140000D01*
X57090000Y-70140000D02*
X64830000Y-70140000D01*
X58040000Y-67082929D02*
X58040000Y-67480000D01*
X58040000Y-76140000D02*
X58040000Y-70140000D01*
X58800000Y-67082929D02*
X58800000Y-67480000D01*
X58800000Y-70140000D02*
X58800000Y-76140000D01*
X58800000Y-76140000D02*
X58040000Y-76140000D01*
X59690000Y-67480000D02*
X59690000Y-70140000D01*
X60580000Y-67082929D02*
X60580000Y-67480000D01*
X60580000Y-76140000D02*
X60580000Y-70140000D01*
X61340000Y-67082929D02*
X61340000Y-67480000D01*
X61340000Y-70140000D02*
X61340000Y-76140000D01*
X61340000Y-76140000D02*
X60580000Y-76140000D01*
X62230000Y-67480000D02*
X62230000Y-70140000D01*
X63120000Y-67150000D02*
X63120000Y-67480000D01*
X63120000Y-76140000D02*
X63120000Y-70140000D01*
X63220000Y-70140000D02*
X63220000Y-76140000D01*
X63340000Y-70140000D02*
X63340000Y-76140000D01*
X63460000Y-70140000D02*
X63460000Y-76140000D01*
X63500000Y-64770000D02*
X64770000Y-64770000D01*
X63580000Y-70140000D02*
X63580000Y-76140000D01*
X63700000Y-70140000D02*
X63700000Y-76140000D01*
X63820000Y-70140000D02*
X63820000Y-76140000D01*
X63880000Y-67150000D02*
X63880000Y-67480000D01*
X63880000Y-70140000D02*
X63880000Y-76140000D01*
X63880000Y-76140000D02*
X63120000Y-76140000D01*
X64770000Y-64770000D02*
X64770000Y-66040000D01*
X64830000Y-67480000D02*
X57090000Y-67480000D01*
X64830000Y-70140000D02*
X64830000Y-67480000D01*
%LPC*%
D14*
X32385000Y-61595000D03*
X37385000Y-61595000D03*
X78740000Y-54650000D03*
X78740000Y-59650000D03*
D15*
X29101051Y-53340000D03*
D16*
X29101051Y-50800000D03*
D17*
X87225000Y-31115000D03*
D18*
X85725000Y-31115000D03*
D14*
X32425000Y-41275000D03*
X37425000Y-41275000D03*
D17*
X41045000Y-35560000D03*
D18*
X42545000Y-35560000D03*
D19*
X78740000Y-64770000D03*
D15*
X29101051Y-63500000D03*
D16*
X29101051Y-60960000D03*
X29101051Y-58420000D03*
D15*
X71120000Y-66040000D03*
D16*
X68580000Y-66040000D03*
D15*
X93980000Y-59055000D03*
D16*
X93980000Y-61595000D03*
X93980000Y-64135000D03*
D20*
X53340000Y-57322323D03*
D21*
X53340000Y-62322323D03*
D14*
X88900000Y-51435000D03*
D22*
X78740000Y-51435000D03*
D14*
X32385000Y-52070000D03*
D22*
X42545000Y-52070000D03*
D20*
X86360000Y-57230000D03*
D21*
X86360000Y-62230000D03*
D14*
X43180000Y-27940000D03*
D22*
X33020000Y-27940000D03*
D23*
X69850000Y-54690000D03*
D24*
X69850000Y-59690000D03*
D25*
X74930000Y-39370000D03*
X69930000Y-39370000D03*
X64770000Y-39370000D03*
X74930000Y-29210000D03*
X69930000Y-29210000D03*
X64770000Y-29210000D03*
D17*
X41045000Y-56515000D03*
D18*
X42545000Y-56515000D03*
D17*
X53975000Y-31115000D03*
D18*
X52475000Y-31115000D03*
D14*
X32385000Y-65405000D03*
D22*
X42545000Y-65405000D03*
D26*
X40640000Y-41275000D03*
D27*
X41910000Y-41275000D03*
X43180000Y-41275000D03*
D14*
X50800000Y-51435000D03*
D22*
X60960000Y-51435000D03*
D19*
X46990000Y-64770000D03*
D14*
X60960000Y-54650000D03*
X60960000Y-59650000D03*
X47665000Y-35560000D03*
X52665000Y-35560000D03*
X33020000Y-31115000D03*
D22*
X43180000Y-31115000D03*
D26*
X40640000Y-61595000D03*
D27*
X41910000Y-61595000D03*
X43180000Y-61595000D03*
D28*
X46355000Y-39370000D03*
D22*
X46355000Y-41910000D03*
X46355000Y-44450000D03*
X46355000Y-46990000D03*
X53975000Y-46990000D03*
X53975000Y-44450000D03*
X53975000Y-41910000D03*
X53975000Y-39370000D03*
D14*
X42545000Y-48895000D03*
D22*
X32385000Y-48895000D03*
D29*
X91440000Y-29210000D03*
D14*
X87075000Y-35560000D03*
X92075000Y-35560000D03*
D29*
X48260000Y-29210000D03*
D15*
X93980000Y-51435000D03*
D16*
X93980000Y-53975000D03*
D28*
X85725000Y-39370000D03*
D22*
X85725000Y-41910000D03*
X85725000Y-44450000D03*
X85725000Y-46990000D03*
X93345000Y-46990000D03*
X93345000Y-44450000D03*
X93345000Y-41910000D03*
X93345000Y-39370000D03*
D14*
X42545000Y-45085000D03*
D22*
X32385000Y-45085000D03*
D15*
X63500000Y-66040000D03*
D16*
X60960000Y-66040000D03*
X58420000Y-66040000D03*
%LPD*%
M02*
