G04 #@! TF.GenerationSoftware,KiCad,Pcbnew,8.0.9*
G04 #@! TF.CreationDate,2025-03-02T13:58:42+01:00*
G04 #@! TF.ProjectId,cjss202,636a7373-3230-4322-9e6b-696361645f70,rev?*
G04 #@! TF.SameCoordinates,Original*
G04 #@! TF.FileFunction,Copper,L2,Bot*
G04 #@! TF.FilePolarity,Positive*
%FSLAX46Y46*%
G04 Gerber Fmt 4.6, Leading zero omitted, Abs format (unit mm)*
G04 Created by KiCad (PCBNEW 8.0.9) date 2025-03-02 13:58:42*
%MOMM*%
%LPD*%
G01*
G04 APERTURE LIST*
G04 #@! TA.AperFunction,ComponentPad*
%ADD10C,1.600000*%
G04 #@! TD*
G04 #@! TA.AperFunction,ComponentPad*
%ADD11R,1.700000X1.700000*%
G04 #@! TD*
G04 #@! TA.AperFunction,ComponentPad*
%ADD12O,1.700000X1.700000*%
G04 #@! TD*
G04 #@! TA.AperFunction,ComponentPad*
%ADD13R,1.200000X1.200000*%
G04 #@! TD*
G04 #@! TA.AperFunction,ComponentPad*
%ADD14C,1.200000*%
G04 #@! TD*
G04 #@! TA.AperFunction,ComponentPad*
%ADD15R,2.000000X2.000000*%
G04 #@! TD*
G04 #@! TA.AperFunction,ComponentPad*
%ADD16C,2.000000*%
G04 #@! TD*
G04 #@! TA.AperFunction,ComponentPad*
%ADD17O,1.600000X1.600000*%
G04 #@! TD*
G04 #@! TA.AperFunction,ComponentPad*
%ADD18R,2.400000X2.400000*%
G04 #@! TD*
G04 #@! TA.AperFunction,ComponentPad*
%ADD19C,2.400000*%
G04 #@! TD*
G04 #@! TA.AperFunction,ComponentPad*
%ADD20C,2.340000*%
G04 #@! TD*
G04 #@! TA.AperFunction,ComponentPad*
%ADD21R,1.050000X1.500000*%
G04 #@! TD*
G04 #@! TA.AperFunction,ComponentPad*
%ADD22O,1.050000X1.500000*%
G04 #@! TD*
G04 #@! TA.AperFunction,ComponentPad*
%ADD23R,1.600000X1.600000*%
G04 #@! TD*
G04 #@! TA.AperFunction,ComponentPad*
%ADD24C,5.600000*%
G04 #@! TD*
G04 #@! TA.AperFunction,ViaPad*
%ADD25C,1.000000*%
G04 #@! TD*
G04 #@! TA.AperFunction,ViaPad*
%ADD26C,0.600000*%
G04 #@! TD*
G04 #@! TA.AperFunction,Conductor*
%ADD27C,0.635000*%
G04 #@! TD*
G04 #@! TA.AperFunction,Conductor*
%ADD28C,1.270000*%
G04 #@! TD*
G04 APERTURE END LIST*
D10*
X32385000Y-61595000D03*
X37385000Y-61595000D03*
X78740000Y-54650000D03*
X78740000Y-59650000D03*
D11*
X29101051Y-53340000D03*
D12*
X29101051Y-50800000D03*
D13*
X87225000Y-31115000D03*
D14*
X85725000Y-31115000D03*
D10*
X32425000Y-41275000D03*
X37425000Y-41275000D03*
D13*
X41045000Y-35560000D03*
D14*
X42545000Y-35560000D03*
D11*
X29101051Y-63500000D03*
D12*
X29101051Y-60960000D03*
X29101051Y-58420000D03*
D11*
X71120000Y-66040000D03*
D12*
X68580000Y-66040000D03*
D11*
X93980000Y-59055000D03*
D12*
X93980000Y-61595000D03*
X93980000Y-64135000D03*
D15*
X53340000Y-57322323D03*
D16*
X53340000Y-62322323D03*
D10*
X88900000Y-51435000D03*
D17*
X78740000Y-51435000D03*
D10*
X32385000Y-52070000D03*
D17*
X42545000Y-52070000D03*
D15*
X86360000Y-57230000D03*
D16*
X86360000Y-62230000D03*
D10*
X43180000Y-27940000D03*
D17*
X33020000Y-27940000D03*
D18*
X69850000Y-54690000D03*
D19*
X69850000Y-59690000D03*
D20*
X74930000Y-39370000D03*
X69930000Y-39370000D03*
X64770000Y-39370000D03*
X74930000Y-29210000D03*
X69930000Y-29210000D03*
X64770000Y-29210000D03*
D13*
X41045000Y-56515000D03*
D14*
X42545000Y-56515000D03*
D13*
X53975000Y-31115000D03*
D14*
X52475000Y-31115000D03*
D10*
X32385000Y-65405000D03*
D17*
X42545000Y-65405000D03*
D21*
X40640000Y-41275000D03*
D22*
X41910000Y-41275000D03*
X43180000Y-41275000D03*
D10*
X50800000Y-51435000D03*
D17*
X60960000Y-51435000D03*
D10*
X60960000Y-54650000D03*
X60960000Y-59650000D03*
X47665000Y-35560000D03*
X52665000Y-35560000D03*
X33020000Y-31115000D03*
D17*
X43180000Y-31115000D03*
D21*
X40640000Y-61595000D03*
D22*
X41910000Y-61595000D03*
X43180000Y-61595000D03*
D23*
X46355000Y-39370000D03*
D17*
X46355000Y-41910000D03*
X46355000Y-44450000D03*
X46355000Y-46990000D03*
X53975000Y-46990000D03*
X53975000Y-44450000D03*
X53975000Y-41910000D03*
X53975000Y-39370000D03*
D10*
X42545000Y-48895000D03*
D17*
X32385000Y-48895000D03*
D24*
X91440000Y-29210000D03*
D10*
X87075000Y-35560000D03*
X92075000Y-35560000D03*
D24*
X48260000Y-29210000D03*
D11*
X93980000Y-51435000D03*
D12*
X93980000Y-53975000D03*
D23*
X85725000Y-39370000D03*
D17*
X85725000Y-41910000D03*
X85725000Y-44450000D03*
X85725000Y-46990000D03*
X93345000Y-46990000D03*
X93345000Y-44450000D03*
X93345000Y-41910000D03*
X93345000Y-39370000D03*
D10*
X42545000Y-45085000D03*
D17*
X32385000Y-45085000D03*
D11*
X63500000Y-66040000D03*
D12*
X60960000Y-66040000D03*
X58420000Y-66040000D03*
D25*
X64135000Y-57150000D03*
X73660000Y-57150000D03*
D26*
X44450000Y-49530000D03*
X44450000Y-39370000D03*
X32385000Y-56515000D03*
X45720000Y-56515000D03*
X72210000Y-48895000D03*
D27*
X29101051Y-50800000D02*
X33702500Y-55401449D01*
D28*
X75375000Y-49165000D02*
X70660000Y-44450000D01*
D27*
X29148551Y-50752500D02*
X36877500Y-50752500D01*
D28*
X91710000Y-35925000D02*
X92075000Y-35560000D01*
D27*
X33702500Y-64087500D02*
X32385000Y-65405000D01*
D28*
X52340000Y-35885000D02*
X52665000Y-35560000D01*
X71120000Y-61725000D02*
X71885000Y-60960000D01*
D27*
X42545000Y-45085000D02*
X45767500Y-48307500D01*
D28*
X91710000Y-42815000D02*
X91710000Y-35925000D01*
D27*
X42545000Y-45085000D02*
X40640000Y-43180000D01*
D28*
X69850000Y-54690000D02*
X69850000Y-56812075D01*
X69850000Y-56812075D02*
X71885000Y-58847075D01*
X52340000Y-42815000D02*
X52340000Y-35885000D01*
X70660000Y-44450000D02*
X53975000Y-44450000D01*
X75375000Y-49165000D02*
X69850000Y-54690000D01*
X71885000Y-58847075D02*
X71885000Y-60960000D01*
X71120000Y-66040000D02*
X71120000Y-61725000D01*
X93980000Y-51435000D02*
X91710000Y-49165000D01*
X91710000Y-46085000D02*
X93345000Y-44450000D01*
X91710000Y-49165000D02*
X75375000Y-49165000D01*
X91710000Y-49165000D02*
X91710000Y-46085000D01*
X93345000Y-44450000D02*
X91710000Y-42815000D01*
D27*
X36877500Y-50752500D02*
X42545000Y-45085000D01*
X45767500Y-48307500D02*
X50117500Y-48307500D01*
X40640000Y-43180000D02*
X40640000Y-41275000D01*
X40640000Y-61595000D02*
X40640000Y-63500000D01*
D28*
X53975000Y-44450000D02*
X52340000Y-42815000D01*
D27*
X40640000Y-63500000D02*
X38735000Y-65405000D01*
X33702500Y-55401449D02*
X33702500Y-64087500D01*
X50117500Y-48307500D02*
X53975000Y-44450000D01*
X38735000Y-65405000D02*
X32385000Y-65405000D01*
X29101051Y-50800000D02*
X29148551Y-50752500D01*
D28*
X78740000Y-54650000D02*
X78740000Y-51435000D01*
X86360000Y-53975000D02*
X88900000Y-51435000D01*
X86360000Y-57230000D02*
X86360000Y-53975000D01*
X90805000Y-62230000D02*
X86360000Y-62230000D01*
X93980000Y-59055000D02*
X90805000Y-62230000D01*
X60960000Y-54650000D02*
X60960000Y-51435000D01*
X50800000Y-50165000D02*
X53975000Y-46990000D01*
X53340000Y-53975000D02*
X50800000Y-51435000D01*
X50800000Y-51435000D02*
X50800000Y-50165000D01*
X53340000Y-57322323D02*
X53340000Y-53975000D01*
X53340000Y-62322323D02*
X60599917Y-62322323D01*
X80010000Y-62230000D02*
X78740000Y-62230000D01*
X78740000Y-62230000D02*
X73660000Y-57150000D01*
X64135000Y-58787240D02*
X64135000Y-57150000D01*
X93980000Y-64135000D02*
X81915000Y-64135000D01*
X81915000Y-64135000D02*
X80010000Y-62230000D01*
X60599917Y-62322323D02*
X64135000Y-58787240D01*
D27*
X30480000Y-63500000D02*
X32385000Y-61595000D01*
X29101051Y-63500000D02*
X30480000Y-63500000D01*
X38652500Y-60327500D02*
X37385000Y-61595000D01*
X41910000Y-61595000D02*
X41910000Y-64770000D01*
X41682500Y-60327500D02*
X38652500Y-60327500D01*
X41910000Y-64770000D02*
X42545000Y-65405000D01*
X37385000Y-57070000D02*
X37385000Y-61595000D01*
X32385000Y-52070000D02*
X37385000Y-57070000D01*
X41910000Y-60555000D02*
X41682500Y-60327500D01*
X41910000Y-61595000D02*
X41910000Y-60555000D01*
X43180000Y-59690000D02*
X43180000Y-61595000D01*
X41045000Y-56515000D02*
X41045000Y-57555000D01*
X41045000Y-56515000D02*
X41045000Y-50395000D01*
X41045000Y-57555000D02*
X43180000Y-59690000D01*
X41045000Y-50395000D02*
X42545000Y-48895000D01*
X58420000Y-66040000D02*
X52070000Y-66040000D01*
X46355000Y-34925000D02*
X46347500Y-34932500D01*
X42545000Y-35560000D02*
X42545000Y-37465000D01*
X64071014Y-27522500D02*
X73242500Y-27522500D01*
X49530000Y-33020000D02*
X58573514Y-33020000D01*
X44450000Y-58420000D02*
X44450000Y-49530000D01*
X46347500Y-35560000D02*
X46347500Y-36837500D01*
X46347500Y-34932500D02*
X46347500Y-35560000D01*
X58573514Y-33020000D02*
X64071014Y-27522500D01*
X52070000Y-66040000D02*
X44450000Y-58420000D01*
X46347500Y-36837500D02*
X44450000Y-38735000D01*
X73242500Y-27522500D02*
X74930000Y-29210000D01*
X42545000Y-37465000D02*
X44450000Y-39370000D01*
X48260000Y-33020000D02*
X46355000Y-34925000D01*
X49530000Y-33020000D02*
X48260000Y-33020000D01*
X44450000Y-38735000D02*
X44450000Y-40005000D01*
X32385000Y-45085000D02*
X33615000Y-45085000D01*
X38692500Y-40007500D02*
X41682500Y-40007500D01*
X41682500Y-40007500D02*
X41910000Y-40235000D01*
X37425000Y-41275000D02*
X38692500Y-40007500D01*
X33615000Y-45085000D02*
X37425000Y-41275000D01*
X37425000Y-35520000D02*
X33020000Y-31115000D01*
X37425000Y-41275000D02*
X37425000Y-35520000D01*
X41910000Y-40235000D02*
X41910000Y-41275000D01*
X30480000Y-58420000D02*
X32385000Y-56515000D01*
X29101051Y-58420000D02*
X30480000Y-58420000D01*
X65287500Y-59264622D02*
X65287500Y-55817500D01*
X65287500Y-55817500D02*
X72210000Y-48895000D01*
X45720000Y-56515000D02*
X45720000Y-56848393D01*
X63500000Y-61052122D02*
X65287500Y-59264622D01*
X63500000Y-66040000D02*
X63500000Y-61052122D01*
X61595000Y-64135000D02*
X63500000Y-66040000D01*
X45720000Y-56848393D02*
X53006607Y-64135000D01*
X53006607Y-64135000D02*
X61595000Y-64135000D01*
X43180000Y-39370000D02*
X43180000Y-41275000D01*
X41045000Y-35560000D02*
X41045000Y-37235000D01*
X41045000Y-30075000D02*
X43180000Y-27940000D01*
X41045000Y-37235000D02*
X43180000Y-39370000D01*
X41045000Y-35560000D02*
X41045000Y-30075000D01*
X69930000Y-29210000D02*
X69890000Y-29250000D01*
X48260000Y-42545000D02*
X46355000Y-44450000D01*
X67116486Y-29250000D02*
X65468986Y-30897500D01*
X65468986Y-30897500D02*
X62012500Y-30897500D01*
X50052500Y-33855000D02*
X48982500Y-34925000D01*
X48982500Y-36107500D02*
X48260000Y-36830000D01*
X59055000Y-33855000D02*
X50052500Y-33855000D01*
X62012500Y-30897500D02*
X59055000Y-33855000D01*
X48982500Y-34925000D02*
X48982500Y-36107500D01*
X48260000Y-36830000D02*
X48260000Y-42545000D01*
X69890000Y-29250000D02*
X67116486Y-29250000D01*
X75010000Y-44450000D02*
X69930000Y-39370000D01*
X85725000Y-44450000D02*
X75010000Y-44450000D01*
G04 #@! TA.AperFunction,Conductor*
G36*
X92713736Y-25600726D02*
G01*
X92984510Y-25617105D01*
X92999374Y-25618910D01*
X93262507Y-25667131D01*
X93277044Y-25670714D01*
X93532435Y-25750298D01*
X93546427Y-25755603D01*
X93790379Y-25865397D01*
X93790381Y-25865398D01*
X93803639Y-25872356D01*
X94032569Y-26010749D01*
X94044885Y-26019250D01*
X94198257Y-26139409D01*
X94255473Y-26184235D01*
X94266681Y-26194165D01*
X94455834Y-26383318D01*
X94465764Y-26394526D01*
X94630745Y-26605108D01*
X94639251Y-26617431D01*
X94777642Y-26846359D01*
X94784601Y-26859618D01*
X94894394Y-27103568D01*
X94899703Y-27117569D01*
X94979284Y-27372954D01*
X94982868Y-27387492D01*
X95031089Y-27650625D01*
X95032894Y-27665489D01*
X95049274Y-27936262D01*
X95049500Y-27943750D01*
X95049500Y-49965410D01*
X95029815Y-50032449D01*
X94977011Y-50078204D01*
X94912246Y-50088700D01*
X94877830Y-50085000D01*
X94230000Y-50085000D01*
X94230000Y-51001988D01*
X94172993Y-50969075D01*
X94045826Y-50935000D01*
X93914174Y-50935000D01*
X93787007Y-50969075D01*
X93730000Y-51001988D01*
X93730000Y-50085000D01*
X93082155Y-50085000D01*
X93022627Y-50091401D01*
X93022620Y-50091403D01*
X92887913Y-50141645D01*
X92887906Y-50141649D01*
X92772812Y-50227809D01*
X92772809Y-50227812D01*
X92686649Y-50342906D01*
X92686645Y-50342913D01*
X92636403Y-50477620D01*
X92636401Y-50477627D01*
X92630000Y-50537155D01*
X92630000Y-51185000D01*
X93546988Y-51185000D01*
X93514075Y-51242007D01*
X93480000Y-51369174D01*
X93480000Y-51500826D01*
X93514075Y-51627993D01*
X93546988Y-51685000D01*
X92630000Y-51685000D01*
X92630000Y-52332844D01*
X92636401Y-52392372D01*
X92636403Y-52392379D01*
X92686645Y-52527086D01*
X92686649Y-52527093D01*
X92772809Y-52642187D01*
X92772812Y-52642190D01*
X92887906Y-52728350D01*
X92887913Y-52728354D01*
X93019470Y-52777421D01*
X93075403Y-52819292D01*
X93099821Y-52884756D01*
X93084970Y-52953029D01*
X93063819Y-52981284D01*
X92941503Y-53103600D01*
X92805965Y-53297169D01*
X92805964Y-53297171D01*
X92706098Y-53511335D01*
X92706094Y-53511344D01*
X92644938Y-53739586D01*
X92644936Y-53739596D01*
X92624341Y-53974999D01*
X92624341Y-53975000D01*
X92644936Y-54210403D01*
X92644938Y-54210413D01*
X92706094Y-54438655D01*
X92706096Y-54438659D01*
X92706097Y-54438663D01*
X92797088Y-54633793D01*
X92805965Y-54652830D01*
X92805967Y-54652834D01*
X92887302Y-54768991D01*
X92941505Y-54846401D01*
X93108599Y-55013495D01*
X93205384Y-55081265D01*
X93302165Y-55149032D01*
X93302167Y-55149033D01*
X93302170Y-55149035D01*
X93516337Y-55248903D01*
X93744592Y-55310063D01*
X93932918Y-55326539D01*
X93979999Y-55330659D01*
X93980000Y-55330659D01*
X93980001Y-55330659D01*
X94019234Y-55327226D01*
X94215408Y-55310063D01*
X94443663Y-55248903D01*
X94657830Y-55149035D01*
X94851401Y-55013495D01*
X94851403Y-55013492D01*
X94854376Y-55011411D01*
X94920582Y-54989084D01*
X94988350Y-55006094D01*
X95036163Y-55057042D01*
X95049500Y-55112986D01*
X95049500Y-57584906D01*
X95029815Y-57651945D01*
X94977011Y-57697700D01*
X94912247Y-57708195D01*
X94877873Y-57704500D01*
X94877865Y-57704500D01*
X93082129Y-57704500D01*
X93082123Y-57704501D01*
X93022516Y-57710908D01*
X92887671Y-57761202D01*
X92887664Y-57761206D01*
X92772455Y-57847452D01*
X92772452Y-57847455D01*
X92686206Y-57962664D01*
X92686202Y-57962671D01*
X92635908Y-58097517D01*
X92629501Y-58157116D01*
X92629500Y-58157135D01*
X92629500Y-58748298D01*
X92609815Y-58815337D01*
X92593181Y-58835979D01*
X90370980Y-61058181D01*
X90309657Y-61091666D01*
X90283299Y-61094500D01*
X87386644Y-61094500D01*
X87319605Y-61074815D01*
X87310482Y-61068353D01*
X87183512Y-60969528D01*
X87183508Y-60969525D01*
X86964811Y-60851172D01*
X86964802Y-60851169D01*
X86729616Y-60770429D01*
X86484335Y-60729500D01*
X86235665Y-60729500D01*
X85990383Y-60770429D01*
X85755197Y-60851169D01*
X85755188Y-60851172D01*
X85536493Y-60969524D01*
X85340257Y-61122261D01*
X85171833Y-61305217D01*
X85035826Y-61513393D01*
X84935936Y-61741118D01*
X84874892Y-61982175D01*
X84874890Y-61982187D01*
X84854357Y-62229994D01*
X84854357Y-62230005D01*
X84874890Y-62477812D01*
X84874892Y-62477824D01*
X84914314Y-62633495D01*
X84935937Y-62718881D01*
X84982788Y-62825690D01*
X84991691Y-62894990D01*
X84961714Y-62958102D01*
X84902375Y-62994989D01*
X84869232Y-62999500D01*
X82436701Y-62999500D01*
X82369662Y-62979815D01*
X82349020Y-62963181D01*
X80749727Y-61363888D01*
X80716333Y-61339626D01*
X80605132Y-61258833D01*
X80445881Y-61177691D01*
X80445875Y-61177688D01*
X80404194Y-61164146D01*
X80337453Y-61142460D01*
X80275897Y-61122459D01*
X80275895Y-61122458D01*
X80275894Y-61122458D01*
X80099370Y-61094500D01*
X80099366Y-61094500D01*
X79278833Y-61094500D01*
X79211794Y-61074815D01*
X79166039Y-61022011D01*
X79156095Y-60952853D01*
X79185120Y-60889297D01*
X79226427Y-60858118D01*
X79392734Y-60780568D01*
X79579139Y-60650047D01*
X79740047Y-60489139D01*
X79870568Y-60302734D01*
X79966739Y-60096496D01*
X80025635Y-59876692D01*
X80045468Y-59650000D01*
X80041918Y-59609429D01*
X80037418Y-59557986D01*
X80025635Y-59423308D01*
X79968622Y-59210531D01*
X79966741Y-59203511D01*
X79966738Y-59203502D01*
X79950442Y-59168555D01*
X79870568Y-58997266D01*
X79740047Y-58810861D01*
X79740045Y-58810858D01*
X79579141Y-58649954D01*
X79392734Y-58519432D01*
X79392732Y-58519431D01*
X79186497Y-58423261D01*
X79186488Y-58423258D01*
X78966697Y-58364366D01*
X78966693Y-58364365D01*
X78966692Y-58364365D01*
X78966691Y-58364364D01*
X78966686Y-58364364D01*
X78740002Y-58344532D01*
X78739998Y-58344532D01*
X78513313Y-58364364D01*
X78513302Y-58364366D01*
X78293511Y-58423258D01*
X78293502Y-58423261D01*
X78087267Y-58519431D01*
X78087265Y-58519432D01*
X77900858Y-58649954D01*
X77739954Y-58810858D01*
X77609433Y-58997264D01*
X77526433Y-59175256D01*
X77480260Y-59227694D01*
X77413066Y-59246846D01*
X77346185Y-59226630D01*
X77326370Y-59210531D01*
X74399730Y-56283891D01*
X74399729Y-56283890D01*
X74399728Y-56283889D01*
X74259676Y-56182135D01*
X84859500Y-56182135D01*
X84859500Y-58277870D01*
X84859501Y-58277876D01*
X84865908Y-58337483D01*
X84916202Y-58472328D01*
X84916206Y-58472335D01*
X85002452Y-58587544D01*
X85002455Y-58587547D01*
X85117664Y-58673793D01*
X85117671Y-58673797D01*
X85252517Y-58724091D01*
X85252516Y-58724091D01*
X85259444Y-58724835D01*
X85312127Y-58730500D01*
X87407872Y-58730499D01*
X87467483Y-58724091D01*
X87602331Y-58673796D01*
X87717546Y-58587546D01*
X87803796Y-58472331D01*
X87854091Y-58337483D01*
X87860500Y-58277873D01*
X87860499Y-56182128D01*
X87854091Y-56122517D01*
X87853155Y-56120008D01*
X87803797Y-55987671D01*
X87803793Y-55987664D01*
X87717547Y-55872455D01*
X87717544Y-55872452D01*
X87602334Y-55786205D01*
X87576164Y-55776444D01*
X87520231Y-55734571D01*
X87495816Y-55669106D01*
X87495500Y-55660263D01*
X87495500Y-54496701D01*
X87515185Y-54429662D01*
X87531819Y-54409020D01*
X88231741Y-53709098D01*
X89230939Y-52709899D01*
X89286522Y-52677808D01*
X89346496Y-52661739D01*
X89552734Y-52565568D01*
X89739139Y-52435047D01*
X89900047Y-52274139D01*
X90030568Y-52087734D01*
X90126739Y-51881496D01*
X90185635Y-51661692D01*
X90205468Y-51435000D01*
X90203916Y-51417266D01*
X90187608Y-51230861D01*
X90185635Y-51208308D01*
X90126739Y-50988504D01*
X90030568Y-50782266D01*
X89916712Y-50619661D01*
X89900045Y-50595858D01*
X89739141Y-50434954D01*
X89552734Y-50304432D01*
X89552732Y-50304431D01*
X89346497Y-50208261D01*
X89346488Y-50208258D01*
X89126697Y-50149366D01*
X89126693Y-50149365D01*
X89126692Y-50149365D01*
X89126691Y-50149364D01*
X89126686Y-50149364D01*
X88900002Y-50129532D01*
X88899998Y-50129532D01*
X88673313Y-50149364D01*
X88673302Y-50149366D01*
X88453511Y-50208258D01*
X88453502Y-50208261D01*
X88247267Y-50304431D01*
X88247265Y-50304432D01*
X88060858Y-50434954D01*
X87899954Y-50595858D01*
X87769432Y-50782265D01*
X87769431Y-50782267D01*
X87673260Y-50988504D01*
X87673260Y-50988505D01*
X87657190Y-51048476D01*
X87625097Y-51104061D01*
X85620272Y-53108889D01*
X85493891Y-53235269D01*
X85493890Y-53235270D01*
X85388833Y-53379867D01*
X85307243Y-53539997D01*
X85306184Y-53543754D01*
X85252459Y-53709101D01*
X85252458Y-53709108D01*
X85236342Y-53810860D01*
X85236343Y-53810861D01*
X85224500Y-53885634D01*
X85224500Y-53885639D01*
X85224500Y-55660263D01*
X85204815Y-55727302D01*
X85152011Y-55773057D01*
X85143836Y-55776444D01*
X85117665Y-55786205D01*
X85002455Y-55872452D01*
X85002452Y-55872455D01*
X84916206Y-55987664D01*
X84916202Y-55987671D01*
X84865908Y-56122517D01*
X84859854Y-56178833D01*
X84859501Y-56182123D01*
X84859500Y-56182135D01*
X74259676Y-56182135D01*
X74255131Y-56178833D01*
X74095884Y-56097692D01*
X74041394Y-56079987D01*
X73925897Y-56042459D01*
X73925891Y-56042458D01*
X73749370Y-56014500D01*
X73749366Y-56014500D01*
X73570634Y-56014500D01*
X73570630Y-56014500D01*
X73394108Y-56042458D01*
X73394106Y-56042458D01*
X73394103Y-56042459D01*
X73325500Y-56064750D01*
X73224115Y-56097692D01*
X73064868Y-56178833D01*
X72982370Y-56238771D01*
X72920272Y-56283889D01*
X72920270Y-56283891D01*
X72920269Y-56283891D01*
X72793891Y-56410269D01*
X72793891Y-56410270D01*
X72793889Y-56410272D01*
X72776202Y-56434616D01*
X72688833Y-56554868D01*
X72607692Y-56714115D01*
X72594862Y-56753602D01*
X72552459Y-56884103D01*
X72552458Y-56884106D01*
X72552458Y-56884108D01*
X72524500Y-57060629D01*
X72524500Y-57239370D01*
X72527701Y-57259579D01*
X72552459Y-57415897D01*
X72592722Y-57539812D01*
X72607692Y-57585884D01*
X72671396Y-57710909D01*
X72688833Y-57745131D01*
X72793889Y-57889728D01*
X72793891Y-57889730D01*
X77841344Y-62937183D01*
X77874829Y-62998506D01*
X77869845Y-63068198D01*
X77827973Y-63124131D01*
X77815663Y-63132251D01*
X77693002Y-63203069D01*
X77497439Y-63353132D01*
X77323132Y-63527439D01*
X77173069Y-63723002D01*
X77049813Y-63936488D01*
X77049809Y-63936497D01*
X76955477Y-64164233D01*
X76891677Y-64402342D01*
X76891674Y-64402355D01*
X76859501Y-64646736D01*
X76859500Y-64646752D01*
X76859500Y-64893247D01*
X76859501Y-64893263D01*
X76891674Y-65137644D01*
X76891675Y-65137649D01*
X76891676Y-65137655D01*
X76902591Y-65178389D01*
X76955477Y-65375766D01*
X77031539Y-65559394D01*
X77049812Y-65603509D01*
X77166142Y-65805000D01*
X77173069Y-65816997D01*
X77323132Y-66012560D01*
X77323140Y-66012569D01*
X77497431Y-66186860D01*
X77497439Y-66186867D01*
X77693002Y-66336930D01*
X77693005Y-66336931D01*
X77693008Y-66336934D01*
X77906491Y-66460188D01*
X78053645Y-66521141D01*
X78134233Y-66554522D01*
X78134234Y-66554522D01*
X78134236Y-66554523D01*
X78372345Y-66618324D01*
X78616746Y-66650500D01*
X78616753Y-66650500D01*
X78863247Y-66650500D01*
X78863254Y-66650500D01*
X79107655Y-66618324D01*
X79345764Y-66554523D01*
X79573509Y-66460188D01*
X79786992Y-66336934D01*
X79982560Y-66186868D01*
X79982564Y-66186863D01*
X79982569Y-66186860D01*
X80156860Y-66012569D01*
X80156863Y-66012564D01*
X80156868Y-66012560D01*
X80306934Y-65816992D01*
X80430188Y-65603509D01*
X80524523Y-65375764D01*
X80588324Y-65137655D01*
X80620500Y-64893254D01*
X80620500Y-64745701D01*
X80640185Y-64678662D01*
X80692989Y-64632907D01*
X80762147Y-64622963D01*
X80825703Y-64651988D01*
X80832181Y-64658020D01*
X81048889Y-64874728D01*
X81175272Y-65001111D01*
X81271669Y-65071148D01*
X81319869Y-65106168D01*
X81354512Y-65123819D01*
X81479119Y-65187309D01*
X81520802Y-65200851D01*
X81520804Y-65200853D01*
X81520805Y-65200853D01*
X81525305Y-65202315D01*
X81649103Y-65242541D01*
X81724759Y-65254523D01*
X81825630Y-65270500D01*
X81825634Y-65270500D01*
X82004366Y-65270500D01*
X93208040Y-65270500D01*
X93275079Y-65290185D01*
X93279148Y-65292915D01*
X93302170Y-65309035D01*
X93516337Y-65408903D01*
X93744592Y-65470063D01*
X93932918Y-65486539D01*
X93979999Y-65490659D01*
X93980000Y-65490659D01*
X93980001Y-65490659D01*
X94019234Y-65487226D01*
X94215408Y-65470063D01*
X94443663Y-65408903D01*
X94657830Y-65309035D01*
X94782576Y-65221686D01*
X94848781Y-65199359D01*
X94916548Y-65216369D01*
X94964362Y-65267316D01*
X94977040Y-65336026D01*
X94972084Y-65360151D01*
X94899703Y-65592430D01*
X94894394Y-65606431D01*
X94784601Y-65850381D01*
X94777642Y-65863640D01*
X94639251Y-66092568D01*
X94630745Y-66104891D01*
X94465764Y-66315473D01*
X94455834Y-66326681D01*
X94266681Y-66515834D01*
X94255473Y-66525764D01*
X94044891Y-66690745D01*
X94032568Y-66699251D01*
X93803640Y-66837642D01*
X93790381Y-66844601D01*
X93546431Y-66954394D01*
X93532430Y-66959703D01*
X93277045Y-67039284D01*
X93262507Y-67042868D01*
X92999374Y-67091089D01*
X92984510Y-67092894D01*
X92729690Y-67108308D01*
X92713735Y-67109274D01*
X92706249Y-67109500D01*
X72589589Y-67109500D01*
X72522550Y-67089815D01*
X72476795Y-67037011D01*
X72466300Y-66972242D01*
X72469999Y-66937839D01*
X72470000Y-66937827D01*
X72470000Y-66290000D01*
X71553012Y-66290000D01*
X71585925Y-66232993D01*
X71620000Y-66105826D01*
X71620000Y-65974174D01*
X71585925Y-65847007D01*
X71553012Y-65790000D01*
X72470000Y-65790000D01*
X72470000Y-65142172D01*
X72469999Y-65142155D01*
X72463598Y-65082627D01*
X72463596Y-65082620D01*
X72413354Y-64947913D01*
X72413350Y-64947906D01*
X72327190Y-64832812D01*
X72327187Y-64832809D01*
X72212093Y-64746649D01*
X72212086Y-64746645D01*
X72077379Y-64696403D01*
X72077372Y-64696401D01*
X72017844Y-64690000D01*
X71370000Y-64690000D01*
X71370000Y-65606988D01*
X71312993Y-65574075D01*
X71185826Y-65540000D01*
X71054174Y-65540000D01*
X70927007Y-65574075D01*
X70870000Y-65606988D01*
X70870000Y-64690000D01*
X70222155Y-64690000D01*
X70162627Y-64696401D01*
X70162620Y-64696403D01*
X70027913Y-64746645D01*
X70027906Y-64746649D01*
X69912812Y-64832809D01*
X69912809Y-64832812D01*
X69826649Y-64947906D01*
X69826645Y-64947913D01*
X69777578Y-65079470D01*
X69735707Y-65135404D01*
X69670242Y-65159821D01*
X69601969Y-65144969D01*
X69573715Y-65123819D01*
X69529366Y-65079470D01*
X69451401Y-65001505D01*
X69451397Y-65001502D01*
X69451396Y-65001501D01*
X69257834Y-64865967D01*
X69257830Y-64865965D01*
X69186727Y-64832809D01*
X69043663Y-64766097D01*
X69043659Y-64766096D01*
X69043655Y-64766094D01*
X68815413Y-64704938D01*
X68815403Y-64704936D01*
X68580001Y-64684341D01*
X68579999Y-64684341D01*
X68344596Y-64704936D01*
X68344586Y-64704938D01*
X68116344Y-64766094D01*
X68116335Y-64766098D01*
X67902171Y-64865964D01*
X67902169Y-64865965D01*
X67708597Y-65001505D01*
X67541505Y-65168597D01*
X67405965Y-65362169D01*
X67405964Y-65362171D01*
X67306098Y-65576335D01*
X67306094Y-65576344D01*
X67244938Y-65804586D01*
X67244936Y-65804596D01*
X67224341Y-66039999D01*
X67224341Y-66040000D01*
X67244936Y-66275403D01*
X67244938Y-66275413D01*
X67306094Y-66503655D01*
X67306096Y-66503659D01*
X67306097Y-66503663D01*
X67393053Y-66690141D01*
X67405965Y-66717830D01*
X67405967Y-66717834D01*
X67543588Y-66914377D01*
X67565915Y-66980583D01*
X67548905Y-67048350D01*
X67497957Y-67096163D01*
X67442013Y-67109500D01*
X64970094Y-67109500D01*
X64903055Y-67089815D01*
X64857300Y-67037011D01*
X64846804Y-66972246D01*
X64850500Y-66937873D01*
X64850499Y-65142128D01*
X64844091Y-65082517D01*
X64835459Y-65059374D01*
X64793797Y-64947671D01*
X64793793Y-64947664D01*
X64707547Y-64832455D01*
X64707544Y-64832452D01*
X64592335Y-64746206D01*
X64592328Y-64746202D01*
X64457482Y-64695908D01*
X64457483Y-64695908D01*
X64428745Y-64692819D01*
X64364194Y-64666081D01*
X64324345Y-64608689D01*
X64318000Y-64569530D01*
X64318000Y-61442309D01*
X64337685Y-61375270D01*
X64354314Y-61354633D01*
X65808942Y-59900005D01*
X65808945Y-59900004D01*
X65922882Y-59786067D01*
X65985213Y-59692782D01*
X65987075Y-59689995D01*
X68144732Y-59689995D01*
X68144732Y-59690004D01*
X68163777Y-59944154D01*
X68198548Y-60096497D01*
X68220492Y-60192637D01*
X68313607Y-60429888D01*
X68441041Y-60650612D01*
X68599950Y-60849877D01*
X68786783Y-61023232D01*
X68997366Y-61166805D01*
X68997371Y-61166807D01*
X68997372Y-61166808D01*
X68997373Y-61166809D01*
X69119328Y-61225538D01*
X69226992Y-61277387D01*
X69226993Y-61277387D01*
X69226996Y-61277389D01*
X69470542Y-61352513D01*
X69722565Y-61390500D01*
X69977435Y-61390500D01*
X70229458Y-61352513D01*
X70473004Y-61277389D01*
X70702634Y-61166805D01*
X70913217Y-61023232D01*
X71100050Y-60849877D01*
X71258959Y-60650612D01*
X71386393Y-60429888D01*
X71479508Y-60192637D01*
X71536222Y-59944157D01*
X71553582Y-59712501D01*
X71555268Y-59690004D01*
X71555268Y-59689995D01*
X71537387Y-59451393D01*
X71536222Y-59435843D01*
X71479508Y-59187363D01*
X71386393Y-58950112D01*
X71258959Y-58729388D01*
X71100050Y-58530123D01*
X70913217Y-58356768D01*
X70702634Y-58213195D01*
X70702630Y-58213193D01*
X70702627Y-58213191D01*
X70702626Y-58213190D01*
X70473006Y-58102612D01*
X70473008Y-58102612D01*
X70229466Y-58027489D01*
X70229462Y-58027488D01*
X70229458Y-58027487D01*
X70108231Y-58009214D01*
X69977440Y-57989500D01*
X69977435Y-57989500D01*
X69722565Y-57989500D01*
X69722559Y-57989500D01*
X69565609Y-58013157D01*
X69470542Y-58027487D01*
X69470539Y-58027488D01*
X69470533Y-58027489D01*
X69226992Y-58102612D01*
X68997373Y-58213190D01*
X68997372Y-58213191D01*
X68786782Y-58356768D01*
X68599952Y-58530121D01*
X68599950Y-58530123D01*
X68441041Y-58729388D01*
X68313608Y-58950109D01*
X68220492Y-59187362D01*
X68220490Y-59187369D01*
X68163777Y-59435845D01*
X68144732Y-59689995D01*
X65987075Y-59689995D01*
X66012403Y-59652090D01*
X66074065Y-59503224D01*
X66098104Y-59382372D01*
X66103262Y-59356442D01*
X66105500Y-59345189D01*
X66105500Y-56207689D01*
X66125185Y-56140650D01*
X66141819Y-56120008D01*
X67938319Y-54323508D01*
X67999642Y-54290023D01*
X68069334Y-54295007D01*
X68125267Y-54336879D01*
X68149684Y-54402343D01*
X68150000Y-54411189D01*
X68150000Y-54440000D01*
X69301518Y-54440000D01*
X69290889Y-54458409D01*
X69250000Y-54611009D01*
X69250000Y-54768991D01*
X69290889Y-54921591D01*
X69301518Y-54940000D01*
X68150000Y-54940000D01*
X68150000Y-55937844D01*
X68156401Y-55997372D01*
X68156403Y-55997379D01*
X68206645Y-56132086D01*
X68206649Y-56132093D01*
X68292809Y-56247187D01*
X68292812Y-56247190D01*
X68407906Y-56333350D01*
X68407913Y-56333354D01*
X68542620Y-56383596D01*
X68542627Y-56383598D01*
X68602155Y-56389999D01*
X68602172Y-56390000D01*
X69600000Y-56390000D01*
X69600000Y-55238482D01*
X69618409Y-55249111D01*
X69771009Y-55290000D01*
X69928991Y-55290000D01*
X70081591Y-55249111D01*
X70100000Y-55238482D01*
X70100000Y-56390000D01*
X71097828Y-56390000D01*
X71097844Y-56389999D01*
X71157372Y-56383598D01*
X71157379Y-56383596D01*
X71292086Y-56333354D01*
X71292093Y-56333350D01*
X71407187Y-56247190D01*
X71407190Y-56247187D01*
X71493350Y-56132093D01*
X71493354Y-56132086D01*
X71543596Y-55997379D01*
X71543598Y-55997372D01*
X71549999Y-55937844D01*
X71550000Y-55937827D01*
X71550000Y-54940000D01*
X70398482Y-54940000D01*
X70409111Y-54921591D01*
X70450000Y-54768991D01*
X70450000Y-54611009D01*
X70409111Y-54458409D01*
X70398482Y-54440000D01*
X71550000Y-54440000D01*
X71550000Y-53442172D01*
X71549999Y-53442155D01*
X71543598Y-53382627D01*
X71543596Y-53382620D01*
X71493354Y-53247913D01*
X71493350Y-53247906D01*
X71407190Y-53132812D01*
X71407187Y-53132809D01*
X71292093Y-53046649D01*
X71292086Y-53046645D01*
X71157379Y-52996403D01*
X71157372Y-52996401D01*
X71097844Y-52990000D01*
X70100000Y-52990000D01*
X70100000Y-54141517D01*
X70081591Y-54130889D01*
X69928991Y-54090000D01*
X69771009Y-54090000D01*
X69618409Y-54130889D01*
X69600000Y-54141517D01*
X69600000Y-52990000D01*
X69571189Y-52990000D01*
X69504150Y-52970315D01*
X69458395Y-52917511D01*
X69448451Y-52848353D01*
X69477476Y-52784797D01*
X69483508Y-52778319D01*
X70826829Y-51434998D01*
X77434532Y-51434998D01*
X77434532Y-51435000D01*
X77454364Y-51661686D01*
X77454366Y-51661697D01*
X77513258Y-51881488D01*
X77513261Y-51881497D01*
X77592882Y-52052242D01*
X77604500Y-52104647D01*
X77604500Y-53980351D01*
X77592882Y-54032756D01*
X77513262Y-54203502D01*
X77513258Y-54203511D01*
X77454366Y-54423302D01*
X77454364Y-54423313D01*
X77434532Y-54649998D01*
X77434532Y-54650001D01*
X77454364Y-54876686D01*
X77454366Y-54876697D01*
X77513258Y-55096488D01*
X77513261Y-55096497D01*
X77609431Y-55302732D01*
X77609432Y-55302734D01*
X77739954Y-55489141D01*
X77900858Y-55650045D01*
X77928080Y-55669106D01*
X78087266Y-55780568D01*
X78293504Y-55876739D01*
X78293509Y-55876740D01*
X78293511Y-55876741D01*
X78304252Y-55879619D01*
X78513308Y-55935635D01*
X78675230Y-55949801D01*
X78739998Y-55955468D01*
X78740000Y-55955468D01*
X78740002Y-55955468D01*
X78796673Y-55950509D01*
X78966692Y-55935635D01*
X79186496Y-55876739D01*
X79392734Y-55780568D01*
X79579139Y-55650047D01*
X79740047Y-55489139D01*
X79870568Y-55302734D01*
X79966739Y-55096496D01*
X80025635Y-54876692D01*
X80045468Y-54650000D01*
X80044050Y-54633797D01*
X80039801Y-54585230D01*
X80025635Y-54423308D01*
X79966739Y-54203504D01*
X79887118Y-54032756D01*
X79875500Y-53980351D01*
X79875500Y-52104647D01*
X79887118Y-52052242D01*
X79893905Y-52037688D01*
X79966739Y-51881496D01*
X80025635Y-51661692D01*
X80045468Y-51435000D01*
X80043916Y-51417266D01*
X80027608Y-51230861D01*
X80025635Y-51208308D01*
X79966739Y-50988504D01*
X79870568Y-50782266D01*
X79756712Y-50619661D01*
X79740045Y-50595858D01*
X79579141Y-50434954D01*
X79392734Y-50304432D01*
X79392732Y-50304431D01*
X79186497Y-50208261D01*
X79186488Y-50208258D01*
X78966697Y-50149366D01*
X78966693Y-50149365D01*
X78966692Y-50149365D01*
X78966691Y-50149364D01*
X78966686Y-50149364D01*
X78740002Y-50129532D01*
X78739998Y-50129532D01*
X78513313Y-50149364D01*
X78513302Y-50149366D01*
X78293511Y-50208258D01*
X78293502Y-50208261D01*
X78087267Y-50304431D01*
X78087265Y-50304432D01*
X77900858Y-50434954D01*
X77739954Y-50595858D01*
X77609432Y-50782265D01*
X77609431Y-50782267D01*
X77513261Y-50988502D01*
X77513258Y-50988511D01*
X77454366Y-51208302D01*
X77454364Y-51208313D01*
X77434532Y-51434998D01*
X70826829Y-51434998D01*
X72845379Y-49416448D01*
X72845382Y-49416445D01*
X72934902Y-49282469D01*
X72996564Y-49133602D01*
X73021439Y-49008552D01*
X73028000Y-48975568D01*
X73028000Y-48814432D01*
X72996565Y-48656403D01*
X72996564Y-48656402D01*
X72996564Y-48656398D01*
X72996562Y-48656393D01*
X72934905Y-48507538D01*
X72934898Y-48507525D01*
X72845382Y-48373556D01*
X72845379Y-48373552D01*
X72731447Y-48259620D01*
X72731443Y-48259617D01*
X72597474Y-48170101D01*
X72597461Y-48170094D01*
X72448606Y-48108437D01*
X72448596Y-48108434D01*
X72290567Y-48077000D01*
X72290565Y-48077000D01*
X72129434Y-48077000D01*
X72129432Y-48077000D01*
X71971404Y-48108434D01*
X71971396Y-48108436D01*
X71822530Y-48170098D01*
X71822527Y-48170099D01*
X71688555Y-48259617D01*
X71688551Y-48259620D01*
X64652120Y-55296051D01*
X64652117Y-55296055D01*
X64562600Y-55430026D01*
X64562598Y-55430030D01*
X64562597Y-55430032D01*
X64538115Y-55489139D01*
X64500935Y-55578897D01*
X64500933Y-55578905D01*
X64469500Y-55736929D01*
X64469500Y-55908140D01*
X64449815Y-55975179D01*
X64397011Y-56020934D01*
X64327853Y-56030878D01*
X64326103Y-56030613D01*
X64224366Y-56014500D01*
X64045634Y-56014500D01*
X64005012Y-56020934D01*
X63869101Y-56042460D01*
X63869098Y-56042460D01*
X63699121Y-56097689D01*
X63699118Y-56097691D01*
X63539867Y-56178833D01*
X63395270Y-56283890D01*
X63268890Y-56410270D01*
X63163833Y-56554867D01*
X63082691Y-56714118D01*
X63082689Y-56714121D01*
X63027460Y-56884098D01*
X63027460Y-56884101D01*
X62999500Y-57060634D01*
X62999500Y-58265537D01*
X62979815Y-58332576D01*
X62963181Y-58353218D01*
X62288476Y-59027922D01*
X62227153Y-59061407D01*
X62157461Y-59056423D01*
X62101528Y-59014551D01*
X62093811Y-59001647D01*
X62093276Y-59001957D01*
X62090567Y-58997265D01*
X62090566Y-58997264D01*
X61960047Y-58810861D01*
X61960045Y-58810858D01*
X61799141Y-58649954D01*
X61612734Y-58519432D01*
X61612732Y-58519431D01*
X61406497Y-58423261D01*
X61406488Y-58423258D01*
X61186697Y-58364366D01*
X61186693Y-58364365D01*
X61186692Y-58364365D01*
X61186691Y-58364364D01*
X61186686Y-58364364D01*
X60960002Y-58344532D01*
X60959998Y-58344532D01*
X60733313Y-58364364D01*
X60733302Y-58364366D01*
X60513511Y-58423258D01*
X60513502Y-58423261D01*
X60307267Y-58519431D01*
X60307265Y-58519432D01*
X60120858Y-58649954D01*
X59959954Y-58810858D01*
X59829432Y-58997265D01*
X59829431Y-58997267D01*
X59733261Y-59203502D01*
X59733258Y-59203511D01*
X59674366Y-59423302D01*
X59674364Y-59423313D01*
X59654532Y-59649998D01*
X59654532Y-59650001D01*
X59674364Y-59876686D01*
X59674366Y-59876697D01*
X59733258Y-60096488D01*
X59733261Y-60096497D01*
X59829431Y-60302732D01*
X59829432Y-60302734D01*
X59959954Y-60489141D01*
X60120858Y-60650045D01*
X60120861Y-60650047D01*
X60307266Y-60780568D01*
X60307269Y-60780569D01*
X60311957Y-60783276D01*
X60310667Y-60785509D01*
X60355016Y-60824476D01*
X60374238Y-60891649D01*
X60354092Y-60958551D01*
X60337923Y-60978476D01*
X60165897Y-61150504D01*
X60104574Y-61183989D01*
X60078215Y-61186823D01*
X54366644Y-61186823D01*
X54299605Y-61167138D01*
X54290482Y-61160676D01*
X54163512Y-61061851D01*
X54163508Y-61061848D01*
X53944811Y-60943495D01*
X53944802Y-60943492D01*
X53709616Y-60862752D01*
X53464335Y-60821823D01*
X53215665Y-60821823D01*
X52970383Y-60862752D01*
X52735197Y-60943492D01*
X52735188Y-60943495D01*
X52516493Y-61061847D01*
X52320257Y-61214584D01*
X52151833Y-61397540D01*
X52015827Y-61605714D01*
X51972357Y-61704816D01*
X51927400Y-61758301D01*
X51860664Y-61778991D01*
X51793336Y-61760316D01*
X51771120Y-61742686D01*
X46574319Y-56545885D01*
X46540834Y-56484562D01*
X46538000Y-56458204D01*
X46538000Y-56434433D01*
X46537999Y-56434429D01*
X46533194Y-56410272D01*
X46506565Y-56276398D01*
X46466152Y-56178833D01*
X46444903Y-56127533D01*
X46355380Y-55993552D01*
X46241447Y-55879619D01*
X46107466Y-55790096D01*
X45958602Y-55728435D01*
X45958594Y-55728433D01*
X45800570Y-55697000D01*
X45800566Y-55697000D01*
X45639434Y-55697000D01*
X45639429Y-55697000D01*
X45481405Y-55728433D01*
X45481393Y-55728436D01*
X45439452Y-55745809D01*
X45369983Y-55753278D01*
X45307504Y-55722002D01*
X45271852Y-55661913D01*
X45268000Y-55631248D01*
X45268000Y-51434998D01*
X49494532Y-51434998D01*
X49494532Y-51435000D01*
X49514364Y-51661686D01*
X49514366Y-51661697D01*
X49573258Y-51881488D01*
X49573261Y-51881497D01*
X49669431Y-52087732D01*
X49669432Y-52087734D01*
X49799954Y-52274141D01*
X49960858Y-52435045D01*
X49960861Y-52435047D01*
X50147266Y-52565568D01*
X50353504Y-52661739D01*
X50353507Y-52661739D01*
X50353516Y-52661743D01*
X50413472Y-52677807D01*
X50469062Y-52709901D01*
X52168181Y-54409020D01*
X52201666Y-54470343D01*
X52204500Y-54496701D01*
X52204500Y-55752586D01*
X52184815Y-55819625D01*
X52132011Y-55865380D01*
X52123836Y-55868767D01*
X52097665Y-55878528D01*
X51982455Y-55964775D01*
X51982452Y-55964778D01*
X51896206Y-56079987D01*
X51896202Y-56079994D01*
X51845908Y-56214840D01*
X51839501Y-56274439D01*
X51839501Y-56274446D01*
X51839500Y-56274458D01*
X51839500Y-58370193D01*
X51839501Y-58370199D01*
X51845908Y-58429806D01*
X51896202Y-58564651D01*
X51896206Y-58564658D01*
X51982452Y-58679867D01*
X51982455Y-58679870D01*
X52097664Y-58766116D01*
X52097671Y-58766120D01*
X52232517Y-58816414D01*
X52232516Y-58816414D01*
X52239444Y-58817158D01*
X52292127Y-58822823D01*
X54387872Y-58822822D01*
X54447483Y-58816414D01*
X54582331Y-58766119D01*
X54697546Y-58679869D01*
X54783796Y-58564654D01*
X54834091Y-58429806D01*
X54840500Y-58370196D01*
X54840499Y-56274451D01*
X54834091Y-56214840D01*
X54821890Y-56182128D01*
X54783797Y-56079994D01*
X54783793Y-56079987D01*
X54697547Y-55964778D01*
X54697544Y-55964775D01*
X54582334Y-55878528D01*
X54556164Y-55868767D01*
X54500231Y-55826894D01*
X54475816Y-55761429D01*
X54475500Y-55752586D01*
X54475500Y-53885634D01*
X54463657Y-53810860D01*
X54447540Y-53709103D01*
X54447539Y-53709099D01*
X54447539Y-53709098D01*
X54392310Y-53539121D01*
X54392308Y-53539118D01*
X54342904Y-53442155D01*
X54311167Y-53379868D01*
X54250319Y-53296118D01*
X54206111Y-53235271D01*
X52405837Y-51434998D01*
X59654532Y-51434998D01*
X59654532Y-51435000D01*
X59674364Y-51661686D01*
X59674366Y-51661697D01*
X59733258Y-51881488D01*
X59733261Y-51881497D01*
X59812882Y-52052242D01*
X59824500Y-52104647D01*
X59824500Y-53980351D01*
X59812882Y-54032756D01*
X59733262Y-54203502D01*
X59733258Y-54203511D01*
X59674366Y-54423302D01*
X59674364Y-54423313D01*
X59654532Y-54649998D01*
X59654532Y-54650001D01*
X59674364Y-54876686D01*
X59674366Y-54876697D01*
X59733258Y-55096488D01*
X59733261Y-55096497D01*
X59829431Y-55302732D01*
X59829432Y-55302734D01*
X59959954Y-55489141D01*
X60120858Y-55650045D01*
X60148080Y-55669106D01*
X60307266Y-55780568D01*
X60513504Y-55876739D01*
X60513509Y-55876740D01*
X60513511Y-55876741D01*
X60524252Y-55879619D01*
X60733308Y-55935635D01*
X60895230Y-55949801D01*
X60959998Y-55955468D01*
X60960000Y-55955468D01*
X60960002Y-55955468D01*
X61016673Y-55950509D01*
X61186692Y-55935635D01*
X61406496Y-55876739D01*
X61612734Y-55780568D01*
X61799139Y-55650047D01*
X61960047Y-55489139D01*
X62090568Y-55302734D01*
X62186739Y-55096496D01*
X62245635Y-54876692D01*
X62265468Y-54650000D01*
X62264050Y-54633797D01*
X62259801Y-54585230D01*
X62245635Y-54423308D01*
X62186739Y-54203504D01*
X62107118Y-54032756D01*
X62095500Y-53980351D01*
X62095500Y-52104647D01*
X62107118Y-52052242D01*
X62113905Y-52037688D01*
X62186739Y-51881496D01*
X62245635Y-51661692D01*
X62265468Y-51435000D01*
X62263916Y-51417266D01*
X62247608Y-51230861D01*
X62245635Y-51208308D01*
X62186739Y-50988504D01*
X62090568Y-50782266D01*
X61976712Y-50619661D01*
X61960045Y-50595858D01*
X61799141Y-50434954D01*
X61612734Y-50304432D01*
X61612732Y-50304431D01*
X61406497Y-50208261D01*
X61406488Y-50208258D01*
X61186697Y-50149366D01*
X61186693Y-50149365D01*
X61186692Y-50149365D01*
X61186691Y-50149364D01*
X61186686Y-50149364D01*
X60960002Y-50129532D01*
X60959998Y-50129532D01*
X60733313Y-50149364D01*
X60733302Y-50149366D01*
X60513511Y-50208258D01*
X60513502Y-50208261D01*
X60307267Y-50304431D01*
X60307265Y-50304432D01*
X60120858Y-50434954D01*
X59959954Y-50595858D01*
X59829432Y-50782265D01*
X59829431Y-50782267D01*
X59733261Y-50988502D01*
X59733258Y-50988511D01*
X59674366Y-51208302D01*
X59674364Y-51208313D01*
X59654532Y-51434998D01*
X52405837Y-51434998D01*
X52074900Y-51104061D01*
X52042807Y-51048472D01*
X52026743Y-50988516D01*
X52026740Y-50988511D01*
X52026739Y-50988504D01*
X51959011Y-50843261D01*
X51947118Y-50817756D01*
X51935500Y-50765351D01*
X51935500Y-50686700D01*
X51955185Y-50619661D01*
X51971814Y-50599024D01*
X54305938Y-48264899D01*
X54361521Y-48232808D01*
X54421496Y-48216739D01*
X54627734Y-48120568D01*
X54814139Y-47990047D01*
X54975047Y-47829139D01*
X55105568Y-47642734D01*
X55201739Y-47436496D01*
X55260635Y-47216692D01*
X55280468Y-46990000D01*
X55260635Y-46763308D01*
X55201739Y-46543504D01*
X55105568Y-46337266D01*
X55007839Y-46197693D01*
X54975045Y-46150858D01*
X54814141Y-45989954D01*
X54627734Y-45859432D01*
X54627732Y-45859431D01*
X54587634Y-45840733D01*
X54569132Y-45832105D01*
X54516694Y-45785934D01*
X54497542Y-45718740D01*
X54517758Y-45651859D01*
X54569134Y-45607341D01*
X54627484Y-45580132D01*
X54813820Y-45449657D01*
X54974657Y-45288820D01*
X55105134Y-45102482D01*
X55201265Y-44896326D01*
X55201269Y-44896317D01*
X55253872Y-44700000D01*
X54290686Y-44700000D01*
X54295080Y-44695606D01*
X54347741Y-44604394D01*
X54375000Y-44502661D01*
X54375000Y-44397339D01*
X54347741Y-44295606D01*
X54295080Y-44204394D01*
X54290686Y-44200000D01*
X55253872Y-44200000D01*
X55253872Y-44199999D01*
X55201269Y-44003682D01*
X55201265Y-44003673D01*
X55105134Y-43797517D01*
X54974657Y-43611179D01*
X54813820Y-43450342D01*
X54627482Y-43319865D01*
X54569133Y-43292657D01*
X54516694Y-43246484D01*
X54497542Y-43179291D01*
X54517758Y-43112410D01*
X54569129Y-43067895D01*
X54627734Y-43040568D01*
X54814139Y-42910047D01*
X54975047Y-42749139D01*
X55105568Y-42562734D01*
X55201739Y-42356496D01*
X55260635Y-42136692D01*
X55277634Y-41942384D01*
X55280468Y-41910001D01*
X55280468Y-41909998D01*
X55260635Y-41683313D01*
X55260635Y-41683308D01*
X55201739Y-41463504D01*
X55105568Y-41257266D01*
X54975047Y-41070861D01*
X54975045Y-41070858D01*
X54814141Y-40909954D01*
X54627734Y-40779432D01*
X54627728Y-40779429D01*
X54569725Y-40752382D01*
X54517285Y-40706210D01*
X54498133Y-40639017D01*
X54518348Y-40572135D01*
X54569725Y-40527618D01*
X54627734Y-40500568D01*
X54814139Y-40370047D01*
X54975047Y-40209139D01*
X55105568Y-40022734D01*
X55201739Y-39816496D01*
X55260635Y-39596692D01*
X55280468Y-39370000D01*
X55280468Y-39369995D01*
X63094816Y-39369995D01*
X63094816Y-39370004D01*
X63113524Y-39619663D01*
X63113525Y-39619668D01*
X63169236Y-39863755D01*
X63169238Y-39863764D01*
X63169240Y-39863769D01*
X63260711Y-40096835D01*
X63385898Y-40313665D01*
X63511981Y-40471768D01*
X63542006Y-40509418D01*
X63663627Y-40622265D01*
X63725540Y-40679712D01*
X63932408Y-40820752D01*
X63932413Y-40820754D01*
X63932414Y-40820755D01*
X63932415Y-40820756D01*
X64052218Y-40878449D01*
X64157983Y-40929383D01*
X64157984Y-40929383D01*
X64157987Y-40929385D01*
X64397236Y-41003184D01*
X64397237Y-41003184D01*
X64397240Y-41003185D01*
X64644805Y-41040499D01*
X64644810Y-41040499D01*
X64644813Y-41040500D01*
X64644814Y-41040500D01*
X64895186Y-41040500D01*
X64895187Y-41040500D01*
X64895194Y-41040499D01*
X65142759Y-41003185D01*
X65142760Y-41003184D01*
X65142764Y-41003184D01*
X65382013Y-40929385D01*
X65571467Y-40838149D01*
X65607584Y-40820756D01*
X65607584Y-40820755D01*
X65607592Y-40820752D01*
X65814460Y-40679712D01*
X65978378Y-40527618D01*
X65997993Y-40509418D01*
X65997993Y-40509416D01*
X65997997Y-40509414D01*
X66154102Y-40313665D01*
X66279289Y-40096835D01*
X66370760Y-39863769D01*
X66426474Y-39619673D01*
X66445184Y-39370000D01*
X66445184Y-39369995D01*
X68254816Y-39369995D01*
X68254816Y-39370004D01*
X68273524Y-39619663D01*
X68273525Y-39619668D01*
X68329236Y-39863755D01*
X68329238Y-39863764D01*
X68329240Y-39863769D01*
X68420711Y-40096835D01*
X68545898Y-40313665D01*
X68671981Y-40471768D01*
X68702006Y-40509418D01*
X68823627Y-40622265D01*
X68885540Y-40679712D01*
X69092408Y-40820752D01*
X69092413Y-40820754D01*
X69092414Y-40820755D01*
X69092415Y-40820756D01*
X69212218Y-40878449D01*
X69317983Y-40929383D01*
X69317984Y-40929383D01*
X69317987Y-40929385D01*
X69557236Y-41003184D01*
X69557237Y-41003184D01*
X69557240Y-41003185D01*
X69804805Y-41040499D01*
X69804810Y-41040499D01*
X69804813Y-41040500D01*
X69804814Y-41040500D01*
X70055186Y-41040500D01*
X70055187Y-41040500D01*
X70302764Y-41003184D01*
X70310531Y-41000787D01*
X70380392Y-40999832D01*
X70434768Y-41031595D01*
X74488551Y-45085379D01*
X74488555Y-45085382D01*
X74622532Y-45174903D01*
X74696963Y-45205732D01*
X74696964Y-45205733D01*
X74696965Y-45205733D01*
X74771398Y-45236565D01*
X74929429Y-45267999D01*
X74929433Y-45268000D01*
X74929434Y-45268000D01*
X84652452Y-45268000D01*
X84719491Y-45287685D01*
X84740128Y-45304314D01*
X84840894Y-45405080D01*
X84885862Y-45450048D01*
X84979063Y-45515307D01*
X85072266Y-45580568D01*
X85129681Y-45607341D01*
X85130275Y-45607618D01*
X85182714Y-45653791D01*
X85201866Y-45720984D01*
X85181650Y-45787865D01*
X85130275Y-45832382D01*
X85072267Y-45859431D01*
X85072265Y-45859432D01*
X84885858Y-45989954D01*
X84724954Y-46150858D01*
X84594432Y-46337265D01*
X84594431Y-46337267D01*
X84498261Y-46543502D01*
X84498258Y-46543511D01*
X84439366Y-46763302D01*
X84439364Y-46763313D01*
X84419532Y-46989998D01*
X84419532Y-46990001D01*
X84439364Y-47216686D01*
X84439366Y-47216697D01*
X84498258Y-47436488D01*
X84498261Y-47436497D01*
X84594431Y-47642732D01*
X84594432Y-47642734D01*
X84724954Y-47829141D01*
X84885858Y-47990045D01*
X84885861Y-47990047D01*
X85072266Y-48120568D01*
X85278504Y-48216739D01*
X85498308Y-48275635D01*
X85660230Y-48289801D01*
X85724998Y-48295468D01*
X85725000Y-48295468D01*
X85725002Y-48295468D01*
X85781673Y-48290509D01*
X85951692Y-48275635D01*
X86171496Y-48216739D01*
X86377734Y-48120568D01*
X86564139Y-47990047D01*
X86725047Y-47829139D01*
X86855568Y-47642734D01*
X86951739Y-47436496D01*
X87010635Y-47216692D01*
X87030468Y-46990000D01*
X87010635Y-46763308D01*
X86951739Y-46543504D01*
X86855568Y-46337266D01*
X86757839Y-46197693D01*
X86725045Y-46150858D01*
X86564141Y-45989954D01*
X86377734Y-45859432D01*
X86377728Y-45859429D01*
X86319725Y-45832382D01*
X86267285Y-45786210D01*
X86248133Y-45719017D01*
X86268348Y-45652135D01*
X86319725Y-45607618D01*
X86320319Y-45607341D01*
X86377734Y-45580568D01*
X86564139Y-45450047D01*
X86725047Y-45289139D01*
X86855568Y-45102734D01*
X86951739Y-44896496D01*
X87010635Y-44676692D01*
X87030468Y-44450000D01*
X87028916Y-44432266D01*
X87023549Y-44370919D01*
X87010635Y-44223308D01*
X86951739Y-44003504D01*
X86855568Y-43797266D01*
X86725047Y-43610861D01*
X86725045Y-43610858D01*
X86564141Y-43449954D01*
X86377734Y-43319432D01*
X86377728Y-43319429D01*
X86319725Y-43292382D01*
X86267285Y-43246210D01*
X86248133Y-43179017D01*
X86268348Y-43112135D01*
X86319725Y-43067618D01*
X86377734Y-43040568D01*
X86564139Y-42910047D01*
X86725047Y-42749139D01*
X86855568Y-42562734D01*
X86951739Y-42356496D01*
X87010635Y-42136692D01*
X87027634Y-41942384D01*
X87030468Y-41910001D01*
X87030468Y-41909998D01*
X87010635Y-41683313D01*
X87010635Y-41683308D01*
X86951739Y-41463504D01*
X86855568Y-41257266D01*
X86725047Y-41070861D01*
X86725045Y-41070858D01*
X86564143Y-40909956D01*
X86549924Y-40900000D01*
X86539535Y-40892725D01*
X86495912Y-40838149D01*
X86488719Y-40768650D01*
X86520241Y-40706296D01*
X86580471Y-40670882D01*
X86597404Y-40667861D01*
X86632483Y-40664091D01*
X86767331Y-40613796D01*
X86882546Y-40527546D01*
X86968796Y-40412331D01*
X87019091Y-40277483D01*
X87025500Y-40217873D01*
X87025499Y-39369998D01*
X92039532Y-39369998D01*
X92039532Y-39370001D01*
X92059364Y-39596686D01*
X92059366Y-39596697D01*
X92118258Y-39816488D01*
X92118261Y-39816497D01*
X92214431Y-40022732D01*
X92214432Y-40022734D01*
X92344954Y-40209141D01*
X92505858Y-40370045D01*
X92505861Y-40370047D01*
X92692266Y-40500568D01*
X92750275Y-40527618D01*
X92802714Y-40573791D01*
X92821866Y-40640984D01*
X92801650Y-40707865D01*
X92750275Y-40752382D01*
X92692267Y-40779431D01*
X92692265Y-40779432D01*
X92505858Y-40909954D01*
X92344954Y-41070858D01*
X92214432Y-41257265D01*
X92214431Y-41257267D01*
X92118261Y-41463502D01*
X92118258Y-41463511D01*
X92059366Y-41683302D01*
X92059364Y-41683313D01*
X92039532Y-41909998D01*
X92039532Y-41910001D01*
X92059364Y-42136686D01*
X92059366Y-42136697D01*
X92118258Y-42356488D01*
X92118261Y-42356497D01*
X92214431Y-42562732D01*
X92214432Y-42562734D01*
X92344954Y-42749141D01*
X92505858Y-42910045D01*
X92505861Y-42910047D01*
X92692266Y-43040568D01*
X92750865Y-43067893D01*
X92803305Y-43114065D01*
X92822457Y-43181258D01*
X92802242Y-43248139D01*
X92750867Y-43292657D01*
X92692515Y-43319867D01*
X92506179Y-43450342D01*
X92345342Y-43611179D01*
X92214865Y-43797517D01*
X92118734Y-44003673D01*
X92118730Y-44003682D01*
X92066127Y-44199999D01*
X92066128Y-44200000D01*
X93029314Y-44200000D01*
X93024920Y-44204394D01*
X92972259Y-44295606D01*
X92945000Y-44397339D01*
X92945000Y-44502661D01*
X92972259Y-44604394D01*
X93024920Y-44695606D01*
X93029314Y-44700000D01*
X92066128Y-44700000D01*
X92118730Y-44896317D01*
X92118734Y-44896326D01*
X92214865Y-45102482D01*
X92345342Y-45288820D01*
X92506179Y-45449657D01*
X92692518Y-45580134D01*
X92692520Y-45580135D01*
X92750865Y-45607342D01*
X92803305Y-45653514D01*
X92822457Y-45720707D01*
X92802242Y-45787589D01*
X92750867Y-45832105D01*
X92692268Y-45859431D01*
X92692264Y-45859433D01*
X92505858Y-45989954D01*
X92344954Y-46150858D01*
X92214432Y-46337265D01*
X92214431Y-46337267D01*
X92118261Y-46543502D01*
X92118258Y-46543511D01*
X92059366Y-46763302D01*
X92059364Y-46763313D01*
X92039532Y-46989998D01*
X92039532Y-46990001D01*
X92059364Y-47216686D01*
X92059366Y-47216697D01*
X92118258Y-47436488D01*
X92118261Y-47436497D01*
X92214431Y-47642732D01*
X92214432Y-47642734D01*
X92344954Y-47829141D01*
X92505858Y-47990045D01*
X92505861Y-47990047D01*
X92692266Y-48120568D01*
X92898504Y-48216739D01*
X93118308Y-48275635D01*
X93280230Y-48289801D01*
X93344998Y-48295468D01*
X93345000Y-48295468D01*
X93345002Y-48295468D01*
X93401673Y-48290509D01*
X93571692Y-48275635D01*
X93791496Y-48216739D01*
X93997734Y-48120568D01*
X94184139Y-47990047D01*
X94345047Y-47829139D01*
X94475568Y-47642734D01*
X94571739Y-47436496D01*
X94630635Y-47216692D01*
X94650468Y-46990000D01*
X94630635Y-46763308D01*
X94571739Y-46543504D01*
X94475568Y-46337266D01*
X94377839Y-46197693D01*
X94345045Y-46150858D01*
X94184141Y-45989954D01*
X93997734Y-45859432D01*
X93997732Y-45859431D01*
X93957634Y-45840733D01*
X93939132Y-45832105D01*
X93886694Y-45785934D01*
X93867542Y-45718740D01*
X93887758Y-45651859D01*
X93939134Y-45607341D01*
X93997484Y-45580132D01*
X94183820Y-45449657D01*
X94344657Y-45288820D01*
X94475134Y-45102482D01*
X94571265Y-44896326D01*
X94571269Y-44896317D01*
X94623872Y-44700000D01*
X93660686Y-44700000D01*
X93665080Y-44695606D01*
X93717741Y-44604394D01*
X93745000Y-44502661D01*
X93745000Y-44397339D01*
X93717741Y-44295606D01*
X93665080Y-44204394D01*
X93660686Y-44200000D01*
X94623872Y-44200000D01*
X94623872Y-44199999D01*
X94571269Y-44003682D01*
X94571265Y-44003673D01*
X94475134Y-43797517D01*
X94344657Y-43611179D01*
X94183820Y-43450342D01*
X93997482Y-43319865D01*
X93939133Y-43292657D01*
X93886694Y-43246484D01*
X93867542Y-43179291D01*
X93887758Y-43112410D01*
X93939129Y-43067895D01*
X93997734Y-43040568D01*
X94184139Y-42910047D01*
X94345047Y-42749139D01*
X94475568Y-42562734D01*
X94571739Y-42356496D01*
X94630635Y-42136692D01*
X94647634Y-41942384D01*
X94650468Y-41910001D01*
X94650468Y-41909998D01*
X94630635Y-41683313D01*
X94630635Y-41683308D01*
X94571739Y-41463504D01*
X94475568Y-41257266D01*
X94345047Y-41070861D01*
X94345045Y-41070858D01*
X94184141Y-40909954D01*
X93997734Y-40779432D01*
X93997728Y-40779429D01*
X93939725Y-40752382D01*
X93887285Y-40706210D01*
X93868133Y-40639017D01*
X93888348Y-40572135D01*
X93939725Y-40527618D01*
X93997734Y-40500568D01*
X94184139Y-40370047D01*
X94345047Y-40209139D01*
X94475568Y-40022734D01*
X94571739Y-39816496D01*
X94630635Y-39596692D01*
X94650468Y-39370000D01*
X94646447Y-39324045D01*
X94636773Y-39213466D01*
X94630635Y-39143308D01*
X94571739Y-38923504D01*
X94475568Y-38717266D01*
X94345047Y-38530861D01*
X94345045Y-38530858D01*
X94184141Y-38369954D01*
X93997734Y-38239432D01*
X93997732Y-38239431D01*
X93791497Y-38143261D01*
X93791488Y-38143258D01*
X93571697Y-38084366D01*
X93571693Y-38084365D01*
X93571692Y-38084365D01*
X93571691Y-38084364D01*
X93571686Y-38084364D01*
X93345002Y-38064532D01*
X93344998Y-38064532D01*
X93118313Y-38084364D01*
X93118302Y-38084366D01*
X92898511Y-38143258D01*
X92898502Y-38143261D01*
X92692267Y-38239431D01*
X92692265Y-38239432D01*
X92505858Y-38369954D01*
X92344954Y-38530858D01*
X92214432Y-38717265D01*
X92214431Y-38717267D01*
X92118261Y-38923502D01*
X92118258Y-38923511D01*
X92059366Y-39143302D01*
X92059364Y-39143313D01*
X92039532Y-39369998D01*
X87025499Y-39369998D01*
X87025499Y-38522128D01*
X87019091Y-38462517D01*
X86984567Y-38369954D01*
X86968797Y-38327671D01*
X86968793Y-38327664D01*
X86882547Y-38212455D01*
X86882544Y-38212452D01*
X86767335Y-38126206D01*
X86767328Y-38126202D01*
X86632482Y-38075908D01*
X86632483Y-38075908D01*
X86572883Y-38069501D01*
X86572881Y-38069500D01*
X86572873Y-38069500D01*
X86572864Y-38069500D01*
X84877129Y-38069500D01*
X84877123Y-38069501D01*
X84817516Y-38075908D01*
X84682671Y-38126202D01*
X84682664Y-38126206D01*
X84567455Y-38212452D01*
X84567452Y-38212455D01*
X84481206Y-38327664D01*
X84481202Y-38327671D01*
X84430908Y-38462517D01*
X84424501Y-38522116D01*
X84424501Y-38522123D01*
X84424500Y-38522135D01*
X84424500Y-40217870D01*
X84424501Y-40217876D01*
X84430908Y-40277483D01*
X84481202Y-40412328D01*
X84481206Y-40412335D01*
X84567452Y-40527544D01*
X84567455Y-40527547D01*
X84682664Y-40613793D01*
X84682671Y-40613797D01*
X84705378Y-40622266D01*
X84817517Y-40664091D01*
X84852596Y-40667862D01*
X84917144Y-40694599D01*
X84956993Y-40751991D01*
X84959488Y-40821816D01*
X84923836Y-40881905D01*
X84910464Y-40892725D01*
X84885858Y-40909954D01*
X84724954Y-41070858D01*
X84594432Y-41257265D01*
X84594431Y-41257267D01*
X84498261Y-41463502D01*
X84498258Y-41463511D01*
X84439366Y-41683302D01*
X84439364Y-41683313D01*
X84419532Y-41909998D01*
X84419532Y-41910001D01*
X84439364Y-42136686D01*
X84439366Y-42136697D01*
X84498258Y-42356488D01*
X84498261Y-42356497D01*
X84594431Y-42562732D01*
X84594432Y-42562734D01*
X84724954Y-42749141D01*
X84885858Y-42910045D01*
X84885861Y-42910047D01*
X85072266Y-43040568D01*
X85130275Y-43067618D01*
X85182714Y-43113791D01*
X85201866Y-43180984D01*
X85181650Y-43247865D01*
X85130275Y-43292382D01*
X85072267Y-43319431D01*
X85072265Y-43319432D01*
X84885862Y-43449951D01*
X84812998Y-43522816D01*
X84740131Y-43595682D01*
X84678811Y-43629166D01*
X84652452Y-43632000D01*
X75400189Y-43632000D01*
X75333150Y-43612315D01*
X75312508Y-43595681D01*
X71588480Y-39871653D01*
X71554995Y-39810330D01*
X71555269Y-39756384D01*
X71586474Y-39619673D01*
X71605184Y-39370000D01*
X71605184Y-39369995D01*
X73254816Y-39369995D01*
X73254816Y-39370004D01*
X73273524Y-39619663D01*
X73273525Y-39619668D01*
X73329236Y-39863755D01*
X73329238Y-39863764D01*
X73329240Y-39863769D01*
X73420711Y-40096835D01*
X73545898Y-40313665D01*
X73671981Y-40471768D01*
X73702006Y-40509418D01*
X73823627Y-40622265D01*
X73885540Y-40679712D01*
X74092408Y-40820752D01*
X74092413Y-40820754D01*
X74092414Y-40820755D01*
X74092415Y-40820756D01*
X74212218Y-40878449D01*
X74317983Y-40929383D01*
X74317984Y-40929383D01*
X74317987Y-40929385D01*
X74557236Y-41003184D01*
X74557237Y-41003184D01*
X74557240Y-41003185D01*
X74804805Y-41040499D01*
X74804810Y-41040499D01*
X74804813Y-41040500D01*
X74804814Y-41040500D01*
X75055186Y-41040500D01*
X75055187Y-41040500D01*
X75055194Y-41040499D01*
X75302759Y-41003185D01*
X75302760Y-41003184D01*
X75302764Y-41003184D01*
X75542013Y-40929385D01*
X75731467Y-40838149D01*
X75767584Y-40820756D01*
X75767584Y-40820755D01*
X75767592Y-40820752D01*
X75974460Y-40679712D01*
X76138378Y-40527618D01*
X76157993Y-40509418D01*
X76157993Y-40509416D01*
X76157997Y-40509414D01*
X76314102Y-40313665D01*
X76439289Y-40096835D01*
X76530760Y-39863769D01*
X76586474Y-39619673D01*
X76605184Y-39370000D01*
X76601740Y-39324045D01*
X76586475Y-39120336D01*
X76586474Y-39120331D01*
X76586474Y-39120327D01*
X76530760Y-38876231D01*
X76439289Y-38643165D01*
X76314102Y-38426335D01*
X76157997Y-38230586D01*
X76157996Y-38230585D01*
X76157993Y-38230581D01*
X75974460Y-38060288D01*
X75931957Y-38031310D01*
X75767592Y-37919248D01*
X75767588Y-37919246D01*
X75767585Y-37919244D01*
X75767584Y-37919243D01*
X75542015Y-37810616D01*
X75542017Y-37810616D01*
X75302765Y-37736816D01*
X75302759Y-37736814D01*
X75055194Y-37699500D01*
X75055187Y-37699500D01*
X74804813Y-37699500D01*
X74804805Y-37699500D01*
X74557240Y-37736814D01*
X74557234Y-37736816D01*
X74317983Y-37810616D01*
X74092415Y-37919243D01*
X74092414Y-37919244D01*
X73885539Y-38060288D01*
X73702006Y-38230581D01*
X73545898Y-38426335D01*
X73420711Y-38643164D01*
X73329242Y-38876225D01*
X73329236Y-38876244D01*
X73273525Y-39120331D01*
X73273524Y-39120336D01*
X73254816Y-39369995D01*
X71605184Y-39369995D01*
X71601740Y-39324045D01*
X71586475Y-39120336D01*
X71586474Y-39120331D01*
X71586474Y-39120327D01*
X71530760Y-38876231D01*
X71439289Y-38643165D01*
X71314102Y-38426335D01*
X71157997Y-38230586D01*
X71157996Y-38230585D01*
X71157993Y-38230581D01*
X70974460Y-38060288D01*
X70931957Y-38031310D01*
X70767592Y-37919248D01*
X70767588Y-37919246D01*
X70767585Y-37919244D01*
X70767584Y-37919243D01*
X70542015Y-37810616D01*
X70542017Y-37810616D01*
X70302765Y-37736816D01*
X70302759Y-37736814D01*
X70055194Y-37699500D01*
X70055187Y-37699500D01*
X69804813Y-37699500D01*
X69804805Y-37699500D01*
X69557240Y-37736814D01*
X69557234Y-37736816D01*
X69317983Y-37810616D01*
X69092415Y-37919243D01*
X69092414Y-37919244D01*
X68885539Y-38060288D01*
X68702006Y-38230581D01*
X68545898Y-38426335D01*
X68420711Y-38643164D01*
X68329242Y-38876225D01*
X68329236Y-38876244D01*
X68273525Y-39120331D01*
X68273524Y-39120336D01*
X68254816Y-39369995D01*
X66445184Y-39369995D01*
X66441740Y-39324045D01*
X66426475Y-39120336D01*
X66426474Y-39120331D01*
X66426474Y-39120327D01*
X66370760Y-38876231D01*
X66279289Y-38643165D01*
X66154102Y-38426335D01*
X65997997Y-38230586D01*
X65997996Y-38230585D01*
X65997993Y-38230581D01*
X65814460Y-38060288D01*
X65771957Y-38031310D01*
X65607592Y-37919248D01*
X65607588Y-37919246D01*
X65607585Y-37919244D01*
X65607584Y-37919243D01*
X65382015Y-37810616D01*
X65382017Y-37810616D01*
X65142765Y-37736816D01*
X65142759Y-37736814D01*
X64895194Y-37699500D01*
X64895187Y-37699500D01*
X64644813Y-37699500D01*
X64644805Y-37699500D01*
X64397240Y-37736814D01*
X64397234Y-37736816D01*
X64157983Y-37810616D01*
X63932415Y-37919243D01*
X63932414Y-37919244D01*
X63725539Y-38060288D01*
X63542006Y-38230581D01*
X63385898Y-38426335D01*
X63260711Y-38643164D01*
X63169242Y-38876225D01*
X63169236Y-38876244D01*
X63113525Y-39120331D01*
X63113524Y-39120336D01*
X63094816Y-39369995D01*
X55280468Y-39369995D01*
X55276447Y-39324045D01*
X55266773Y-39213466D01*
X55260635Y-39143308D01*
X55201739Y-38923504D01*
X55105568Y-38717266D01*
X54975047Y-38530861D01*
X54975045Y-38530858D01*
X54814141Y-38369954D01*
X54627734Y-38239432D01*
X54627732Y-38239431D01*
X54421497Y-38143261D01*
X54421488Y-38143258D01*
X54201697Y-38084366D01*
X54201693Y-38084365D01*
X54201692Y-38084365D01*
X54201691Y-38084364D01*
X54201686Y-38084364D01*
X53975002Y-38064532D01*
X53974998Y-38064532D01*
X53748313Y-38084364D01*
X53748302Y-38084366D01*
X53528511Y-38143258D01*
X53528502Y-38143261D01*
X53322267Y-38239431D01*
X53322265Y-38239432D01*
X53135858Y-38369954D01*
X52974954Y-38530858D01*
X52844432Y-38717265D01*
X52844431Y-38717267D01*
X52748261Y-38923502D01*
X52748258Y-38923511D01*
X52689366Y-39143302D01*
X52689364Y-39143313D01*
X52669532Y-39369998D01*
X52669532Y-39370001D01*
X52689364Y-39596686D01*
X52689366Y-39596697D01*
X52748258Y-39816488D01*
X52748261Y-39816497D01*
X52844431Y-40022732D01*
X52844432Y-40022734D01*
X52974954Y-40209141D01*
X53135858Y-40370045D01*
X53135861Y-40370047D01*
X53322266Y-40500568D01*
X53380275Y-40527618D01*
X53432714Y-40573791D01*
X53451866Y-40640984D01*
X53431650Y-40707865D01*
X53380275Y-40752382D01*
X53322267Y-40779431D01*
X53322265Y-40779432D01*
X53135858Y-40909954D01*
X52974954Y-41070858D01*
X52844432Y-41257265D01*
X52844431Y-41257267D01*
X52748261Y-41463502D01*
X52748258Y-41463511D01*
X52689366Y-41683302D01*
X52689364Y-41683313D01*
X52669532Y-41909998D01*
X52669532Y-41910001D01*
X52689364Y-42136686D01*
X52689366Y-42136697D01*
X52748258Y-42356488D01*
X52748261Y-42356497D01*
X52844431Y-42562732D01*
X52844432Y-42562734D01*
X52974954Y-42749141D01*
X53135858Y-42910045D01*
X53135861Y-42910047D01*
X53322266Y-43040568D01*
X53380865Y-43067893D01*
X53433305Y-43114065D01*
X53452457Y-43181258D01*
X53432242Y-43248139D01*
X53380867Y-43292657D01*
X53322515Y-43319867D01*
X53136179Y-43450342D01*
X52975342Y-43611179D01*
X52844865Y-43797517D01*
X52748734Y-44003673D01*
X52748730Y-44003682D01*
X52696127Y-44199999D01*
X52696128Y-44200000D01*
X53659314Y-44200000D01*
X53654920Y-44204394D01*
X53602259Y-44295606D01*
X53575000Y-44397339D01*
X53575000Y-44502661D01*
X53602259Y-44604394D01*
X53654920Y-44695606D01*
X53659314Y-44700000D01*
X52696128Y-44700000D01*
X52748730Y-44896317D01*
X52748734Y-44896326D01*
X52844865Y-45102482D01*
X52975342Y-45288820D01*
X53136179Y-45449657D01*
X53322518Y-45580134D01*
X53322520Y-45580135D01*
X53380865Y-45607342D01*
X53433305Y-45653514D01*
X53452457Y-45720707D01*
X53432242Y-45787589D01*
X53380867Y-45832105D01*
X53322268Y-45859431D01*
X53322264Y-45859433D01*
X53135858Y-45989954D01*
X52974954Y-46150858D01*
X52844432Y-46337265D01*
X52844431Y-46337267D01*
X52748260Y-46543504D01*
X52732190Y-46603477D01*
X52700097Y-46659062D01*
X50060272Y-49298889D01*
X49933891Y-49425269D01*
X49933890Y-49425270D01*
X49828833Y-49569867D01*
X49747243Y-49729997D01*
X49746184Y-49733754D01*
X49692458Y-49899105D01*
X49692457Y-49899107D01*
X49665506Y-50069278D01*
X49665507Y-50069279D01*
X49664500Y-50075635D01*
X49664500Y-50765351D01*
X49652882Y-50817756D01*
X49573262Y-50988502D01*
X49573258Y-50988511D01*
X49514366Y-51208302D01*
X49514364Y-51208313D01*
X49494532Y-51434998D01*
X45268000Y-51434998D01*
X45268000Y-49449433D01*
X45267999Y-49449429D01*
X45263194Y-49425272D01*
X45236565Y-49291398D01*
X45205733Y-49216965D01*
X45174903Y-49142533D01*
X45085380Y-49008552D01*
X44971447Y-48894619D01*
X44837466Y-48805096D01*
X44688602Y-48743435D01*
X44688594Y-48743433D01*
X44530570Y-48712000D01*
X44530566Y-48712000D01*
X44369434Y-48712000D01*
X44369429Y-48712000D01*
X44211405Y-48743433D01*
X44211397Y-48743435D01*
X44062534Y-48805096D01*
X44028910Y-48827563D01*
X43962232Y-48848439D01*
X43894852Y-48829953D01*
X43848163Y-48777973D01*
X43836493Y-48735266D01*
X43830635Y-48668308D01*
X43771739Y-48448504D01*
X43675568Y-48242266D01*
X43545047Y-48055861D01*
X43545045Y-48055858D01*
X43384141Y-47894954D01*
X43197734Y-47764432D01*
X43197732Y-47764431D01*
X42991497Y-47668261D01*
X42991488Y-47668258D01*
X42771697Y-47609366D01*
X42771693Y-47609365D01*
X42771692Y-47609365D01*
X42771691Y-47609364D01*
X42771686Y-47609364D01*
X42545002Y-47589532D01*
X42544998Y-47589532D01*
X42318313Y-47609364D01*
X42318302Y-47609366D01*
X42098511Y-47668258D01*
X42098502Y-47668261D01*
X41892267Y-47764431D01*
X41892265Y-47764432D01*
X41705858Y-47894954D01*
X41544954Y-48055858D01*
X41414432Y-48242265D01*
X41414431Y-48242267D01*
X41318261Y-48448502D01*
X41318258Y-48448511D01*
X41259366Y-48668302D01*
X41259364Y-48668313D01*
X41239532Y-48894998D01*
X41239532Y-48895002D01*
X41246450Y-48974080D01*
X41232683Y-49042580D01*
X41210603Y-49072568D01*
X40409620Y-49873551D01*
X40409617Y-49873555D01*
X40320098Y-50007528D01*
X40291888Y-50075635D01*
X40258436Y-50156393D01*
X40258433Y-50156405D01*
X40227000Y-50314429D01*
X40227000Y-55390920D01*
X40207315Y-55457959D01*
X40177312Y-55490186D01*
X40087452Y-55557455D01*
X40001206Y-55672664D01*
X40001202Y-55672671D01*
X39950908Y-55807517D01*
X39944501Y-55867116D01*
X39944500Y-55867135D01*
X39944500Y-57162870D01*
X39944501Y-57162876D01*
X39950908Y-57222483D01*
X40001202Y-57357328D01*
X40001206Y-57357335D01*
X40058471Y-57433830D01*
X40087454Y-57472546D01*
X40177312Y-57539814D01*
X40219182Y-57595746D01*
X40225292Y-57629614D01*
X40226403Y-57629505D01*
X40227000Y-57635570D01*
X40258433Y-57793594D01*
X40258435Y-57793602D01*
X40286304Y-57860883D01*
X40286304Y-57860884D01*
X40320097Y-57942468D01*
X40320098Y-57942471D01*
X40409617Y-58076444D01*
X40409620Y-58076448D01*
X41630992Y-59297819D01*
X41664477Y-59359142D01*
X41659493Y-59428834D01*
X41617621Y-59484767D01*
X41552157Y-59509184D01*
X41543311Y-59509500D01*
X38571929Y-59509500D01*
X38413905Y-59540933D01*
X38413898Y-59540935D01*
X38374451Y-59557274D01*
X38304981Y-59564741D01*
X38242503Y-59533466D01*
X38206851Y-59473376D01*
X38203000Y-59442712D01*
X38203000Y-56989433D01*
X38202999Y-56989429D01*
X38185702Y-56902469D01*
X38171565Y-56831398D01*
X38144175Y-56765273D01*
X38139341Y-56753603D01*
X38109905Y-56682536D01*
X38109903Y-56682532D01*
X38056238Y-56602219D01*
X38024600Y-56554868D01*
X38020385Y-56548559D01*
X38020384Y-56548558D01*
X38020382Y-56548555D01*
X37906445Y-56434618D01*
X37906444Y-56434617D01*
X37902114Y-56430287D01*
X37902103Y-56430277D01*
X33719395Y-52247568D01*
X33685910Y-52186245D01*
X33683548Y-52149084D01*
X33690468Y-52070000D01*
X33688914Y-52052242D01*
X33670635Y-51843313D01*
X33670635Y-51843308D01*
X33611739Y-51623504D01*
X33515568Y-51417266D01*
X33407891Y-51263486D01*
X33385045Y-51230858D01*
X33224141Y-51069954D01*
X33037734Y-50939432D01*
X33037732Y-50939431D01*
X32831497Y-50843261D01*
X32831488Y-50843258D01*
X32611697Y-50784366D01*
X32611693Y-50784365D01*
X32611692Y-50784365D01*
X32611691Y-50784364D01*
X32611686Y-50784364D01*
X32385002Y-50764532D01*
X32384998Y-50764532D01*
X32158313Y-50784364D01*
X32158302Y-50784366D01*
X31938511Y-50843258D01*
X31938502Y-50843261D01*
X31732267Y-50939431D01*
X31732265Y-50939432D01*
X31545858Y-51069954D01*
X31384954Y-51230858D01*
X31254432Y-51417265D01*
X31254431Y-51417267D01*
X31158261Y-51623502D01*
X31158258Y-51623511D01*
X31099366Y-51843302D01*
X31099364Y-51843313D01*
X31079532Y-52069998D01*
X31079532Y-52070001D01*
X31099364Y-52296686D01*
X31099366Y-52296697D01*
X31158258Y-52516488D01*
X31158261Y-52516497D01*
X31254431Y-52722732D01*
X31254432Y-52722734D01*
X31384954Y-52909141D01*
X31545858Y-53070045D01*
X31545861Y-53070047D01*
X31732266Y-53200568D01*
X31938504Y-53296739D01*
X31938509Y-53296740D01*
X31938511Y-53296741D01*
X31940116Y-53297171D01*
X32158308Y-53355635D01*
X32320230Y-53369801D01*
X32384998Y-53375468D01*
X32384999Y-53375468D01*
X32384999Y-53375467D01*
X32385000Y-53375468D01*
X32464080Y-53368548D01*
X32532578Y-53382314D01*
X32562568Y-53404395D01*
X36530681Y-57372507D01*
X36564166Y-57433830D01*
X36567000Y-57460188D01*
X36567000Y-60522451D01*
X36547315Y-60589490D01*
X36530681Y-60610132D01*
X36384954Y-60755858D01*
X36254432Y-60942265D01*
X36254431Y-60942267D01*
X36158261Y-61148502D01*
X36158258Y-61148511D01*
X36099366Y-61368302D01*
X36099364Y-61368313D01*
X36079532Y-61594998D01*
X36079532Y-61595000D01*
X36099364Y-61821686D01*
X36099366Y-61821697D01*
X36158258Y-62041488D01*
X36158261Y-62041497D01*
X36254431Y-62247732D01*
X36254432Y-62247734D01*
X36384954Y-62434141D01*
X36545858Y-62595045D01*
X36545861Y-62595047D01*
X36732266Y-62725568D01*
X36938504Y-62821739D01*
X36938509Y-62821740D01*
X36938511Y-62821741D01*
X36991415Y-62835916D01*
X37158308Y-62880635D01*
X37320230Y-62894801D01*
X37384998Y-62900468D01*
X37385000Y-62900468D01*
X37385002Y-62900468D01*
X37447614Y-62894990D01*
X37611692Y-62880635D01*
X37831496Y-62821739D01*
X38037734Y-62725568D01*
X38224139Y-62595047D01*
X38385047Y-62434139D01*
X38515568Y-62247734D01*
X38611739Y-62041496D01*
X38670635Y-61821692D01*
X38690468Y-61595000D01*
X38683548Y-61515915D01*
X38697314Y-61447419D01*
X38719389Y-61417436D01*
X38955008Y-61181816D01*
X39016330Y-61148334D01*
X39042688Y-61145500D01*
X39491000Y-61145500D01*
X39558039Y-61165185D01*
X39603794Y-61217989D01*
X39615000Y-61269500D01*
X39615000Y-61345000D01*
X40359670Y-61345000D01*
X40339925Y-61364745D01*
X40290556Y-61450255D01*
X40265000Y-61545630D01*
X40265000Y-61644370D01*
X40290556Y-61739745D01*
X40339925Y-61825255D01*
X40359670Y-61845000D01*
X39615000Y-61845000D01*
X39615000Y-62392844D01*
X39621401Y-62452372D01*
X39621403Y-62452379D01*
X39671645Y-62587086D01*
X39671649Y-62587093D01*
X39757809Y-62702187D01*
X39757812Y-62702190D01*
X39872906Y-62788350D01*
X39872913Y-62788354D01*
X40007620Y-62838596D01*
X40007627Y-62838598D01*
X40067155Y-62844999D01*
X40067172Y-62845000D01*
X40390000Y-62845000D01*
X40390000Y-61875330D01*
X40409745Y-61895075D01*
X40495255Y-61944444D01*
X40590630Y-61970000D01*
X40689370Y-61970000D01*
X40784745Y-61944444D01*
X40870255Y-61895075D01*
X40884500Y-61880830D01*
X40884500Y-61921002D01*
X40887617Y-61936671D01*
X40890000Y-61960865D01*
X40890000Y-62845000D01*
X40968000Y-62845000D01*
X41035039Y-62864685D01*
X41080794Y-62917489D01*
X41092000Y-62969000D01*
X41092000Y-64850570D01*
X41123433Y-65008595D01*
X41123436Y-65008605D01*
X41136234Y-65039500D01*
X41136235Y-65039503D01*
X41185093Y-65157460D01*
X41185100Y-65157473D01*
X41228151Y-65221903D01*
X41249029Y-65288581D01*
X41248577Y-65301600D01*
X41239532Y-65404997D01*
X41239532Y-65405001D01*
X41259364Y-65631686D01*
X41259366Y-65631697D01*
X41318258Y-65851488D01*
X41318261Y-65851497D01*
X41414431Y-66057732D01*
X41414432Y-66057734D01*
X41544954Y-66244141D01*
X41705858Y-66405045D01*
X41705861Y-66405047D01*
X41892266Y-66535568D01*
X42098504Y-66631739D01*
X42318308Y-66690635D01*
X42480230Y-66704801D01*
X42544998Y-66710468D01*
X42545000Y-66710468D01*
X42545002Y-66710468D01*
X42601673Y-66705509D01*
X42771692Y-66690635D01*
X42991496Y-66631739D01*
X43197734Y-66535568D01*
X43384139Y-66405047D01*
X43545047Y-66244139D01*
X43675568Y-66057734D01*
X43771739Y-65851496D01*
X43830635Y-65631692D01*
X43850468Y-65405000D01*
X43830635Y-65178308D01*
X43771739Y-64958504D01*
X43675568Y-64752266D01*
X43545047Y-64565861D01*
X43545045Y-64565858D01*
X43384141Y-64404954D01*
X43197734Y-64274432D01*
X43197732Y-64274431D01*
X42991497Y-64178261D01*
X42991488Y-64178258D01*
X42819907Y-64132284D01*
X42760246Y-64095919D01*
X42729717Y-64033072D01*
X42728000Y-64012509D01*
X42728000Y-62926777D01*
X42747685Y-62859738D01*
X42800489Y-62813983D01*
X42869647Y-62804039D01*
X42876191Y-62805160D01*
X43078992Y-62845499D01*
X43078996Y-62845500D01*
X43078997Y-62845500D01*
X43281004Y-62845500D01*
X43281005Y-62845499D01*
X43479127Y-62806091D01*
X43665756Y-62728786D01*
X43833718Y-62616558D01*
X43976558Y-62473718D01*
X44088786Y-62305756D01*
X44166091Y-62119127D01*
X44205500Y-61921003D01*
X44205500Y-61268997D01*
X44166091Y-61070873D01*
X44088786Y-60884244D01*
X44021322Y-60783276D01*
X44018897Y-60779646D01*
X43998020Y-60712968D01*
X43998000Y-60710756D01*
X43998000Y-59609433D01*
X43997999Y-59609429D01*
X43978059Y-59509184D01*
X43966565Y-59451398D01*
X43951977Y-59416182D01*
X43944508Y-59346714D01*
X43975782Y-59284234D01*
X44035870Y-59248580D01*
X44105695Y-59251073D01*
X44154219Y-59281047D01*
X47627642Y-62754469D01*
X47661127Y-62815792D01*
X47656143Y-62885484D01*
X47614271Y-62941417D01*
X47548807Y-62965834D01*
X47507868Y-62961925D01*
X47440249Y-62943807D01*
X47357655Y-62921676D01*
X47357649Y-62921675D01*
X47357644Y-62921674D01*
X47113263Y-62889501D01*
X47113260Y-62889500D01*
X47113254Y-62889500D01*
X46866746Y-62889500D01*
X46866740Y-62889500D01*
X46866736Y-62889501D01*
X46622355Y-62921674D01*
X46622348Y-62921675D01*
X46622345Y-62921676D01*
X46575636Y-62934191D01*
X46384233Y-62985477D01*
X46156497Y-63079809D01*
X46156488Y-63079813D01*
X45943002Y-63203069D01*
X45747439Y-63353132D01*
X45573132Y-63527439D01*
X45423069Y-63723002D01*
X45299813Y-63936488D01*
X45299809Y-63936497D01*
X45205477Y-64164233D01*
X45141677Y-64402342D01*
X45141674Y-64402355D01*
X45109501Y-64646736D01*
X45109500Y-64646752D01*
X45109500Y-64893247D01*
X45109501Y-64893263D01*
X45141674Y-65137644D01*
X45141675Y-65137649D01*
X45141676Y-65137655D01*
X45152591Y-65178389D01*
X45205477Y-65375766D01*
X45281539Y-65559394D01*
X45299812Y-65603509D01*
X45416142Y-65805000D01*
X45423069Y-65816997D01*
X45573132Y-66012560D01*
X45573140Y-66012569D01*
X45747431Y-66186860D01*
X45747439Y-66186867D01*
X45943002Y-66336930D01*
X45943005Y-66336931D01*
X45943008Y-66336934D01*
X46156491Y-66460188D01*
X46303645Y-66521141D01*
X46384233Y-66554522D01*
X46384234Y-66554522D01*
X46384236Y-66554523D01*
X46622345Y-66618324D01*
X46866746Y-66650500D01*
X46866753Y-66650500D01*
X47113247Y-66650500D01*
X47113254Y-66650500D01*
X47357655Y-66618324D01*
X47595764Y-66554523D01*
X47823509Y-66460188D01*
X48036992Y-66336934D01*
X48232560Y-66186868D01*
X48232564Y-66186863D01*
X48232569Y-66186860D01*
X48406860Y-66012569D01*
X48406863Y-66012564D01*
X48406868Y-66012560D01*
X48556934Y-65816992D01*
X48680188Y-65603509D01*
X48774523Y-65375764D01*
X48838324Y-65137655D01*
X48870500Y-64893254D01*
X48870500Y-64646746D01*
X48838324Y-64402345D01*
X48798074Y-64252129D01*
X48799737Y-64182281D01*
X48838900Y-64124419D01*
X48903128Y-64096915D01*
X48972030Y-64108502D01*
X49005530Y-64132357D01*
X51548551Y-66675379D01*
X51548554Y-66675382D01*
X51682525Y-66764898D01*
X51682531Y-66764902D01*
X51703211Y-66773468D01*
X51726124Y-66782959D01*
X51726129Y-66782960D01*
X51726133Y-66782962D01*
X51831398Y-66826565D01*
X51989429Y-66857999D01*
X51989433Y-66858000D01*
X51989434Y-66858000D01*
X52150565Y-66858000D01*
X57279563Y-66858000D01*
X57346602Y-66877685D01*
X57381134Y-66910871D01*
X57383585Y-66914371D01*
X57405916Y-66980576D01*
X57388909Y-67048344D01*
X57337964Y-67096160D01*
X57282014Y-67109500D01*
X30374802Y-67109500D01*
X30367315Y-67109274D01*
X30096541Y-67092895D01*
X30081676Y-67091090D01*
X29818543Y-67042869D01*
X29804005Y-67039285D01*
X29548620Y-66959704D01*
X29534619Y-66954394D01*
X29290670Y-66844601D01*
X29277411Y-66837643D01*
X29066206Y-66709966D01*
X29048478Y-66699249D01*
X29036158Y-66690745D01*
X29016090Y-66675023D01*
X28838090Y-66535568D01*
X28825576Y-66525764D01*
X28814368Y-66515834D01*
X28625215Y-66326682D01*
X28615285Y-66315474D01*
X28559399Y-66244141D01*
X28450300Y-66104886D01*
X28441798Y-66092568D01*
X28303407Y-65863639D01*
X28296448Y-65850381D01*
X28186653Y-65606427D01*
X28181346Y-65592430D01*
X28176333Y-65576344D01*
X28122939Y-65404997D01*
X31080034Y-65404997D01*
X31080034Y-65405002D01*
X31099858Y-65631599D01*
X31099860Y-65631610D01*
X31158730Y-65851317D01*
X31158735Y-65851331D01*
X31254863Y-66057478D01*
X31305974Y-66130472D01*
X31985000Y-65451446D01*
X31985000Y-65457661D01*
X32012259Y-65559394D01*
X32064920Y-65650606D01*
X32139394Y-65725080D01*
X32230606Y-65777741D01*
X32332339Y-65805000D01*
X32338553Y-65805000D01*
X31659526Y-66484025D01*
X31732513Y-66535132D01*
X31732521Y-66535136D01*
X31938668Y-66631264D01*
X31938682Y-66631269D01*
X32158389Y-66690139D01*
X32158400Y-66690141D01*
X32384998Y-66709966D01*
X32385002Y-66709966D01*
X32611599Y-66690141D01*
X32611610Y-66690139D01*
X32831317Y-66631269D01*
X32831331Y-66631264D01*
X33037478Y-66535136D01*
X33110471Y-66484024D01*
X32431447Y-65805000D01*
X32437661Y-65805000D01*
X32539394Y-65777741D01*
X32630606Y-65725080D01*
X32705080Y-65650606D01*
X32757741Y-65559394D01*
X32785000Y-65457661D01*
X32785000Y-65451447D01*
X33464024Y-66130471D01*
X33515136Y-66057478D01*
X33611264Y-65851331D01*
X33611269Y-65851317D01*
X33670139Y-65631610D01*
X33670141Y-65631599D01*
X33689966Y-65405002D01*
X33689966Y-65404997D01*
X33670141Y-65178400D01*
X33670139Y-65178389D01*
X33611269Y-64958682D01*
X33611264Y-64958668D01*
X33515136Y-64752521D01*
X33515132Y-64752513D01*
X33464025Y-64679526D01*
X32785000Y-65358551D01*
X32785000Y-65352339D01*
X32757741Y-65250606D01*
X32705080Y-65159394D01*
X32630606Y-65084920D01*
X32539394Y-65032259D01*
X32437661Y-65005000D01*
X32431445Y-65005000D01*
X33110472Y-64325974D01*
X33037478Y-64274863D01*
X32831331Y-64178735D01*
X32831317Y-64178730D01*
X32611610Y-64119860D01*
X32611599Y-64119858D01*
X32385002Y-64100034D01*
X32384998Y-64100034D01*
X32158400Y-64119858D01*
X32158389Y-64119860D01*
X31938682Y-64178730D01*
X31938673Y-64178734D01*
X31732516Y-64274866D01*
X31732512Y-64274868D01*
X31659526Y-64325973D01*
X31659526Y-64325974D01*
X32338553Y-65005000D01*
X32332339Y-65005000D01*
X32230606Y-65032259D01*
X32139394Y-65084920D01*
X32064920Y-65159394D01*
X32012259Y-65250606D01*
X31985000Y-65352339D01*
X31985000Y-65358552D01*
X31305974Y-64679526D01*
X31305973Y-64679526D01*
X31254868Y-64752512D01*
X31254866Y-64752516D01*
X31158734Y-64958673D01*
X31158730Y-64958682D01*
X31099860Y-65178389D01*
X31099858Y-65178400D01*
X31080034Y-65404997D01*
X28122939Y-65404997D01*
X28101764Y-65337044D01*
X28098181Y-65322507D01*
X28073405Y-65187309D01*
X28049959Y-65059372D01*
X28048155Y-65044509D01*
X28047004Y-65025489D01*
X28044187Y-64978913D01*
X28059788Y-64910809D01*
X28109733Y-64861949D01*
X28178165Y-64847848D01*
X28181119Y-64848128D01*
X28203178Y-64850500D01*
X29998923Y-64850499D01*
X30058534Y-64844091D01*
X30193382Y-64793796D01*
X30308597Y-64707546D01*
X30394847Y-64592331D01*
X30445142Y-64457483D01*
X30448284Y-64428257D01*
X30475018Y-64363712D01*
X30532410Y-64323862D01*
X30559437Y-64318110D01*
X30560551Y-64318000D01*
X30560566Y-64318000D01*
X30718602Y-64286565D01*
X30793035Y-64255733D01*
X30867468Y-64224903D01*
X31001445Y-64135382D01*
X32207431Y-62929393D01*
X32268752Y-62895910D01*
X32305913Y-62893548D01*
X32385000Y-62900468D01*
X32385000Y-62900467D01*
X32385001Y-62900468D01*
X32385002Y-62900468D01*
X32447614Y-62894990D01*
X32611692Y-62880635D01*
X32831496Y-62821739D01*
X33037734Y-62725568D01*
X33224139Y-62595047D01*
X33385047Y-62434139D01*
X33515568Y-62247734D01*
X33611739Y-62041496D01*
X33670635Y-61821692D01*
X33690468Y-61595000D01*
X33670635Y-61368308D01*
X33624305Y-61195403D01*
X33611741Y-61148511D01*
X33611738Y-61148502D01*
X33599502Y-61122262D01*
X33515568Y-60942266D01*
X33385047Y-60755861D01*
X33385045Y-60755858D01*
X33224141Y-60594954D01*
X33037734Y-60464432D01*
X33037732Y-60464431D01*
X32831497Y-60368261D01*
X32831488Y-60368258D01*
X32611697Y-60309366D01*
X32611693Y-60309365D01*
X32611692Y-60309365D01*
X32611691Y-60309364D01*
X32611686Y-60309364D01*
X32385002Y-60289532D01*
X32384998Y-60289532D01*
X32158313Y-60309364D01*
X32158302Y-60309366D01*
X31938511Y-60368258D01*
X31938502Y-60368261D01*
X31732267Y-60464431D01*
X31732265Y-60464432D01*
X31545858Y-60594954D01*
X31384954Y-60755858D01*
X31254432Y-60942265D01*
X31254431Y-60942267D01*
X31158261Y-61148502D01*
X31158258Y-61148511D01*
X31099366Y-61368302D01*
X31099364Y-61368313D01*
X31079532Y-61594998D01*
X31079532Y-61595000D01*
X31086450Y-61674081D01*
X31072683Y-61742581D01*
X31050603Y-61772569D01*
X30504878Y-62318293D01*
X30443555Y-62351778D01*
X30373863Y-62346794D01*
X30317931Y-62304922D01*
X30308597Y-62292454D01*
X30308595Y-62292453D01*
X30308595Y-62292452D01*
X30193386Y-62206206D01*
X30193379Y-62206202D01*
X30061968Y-62157189D01*
X30006034Y-62115318D01*
X29981617Y-62049853D01*
X29996469Y-61981580D01*
X30017614Y-61953332D01*
X30139546Y-61831401D01*
X30275086Y-61637830D01*
X30374954Y-61423663D01*
X30436114Y-61195408D01*
X30456710Y-60960000D01*
X30436114Y-60724592D01*
X30374954Y-60496337D01*
X30275086Y-60282171D01*
X30170551Y-60132878D01*
X30139545Y-60088597D01*
X29972453Y-59921506D01*
X29972447Y-59921501D01*
X29786893Y-59791575D01*
X29743268Y-59736998D01*
X29736074Y-59667500D01*
X29767597Y-59605145D01*
X29786893Y-59588425D01*
X29831381Y-59557274D01*
X29972452Y-59458495D01*
X30139546Y-59291401D01*
X30139913Y-59290877D01*
X30140132Y-59290701D01*
X30143028Y-59287251D01*
X30143721Y-59287832D01*
X30194490Y-59247252D01*
X30241488Y-59238000D01*
X30560567Y-59238000D01*
X30560568Y-59237999D01*
X30718602Y-59206565D01*
X30793035Y-59175733D01*
X30867468Y-59144903D01*
X31001445Y-59055382D01*
X33020382Y-57036444D01*
X33109903Y-56902468D01*
X33171564Y-56753602D01*
X33187174Y-56675123D01*
X33203000Y-56595568D01*
X33203000Y-56434431D01*
X33171565Y-56276404D01*
X33171564Y-56276398D01*
X33109903Y-56127532D01*
X33109901Y-56127530D01*
X33109901Y-56127528D01*
X33020382Y-55993555D01*
X33020379Y-55993551D01*
X32906448Y-55879620D01*
X32906444Y-55879617D01*
X32772471Y-55790098D01*
X32772468Y-55790097D01*
X32623603Y-55728436D01*
X32623595Y-55728434D01*
X32465568Y-55697000D01*
X32465566Y-55697000D01*
X32304434Y-55697000D01*
X32304432Y-55697000D01*
X32146404Y-55728434D01*
X32146396Y-55728436D01*
X31997537Y-55790094D01*
X31997530Y-55790098D01*
X31863556Y-55879617D01*
X31863552Y-55879620D01*
X30254740Y-57488431D01*
X30193417Y-57521916D01*
X30123725Y-57516932D01*
X30079378Y-57488431D01*
X29972453Y-57381506D01*
X29972446Y-57381501D01*
X29959601Y-57372507D01*
X29910259Y-57337957D01*
X29778885Y-57245967D01*
X29778881Y-57245965D01*
X29728524Y-57222483D01*
X29564714Y-57146097D01*
X29564710Y-57146096D01*
X29564706Y-57146094D01*
X29336464Y-57084938D01*
X29336454Y-57084936D01*
X29101052Y-57064341D01*
X29101050Y-57064341D01*
X28865647Y-57084936D01*
X28865637Y-57084938D01*
X28637395Y-57146094D01*
X28637386Y-57146098D01*
X28423222Y-57245964D01*
X28423220Y-57245965D01*
X28226674Y-57383588D01*
X28160468Y-57405915D01*
X28092701Y-57388905D01*
X28044888Y-57337957D01*
X28031551Y-57282013D01*
X28031551Y-54810093D01*
X28051236Y-54743054D01*
X28104040Y-54697299D01*
X28168805Y-54686804D01*
X28203178Y-54690500D01*
X29998923Y-54690499D01*
X30058534Y-54684091D01*
X30193382Y-54633796D01*
X30308597Y-54547546D01*
X30394847Y-54432331D01*
X30445142Y-54297483D01*
X30451551Y-54237873D01*
X30451550Y-52442128D01*
X30445142Y-52382517D01*
X30426615Y-52332844D01*
X30394848Y-52247671D01*
X30394844Y-52247664D01*
X30308598Y-52132455D01*
X30308595Y-52132452D01*
X30193386Y-52046206D01*
X30193379Y-52046202D01*
X30061452Y-51996997D01*
X30005518Y-51955126D01*
X29981101Y-51889662D01*
X29995953Y-51821389D01*
X30017104Y-51793133D01*
X30139159Y-51671078D01*
X30274651Y-51477578D01*
X30374480Y-51263492D01*
X30374483Y-51263486D01*
X30431687Y-51050000D01*
X29534063Y-51050000D01*
X29566976Y-50992993D01*
X29601051Y-50865826D01*
X29601051Y-50734174D01*
X29566976Y-50607007D01*
X29534063Y-50550000D01*
X30431687Y-50550000D01*
X30431686Y-50549999D01*
X30374483Y-50336513D01*
X30374480Y-50336507D01*
X30274651Y-50122422D01*
X30274650Y-50122420D01*
X30139164Y-49928926D01*
X30139159Y-49928920D01*
X29972133Y-49761894D01*
X29778629Y-49626399D01*
X29564543Y-49526570D01*
X29564537Y-49526567D01*
X29351051Y-49469364D01*
X29351051Y-50366988D01*
X29294044Y-50334075D01*
X29166877Y-50300000D01*
X29035225Y-50300000D01*
X28908058Y-50334075D01*
X28851051Y-50366988D01*
X28851051Y-49469364D01*
X28851050Y-49469364D01*
X28637564Y-49526567D01*
X28637558Y-49526570D01*
X28423473Y-49626399D01*
X28423471Y-49626400D01*
X28226674Y-49764199D01*
X28160468Y-49786526D01*
X28092701Y-49769516D01*
X28044888Y-49718568D01*
X28031551Y-49662624D01*
X28031551Y-48894998D01*
X31079532Y-48894998D01*
X31079532Y-48895001D01*
X31099364Y-49121686D01*
X31099366Y-49121697D01*
X31158258Y-49341488D01*
X31158261Y-49341497D01*
X31254431Y-49547732D01*
X31254432Y-49547734D01*
X31384954Y-49734141D01*
X31545858Y-49895045D01*
X31551656Y-49899105D01*
X31732266Y-50025568D01*
X31938504Y-50121739D01*
X31938509Y-50121740D01*
X31938511Y-50121741D01*
X31941053Y-50122422D01*
X32158308Y-50180635D01*
X32320230Y-50194801D01*
X32384998Y-50200468D01*
X32385000Y-50200468D01*
X32385002Y-50200468D01*
X32441673Y-50195509D01*
X32611692Y-50180635D01*
X32831496Y-50121739D01*
X33037734Y-50025568D01*
X33224139Y-49895047D01*
X33385047Y-49734139D01*
X33515568Y-49547734D01*
X33611739Y-49341496D01*
X33670635Y-49121692D01*
X33690468Y-48895000D01*
X33670635Y-48668308D01*
X33611739Y-48448504D01*
X33515568Y-48242266D01*
X33385047Y-48055861D01*
X33385045Y-48055858D01*
X33224141Y-47894954D01*
X33037734Y-47764432D01*
X33037732Y-47764431D01*
X32831497Y-47668261D01*
X32831488Y-47668258D01*
X32611697Y-47609366D01*
X32611693Y-47609365D01*
X32611692Y-47609365D01*
X32611691Y-47609364D01*
X32611686Y-47609364D01*
X32385002Y-47589532D01*
X32384998Y-47589532D01*
X32158313Y-47609364D01*
X32158302Y-47609366D01*
X31938511Y-47668258D01*
X31938502Y-47668261D01*
X31732267Y-47764431D01*
X31732265Y-47764432D01*
X31545858Y-47894954D01*
X31384954Y-48055858D01*
X31254432Y-48242265D01*
X31254431Y-48242267D01*
X31158261Y-48448502D01*
X31158258Y-48448511D01*
X31099366Y-48668302D01*
X31099364Y-48668313D01*
X31079532Y-48894998D01*
X28031551Y-48894998D01*
X28031551Y-45084998D01*
X31079532Y-45084998D01*
X31079532Y-45085001D01*
X31099364Y-45311686D01*
X31099366Y-45311697D01*
X31158258Y-45531488D01*
X31158261Y-45531497D01*
X31254431Y-45737732D01*
X31254432Y-45737734D01*
X31384954Y-45924141D01*
X31545858Y-46085045D01*
X31545861Y-46085047D01*
X31732266Y-46215568D01*
X31938504Y-46311739D01*
X32158308Y-46370635D01*
X32320230Y-46384801D01*
X32384998Y-46390468D01*
X32385000Y-46390468D01*
X32385002Y-46390468D01*
X32441673Y-46385509D01*
X32611692Y-46370635D01*
X32831496Y-46311739D01*
X33037734Y-46215568D01*
X33224139Y-46085047D01*
X33369868Y-45939317D01*
X33431189Y-45905834D01*
X33457548Y-45903000D01*
X33695567Y-45903000D01*
X33695568Y-45902999D01*
X33853602Y-45871565D01*
X33928035Y-45840733D01*
X34002468Y-45809903D01*
X34136445Y-45720382D01*
X34771829Y-45084997D01*
X41240034Y-45084997D01*
X41240034Y-45085002D01*
X41259858Y-45311599D01*
X41259860Y-45311610D01*
X41318730Y-45531317D01*
X41318735Y-45531331D01*
X41414863Y-45737478D01*
X41465974Y-45810472D01*
X42145000Y-45131446D01*
X42145000Y-45137661D01*
X42172259Y-45239394D01*
X42224920Y-45330606D01*
X42299394Y-45405080D01*
X42390606Y-45457741D01*
X42492339Y-45485000D01*
X42498553Y-45485000D01*
X41819526Y-46164025D01*
X41892513Y-46215132D01*
X41892521Y-46215136D01*
X42098668Y-46311264D01*
X42098682Y-46311269D01*
X42318389Y-46370139D01*
X42318400Y-46370141D01*
X42544998Y-46389966D01*
X42545002Y-46389966D01*
X42771599Y-46370141D01*
X42771610Y-46370139D01*
X42991317Y-46311269D01*
X42991331Y-46311264D01*
X43197478Y-46215136D01*
X43270471Y-46164024D01*
X42591447Y-45485000D01*
X42597661Y-45485000D01*
X42699394Y-45457741D01*
X42790606Y-45405080D01*
X42865080Y-45330606D01*
X42917741Y-45239394D01*
X42945000Y-45137661D01*
X42945000Y-45131447D01*
X43624024Y-45810471D01*
X43675136Y-45737478D01*
X43771264Y-45531331D01*
X43771269Y-45531317D01*
X43830139Y-45311610D01*
X43830141Y-45311599D01*
X43849966Y-45085002D01*
X43849966Y-45084997D01*
X43830141Y-44858400D01*
X43830139Y-44858389D01*
X43771269Y-44638682D01*
X43771264Y-44638668D01*
X43675136Y-44432521D01*
X43675132Y-44432513D01*
X43624025Y-44359526D01*
X42945000Y-45038551D01*
X42945000Y-45032339D01*
X42917741Y-44930606D01*
X42865080Y-44839394D01*
X42790606Y-44764920D01*
X42699394Y-44712259D01*
X42597661Y-44685000D01*
X42591445Y-44685000D01*
X43270472Y-44005974D01*
X43197478Y-43954863D01*
X42991331Y-43858735D01*
X42991317Y-43858730D01*
X42771610Y-43799860D01*
X42771599Y-43799858D01*
X42545002Y-43780034D01*
X42544998Y-43780034D01*
X42318400Y-43799858D01*
X42318389Y-43799860D01*
X42098682Y-43858730D01*
X42098673Y-43858734D01*
X41892516Y-43954866D01*
X41892512Y-43954868D01*
X41819526Y-44005973D01*
X41819526Y-44005974D01*
X42498553Y-44685000D01*
X42492339Y-44685000D01*
X42390606Y-44712259D01*
X42299394Y-44764920D01*
X42224920Y-44839394D01*
X42172259Y-44930606D01*
X42145000Y-45032339D01*
X42145000Y-45038552D01*
X41465974Y-44359526D01*
X41465973Y-44359526D01*
X41414868Y-44432512D01*
X41414866Y-44432516D01*
X41318734Y-44638673D01*
X41318730Y-44638682D01*
X41259860Y-44858389D01*
X41259858Y-44858400D01*
X41240034Y-45084997D01*
X34771829Y-45084997D01*
X37247431Y-42609393D01*
X37308752Y-42575910D01*
X37345913Y-42573548D01*
X37425000Y-42580468D01*
X37425000Y-42580467D01*
X37425001Y-42580468D01*
X37425002Y-42580468D01*
X37481673Y-42575509D01*
X37651692Y-42560635D01*
X37871496Y-42501739D01*
X38077734Y-42405568D01*
X38264139Y-42275047D01*
X38425047Y-42114139D01*
X38555568Y-41927734D01*
X38651739Y-41721496D01*
X38710635Y-41501692D01*
X38730468Y-41275000D01*
X38723548Y-41195915D01*
X38737314Y-41127419D01*
X38759389Y-41097436D01*
X38995008Y-40861816D01*
X39056330Y-40828334D01*
X39082688Y-40825500D01*
X39491000Y-40825500D01*
X39558039Y-40845185D01*
X39603794Y-40897989D01*
X39615000Y-40949500D01*
X39615000Y-41025000D01*
X40359670Y-41025000D01*
X40339925Y-41044745D01*
X40290556Y-41130255D01*
X40265000Y-41225630D01*
X40265000Y-41324370D01*
X40290556Y-41419745D01*
X40339925Y-41505255D01*
X40359670Y-41525000D01*
X39615000Y-41525000D01*
X39615000Y-42072844D01*
X39621401Y-42132372D01*
X39621403Y-42132379D01*
X39671645Y-42267086D01*
X39671649Y-42267093D01*
X39757809Y-42382187D01*
X39757812Y-42382190D01*
X39872906Y-42468350D01*
X39872913Y-42468354D01*
X40007620Y-42518596D01*
X40007627Y-42518598D01*
X40067155Y-42524999D01*
X40067172Y-42525000D01*
X40390000Y-42525000D01*
X40390000Y-41555330D01*
X40409745Y-41575075D01*
X40495255Y-41624444D01*
X40590630Y-41650000D01*
X40689370Y-41650000D01*
X40784745Y-41624444D01*
X40870255Y-41575075D01*
X40884500Y-41560830D01*
X40884500Y-41601002D01*
X40887617Y-41616671D01*
X40890000Y-41640865D01*
X40890000Y-42525000D01*
X41212828Y-42525000D01*
X41212844Y-42524999D01*
X41272372Y-42518598D01*
X41272376Y-42518597D01*
X41407089Y-42468352D01*
X41407896Y-42467748D01*
X41408845Y-42467393D01*
X41414876Y-42464101D01*
X41415349Y-42464967D01*
X41473360Y-42443329D01*
X41529661Y-42452451D01*
X41610873Y-42486091D01*
X41774288Y-42518596D01*
X41808992Y-42525499D01*
X41808996Y-42525500D01*
X41808997Y-42525500D01*
X42011004Y-42525500D01*
X42011005Y-42525499D01*
X42209127Y-42486091D01*
X42395756Y-42408786D01*
X42476110Y-42355094D01*
X42542786Y-42334217D01*
X42610166Y-42352701D01*
X42613865Y-42355078D01*
X42694244Y-42408786D01*
X42880873Y-42486091D01*
X43044288Y-42518596D01*
X43078992Y-42525499D01*
X43078996Y-42525500D01*
X43078997Y-42525500D01*
X43281004Y-42525500D01*
X43281005Y-42525499D01*
X43479127Y-42486091D01*
X43665756Y-42408786D01*
X43833718Y-42296558D01*
X43976558Y-42153718D01*
X44088786Y-41985756D01*
X44166091Y-41799127D01*
X44205500Y-41601003D01*
X44205500Y-40948997D01*
X44205500Y-40942905D01*
X44207991Y-40942905D01*
X44218958Y-40884994D01*
X44267010Y-40834271D01*
X44334856Y-40817579D01*
X44353541Y-40819838D01*
X44369434Y-40823000D01*
X44369435Y-40823000D01*
X44530567Y-40823000D01*
X44530568Y-40822999D01*
X44688602Y-40791565D01*
X44837468Y-40729902D01*
X44971445Y-40640382D01*
X45056756Y-40555070D01*
X45118077Y-40521587D01*
X45187769Y-40526571D01*
X45218747Y-40543486D01*
X45312669Y-40613796D01*
X45312670Y-40613796D01*
X45312671Y-40613797D01*
X45335378Y-40622266D01*
X45447517Y-40664091D01*
X45482596Y-40667862D01*
X45547144Y-40694599D01*
X45586993Y-40751991D01*
X45589488Y-40821816D01*
X45553836Y-40881905D01*
X45540464Y-40892725D01*
X45515858Y-40909954D01*
X45354954Y-41070858D01*
X45224432Y-41257265D01*
X45224431Y-41257267D01*
X45128261Y-41463502D01*
X45128258Y-41463511D01*
X45069366Y-41683302D01*
X45069364Y-41683313D01*
X45049532Y-41909998D01*
X45049532Y-41910001D01*
X45069364Y-42136686D01*
X45069366Y-42136697D01*
X45128258Y-42356488D01*
X45128261Y-42356497D01*
X45224431Y-42562732D01*
X45224432Y-42562734D01*
X45354954Y-42749141D01*
X45515858Y-42910045D01*
X45515861Y-42910047D01*
X45702266Y-43040568D01*
X45760275Y-43067618D01*
X45812714Y-43113791D01*
X45831866Y-43180984D01*
X45811650Y-43247865D01*
X45760275Y-43292382D01*
X45702267Y-43319431D01*
X45702265Y-43319432D01*
X45515858Y-43449954D01*
X45354954Y-43610858D01*
X45224432Y-43797265D01*
X45224431Y-43797267D01*
X45128261Y-44003502D01*
X45128258Y-44003511D01*
X45069366Y-44223302D01*
X45069364Y-44223313D01*
X45049532Y-44449998D01*
X45049532Y-44450001D01*
X45069364Y-44676686D01*
X45069366Y-44676697D01*
X45128258Y-44896488D01*
X45128261Y-44896497D01*
X45224431Y-45102732D01*
X45224432Y-45102734D01*
X45354954Y-45289141D01*
X45515858Y-45450045D01*
X45515861Y-45450047D01*
X45702266Y-45580568D01*
X45759681Y-45607341D01*
X45760275Y-45607618D01*
X45812714Y-45653791D01*
X45831866Y-45720984D01*
X45811650Y-45787865D01*
X45760275Y-45832382D01*
X45702267Y-45859431D01*
X45702265Y-45859432D01*
X45515858Y-45989954D01*
X45354954Y-46150858D01*
X45224432Y-46337265D01*
X45224431Y-46337267D01*
X45128261Y-46543502D01*
X45128258Y-46543511D01*
X45069366Y-46763302D01*
X45069364Y-46763313D01*
X45049532Y-46989998D01*
X45049532Y-46990001D01*
X45069364Y-47216686D01*
X45069366Y-47216697D01*
X45128258Y-47436488D01*
X45128261Y-47436497D01*
X45224431Y-47642732D01*
X45224432Y-47642734D01*
X45354954Y-47829141D01*
X45515858Y-47990045D01*
X45515861Y-47990047D01*
X45702266Y-48120568D01*
X45908504Y-48216739D01*
X46128308Y-48275635D01*
X46290230Y-48289801D01*
X46354998Y-48295468D01*
X46355000Y-48295468D01*
X46355002Y-48295468D01*
X46411673Y-48290509D01*
X46581692Y-48275635D01*
X46801496Y-48216739D01*
X47007734Y-48120568D01*
X47194139Y-47990047D01*
X47355047Y-47829139D01*
X47485568Y-47642734D01*
X47581739Y-47436496D01*
X47640635Y-47216692D01*
X47660468Y-46990000D01*
X47640635Y-46763308D01*
X47581739Y-46543504D01*
X47485568Y-46337266D01*
X47387839Y-46197693D01*
X47355045Y-46150858D01*
X47194141Y-45989954D01*
X47007734Y-45859432D01*
X47007728Y-45859429D01*
X46949725Y-45832382D01*
X46897285Y-45786210D01*
X46878133Y-45719017D01*
X46898348Y-45652135D01*
X46949725Y-45607618D01*
X46950319Y-45607341D01*
X47007734Y-45580568D01*
X47194139Y-45450047D01*
X47355047Y-45289139D01*
X47485568Y-45102734D01*
X47581739Y-44896496D01*
X47640635Y-44676692D01*
X47660468Y-44450000D01*
X47653548Y-44370915D01*
X47667314Y-44302419D01*
X47689392Y-44272432D01*
X48771235Y-43190590D01*
X48771240Y-43190586D01*
X48781443Y-43180382D01*
X48781445Y-43180382D01*
X48895382Y-43066445D01*
X48895618Y-43066090D01*
X48931236Y-43012784D01*
X48931238Y-43012780D01*
X48984903Y-42932468D01*
X49035423Y-42810500D01*
X49046565Y-42783602D01*
X49078000Y-42625566D01*
X49078000Y-37220189D01*
X49097685Y-37153150D01*
X49114319Y-37132508D01*
X49617879Y-36628948D01*
X49617882Y-36628945D01*
X49707402Y-36494969D01*
X49729350Y-36441981D01*
X49769065Y-36346102D01*
X49800500Y-36188066D01*
X49800500Y-35315188D01*
X49820185Y-35248149D01*
X49836819Y-35227507D01*
X50355007Y-34709319D01*
X50416330Y-34675834D01*
X50442688Y-34673000D01*
X51460875Y-34673000D01*
X51527914Y-34692685D01*
X51573669Y-34745489D01*
X51583613Y-34814647D01*
X51562450Y-34868124D01*
X51534865Y-34907517D01*
X51438734Y-35113673D01*
X51438730Y-35113682D01*
X51379860Y-35333389D01*
X51379858Y-35333400D01*
X51360034Y-35559997D01*
X51360034Y-35560000D01*
X51379858Y-35786599D01*
X51379860Y-35786610D01*
X51438730Y-36006317D01*
X51438735Y-36006331D01*
X51534863Y-36212478D01*
X51585974Y-36285472D01*
X52265000Y-35606446D01*
X52265000Y-35612661D01*
X52292259Y-35714394D01*
X52344920Y-35805606D01*
X52419394Y-35880080D01*
X52510606Y-35932741D01*
X52612339Y-35960000D01*
X52618553Y-35960000D01*
X51939526Y-36639025D01*
X52012513Y-36690132D01*
X52012521Y-36690136D01*
X52218668Y-36786264D01*
X52218682Y-36786269D01*
X52438389Y-36845139D01*
X52438400Y-36845141D01*
X52664998Y-36864966D01*
X52665002Y-36864966D01*
X52891599Y-36845141D01*
X52891610Y-36845139D01*
X53111317Y-36786269D01*
X53111331Y-36786264D01*
X53317478Y-36690136D01*
X53390471Y-36639024D01*
X52711447Y-35960000D01*
X52717661Y-35960000D01*
X52819394Y-35932741D01*
X52910606Y-35880080D01*
X52985080Y-35805606D01*
X53037741Y-35714394D01*
X53065000Y-35612661D01*
X53065000Y-35606447D01*
X53744024Y-36285471D01*
X53795136Y-36212478D01*
X53891264Y-36006331D01*
X53891269Y-36006317D01*
X53950139Y-35786610D01*
X53950141Y-35786599D01*
X53969966Y-35560000D01*
X53969966Y-35559998D01*
X85769532Y-35559998D01*
X85769532Y-35560000D01*
X85789364Y-35786686D01*
X85789366Y-35786697D01*
X85848258Y-36006488D01*
X85848261Y-36006497D01*
X85944431Y-36212732D01*
X85944432Y-36212734D01*
X86074954Y-36399141D01*
X86235858Y-36560045D01*
X86235861Y-36560047D01*
X86422266Y-36690568D01*
X86628504Y-36786739D01*
X86848308Y-36845635D01*
X87010230Y-36859801D01*
X87074998Y-36865468D01*
X87075000Y-36865468D01*
X87075002Y-36865468D01*
X87131673Y-36860509D01*
X87301692Y-36845635D01*
X87521496Y-36786739D01*
X87727734Y-36690568D01*
X87914139Y-36560047D01*
X88075047Y-36399139D01*
X88205568Y-36212734D01*
X88301739Y-36006496D01*
X88360635Y-35786692D01*
X88380468Y-35560000D01*
X88380468Y-35559997D01*
X90770034Y-35559997D01*
X90770034Y-35560000D01*
X90789858Y-35786599D01*
X90789860Y-35786610D01*
X90848730Y-36006317D01*
X90848735Y-36006331D01*
X90944863Y-36212478D01*
X90995974Y-36285472D01*
X91675000Y-35606446D01*
X91675000Y-35612661D01*
X91702259Y-35714394D01*
X91754920Y-35805606D01*
X91829394Y-35880080D01*
X91920606Y-35932741D01*
X92022339Y-35960000D01*
X92028553Y-35960000D01*
X91349526Y-36639025D01*
X91422513Y-36690132D01*
X91422521Y-36690136D01*
X91628668Y-36786264D01*
X91628682Y-36786269D01*
X91848389Y-36845139D01*
X91848400Y-36845141D01*
X92074998Y-36864966D01*
X92075002Y-36864966D01*
X92301599Y-36845141D01*
X92301610Y-36845139D01*
X92521317Y-36786269D01*
X92521331Y-36786264D01*
X92727478Y-36690136D01*
X92800471Y-36639024D01*
X92121447Y-35960000D01*
X92127661Y-35960000D01*
X92229394Y-35932741D01*
X92320606Y-35880080D01*
X92395080Y-35805606D01*
X92447741Y-35714394D01*
X92475000Y-35612661D01*
X92475000Y-35606447D01*
X93154024Y-36285471D01*
X93205136Y-36212478D01*
X93301264Y-36006331D01*
X93301269Y-36006317D01*
X93360139Y-35786610D01*
X93360141Y-35786599D01*
X93379966Y-35560000D01*
X93379966Y-35559997D01*
X93360141Y-35333400D01*
X93360139Y-35333389D01*
X93301269Y-35113682D01*
X93301264Y-35113668D01*
X93205136Y-34907521D01*
X93205132Y-34907513D01*
X93154025Y-34834526D01*
X92475000Y-35513551D01*
X92475000Y-35507339D01*
X92447741Y-35405606D01*
X92395080Y-35314394D01*
X92320606Y-35239920D01*
X92229394Y-35187259D01*
X92127661Y-35160000D01*
X92121445Y-35160000D01*
X92800472Y-34480974D01*
X92727478Y-34429863D01*
X92521331Y-34333735D01*
X92521317Y-34333730D01*
X92301610Y-34274860D01*
X92301599Y-34274858D01*
X92075002Y-34255034D01*
X92074998Y-34255034D01*
X91848400Y-34274858D01*
X91848389Y-34274860D01*
X91628682Y-34333730D01*
X91628673Y-34333734D01*
X91422516Y-34429866D01*
X91422512Y-34429868D01*
X91349526Y-34480973D01*
X91349526Y-34480974D01*
X92028553Y-35160000D01*
X92022339Y-35160000D01*
X91920606Y-35187259D01*
X91829394Y-35239920D01*
X91754920Y-35314394D01*
X91702259Y-35405606D01*
X91675000Y-35507339D01*
X91675000Y-35513552D01*
X90995974Y-34834526D01*
X90995973Y-34834526D01*
X90944868Y-34907512D01*
X90944866Y-34907516D01*
X90848734Y-35113673D01*
X90848730Y-35113682D01*
X90789860Y-35333389D01*
X90789858Y-35333400D01*
X90770034Y-35559997D01*
X88380468Y-35559997D01*
X88360635Y-35333308D01*
X88301739Y-35113504D01*
X88205568Y-34907266D01*
X88075047Y-34720861D01*
X88075045Y-34720858D01*
X87914141Y-34559954D01*
X87727734Y-34429432D01*
X87727732Y-34429431D01*
X87521497Y-34333261D01*
X87521488Y-34333258D01*
X87301697Y-34274366D01*
X87301693Y-34274365D01*
X87301692Y-34274365D01*
X87301691Y-34274364D01*
X87301686Y-34274364D01*
X87075002Y-34254532D01*
X87074998Y-34254532D01*
X86848313Y-34274364D01*
X86848302Y-34274366D01*
X86628511Y-34333258D01*
X86628502Y-34333261D01*
X86422267Y-34429431D01*
X86422265Y-34429432D01*
X86235858Y-34559954D01*
X86074954Y-34720858D01*
X85944432Y-34907265D01*
X85944431Y-34907267D01*
X85848261Y-35113502D01*
X85848258Y-35113511D01*
X85789366Y-35333302D01*
X85789364Y-35333313D01*
X85769532Y-35559998D01*
X53969966Y-35559998D01*
X53969966Y-35559997D01*
X53950141Y-35333400D01*
X53950139Y-35333389D01*
X53891269Y-35113682D01*
X53891265Y-35113673D01*
X53795134Y-34907517D01*
X53767550Y-34868124D01*
X53745223Y-34801918D01*
X53762233Y-34734151D01*
X53813181Y-34686337D01*
X53869125Y-34673000D01*
X59135567Y-34673000D01*
X59135568Y-34672999D01*
X59293602Y-34641565D01*
X59368035Y-34610733D01*
X59442468Y-34579903D01*
X59576445Y-34490382D01*
X62315007Y-31751818D01*
X62376330Y-31718334D01*
X62402688Y-31715500D01*
X65549553Y-31715500D01*
X65549554Y-31715499D01*
X65707588Y-31684065D01*
X65782021Y-31653233D01*
X65856454Y-31622403D01*
X65990431Y-31532882D01*
X66408313Y-31114999D01*
X84619785Y-31114999D01*
X84619785Y-31115000D01*
X84638602Y-31318082D01*
X84694417Y-31514247D01*
X84694422Y-31514260D01*
X84785327Y-31696821D01*
X84908237Y-31859581D01*
X85058958Y-31996980D01*
X85058960Y-31996982D01*
X85138247Y-32046074D01*
X85232363Y-32104348D01*
X85422544Y-32178024D01*
X85623024Y-32215500D01*
X85623026Y-32215500D01*
X85826974Y-32215500D01*
X85826976Y-32215500D01*
X86027456Y-32178024D01*
X86214374Y-32105611D01*
X86283996Y-32099750D01*
X86333478Y-32121972D01*
X86382668Y-32158795D01*
X86382671Y-32158797D01*
X86517517Y-32209091D01*
X86517516Y-32209091D01*
X86524444Y-32209835D01*
X86577127Y-32215500D01*
X87872872Y-32215499D01*
X87932483Y-32209091D01*
X88067331Y-32158796D01*
X88182546Y-32072546D01*
X88268796Y-31957331D01*
X88319091Y-31822483D01*
X88325500Y-31762873D01*
X88325499Y-30880244D01*
X88345183Y-30813207D01*
X88397987Y-30767452D01*
X88467146Y-30757508D01*
X88530702Y-30786533D01*
X88559054Y-30822163D01*
X88607784Y-30914077D01*
X88607787Y-30914082D01*
X88607789Y-30914085D01*
X88744013Y-31115001D01*
X88808634Y-31210309D01*
X88808641Y-31210319D01*
X88920235Y-31341697D01*
X89040332Y-31483086D01*
X89300163Y-31729211D01*
X89585081Y-31945800D01*
X89891747Y-32130315D01*
X89891749Y-32130316D01*
X89891751Y-32130317D01*
X89891755Y-32130319D01*
X90216552Y-32280585D01*
X90216565Y-32280591D01*
X90555726Y-32394868D01*
X90905254Y-32471805D01*
X91261052Y-32510500D01*
X91261058Y-32510500D01*
X91618942Y-32510500D01*
X91618948Y-32510500D01*
X91974746Y-32471805D01*
X92324274Y-32394868D01*
X92663435Y-32280591D01*
X92988253Y-32130315D01*
X93294919Y-31945800D01*
X93579837Y-31729211D01*
X93839668Y-31483086D01*
X94071365Y-31210311D01*
X94272211Y-30914085D01*
X94439853Y-30597880D01*
X94572324Y-30265403D01*
X94668071Y-29920552D01*
X94725972Y-29567371D01*
X94745348Y-29210000D01*
X94725972Y-28852629D01*
X94713924Y-28779141D01*
X94668073Y-28499460D01*
X94668072Y-28499459D01*
X94668071Y-28499448D01*
X94624855Y-28343799D01*
X94572327Y-28154607D01*
X94572325Y-28154600D01*
X94439857Y-27822129D01*
X94439848Y-27822111D01*
X94406517Y-27759243D01*
X94311073Y-27579216D01*
X94272215Y-27505922D01*
X94272213Y-27505919D01*
X94272211Y-27505915D01*
X94071365Y-27209689D01*
X94071361Y-27209684D01*
X94071358Y-27209680D01*
X93839668Y-26936914D01*
X93787095Y-26887114D01*
X93579837Y-26690789D01*
X93579830Y-26690783D01*
X93579827Y-26690781D01*
X93474893Y-26611013D01*
X93294919Y-26474200D01*
X92988253Y-26289685D01*
X92988252Y-26289684D01*
X92988248Y-26289682D01*
X92988244Y-26289680D01*
X92663447Y-26139414D01*
X92663441Y-26139411D01*
X92663435Y-26139409D01*
X92493854Y-26082270D01*
X92324273Y-26025131D01*
X91974744Y-25948194D01*
X91618949Y-25909500D01*
X91618948Y-25909500D01*
X91261052Y-25909500D01*
X91261050Y-25909500D01*
X90905255Y-25948194D01*
X90555726Y-26025131D01*
X90300880Y-26111000D01*
X90216565Y-26139409D01*
X90216563Y-26139410D01*
X90216552Y-26139414D01*
X89891755Y-26289680D01*
X89891751Y-26289682D01*
X89717500Y-26394526D01*
X89585081Y-26474200D01*
X89496768Y-26541333D01*
X89300172Y-26690781D01*
X89300163Y-26690789D01*
X89040331Y-26936914D01*
X88808641Y-27209680D01*
X88808634Y-27209690D01*
X88607790Y-27505913D01*
X88607784Y-27505922D01*
X88440151Y-27822111D01*
X88440142Y-27822129D01*
X88307674Y-28154600D01*
X88307672Y-28154607D01*
X88211932Y-28499434D01*
X88211926Y-28499460D01*
X88154029Y-28852614D01*
X88154028Y-28852627D01*
X88154028Y-28852629D01*
X88149288Y-28940047D01*
X88134652Y-29209997D01*
X88134652Y-29210002D01*
X88154028Y-29567368D01*
X88154029Y-29567385D01*
X88211928Y-29920552D01*
X88212031Y-29921018D01*
X88212023Y-29921129D01*
X88212472Y-29923867D01*
X88211826Y-29923972D01*
X88207210Y-29990722D01*
X88165470Y-30046753D01*
X88100063Y-30071323D01*
X88047594Y-30063842D01*
X87932482Y-30020908D01*
X87932483Y-30020908D01*
X87872883Y-30014501D01*
X87872881Y-30014500D01*
X87872873Y-30014500D01*
X87872864Y-30014500D01*
X86577129Y-30014500D01*
X86577123Y-30014501D01*
X86517516Y-30020908D01*
X86382671Y-30071202D01*
X86382665Y-30071205D01*
X86333476Y-30108028D01*
X86268012Y-30132444D01*
X86214374Y-30124387D01*
X86027460Y-30051977D01*
X86027457Y-30051976D01*
X86027456Y-30051976D01*
X85826976Y-30014500D01*
X85623024Y-30014500D01*
X85422544Y-30051976D01*
X85422541Y-30051976D01*
X85422541Y-30051977D01*
X85232364Y-30125651D01*
X85232357Y-30125655D01*
X85058960Y-30233017D01*
X85058958Y-30233019D01*
X84908237Y-30370418D01*
X84785327Y-30533178D01*
X84694422Y-30715739D01*
X84694417Y-30715752D01*
X84638602Y-30911917D01*
X84619785Y-31114999D01*
X66408313Y-31114999D01*
X67418993Y-30104318D01*
X67480316Y-30070834D01*
X67506674Y-30068000D01*
X68424848Y-30068000D01*
X68491887Y-30087685D01*
X68532233Y-30129997D01*
X68545898Y-30153665D01*
X68609179Y-30233017D01*
X68702006Y-30349418D01*
X68828868Y-30467128D01*
X68885540Y-30519712D01*
X69092408Y-30660752D01*
X69092413Y-30660754D01*
X69092414Y-30660755D01*
X69092415Y-30660756D01*
X69169945Y-30698092D01*
X69317983Y-30769383D01*
X69317984Y-30769383D01*
X69317987Y-30769385D01*
X69557236Y-30843184D01*
X69557237Y-30843184D01*
X69557240Y-30843185D01*
X69804805Y-30880499D01*
X69804810Y-30880499D01*
X69804813Y-30880500D01*
X69804814Y-30880500D01*
X70055186Y-30880500D01*
X70055187Y-30880500D01*
X70055194Y-30880499D01*
X70302759Y-30843185D01*
X70302760Y-30843184D01*
X70302764Y-30843184D01*
X70542013Y-30769385D01*
X70767592Y-30660752D01*
X70974460Y-30519712D01*
X71157997Y-30349414D01*
X71314102Y-30153665D01*
X71439289Y-29936835D01*
X71530760Y-29703769D01*
X71586474Y-29459673D01*
X71586475Y-29459663D01*
X71605184Y-29210004D01*
X71605184Y-29209995D01*
X71586475Y-28960336D01*
X71586474Y-28960331D01*
X71586474Y-28960327D01*
X71530760Y-28716231D01*
X71449742Y-28509801D01*
X71443574Y-28440205D01*
X71476012Y-28378322D01*
X71536757Y-28343799D01*
X71565171Y-28340500D01*
X72852311Y-28340500D01*
X72919350Y-28360185D01*
X72939992Y-28376819D01*
X73271518Y-28708345D01*
X73305003Y-28769668D01*
X73304728Y-28823618D01*
X73273525Y-28960326D01*
X73273525Y-28960328D01*
X73254816Y-29209995D01*
X73254816Y-29210004D01*
X73273524Y-29459663D01*
X73273525Y-29459668D01*
X73329236Y-29703755D01*
X73329238Y-29703764D01*
X73329240Y-29703769D01*
X73420711Y-29936835D01*
X73545898Y-30153665D01*
X73643344Y-30275858D01*
X73702006Y-30349418D01*
X73828868Y-30467128D01*
X73885540Y-30519712D01*
X74092408Y-30660752D01*
X74092413Y-30660754D01*
X74092414Y-30660755D01*
X74092415Y-30660756D01*
X74169945Y-30698092D01*
X74317983Y-30769383D01*
X74317984Y-30769383D01*
X74317987Y-30769385D01*
X74557236Y-30843184D01*
X74557237Y-30843184D01*
X74557240Y-30843185D01*
X74804805Y-30880499D01*
X74804810Y-30880499D01*
X74804813Y-30880500D01*
X74804814Y-30880500D01*
X75055186Y-30880500D01*
X75055187Y-30880500D01*
X75055194Y-30880499D01*
X75302759Y-30843185D01*
X75302760Y-30843184D01*
X75302764Y-30843184D01*
X75542013Y-30769385D01*
X75767592Y-30660752D01*
X75974460Y-30519712D01*
X76157997Y-30349414D01*
X76314102Y-30153665D01*
X76439289Y-29936835D01*
X76530760Y-29703769D01*
X76586474Y-29459673D01*
X76586475Y-29459663D01*
X76605184Y-29210004D01*
X76605184Y-29209995D01*
X76586475Y-28960336D01*
X76586474Y-28960331D01*
X76586474Y-28960327D01*
X76530760Y-28716231D01*
X76439289Y-28483165D01*
X76314102Y-28266335D01*
X76157997Y-28070586D01*
X76157996Y-28070585D01*
X76157993Y-28070581D01*
X75974460Y-27900288D01*
X75974211Y-27900118D01*
X75767592Y-27759248D01*
X75767588Y-27759246D01*
X75767585Y-27759244D01*
X75767584Y-27759243D01*
X75542015Y-27650616D01*
X75542017Y-27650616D01*
X75302765Y-27576816D01*
X75302759Y-27576814D01*
X75055194Y-27539500D01*
X75055187Y-27539500D01*
X74804813Y-27539500D01*
X74804805Y-27539500D01*
X74557240Y-27576814D01*
X74557232Y-27576816D01*
X74549452Y-27579216D01*
X74479589Y-27580161D01*
X74425230Y-27548403D01*
X73763948Y-26887120D01*
X73763944Y-26887117D01*
X73629974Y-26797600D01*
X73629961Y-26797593D01*
X73481106Y-26735936D01*
X73481094Y-26735933D01*
X73323070Y-26704500D01*
X73323066Y-26704500D01*
X63990448Y-26704500D01*
X63990443Y-26704500D01*
X63832419Y-26735933D01*
X63832411Y-26735935D01*
X63683543Y-26797599D01*
X63683540Y-26797600D01*
X63549573Y-26887114D01*
X63549565Y-26887120D01*
X58271006Y-32165681D01*
X58209683Y-32199166D01*
X58183325Y-32202000D01*
X55083359Y-32202000D01*
X55016320Y-32182315D01*
X54970565Y-32129511D01*
X54960621Y-32060353D01*
X54984093Y-32003689D01*
X55018793Y-31957335D01*
X55018792Y-31957335D01*
X55018796Y-31957331D01*
X55069091Y-31822483D01*
X55075500Y-31762873D01*
X55075499Y-30467128D01*
X55069091Y-30407517D01*
X55058660Y-30379551D01*
X55018797Y-30272671D01*
X55018793Y-30272664D01*
X54932547Y-30157455D01*
X54932544Y-30157452D01*
X54817335Y-30071206D01*
X54817328Y-30071202D01*
X54682482Y-30020908D01*
X54682483Y-30020908D01*
X54622883Y-30014501D01*
X54622881Y-30014500D01*
X54622873Y-30014500D01*
X54622864Y-30014500D01*
X53327129Y-30014500D01*
X53327123Y-30014501D01*
X53267516Y-30020908D01*
X53132671Y-30071202D01*
X53132665Y-30071205D01*
X53083476Y-30108028D01*
X53018012Y-30132444D01*
X52964374Y-30124387D01*
X52777460Y-30051977D01*
X52777457Y-30051976D01*
X52777456Y-30051976D01*
X52576976Y-30014500D01*
X52373024Y-30014500D01*
X52172544Y-30051976D01*
X52172541Y-30051976D01*
X52172541Y-30051977D01*
X51982364Y-30125651D01*
X51982357Y-30125655D01*
X51808960Y-30233017D01*
X51808958Y-30233019D01*
X51658237Y-30370419D01*
X51561816Y-30498100D01*
X51505706Y-30539736D01*
X51435994Y-30544427D01*
X51374813Y-30510685D01*
X51341586Y-30449221D01*
X51346864Y-30379551D01*
X51347617Y-30377607D01*
X51392324Y-30265403D01*
X51488071Y-29920552D01*
X51545972Y-29567371D01*
X51565348Y-29210000D01*
X51545972Y-28852629D01*
X51533924Y-28779141D01*
X51488073Y-28499460D01*
X51488072Y-28499459D01*
X51488071Y-28499448D01*
X51444855Y-28343799D01*
X51392327Y-28154607D01*
X51392325Y-28154600D01*
X51259857Y-27822129D01*
X51259848Y-27822111D01*
X51226517Y-27759243D01*
X51131073Y-27579216D01*
X51092215Y-27505922D01*
X51092213Y-27505919D01*
X51092211Y-27505915D01*
X50891365Y-27209689D01*
X50891361Y-27209684D01*
X50891358Y-27209680D01*
X50659668Y-26936914D01*
X50607095Y-26887114D01*
X50399837Y-26690789D01*
X50399830Y-26690783D01*
X50399827Y-26690781D01*
X50294893Y-26611013D01*
X50114919Y-26474200D01*
X49808253Y-26289685D01*
X49808252Y-26289684D01*
X49808248Y-26289682D01*
X49808244Y-26289680D01*
X49483447Y-26139414D01*
X49483441Y-26139411D01*
X49483435Y-26139409D01*
X49313854Y-26082270D01*
X49144273Y-26025131D01*
X48794744Y-25948194D01*
X48438949Y-25909500D01*
X48438948Y-25909500D01*
X48081052Y-25909500D01*
X48081050Y-25909500D01*
X47725255Y-25948194D01*
X47375726Y-26025131D01*
X47120880Y-26111000D01*
X47036565Y-26139409D01*
X47036563Y-26139410D01*
X47036552Y-26139414D01*
X46711755Y-26289680D01*
X46711751Y-26289682D01*
X46537500Y-26394526D01*
X46405081Y-26474200D01*
X46316768Y-26541333D01*
X46120172Y-26690781D01*
X46120163Y-26690789D01*
X45860331Y-26936914D01*
X45628641Y-27209680D01*
X45628634Y-27209690D01*
X45427790Y-27505913D01*
X45427784Y-27505922D01*
X45260151Y-27822111D01*
X45260142Y-27822129D01*
X45127674Y-28154600D01*
X45127672Y-28154607D01*
X45031932Y-28499434D01*
X45031926Y-28499460D01*
X44974029Y-28852614D01*
X44974028Y-28852627D01*
X44974028Y-28852629D01*
X44969288Y-28940047D01*
X44954652Y-29209997D01*
X44954652Y-29210002D01*
X44974028Y-29567368D01*
X44974029Y-29567385D01*
X45031926Y-29920539D01*
X45031932Y-29920565D01*
X45127672Y-30265392D01*
X45127674Y-30265399D01*
X45260142Y-30597870D01*
X45260151Y-30597888D01*
X45427784Y-30914077D01*
X45427787Y-30914082D01*
X45427789Y-30914085D01*
X45564013Y-31115001D01*
X45628634Y-31210309D01*
X45628641Y-31210319D01*
X45740235Y-31341697D01*
X45860332Y-31483086D01*
X46120163Y-31729211D01*
X46405081Y-31945800D01*
X46711747Y-32130315D01*
X46711749Y-32130316D01*
X46711751Y-32130317D01*
X46711755Y-32130319D01*
X47036552Y-32280585D01*
X47036565Y-32280591D01*
X47375726Y-32394868D01*
X47443564Y-32409800D01*
X47504805Y-32443435D01*
X47538139Y-32504840D01*
X47532984Y-32574519D01*
X47504590Y-32618582D01*
X45808613Y-34314558D01*
X45808614Y-34314559D01*
X45746729Y-34376444D01*
X45746728Y-34376445D01*
X45712120Y-34411051D01*
X45712117Y-34411055D01*
X45622600Y-34545026D01*
X45622598Y-34545030D01*
X45622597Y-34545032D01*
X45598813Y-34602454D01*
X45560935Y-34693897D01*
X45560933Y-34693905D01*
X45529500Y-34851929D01*
X45529500Y-36447310D01*
X45509815Y-36514349D01*
X45493181Y-36534991D01*
X44220180Y-37807991D01*
X44158857Y-37841476D01*
X44089165Y-37836492D01*
X44044818Y-37807991D01*
X43399319Y-37162492D01*
X43365834Y-37101169D01*
X43363000Y-37074811D01*
X43363000Y-36344502D01*
X43382685Y-36277463D01*
X43388039Y-36269784D01*
X43484673Y-36141821D01*
X43575582Y-35959250D01*
X43631397Y-35763083D01*
X43650215Y-35560000D01*
X43631397Y-35356917D01*
X43575582Y-35160750D01*
X43561533Y-35132536D01*
X43494818Y-34998553D01*
X43484673Y-34978179D01*
X43410741Y-34880277D01*
X43361762Y-34815418D01*
X43211041Y-34678019D01*
X43211039Y-34678017D01*
X43037642Y-34570655D01*
X43037635Y-34570651D01*
X42942546Y-34533814D01*
X42847456Y-34496976D01*
X42646976Y-34459500D01*
X42443024Y-34459500D01*
X42242544Y-34496976D01*
X42079981Y-34559953D01*
X42055626Y-34569388D01*
X41986002Y-34575250D01*
X41936520Y-34553027D01*
X41912688Y-34535186D01*
X41870818Y-34479252D01*
X41863000Y-34435920D01*
X41863000Y-31894759D01*
X41882685Y-31827720D01*
X41935489Y-31781965D01*
X42004647Y-31772021D01*
X42068203Y-31801046D01*
X42088573Y-31823634D01*
X42131449Y-31884867D01*
X42179954Y-31954141D01*
X42340858Y-32115045D01*
X42340861Y-32115047D01*
X42527266Y-32245568D01*
X42733504Y-32341739D01*
X42953308Y-32400635D01*
X43115230Y-32414801D01*
X43179998Y-32420468D01*
X43180000Y-32420468D01*
X43180002Y-32420468D01*
X43236673Y-32415509D01*
X43406692Y-32400635D01*
X43626496Y-32341739D01*
X43832734Y-32245568D01*
X44019139Y-32115047D01*
X44180047Y-31954139D01*
X44310568Y-31767734D01*
X44406739Y-31561496D01*
X44465635Y-31341692D01*
X44485468Y-31115000D01*
X44465635Y-30888308D01*
X44406739Y-30668504D01*
X44310568Y-30462266D01*
X44180047Y-30275861D01*
X44180045Y-30275858D01*
X44019141Y-30114954D01*
X43832734Y-29984432D01*
X43832732Y-29984431D01*
X43626497Y-29888261D01*
X43626488Y-29888258D01*
X43406697Y-29829366D01*
X43406693Y-29829365D01*
X43406692Y-29829365D01*
X43406691Y-29829364D01*
X43406686Y-29829364D01*
X43180002Y-29809532D01*
X43179998Y-29809532D01*
X42953313Y-29829364D01*
X42953302Y-29829366D01*
X42733511Y-29888258D01*
X42733501Y-29888262D01*
X42724527Y-29892447D01*
X42655449Y-29902938D01*
X42591666Y-29874417D01*
X42553427Y-29815940D01*
X42552874Y-29746072D01*
X42584443Y-29692383D01*
X42723275Y-29553551D01*
X43002432Y-29274393D01*
X43063753Y-29240910D01*
X43100913Y-29238548D01*
X43180000Y-29245468D01*
X43180000Y-29245467D01*
X43180001Y-29245468D01*
X43180002Y-29245468D01*
X43236673Y-29240509D01*
X43406692Y-29225635D01*
X43626496Y-29166739D01*
X43832734Y-29070568D01*
X44019139Y-28940047D01*
X44180047Y-28779139D01*
X44310568Y-28592734D01*
X44406739Y-28386496D01*
X44465635Y-28166692D01*
X44485468Y-27940000D01*
X44465635Y-27713308D01*
X44406739Y-27493504D01*
X44310568Y-27287266D01*
X44186728Y-27110402D01*
X44180045Y-27100858D01*
X44019141Y-26939954D01*
X43832734Y-26809432D01*
X43832732Y-26809431D01*
X43626497Y-26713261D01*
X43626488Y-26713258D01*
X43406697Y-26654366D01*
X43406693Y-26654365D01*
X43406692Y-26654365D01*
X43406691Y-26654364D01*
X43406686Y-26654364D01*
X43180002Y-26634532D01*
X43179998Y-26634532D01*
X42953313Y-26654364D01*
X42953302Y-26654366D01*
X42733511Y-26713258D01*
X42733502Y-26713261D01*
X42527267Y-26809431D01*
X42527265Y-26809432D01*
X42340858Y-26939954D01*
X42179954Y-27100858D01*
X42049432Y-27287265D01*
X42049431Y-27287267D01*
X41953261Y-27493502D01*
X41953258Y-27493511D01*
X41894366Y-27713302D01*
X41894364Y-27713313D01*
X41874532Y-27939998D01*
X41874532Y-27940002D01*
X41881450Y-28019080D01*
X41867683Y-28087580D01*
X41845603Y-28117568D01*
X40409620Y-29553551D01*
X40409617Y-29553555D01*
X40320100Y-29687525D01*
X40320093Y-29687538D01*
X40258436Y-29836393D01*
X40258433Y-29836405D01*
X40227000Y-29994429D01*
X40227000Y-34435920D01*
X40207315Y-34502959D01*
X40177312Y-34535186D01*
X40087452Y-34602455D01*
X40001206Y-34717664D01*
X40001202Y-34717671D01*
X39950908Y-34852517D01*
X39944501Y-34912116D01*
X39944500Y-34912135D01*
X39944500Y-36207870D01*
X39944501Y-36207876D01*
X39950908Y-36267483D01*
X40001202Y-36402328D01*
X40001206Y-36402335D01*
X40034875Y-36447310D01*
X40087454Y-36517546D01*
X40177312Y-36584814D01*
X40219182Y-36640746D01*
X40227000Y-36684079D01*
X40227000Y-37315570D01*
X40258433Y-37473594D01*
X40258435Y-37473602D01*
X40288243Y-37545564D01*
X40288243Y-37545565D01*
X40320098Y-37622471D01*
X40409617Y-37756444D01*
X40409620Y-37756448D01*
X41630992Y-38977819D01*
X41664477Y-39039142D01*
X41659493Y-39108834D01*
X41617621Y-39164767D01*
X41552157Y-39189184D01*
X41543311Y-39189500D01*
X38611929Y-39189500D01*
X38453905Y-39220933D01*
X38453898Y-39220935D01*
X38414451Y-39237274D01*
X38344981Y-39244741D01*
X38282503Y-39213466D01*
X38246851Y-39153376D01*
X38243000Y-39122712D01*
X38243000Y-35439433D01*
X38242999Y-35439429D01*
X38236271Y-35405606D01*
X38211565Y-35281398D01*
X38211563Y-35281393D01*
X38149905Y-35132536D01*
X38149904Y-35132534D01*
X38137307Y-35113682D01*
X38087109Y-35038555D01*
X38087109Y-35038554D01*
X38087107Y-35038553D01*
X38060382Y-34998555D01*
X38060381Y-34998553D01*
X37942126Y-34880298D01*
X37942103Y-34880277D01*
X34354395Y-31292568D01*
X34320910Y-31231245D01*
X34318548Y-31194084D01*
X34325468Y-31115000D01*
X34305635Y-30888308D01*
X34246739Y-30668504D01*
X34150568Y-30462266D01*
X34020047Y-30275861D01*
X34020045Y-30275858D01*
X33859141Y-30114954D01*
X33672734Y-29984432D01*
X33672732Y-29984431D01*
X33466497Y-29888261D01*
X33466488Y-29888258D01*
X33246697Y-29829366D01*
X33246693Y-29829365D01*
X33246692Y-29829365D01*
X33246691Y-29829364D01*
X33246686Y-29829364D01*
X33020002Y-29809532D01*
X33019998Y-29809532D01*
X32793313Y-29829364D01*
X32793302Y-29829366D01*
X32573511Y-29888258D01*
X32573502Y-29888261D01*
X32367267Y-29984431D01*
X32367265Y-29984432D01*
X32180858Y-30114954D01*
X32019954Y-30275858D01*
X31889432Y-30462265D01*
X31889431Y-30462267D01*
X31793261Y-30668502D01*
X31793258Y-30668511D01*
X31734366Y-30888302D01*
X31734364Y-30888313D01*
X31714532Y-31114998D01*
X31714532Y-31115001D01*
X31734364Y-31341686D01*
X31734366Y-31341697D01*
X31793258Y-31561488D01*
X31793261Y-31561497D01*
X31889431Y-31767732D01*
X31889432Y-31767734D01*
X32019954Y-31954141D01*
X32180858Y-32115045D01*
X32180861Y-32115047D01*
X32367266Y-32245568D01*
X32573504Y-32341739D01*
X32793308Y-32400635D01*
X32955230Y-32414801D01*
X33019998Y-32420468D01*
X33019999Y-32420468D01*
X33019999Y-32420467D01*
X33020000Y-32420468D01*
X33099080Y-32413548D01*
X33167578Y-32427314D01*
X33197568Y-32449395D01*
X36570681Y-35822507D01*
X36604166Y-35883830D01*
X36607000Y-35910188D01*
X36607000Y-40202451D01*
X36587315Y-40269490D01*
X36570681Y-40290132D01*
X36424954Y-40435858D01*
X36294432Y-40622265D01*
X36294431Y-40622267D01*
X36198261Y-40828502D01*
X36198258Y-40828511D01*
X36139366Y-41048302D01*
X36139364Y-41048313D01*
X36119532Y-41274998D01*
X36119532Y-41275000D01*
X36126450Y-41354081D01*
X36112683Y-41422581D01*
X36090603Y-41452569D01*
X33428860Y-44114311D01*
X33367537Y-44147796D01*
X33297845Y-44142812D01*
X33253498Y-44114311D01*
X33224141Y-44084954D01*
X33037734Y-43954432D01*
X33037732Y-43954431D01*
X32831497Y-43858261D01*
X32831488Y-43858258D01*
X32611697Y-43799366D01*
X32611693Y-43799365D01*
X32611692Y-43799365D01*
X32611691Y-43799364D01*
X32611686Y-43799364D01*
X32385002Y-43779532D01*
X32384998Y-43779532D01*
X32158313Y-43799364D01*
X32158302Y-43799366D01*
X31938511Y-43858258D01*
X31938502Y-43858261D01*
X31732267Y-43954431D01*
X31732265Y-43954432D01*
X31545858Y-44084954D01*
X31384954Y-44245858D01*
X31254432Y-44432265D01*
X31254431Y-44432267D01*
X31158261Y-44638502D01*
X31158258Y-44638511D01*
X31099366Y-44858302D01*
X31099364Y-44858313D01*
X31079532Y-45084998D01*
X28031551Y-45084998D01*
X28031551Y-41274998D01*
X31119532Y-41274998D01*
X31119532Y-41275000D01*
X31139364Y-41501686D01*
X31139366Y-41501697D01*
X31198258Y-41721488D01*
X31198261Y-41721497D01*
X31294431Y-41927732D01*
X31294432Y-41927734D01*
X31424954Y-42114141D01*
X31585858Y-42275045D01*
X31585861Y-42275047D01*
X31772266Y-42405568D01*
X31978504Y-42501739D01*
X32198308Y-42560635D01*
X32360230Y-42574801D01*
X32424998Y-42580468D01*
X32425000Y-42580468D01*
X32425002Y-42580468D01*
X32481673Y-42575509D01*
X32651692Y-42560635D01*
X32871496Y-42501739D01*
X33077734Y-42405568D01*
X33264139Y-42275047D01*
X33425047Y-42114139D01*
X33555568Y-41927734D01*
X33651739Y-41721496D01*
X33710635Y-41501692D01*
X33730468Y-41275000D01*
X33728916Y-41257266D01*
X33719444Y-41149000D01*
X33710635Y-41048308D01*
X33651739Y-40828504D01*
X33555568Y-40622266D01*
X33425047Y-40435861D01*
X33425045Y-40435858D01*
X33264141Y-40274954D01*
X33077734Y-40144432D01*
X33077732Y-40144431D01*
X32871497Y-40048261D01*
X32871488Y-40048258D01*
X32651697Y-39989366D01*
X32651693Y-39989365D01*
X32651692Y-39989365D01*
X32651691Y-39989364D01*
X32651686Y-39989364D01*
X32425002Y-39969532D01*
X32424998Y-39969532D01*
X32198313Y-39989364D01*
X32198302Y-39989366D01*
X31978511Y-40048258D01*
X31978502Y-40048261D01*
X31772267Y-40144431D01*
X31772265Y-40144432D01*
X31585858Y-40274954D01*
X31424954Y-40435858D01*
X31294432Y-40622265D01*
X31294431Y-40622267D01*
X31198261Y-40828502D01*
X31198258Y-40828511D01*
X31139366Y-41048302D01*
X31139364Y-41048313D01*
X31119532Y-41274998D01*
X28031551Y-41274998D01*
X28031551Y-27943750D01*
X28031664Y-27939998D01*
X31714532Y-27939998D01*
X31714532Y-27940001D01*
X31734364Y-28166686D01*
X31734366Y-28166697D01*
X31793258Y-28386488D01*
X31793261Y-28386497D01*
X31889431Y-28592732D01*
X31889432Y-28592734D01*
X32019954Y-28779141D01*
X32180858Y-28940045D01*
X32209830Y-28960331D01*
X32367266Y-29070568D01*
X32573504Y-29166739D01*
X32793308Y-29225635D01*
X32955230Y-29239801D01*
X33019998Y-29245468D01*
X33020000Y-29245468D01*
X33020002Y-29245468D01*
X33076673Y-29240509D01*
X33246692Y-29225635D01*
X33466496Y-29166739D01*
X33672734Y-29070568D01*
X33859139Y-28940047D01*
X34020047Y-28779139D01*
X34150568Y-28592734D01*
X34246739Y-28386496D01*
X34305635Y-28166692D01*
X34325468Y-27940000D01*
X34305635Y-27713308D01*
X34246739Y-27493504D01*
X34150568Y-27287266D01*
X34026728Y-27110402D01*
X34020045Y-27100858D01*
X33859141Y-26939954D01*
X33672734Y-26809432D01*
X33672732Y-26809431D01*
X33466497Y-26713261D01*
X33466488Y-26713258D01*
X33246697Y-26654366D01*
X33246693Y-26654365D01*
X33246692Y-26654365D01*
X33246691Y-26654364D01*
X33246686Y-26654364D01*
X33020002Y-26634532D01*
X33019998Y-26634532D01*
X32793313Y-26654364D01*
X32793302Y-26654366D01*
X32573511Y-26713258D01*
X32573502Y-26713261D01*
X32367267Y-26809431D01*
X32367265Y-26809432D01*
X32180858Y-26939954D01*
X32019954Y-27100858D01*
X31889432Y-27287265D01*
X31889431Y-27287267D01*
X31793261Y-27493502D01*
X31793258Y-27493511D01*
X31734366Y-27713302D01*
X31734364Y-27713313D01*
X31714532Y-27939998D01*
X28031664Y-27939998D01*
X28031777Y-27936263D01*
X28038681Y-27822129D01*
X28048156Y-27665487D01*
X28049961Y-27650625D01*
X28063488Y-27576814D01*
X28098182Y-27387488D01*
X28101766Y-27372954D01*
X28181350Y-27117559D01*
X28186652Y-27103578D01*
X28296452Y-26859611D01*
X28303403Y-26846366D01*
X28441808Y-26617417D01*
X28450295Y-26605121D01*
X28615293Y-26394517D01*
X28625208Y-26383327D01*
X28814377Y-26194158D01*
X28825568Y-26184243D01*
X29036172Y-26019245D01*
X29048468Y-26010758D01*
X29277424Y-25872349D01*
X29290656Y-25865404D01*
X29534629Y-25755601D01*
X29548610Y-25750299D01*
X29804010Y-25670713D01*
X29818539Y-25667131D01*
X30081680Y-25618909D01*
X30096537Y-25617105D01*
X30367339Y-25600725D01*
X30374810Y-25600500D01*
X30410933Y-25600500D01*
X92670118Y-25600500D01*
X92706249Y-25600500D01*
X92713736Y-25600726D01*
G37*
G04 #@! TD.AperFunction*
M02*
