%TF.GenerationSoftware,KiCad,Pcbnew,8.0.9*%
%TF.CreationDate,2025-03-02T13:58:53+01:00*%
%TF.ProjectId,cjss202,636a7373-3230-4322-9e6b-696361645f70,rev?*%
%TF.SameCoordinates,Original*%
%TF.FileFunction,Drillmap*%
%TF.FilePolarity,Positive*%
%FSLAX45Y45*%
G04 Gerber Fmt 4.5, Leading zero omitted, Abs format (unit mm)*
G04 Created by KiCad (PCBNEW 8.0.9) date 2025-03-02 13:58:53*
%MOMM*%
%LPD*%
G01*
G04 APERTURE LIST*
%ADD10C,0.050000*%
%ADD11C,0.200000*%
%ADD12C,0.100000*%
%ADD13C,0.120000*%
%ADD14C,0.130000*%
%ADD15C,0.320000*%
G04 APERTURE END LIST*
D10*
X2783105Y-6477000D02*
X2783105Y-2794000D01*
X3037105Y-6731000D02*
G75*
G02*
X2783105Y-6477000I0J254000D01*
G01*
X9525000Y-6477000D02*
G75*
G02*
X9271000Y-6731000I-254000J0D01*
G01*
X2783105Y-2794000D02*
G75*
G02*
X3037105Y-2540000I254000J0D01*
G01*
X9271000Y-6731000D02*
X3037105Y-6731000D01*
X9271000Y-2540000D02*
G75*
G02*
X9525000Y-2794000I0J-254000D01*
G01*
X9525000Y-2794000D02*
X9525000Y-6477000D01*
X3037105Y-2540000D02*
X9271000Y-2540000D01*
D11*
D12*
X3223500Y-5636500D02*
X3253500Y-5666500D01*
X3253500Y-5636500D02*
X3223500Y-5666500D01*
X4430000Y-3922000D02*
X4460000Y-3952000D01*
X4460000Y-3922000D02*
X4430000Y-3952000D01*
X4430000Y-4938000D02*
X4460000Y-4968000D01*
X4460000Y-4938000D02*
X4430000Y-4968000D01*
X4557000Y-5636500D02*
X4587000Y-5666500D01*
X4587000Y-5636500D02*
X4557000Y-5666500D01*
X7206000Y-4874500D02*
X7236000Y-4904500D01*
X7236000Y-4874500D02*
X7206000Y-4904500D01*
X4134500Y-3556000D02*
G75*
G02*
X4074500Y-3556000I-30000J0D01*
G01*
X4074500Y-3556000D02*
G75*
G02*
X4134500Y-3556000I30000J0D01*
G01*
X4134500Y-5651500D02*
G75*
G02*
X4074500Y-5651500I-30000J0D01*
G01*
X4074500Y-5651500D02*
G75*
G02*
X4134500Y-5651500I30000J0D01*
G01*
X4284500Y-3556000D02*
G75*
G02*
X4224500Y-3556000I-30000J0D01*
G01*
X4224500Y-3556000D02*
G75*
G02*
X4284500Y-3556000I30000J0D01*
G01*
X4284500Y-5651500D02*
G75*
G02*
X4224500Y-5651500I-30000J0D01*
G01*
X4224500Y-5651500D02*
G75*
G02*
X4284500Y-5651500I30000J0D01*
G01*
X5277500Y-3111500D02*
G75*
G02*
X5217500Y-3111500I-30000J0D01*
G01*
X5217500Y-3111500D02*
G75*
G02*
X5277500Y-3111500I30000J0D01*
G01*
X5427500Y-3111500D02*
G75*
G02*
X5367500Y-3111500I-30000J0D01*
G01*
X5367500Y-3111500D02*
G75*
G02*
X5427500Y-3111500I30000J0D01*
G01*
X8602500Y-3111500D02*
G75*
G02*
X8542500Y-3111500I-30000J0D01*
G01*
X8542500Y-3111500D02*
G75*
G02*
X8602500Y-3111500I30000J0D01*
G01*
X8752500Y-3111500D02*
G75*
G02*
X8692500Y-3111500I-30000J0D01*
G01*
X8692500Y-3111500D02*
G75*
G02*
X8752500Y-3111500I30000J0D01*
G01*
X6413500Y-5680000D02*
X6413500Y-5750000D01*
X6378500Y-5715000D02*
X6448500Y-5715000D01*
X7366000Y-5680000D02*
X7366000Y-5750000D01*
X7331000Y-5715000D02*
X7401000Y-5715000D01*
X4090517Y-4154017D02*
X4090517Y-4100983D01*
X4037483Y-4100983D01*
X4037483Y-4154017D01*
X4090517Y-4154017D01*
X4090517Y-6186017D02*
X4090517Y-6132983D01*
X4037483Y-6132983D01*
X4037483Y-6186017D01*
X4090517Y-6186017D01*
X4217517Y-4154017D02*
X4217517Y-4100983D01*
X4164483Y-4100983D01*
X4164483Y-4154017D01*
X4217517Y-4154017D01*
X4217517Y-6186017D02*
X4217517Y-6132983D01*
X4164483Y-6132983D01*
X4164483Y-6186017D01*
X4217517Y-6186017D01*
X4344517Y-4154017D02*
X4344517Y-4100983D01*
X4291483Y-4100983D01*
X4291483Y-4154017D01*
X4344517Y-4154017D01*
X4344517Y-6186017D02*
X4344517Y-6132983D01*
X4291483Y-6132983D01*
X4291483Y-6186017D01*
X4344517Y-6186017D01*
X3238500Y-4548500D02*
X3278500Y-4508500D01*
X3238500Y-4468500D01*
X3198500Y-4508500D01*
X3238500Y-4548500D01*
X3238500Y-4929500D02*
X3278500Y-4889500D01*
X3238500Y-4849500D01*
X3198500Y-4889500D01*
X3238500Y-4929500D01*
X3238500Y-5247000D02*
X3278500Y-5207000D01*
X3238500Y-5167000D01*
X3198500Y-5207000D01*
X3238500Y-5247000D01*
X3238500Y-6199500D02*
X3278500Y-6159500D01*
X3238500Y-6119500D01*
X3198500Y-6159500D01*
X3238500Y-6199500D01*
X3238500Y-6580500D02*
X3278500Y-6540500D01*
X3238500Y-6500500D01*
X3198500Y-6540500D01*
X3238500Y-6580500D01*
X3242500Y-4167500D02*
X3282500Y-4127500D01*
X3242500Y-4087500D01*
X3202500Y-4127500D01*
X3242500Y-4167500D01*
X3302000Y-2834000D02*
X3342000Y-2794000D01*
X3302000Y-2754000D01*
X3262000Y-2794000D01*
X3302000Y-2834000D01*
X3302000Y-3151500D02*
X3342000Y-3111500D01*
X3302000Y-3071500D01*
X3262000Y-3111500D01*
X3302000Y-3151500D01*
X3738500Y-6199500D02*
X3778500Y-6159500D01*
X3738500Y-6119500D01*
X3698500Y-6159500D01*
X3738500Y-6199500D01*
X3742500Y-4167500D02*
X3782500Y-4127500D01*
X3742500Y-4087500D01*
X3702500Y-4127500D01*
X3742500Y-4167500D01*
X4254500Y-4548500D02*
X4294500Y-4508500D01*
X4254500Y-4468500D01*
X4214500Y-4508500D01*
X4254500Y-4548500D01*
X4254500Y-4929500D02*
X4294500Y-4889500D01*
X4254500Y-4849500D01*
X4214500Y-4889500D01*
X4254500Y-4929500D01*
X4254500Y-5247000D02*
X4294500Y-5207000D01*
X4254500Y-5167000D01*
X4214500Y-5207000D01*
X4254500Y-5247000D01*
X4254500Y-6580500D02*
X4294500Y-6540500D01*
X4254500Y-6500500D01*
X4214500Y-6540500D01*
X4254500Y-6580500D01*
X4318000Y-2834000D02*
X4358000Y-2794000D01*
X4318000Y-2754000D01*
X4278000Y-2794000D01*
X4318000Y-2834000D01*
X4318000Y-3151500D02*
X4358000Y-3111500D01*
X4318000Y-3071500D01*
X4278000Y-3111500D01*
X4318000Y-3151500D01*
X4635500Y-3977000D02*
X4675500Y-3937000D01*
X4635500Y-3897000D01*
X4595500Y-3937000D01*
X4635500Y-3977000D01*
X4635500Y-4231000D02*
X4675500Y-4191000D01*
X4635500Y-4151000D01*
X4595500Y-4191000D01*
X4635500Y-4231000D01*
X4635500Y-4485000D02*
X4675500Y-4445000D01*
X4635500Y-4405000D01*
X4595500Y-4445000D01*
X4635500Y-4485000D01*
X4635500Y-4739000D02*
X4675500Y-4699000D01*
X4635500Y-4659000D01*
X4595500Y-4699000D01*
X4635500Y-4739000D01*
X4766500Y-3596000D02*
X4806500Y-3556000D01*
X4766500Y-3516000D01*
X4726500Y-3556000D01*
X4766500Y-3596000D01*
X5080000Y-5183500D02*
X5120000Y-5143500D01*
X5080000Y-5103500D01*
X5040000Y-5143500D01*
X5080000Y-5183500D01*
X5266500Y-3596000D02*
X5306500Y-3556000D01*
X5266500Y-3516000D01*
X5226500Y-3556000D01*
X5266500Y-3596000D01*
X5397500Y-3977000D02*
X5437500Y-3937000D01*
X5397500Y-3897000D01*
X5357500Y-3937000D01*
X5397500Y-3977000D01*
X5397500Y-4231000D02*
X5437500Y-4191000D01*
X5397500Y-4151000D01*
X5357500Y-4191000D01*
X5397500Y-4231000D01*
X5397500Y-4485000D02*
X5437500Y-4445000D01*
X5397500Y-4405000D01*
X5357500Y-4445000D01*
X5397500Y-4485000D01*
X5397500Y-4739000D02*
X5437500Y-4699000D01*
X5397500Y-4659000D01*
X5357500Y-4699000D01*
X5397500Y-4739000D01*
X6096000Y-5183500D02*
X6136000Y-5143500D01*
X6096000Y-5103500D01*
X6056000Y-5143500D01*
X6096000Y-5183500D01*
X6096000Y-5505000D02*
X6136000Y-5465000D01*
X6096000Y-5425000D01*
X6056000Y-5465000D01*
X6096000Y-5505000D01*
X6096000Y-6005000D02*
X6136000Y-5965000D01*
X6096000Y-5925000D01*
X6056000Y-5965000D01*
X6096000Y-6005000D01*
X7874000Y-5183500D02*
X7914000Y-5143500D01*
X7874000Y-5103500D01*
X7834000Y-5143500D01*
X7874000Y-5183500D01*
X7874000Y-5505000D02*
X7914000Y-5465000D01*
X7874000Y-5425000D01*
X7834000Y-5465000D01*
X7874000Y-5505000D01*
X7874000Y-6005000D02*
X7914000Y-5965000D01*
X7874000Y-5925000D01*
X7834000Y-5965000D01*
X7874000Y-6005000D01*
X8572500Y-3977000D02*
X8612500Y-3937000D01*
X8572500Y-3897000D01*
X8532500Y-3937000D01*
X8572500Y-3977000D01*
X8572500Y-4231000D02*
X8612500Y-4191000D01*
X8572500Y-4151000D01*
X8532500Y-4191000D01*
X8572500Y-4231000D01*
X8572500Y-4485000D02*
X8612500Y-4445000D01*
X8572500Y-4405000D01*
X8532500Y-4445000D01*
X8572500Y-4485000D01*
X8572500Y-4739000D02*
X8612500Y-4699000D01*
X8572500Y-4659000D01*
X8532500Y-4699000D01*
X8572500Y-4739000D01*
X8707500Y-3596000D02*
X8747500Y-3556000D01*
X8707500Y-3516000D01*
X8667500Y-3556000D01*
X8707500Y-3596000D01*
X8890000Y-5183500D02*
X8930000Y-5143500D01*
X8890000Y-5103500D01*
X8850000Y-5143500D01*
X8890000Y-5183500D01*
X9207500Y-3596000D02*
X9247500Y-3556000D01*
X9207500Y-3516000D01*
X9167500Y-3556000D01*
X9207500Y-3596000D01*
X9334500Y-3977000D02*
X9374500Y-3937000D01*
X9334500Y-3897000D01*
X9294500Y-3937000D01*
X9334500Y-3977000D01*
X9334500Y-4231000D02*
X9374500Y-4191000D01*
X9334500Y-4151000D01*
X9294500Y-4191000D01*
X9334500Y-4231000D01*
X9334500Y-4485000D02*
X9374500Y-4445000D01*
X9334500Y-4405000D01*
X9294500Y-4445000D01*
X9334500Y-4485000D01*
X9334500Y-4739000D02*
X9374500Y-4699000D01*
X9334500Y-4659000D01*
X9294500Y-4699000D01*
X9334500Y-4739000D01*
X2860105Y-5030000D02*
X2960105Y-5130000D01*
X2960105Y-5030000D02*
X2860105Y-5130000D01*
X2960105Y-5080000D02*
G75*
G02*
X2860105Y-5080000I-50000J0D01*
G01*
X2860105Y-5080000D02*
G75*
G02*
X2960105Y-5080000I50000J0D01*
G01*
X2860105Y-5284000D02*
X2960105Y-5384000D01*
X2960105Y-5284000D02*
X2860105Y-5384000D01*
X2960105Y-5334000D02*
G75*
G02*
X2860105Y-5334000I-50000J0D01*
G01*
X2860105Y-5334000D02*
G75*
G02*
X2960105Y-5334000I50000J0D01*
G01*
X2860105Y-5792000D02*
X2960105Y-5892000D01*
X2960105Y-5792000D02*
X2860105Y-5892000D01*
X2960105Y-5842000D02*
G75*
G02*
X2860105Y-5842000I-50000J0D01*
G01*
X2860105Y-5842000D02*
G75*
G02*
X2960105Y-5842000I50000J0D01*
G01*
X2860105Y-6046000D02*
X2960105Y-6146000D01*
X2960105Y-6046000D02*
X2860105Y-6146000D01*
X2960105Y-6096000D02*
G75*
G02*
X2860105Y-6096000I-50000J0D01*
G01*
X2860105Y-6096000D02*
G75*
G02*
X2960105Y-6096000I50000J0D01*
G01*
X2860105Y-6300000D02*
X2960105Y-6400000D01*
X2960105Y-6300000D02*
X2860105Y-6400000D01*
X2960105Y-6350000D02*
G75*
G02*
X2860105Y-6350000I-50000J0D01*
G01*
X2860105Y-6350000D02*
G75*
G02*
X2960105Y-6350000I50000J0D01*
G01*
X5284000Y-5682232D02*
X5384000Y-5782232D01*
X5384000Y-5682232D02*
X5284000Y-5782232D01*
X5384000Y-5732232D02*
G75*
G02*
X5284000Y-5732232I-50000J0D01*
G01*
X5284000Y-5732232D02*
G75*
G02*
X5384000Y-5732232I50000J0D01*
G01*
X5284000Y-6182232D02*
X5384000Y-6282232D01*
X5384000Y-6182232D02*
X5284000Y-6282232D01*
X5384000Y-6232232D02*
G75*
G02*
X5284000Y-6232232I-50000J0D01*
G01*
X5284000Y-6232232D02*
G75*
G02*
X5384000Y-6232232I50000J0D01*
G01*
X5792000Y-6554000D02*
X5892000Y-6654000D01*
X5892000Y-6554000D02*
X5792000Y-6654000D01*
X5892000Y-6604000D02*
G75*
G02*
X5792000Y-6604000I-50000J0D01*
G01*
X5792000Y-6604000D02*
G75*
G02*
X5892000Y-6604000I50000J0D01*
G01*
X6046000Y-6554000D02*
X6146000Y-6654000D01*
X6146000Y-6554000D02*
X6046000Y-6654000D01*
X6146000Y-6604000D02*
G75*
G02*
X6046000Y-6604000I-50000J0D01*
G01*
X6046000Y-6604000D02*
G75*
G02*
X6146000Y-6604000I50000J0D01*
G01*
X6300000Y-6554000D02*
X6400000Y-6654000D01*
X6400000Y-6554000D02*
X6300000Y-6654000D01*
X6400000Y-6604000D02*
G75*
G02*
X6300000Y-6604000I-50000J0D01*
G01*
X6300000Y-6604000D02*
G75*
G02*
X6400000Y-6604000I50000J0D01*
G01*
X6808000Y-6554000D02*
X6908000Y-6654000D01*
X6908000Y-6554000D02*
X6808000Y-6654000D01*
X6908000Y-6604000D02*
G75*
G02*
X6808000Y-6604000I-50000J0D01*
G01*
X6808000Y-6604000D02*
G75*
G02*
X6908000Y-6604000I50000J0D01*
G01*
X7062000Y-6554000D02*
X7162000Y-6654000D01*
X7162000Y-6554000D02*
X7062000Y-6654000D01*
X7162000Y-6604000D02*
G75*
G02*
X7062000Y-6604000I-50000J0D01*
G01*
X7062000Y-6604000D02*
G75*
G02*
X7162000Y-6604000I50000J0D01*
G01*
X8586000Y-5673000D02*
X8686000Y-5773000D01*
X8686000Y-5673000D02*
X8586000Y-5773000D01*
X8686000Y-5723000D02*
G75*
G02*
X8586000Y-5723000I-50000J0D01*
G01*
X8586000Y-5723000D02*
G75*
G02*
X8686000Y-5723000I50000J0D01*
G01*
X8586000Y-6173000D02*
X8686000Y-6273000D01*
X8686000Y-6173000D02*
X8586000Y-6273000D01*
X8686000Y-6223000D02*
G75*
G02*
X8586000Y-6223000I-50000J0D01*
G01*
X8586000Y-6223000D02*
G75*
G02*
X8686000Y-6223000I50000J0D01*
G01*
X9348000Y-5093500D02*
X9448000Y-5193500D01*
X9448000Y-5093500D02*
X9348000Y-5193500D01*
X9448000Y-5143500D02*
G75*
G02*
X9348000Y-5143500I-50000J0D01*
G01*
X9348000Y-5143500D02*
G75*
G02*
X9448000Y-5143500I50000J0D01*
G01*
X9348000Y-5347500D02*
X9448000Y-5447500D01*
X9448000Y-5347500D02*
X9348000Y-5447500D01*
X9448000Y-5397500D02*
G75*
G02*
X9348000Y-5397500I-50000J0D01*
G01*
X9348000Y-5397500D02*
G75*
G02*
X9448000Y-5397500I50000J0D01*
G01*
X9348000Y-5855500D02*
X9448000Y-5955500D01*
X9448000Y-5855500D02*
X9348000Y-5955500D01*
X9448000Y-5905500D02*
G75*
G02*
X9348000Y-5905500I-50000J0D01*
G01*
X9348000Y-5905500D02*
G75*
G02*
X9448000Y-5905500I50000J0D01*
G01*
X9348000Y-6109500D02*
X9448000Y-6209500D01*
X9448000Y-6109500D02*
X9348000Y-6209500D01*
X9448000Y-6159500D02*
G75*
G02*
X9348000Y-6159500I-50000J0D01*
G01*
X9348000Y-6159500D02*
G75*
G02*
X9448000Y-6159500I50000J0D01*
G01*
X9348000Y-6363500D02*
X9448000Y-6463500D01*
X9448000Y-6363500D02*
X9348000Y-6463500D01*
X9448000Y-6413500D02*
G75*
G02*
X9348000Y-6413500I-50000J0D01*
G01*
X9348000Y-6413500D02*
G75*
G02*
X9448000Y-6413500I50000J0D01*
G01*
D13*
X6925000Y-5409000D02*
X7045000Y-5529000D01*
X7045000Y-5409000D02*
X6925000Y-5529000D01*
X6985000Y-5409000D02*
X6985000Y-5529000D01*
X6925000Y-5469000D02*
X7045000Y-5469000D01*
X6925000Y-5909000D02*
X7045000Y-6029000D01*
X7045000Y-5909000D02*
X6925000Y-6029000D01*
X6985000Y-5909000D02*
X6985000Y-6029000D01*
X6925000Y-5969000D02*
X7045000Y-5969000D01*
D14*
X6412000Y-2856000D02*
X6542000Y-2986000D01*
X6542000Y-2856000D02*
X6412000Y-2986000D01*
X6522962Y-2966962D02*
X6522962Y-2875038D01*
X6431038Y-2875038D01*
X6431038Y-2966962D01*
X6522962Y-2966962D01*
X6412000Y-3872000D02*
X6542000Y-4002000D01*
X6542000Y-3872000D02*
X6412000Y-4002000D01*
X6522962Y-3982962D02*
X6522962Y-3891038D01*
X6431038Y-3891038D01*
X6431038Y-3982962D01*
X6522962Y-3982962D01*
X6928000Y-2856000D02*
X7058000Y-2986000D01*
X7058000Y-2856000D02*
X6928000Y-2986000D01*
X7038962Y-2966962D02*
X7038962Y-2875038D01*
X6947038Y-2875038D01*
X6947038Y-2966962D01*
X7038962Y-2966962D01*
X6928000Y-3872000D02*
X7058000Y-4002000D01*
X7058000Y-3872000D02*
X6928000Y-4002000D01*
X7038962Y-3982962D02*
X7038962Y-3891038D01*
X6947038Y-3891038D01*
X6947038Y-3982962D01*
X7038962Y-3982962D01*
X7428000Y-2856000D02*
X7558000Y-2986000D01*
X7558000Y-2856000D02*
X7428000Y-2986000D01*
X7538962Y-2966962D02*
X7538962Y-2875038D01*
X7447038Y-2875038D01*
X7447038Y-2966962D01*
X7538962Y-2966962D01*
X7428000Y-3872000D02*
X7558000Y-4002000D01*
X7558000Y-3872000D02*
X7428000Y-4002000D01*
X7538962Y-3982962D02*
X7538962Y-3891038D01*
X7447038Y-3891038D01*
X7447038Y-3982962D01*
X7538962Y-3982962D01*
D15*
X4666000Y-2761000D02*
X4986000Y-3081000D01*
X4986000Y-2761000D02*
X4666000Y-3081000D01*
X4826000Y-3081000D02*
X4986000Y-2921000D01*
X4826000Y-2761000D01*
X4666000Y-2921000D01*
X4826000Y-3081000D01*
X8984000Y-2761000D02*
X9304000Y-3081000D01*
X9304000Y-2761000D02*
X8984000Y-3081000D01*
X9144000Y-3081000D02*
X9304000Y-2921000D01*
X9144000Y-2761000D01*
X8984000Y-2921000D01*
X9144000Y-3081000D01*
D11*
X3041382Y-7044984D02*
X3041382Y-6844984D01*
X3041382Y-6844984D02*
X3089001Y-6844984D01*
X3089001Y-6844984D02*
X3117572Y-6854508D01*
X3117572Y-6854508D02*
X3136620Y-6873555D01*
X3136620Y-6873555D02*
X3146144Y-6892603D01*
X3146144Y-6892603D02*
X3155668Y-6930698D01*
X3155668Y-6930698D02*
X3155668Y-6959269D01*
X3155668Y-6959269D02*
X3146144Y-6997365D01*
X3146144Y-6997365D02*
X3136620Y-7016412D01*
X3136620Y-7016412D02*
X3117572Y-7035460D01*
X3117572Y-7035460D02*
X3089001Y-7044984D01*
X3089001Y-7044984D02*
X3041382Y-7044984D01*
X3241382Y-7044984D02*
X3241382Y-6911650D01*
X3241382Y-6949746D02*
X3250906Y-6930698D01*
X3250906Y-6930698D02*
X3260429Y-6921174D01*
X3260429Y-6921174D02*
X3279477Y-6911650D01*
X3279477Y-6911650D02*
X3298525Y-6911650D01*
X3365191Y-7044984D02*
X3365191Y-6911650D01*
X3365191Y-6844984D02*
X3355668Y-6854508D01*
X3355668Y-6854508D02*
X3365191Y-6864031D01*
X3365191Y-6864031D02*
X3374715Y-6854508D01*
X3374715Y-6854508D02*
X3365191Y-6844984D01*
X3365191Y-6844984D02*
X3365191Y-6864031D01*
X3489001Y-7044984D02*
X3469953Y-7035460D01*
X3469953Y-7035460D02*
X3460429Y-7016412D01*
X3460429Y-7016412D02*
X3460429Y-6844984D01*
X3593763Y-7044984D02*
X3574715Y-7035460D01*
X3574715Y-7035460D02*
X3565191Y-7016412D01*
X3565191Y-7016412D02*
X3565191Y-6844984D01*
X3822334Y-7044984D02*
X3822334Y-6844984D01*
X3822334Y-6844984D02*
X3889001Y-6987841D01*
X3889001Y-6987841D02*
X3955668Y-6844984D01*
X3955668Y-6844984D02*
X3955668Y-7044984D01*
X4136620Y-7044984D02*
X4136620Y-6940222D01*
X4136620Y-6940222D02*
X4127096Y-6921174D01*
X4127096Y-6921174D02*
X4108049Y-6911650D01*
X4108049Y-6911650D02*
X4069953Y-6911650D01*
X4069953Y-6911650D02*
X4050906Y-6921174D01*
X4136620Y-7035460D02*
X4117572Y-7044984D01*
X4117572Y-7044984D02*
X4069953Y-7044984D01*
X4069953Y-7044984D02*
X4050906Y-7035460D01*
X4050906Y-7035460D02*
X4041382Y-7016412D01*
X4041382Y-7016412D02*
X4041382Y-6997365D01*
X4041382Y-6997365D02*
X4050906Y-6978317D01*
X4050906Y-6978317D02*
X4069953Y-6968793D01*
X4069953Y-6968793D02*
X4117572Y-6968793D01*
X4117572Y-6968793D02*
X4136620Y-6959269D01*
X4231858Y-6911650D02*
X4231858Y-7111650D01*
X4231858Y-6921174D02*
X4250906Y-6911650D01*
X4250906Y-6911650D02*
X4289001Y-6911650D01*
X4289001Y-6911650D02*
X4308049Y-6921174D01*
X4308049Y-6921174D02*
X4317572Y-6930698D01*
X4317572Y-6930698D02*
X4327096Y-6949746D01*
X4327096Y-6949746D02*
X4327096Y-7006888D01*
X4327096Y-7006888D02*
X4317572Y-7025936D01*
X4317572Y-7025936D02*
X4308049Y-7035460D01*
X4308049Y-7035460D02*
X4289001Y-7044984D01*
X4289001Y-7044984D02*
X4250906Y-7044984D01*
X4250906Y-7044984D02*
X4231858Y-7035460D01*
X4412811Y-7025936D02*
X4422334Y-7035460D01*
X4422334Y-7035460D02*
X4412811Y-7044984D01*
X4412811Y-7044984D02*
X4403287Y-7035460D01*
X4403287Y-7035460D02*
X4412811Y-7025936D01*
X4412811Y-7025936D02*
X4412811Y-7044984D01*
X4412811Y-6921174D02*
X4422334Y-6930698D01*
X4422334Y-6930698D02*
X4412811Y-6940222D01*
X4412811Y-6940222D02*
X4403287Y-6930698D01*
X4403287Y-6930698D02*
X4412811Y-6921174D01*
X4412811Y-6921174D02*
X4412811Y-6940222D01*
D12*
X2750605Y-7358500D02*
X2780605Y-7388500D01*
X2780605Y-7358500D02*
X2750605Y-7388500D01*
D11*
X3079477Y-7264984D02*
X3098525Y-7264984D01*
X3098525Y-7264984D02*
X3117572Y-7274508D01*
X3117572Y-7274508D02*
X3127096Y-7284031D01*
X3127096Y-7284031D02*
X3136620Y-7303079D01*
X3136620Y-7303079D02*
X3146144Y-7341174D01*
X3146144Y-7341174D02*
X3146144Y-7388793D01*
X3146144Y-7388793D02*
X3136620Y-7426888D01*
X3136620Y-7426888D02*
X3127096Y-7445936D01*
X3127096Y-7445936D02*
X3117572Y-7455460D01*
X3117572Y-7455460D02*
X3098525Y-7464984D01*
X3098525Y-7464984D02*
X3079477Y-7464984D01*
X3079477Y-7464984D02*
X3060429Y-7455460D01*
X3060429Y-7455460D02*
X3050906Y-7445936D01*
X3050906Y-7445936D02*
X3041382Y-7426888D01*
X3041382Y-7426888D02*
X3031858Y-7388793D01*
X3031858Y-7388793D02*
X3031858Y-7341174D01*
X3031858Y-7341174D02*
X3041382Y-7303079D01*
X3041382Y-7303079D02*
X3050906Y-7284031D01*
X3050906Y-7284031D02*
X3060429Y-7274508D01*
X3060429Y-7274508D02*
X3079477Y-7264984D01*
X3231858Y-7445936D02*
X3241382Y-7455460D01*
X3241382Y-7455460D02*
X3231858Y-7464984D01*
X3231858Y-7464984D02*
X3222334Y-7455460D01*
X3222334Y-7455460D02*
X3231858Y-7445936D01*
X3231858Y-7445936D02*
X3231858Y-7464984D01*
X3308049Y-7264984D02*
X3431858Y-7264984D01*
X3431858Y-7264984D02*
X3365191Y-7341174D01*
X3365191Y-7341174D02*
X3393763Y-7341174D01*
X3393763Y-7341174D02*
X3412810Y-7350698D01*
X3412810Y-7350698D02*
X3422334Y-7360222D01*
X3422334Y-7360222D02*
X3431858Y-7379269D01*
X3431858Y-7379269D02*
X3431858Y-7426888D01*
X3431858Y-7426888D02*
X3422334Y-7445936D01*
X3422334Y-7445936D02*
X3412810Y-7455460D01*
X3412810Y-7455460D02*
X3393763Y-7464984D01*
X3393763Y-7464984D02*
X3336620Y-7464984D01*
X3336620Y-7464984D02*
X3317572Y-7455460D01*
X3317572Y-7455460D02*
X3308049Y-7445936D01*
X3555668Y-7264984D02*
X3574715Y-7264984D01*
X3574715Y-7264984D02*
X3593763Y-7274508D01*
X3593763Y-7274508D02*
X3603287Y-7284031D01*
X3603287Y-7284031D02*
X3612810Y-7303079D01*
X3612810Y-7303079D02*
X3622334Y-7341174D01*
X3622334Y-7341174D02*
X3622334Y-7388793D01*
X3622334Y-7388793D02*
X3612810Y-7426888D01*
X3612810Y-7426888D02*
X3603287Y-7445936D01*
X3603287Y-7445936D02*
X3593763Y-7455460D01*
X3593763Y-7455460D02*
X3574715Y-7464984D01*
X3574715Y-7464984D02*
X3555668Y-7464984D01*
X3555668Y-7464984D02*
X3536620Y-7455460D01*
X3536620Y-7455460D02*
X3527096Y-7445936D01*
X3527096Y-7445936D02*
X3517572Y-7426888D01*
X3517572Y-7426888D02*
X3508049Y-7388793D01*
X3508049Y-7388793D02*
X3508049Y-7341174D01*
X3508049Y-7341174D02*
X3517572Y-7303079D01*
X3517572Y-7303079D02*
X3527096Y-7284031D01*
X3527096Y-7284031D02*
X3536620Y-7274508D01*
X3536620Y-7274508D02*
X3555668Y-7264984D01*
X3746144Y-7264984D02*
X3765191Y-7264984D01*
X3765191Y-7264984D02*
X3784239Y-7274508D01*
X3784239Y-7274508D02*
X3793763Y-7284031D01*
X3793763Y-7284031D02*
X3803287Y-7303079D01*
X3803287Y-7303079D02*
X3812810Y-7341174D01*
X3812810Y-7341174D02*
X3812810Y-7388793D01*
X3812810Y-7388793D02*
X3803287Y-7426888D01*
X3803287Y-7426888D02*
X3793763Y-7445936D01*
X3793763Y-7445936D02*
X3784239Y-7455460D01*
X3784239Y-7455460D02*
X3765191Y-7464984D01*
X3765191Y-7464984D02*
X3746144Y-7464984D01*
X3746144Y-7464984D02*
X3727096Y-7455460D01*
X3727096Y-7455460D02*
X3717572Y-7445936D01*
X3717572Y-7445936D02*
X3708049Y-7426888D01*
X3708049Y-7426888D02*
X3698525Y-7388793D01*
X3698525Y-7388793D02*
X3698525Y-7341174D01*
X3698525Y-7341174D02*
X3708049Y-7303079D01*
X3708049Y-7303079D02*
X3717572Y-7284031D01*
X3717572Y-7284031D02*
X3727096Y-7274508D01*
X3727096Y-7274508D02*
X3746144Y-7264984D01*
X3898525Y-7464984D02*
X3898525Y-7331650D01*
X3898525Y-7350698D02*
X3908049Y-7341174D01*
X3908049Y-7341174D02*
X3927096Y-7331650D01*
X3927096Y-7331650D02*
X3955668Y-7331650D01*
X3955668Y-7331650D02*
X3974715Y-7341174D01*
X3974715Y-7341174D02*
X3984239Y-7360222D01*
X3984239Y-7360222D02*
X3984239Y-7464984D01*
X3984239Y-7360222D02*
X3993763Y-7341174D01*
X3993763Y-7341174D02*
X4012810Y-7331650D01*
X4012810Y-7331650D02*
X4041382Y-7331650D01*
X4041382Y-7331650D02*
X4060430Y-7341174D01*
X4060430Y-7341174D02*
X4069953Y-7360222D01*
X4069953Y-7360222D02*
X4069953Y-7464984D01*
X4165191Y-7464984D02*
X4165191Y-7331650D01*
X4165191Y-7350698D02*
X4174715Y-7341174D01*
X4174715Y-7341174D02*
X4193763Y-7331650D01*
X4193763Y-7331650D02*
X4222334Y-7331650D01*
X4222334Y-7331650D02*
X4241382Y-7341174D01*
X4241382Y-7341174D02*
X4250906Y-7360222D01*
X4250906Y-7360222D02*
X4250906Y-7464984D01*
X4250906Y-7360222D02*
X4260430Y-7341174D01*
X4260430Y-7341174D02*
X4279477Y-7331650D01*
X4279477Y-7331650D02*
X4308049Y-7331650D01*
X4308049Y-7331650D02*
X4327096Y-7341174D01*
X4327096Y-7341174D02*
X4336620Y-7360222D01*
X4336620Y-7360222D02*
X4336620Y-7464984D01*
X4727096Y-7255460D02*
X4555668Y-7512603D01*
X4984239Y-7264984D02*
X5003287Y-7264984D01*
X5003287Y-7264984D02*
X5022335Y-7274508D01*
X5022335Y-7274508D02*
X5031858Y-7284031D01*
X5031858Y-7284031D02*
X5041382Y-7303079D01*
X5041382Y-7303079D02*
X5050906Y-7341174D01*
X5050906Y-7341174D02*
X5050906Y-7388793D01*
X5050906Y-7388793D02*
X5041382Y-7426888D01*
X5041382Y-7426888D02*
X5031858Y-7445936D01*
X5031858Y-7445936D02*
X5022335Y-7455460D01*
X5022335Y-7455460D02*
X5003287Y-7464984D01*
X5003287Y-7464984D02*
X4984239Y-7464984D01*
X4984239Y-7464984D02*
X4965192Y-7455460D01*
X4965192Y-7455460D02*
X4955668Y-7445936D01*
X4955668Y-7445936D02*
X4946144Y-7426888D01*
X4946144Y-7426888D02*
X4936620Y-7388793D01*
X4936620Y-7388793D02*
X4936620Y-7341174D01*
X4936620Y-7341174D02*
X4946144Y-7303079D01*
X4946144Y-7303079D02*
X4955668Y-7284031D01*
X4955668Y-7284031D02*
X4965192Y-7274508D01*
X4965192Y-7274508D02*
X4984239Y-7264984D01*
X5136620Y-7445936D02*
X5146144Y-7455460D01*
X5146144Y-7455460D02*
X5136620Y-7464984D01*
X5136620Y-7464984D02*
X5127096Y-7455460D01*
X5127096Y-7455460D02*
X5136620Y-7445936D01*
X5136620Y-7445936D02*
X5136620Y-7464984D01*
X5269954Y-7264984D02*
X5289001Y-7264984D01*
X5289001Y-7264984D02*
X5308049Y-7274508D01*
X5308049Y-7274508D02*
X5317573Y-7284031D01*
X5317573Y-7284031D02*
X5327096Y-7303079D01*
X5327096Y-7303079D02*
X5336620Y-7341174D01*
X5336620Y-7341174D02*
X5336620Y-7388793D01*
X5336620Y-7388793D02*
X5327096Y-7426888D01*
X5327096Y-7426888D02*
X5317573Y-7445936D01*
X5317573Y-7445936D02*
X5308049Y-7455460D01*
X5308049Y-7455460D02*
X5289001Y-7464984D01*
X5289001Y-7464984D02*
X5269954Y-7464984D01*
X5269954Y-7464984D02*
X5250906Y-7455460D01*
X5250906Y-7455460D02*
X5241382Y-7445936D01*
X5241382Y-7445936D02*
X5231858Y-7426888D01*
X5231858Y-7426888D02*
X5222335Y-7388793D01*
X5222335Y-7388793D02*
X5222335Y-7341174D01*
X5222335Y-7341174D02*
X5231858Y-7303079D01*
X5231858Y-7303079D02*
X5241382Y-7284031D01*
X5241382Y-7284031D02*
X5250906Y-7274508D01*
X5250906Y-7274508D02*
X5269954Y-7264984D01*
X5527096Y-7464984D02*
X5412811Y-7464984D01*
X5469954Y-7464984D02*
X5469954Y-7264984D01*
X5469954Y-7264984D02*
X5450906Y-7293555D01*
X5450906Y-7293555D02*
X5431858Y-7312603D01*
X5431858Y-7312603D02*
X5412811Y-7322127D01*
X5717573Y-7464984D02*
X5603287Y-7464984D01*
X5660430Y-7464984D02*
X5660430Y-7264984D01*
X5660430Y-7264984D02*
X5641382Y-7293555D01*
X5641382Y-7293555D02*
X5622334Y-7312603D01*
X5622334Y-7312603D02*
X5603287Y-7322127D01*
X5831858Y-7350698D02*
X5812811Y-7341174D01*
X5812811Y-7341174D02*
X5803287Y-7331650D01*
X5803287Y-7331650D02*
X5793763Y-7312603D01*
X5793763Y-7312603D02*
X5793763Y-7303079D01*
X5793763Y-7303079D02*
X5803287Y-7284031D01*
X5803287Y-7284031D02*
X5812811Y-7274508D01*
X5812811Y-7274508D02*
X5831858Y-7264984D01*
X5831858Y-7264984D02*
X5869954Y-7264984D01*
X5869954Y-7264984D02*
X5889001Y-7274508D01*
X5889001Y-7274508D02*
X5898525Y-7284031D01*
X5898525Y-7284031D02*
X5908049Y-7303079D01*
X5908049Y-7303079D02*
X5908049Y-7312603D01*
X5908049Y-7312603D02*
X5898525Y-7331650D01*
X5898525Y-7331650D02*
X5889001Y-7341174D01*
X5889001Y-7341174D02*
X5869954Y-7350698D01*
X5869954Y-7350698D02*
X5831858Y-7350698D01*
X5831858Y-7350698D02*
X5812811Y-7360222D01*
X5812811Y-7360222D02*
X5803287Y-7369746D01*
X5803287Y-7369746D02*
X5793763Y-7388793D01*
X5793763Y-7388793D02*
X5793763Y-7426888D01*
X5793763Y-7426888D02*
X5803287Y-7445936D01*
X5803287Y-7445936D02*
X5812811Y-7455460D01*
X5812811Y-7455460D02*
X5831858Y-7464984D01*
X5831858Y-7464984D02*
X5869954Y-7464984D01*
X5869954Y-7464984D02*
X5889001Y-7455460D01*
X5889001Y-7455460D02*
X5898525Y-7445936D01*
X5898525Y-7445936D02*
X5908049Y-7426888D01*
X5908049Y-7426888D02*
X5908049Y-7388793D01*
X5908049Y-7388793D02*
X5898525Y-7369746D01*
X5898525Y-7369746D02*
X5889001Y-7360222D01*
X5889001Y-7360222D02*
X5869954Y-7350698D01*
X5984239Y-7264984D02*
X5984239Y-7303079D01*
X6060430Y-7264984D02*
X6060430Y-7303079D01*
X6355668Y-7541174D02*
X6346144Y-7531650D01*
X6346144Y-7531650D02*
X6327096Y-7503079D01*
X6327096Y-7503079D02*
X6317573Y-7484031D01*
X6317573Y-7484031D02*
X6308049Y-7455460D01*
X6308049Y-7455460D02*
X6298525Y-7407841D01*
X6298525Y-7407841D02*
X6298525Y-7369746D01*
X6298525Y-7369746D02*
X6308049Y-7322127D01*
X6308049Y-7322127D02*
X6317573Y-7293555D01*
X6317573Y-7293555D02*
X6327096Y-7274508D01*
X6327096Y-7274508D02*
X6346144Y-7245936D01*
X6346144Y-7245936D02*
X6355668Y-7236412D01*
X6527096Y-7264984D02*
X6431858Y-7264984D01*
X6431858Y-7264984D02*
X6422335Y-7360222D01*
X6422335Y-7360222D02*
X6431858Y-7350698D01*
X6431858Y-7350698D02*
X6450906Y-7341174D01*
X6450906Y-7341174D02*
X6498525Y-7341174D01*
X6498525Y-7341174D02*
X6517573Y-7350698D01*
X6517573Y-7350698D02*
X6527096Y-7360222D01*
X6527096Y-7360222D02*
X6536620Y-7379269D01*
X6536620Y-7379269D02*
X6536620Y-7426888D01*
X6536620Y-7426888D02*
X6527096Y-7445936D01*
X6527096Y-7445936D02*
X6517573Y-7455460D01*
X6517573Y-7455460D02*
X6498525Y-7464984D01*
X6498525Y-7464984D02*
X6450906Y-7464984D01*
X6450906Y-7464984D02*
X6431858Y-7455460D01*
X6431858Y-7455460D02*
X6422335Y-7445936D01*
X6774716Y-7464984D02*
X6774716Y-7264984D01*
X6860430Y-7464984D02*
X6860430Y-7360222D01*
X6860430Y-7360222D02*
X6850906Y-7341174D01*
X6850906Y-7341174D02*
X6831858Y-7331650D01*
X6831858Y-7331650D02*
X6803287Y-7331650D01*
X6803287Y-7331650D02*
X6784239Y-7341174D01*
X6784239Y-7341174D02*
X6774716Y-7350698D01*
X6984239Y-7464984D02*
X6965192Y-7455460D01*
X6965192Y-7455460D02*
X6955668Y-7445936D01*
X6955668Y-7445936D02*
X6946144Y-7426888D01*
X6946144Y-7426888D02*
X6946144Y-7369746D01*
X6946144Y-7369746D02*
X6955668Y-7350698D01*
X6955668Y-7350698D02*
X6965192Y-7341174D01*
X6965192Y-7341174D02*
X6984239Y-7331650D01*
X6984239Y-7331650D02*
X7012811Y-7331650D01*
X7012811Y-7331650D02*
X7031858Y-7341174D01*
X7031858Y-7341174D02*
X7041382Y-7350698D01*
X7041382Y-7350698D02*
X7050906Y-7369746D01*
X7050906Y-7369746D02*
X7050906Y-7426888D01*
X7050906Y-7426888D02*
X7041382Y-7445936D01*
X7041382Y-7445936D02*
X7031858Y-7455460D01*
X7031858Y-7455460D02*
X7012811Y-7464984D01*
X7012811Y-7464984D02*
X6984239Y-7464984D01*
X7165192Y-7464984D02*
X7146144Y-7455460D01*
X7146144Y-7455460D02*
X7136620Y-7436412D01*
X7136620Y-7436412D02*
X7136620Y-7264984D01*
X7317573Y-7455460D02*
X7298525Y-7464984D01*
X7298525Y-7464984D02*
X7260430Y-7464984D01*
X7260430Y-7464984D02*
X7241382Y-7455460D01*
X7241382Y-7455460D02*
X7231858Y-7436412D01*
X7231858Y-7436412D02*
X7231858Y-7360222D01*
X7231858Y-7360222D02*
X7241382Y-7341174D01*
X7241382Y-7341174D02*
X7260430Y-7331650D01*
X7260430Y-7331650D02*
X7298525Y-7331650D01*
X7298525Y-7331650D02*
X7317573Y-7341174D01*
X7317573Y-7341174D02*
X7327097Y-7360222D01*
X7327097Y-7360222D02*
X7327097Y-7379269D01*
X7327097Y-7379269D02*
X7231858Y-7398317D01*
X7403287Y-7455460D02*
X7422335Y-7464984D01*
X7422335Y-7464984D02*
X7460430Y-7464984D01*
X7460430Y-7464984D02*
X7479478Y-7455460D01*
X7479478Y-7455460D02*
X7489001Y-7436412D01*
X7489001Y-7436412D02*
X7489001Y-7426888D01*
X7489001Y-7426888D02*
X7479478Y-7407841D01*
X7479478Y-7407841D02*
X7460430Y-7398317D01*
X7460430Y-7398317D02*
X7431858Y-7398317D01*
X7431858Y-7398317D02*
X7412811Y-7388793D01*
X7412811Y-7388793D02*
X7403287Y-7369746D01*
X7403287Y-7369746D02*
X7403287Y-7360222D01*
X7403287Y-7360222D02*
X7412811Y-7341174D01*
X7412811Y-7341174D02*
X7431858Y-7331650D01*
X7431858Y-7331650D02*
X7460430Y-7331650D01*
X7460430Y-7331650D02*
X7479478Y-7341174D01*
X7555668Y-7541174D02*
X7565192Y-7531650D01*
X7565192Y-7531650D02*
X7584239Y-7503079D01*
X7584239Y-7503079D02*
X7593763Y-7484031D01*
X7593763Y-7484031D02*
X7603287Y-7455460D01*
X7603287Y-7455460D02*
X7612811Y-7407841D01*
X7612811Y-7407841D02*
X7612811Y-7369746D01*
X7612811Y-7369746D02*
X7603287Y-7322127D01*
X7603287Y-7322127D02*
X7593763Y-7293555D01*
X7593763Y-7293555D02*
X7584239Y-7274508D01*
X7584239Y-7274508D02*
X7565192Y-7245936D01*
X7565192Y-7245936D02*
X7555668Y-7236412D01*
D12*
X2780605Y-7637500D02*
G75*
G02*
X2720605Y-7637500I-30000J0D01*
G01*
X2720605Y-7637500D02*
G75*
G02*
X2780605Y-7637500I30000J0D01*
G01*
D11*
X3079477Y-7528984D02*
X3098525Y-7528984D01*
X3098525Y-7528984D02*
X3117572Y-7538508D01*
X3117572Y-7538508D02*
X3127096Y-7548031D01*
X3127096Y-7548031D02*
X3136620Y-7567079D01*
X3136620Y-7567079D02*
X3146144Y-7605174D01*
X3146144Y-7605174D02*
X3146144Y-7652793D01*
X3146144Y-7652793D02*
X3136620Y-7690888D01*
X3136620Y-7690888D02*
X3127096Y-7709936D01*
X3127096Y-7709936D02*
X3117572Y-7719460D01*
X3117572Y-7719460D02*
X3098525Y-7728984D01*
X3098525Y-7728984D02*
X3079477Y-7728984D01*
X3079477Y-7728984D02*
X3060429Y-7719460D01*
X3060429Y-7719460D02*
X3050906Y-7709936D01*
X3050906Y-7709936D02*
X3041382Y-7690888D01*
X3041382Y-7690888D02*
X3031858Y-7652793D01*
X3031858Y-7652793D02*
X3031858Y-7605174D01*
X3031858Y-7605174D02*
X3041382Y-7567079D01*
X3041382Y-7567079D02*
X3050906Y-7548031D01*
X3050906Y-7548031D02*
X3060429Y-7538508D01*
X3060429Y-7538508D02*
X3079477Y-7528984D01*
X3231858Y-7709936D02*
X3241382Y-7719460D01*
X3241382Y-7719460D02*
X3231858Y-7728984D01*
X3231858Y-7728984D02*
X3222334Y-7719460D01*
X3222334Y-7719460D02*
X3231858Y-7709936D01*
X3231858Y-7709936D02*
X3231858Y-7728984D01*
X3412810Y-7528984D02*
X3374715Y-7528984D01*
X3374715Y-7528984D02*
X3355668Y-7538508D01*
X3355668Y-7538508D02*
X3346144Y-7548031D01*
X3346144Y-7548031D02*
X3327096Y-7576603D01*
X3327096Y-7576603D02*
X3317572Y-7614698D01*
X3317572Y-7614698D02*
X3317572Y-7690888D01*
X3317572Y-7690888D02*
X3327096Y-7709936D01*
X3327096Y-7709936D02*
X3336620Y-7719460D01*
X3336620Y-7719460D02*
X3355668Y-7728984D01*
X3355668Y-7728984D02*
X3393763Y-7728984D01*
X3393763Y-7728984D02*
X3412810Y-7719460D01*
X3412810Y-7719460D02*
X3422334Y-7709936D01*
X3422334Y-7709936D02*
X3431858Y-7690888D01*
X3431858Y-7690888D02*
X3431858Y-7643269D01*
X3431858Y-7643269D02*
X3422334Y-7624222D01*
X3422334Y-7624222D02*
X3412810Y-7614698D01*
X3412810Y-7614698D02*
X3393763Y-7605174D01*
X3393763Y-7605174D02*
X3355668Y-7605174D01*
X3355668Y-7605174D02*
X3336620Y-7614698D01*
X3336620Y-7614698D02*
X3327096Y-7624222D01*
X3327096Y-7624222D02*
X3317572Y-7643269D01*
X3555668Y-7528984D02*
X3574715Y-7528984D01*
X3574715Y-7528984D02*
X3593763Y-7538508D01*
X3593763Y-7538508D02*
X3603287Y-7548031D01*
X3603287Y-7548031D02*
X3612810Y-7567079D01*
X3612810Y-7567079D02*
X3622334Y-7605174D01*
X3622334Y-7605174D02*
X3622334Y-7652793D01*
X3622334Y-7652793D02*
X3612810Y-7690888D01*
X3612810Y-7690888D02*
X3603287Y-7709936D01*
X3603287Y-7709936D02*
X3593763Y-7719460D01*
X3593763Y-7719460D02*
X3574715Y-7728984D01*
X3574715Y-7728984D02*
X3555668Y-7728984D01*
X3555668Y-7728984D02*
X3536620Y-7719460D01*
X3536620Y-7719460D02*
X3527096Y-7709936D01*
X3527096Y-7709936D02*
X3517572Y-7690888D01*
X3517572Y-7690888D02*
X3508049Y-7652793D01*
X3508049Y-7652793D02*
X3508049Y-7605174D01*
X3508049Y-7605174D02*
X3517572Y-7567079D01*
X3517572Y-7567079D02*
X3527096Y-7548031D01*
X3527096Y-7548031D02*
X3536620Y-7538508D01*
X3536620Y-7538508D02*
X3555668Y-7528984D01*
X3746144Y-7528984D02*
X3765191Y-7528984D01*
X3765191Y-7528984D02*
X3784239Y-7538508D01*
X3784239Y-7538508D02*
X3793763Y-7548031D01*
X3793763Y-7548031D02*
X3803287Y-7567079D01*
X3803287Y-7567079D02*
X3812810Y-7605174D01*
X3812810Y-7605174D02*
X3812810Y-7652793D01*
X3812810Y-7652793D02*
X3803287Y-7690888D01*
X3803287Y-7690888D02*
X3793763Y-7709936D01*
X3793763Y-7709936D02*
X3784239Y-7719460D01*
X3784239Y-7719460D02*
X3765191Y-7728984D01*
X3765191Y-7728984D02*
X3746144Y-7728984D01*
X3746144Y-7728984D02*
X3727096Y-7719460D01*
X3727096Y-7719460D02*
X3717572Y-7709936D01*
X3717572Y-7709936D02*
X3708049Y-7690888D01*
X3708049Y-7690888D02*
X3698525Y-7652793D01*
X3698525Y-7652793D02*
X3698525Y-7605174D01*
X3698525Y-7605174D02*
X3708049Y-7567079D01*
X3708049Y-7567079D02*
X3717572Y-7548031D01*
X3717572Y-7548031D02*
X3727096Y-7538508D01*
X3727096Y-7538508D02*
X3746144Y-7528984D01*
X3898525Y-7728984D02*
X3898525Y-7595650D01*
X3898525Y-7614698D02*
X3908049Y-7605174D01*
X3908049Y-7605174D02*
X3927096Y-7595650D01*
X3927096Y-7595650D02*
X3955668Y-7595650D01*
X3955668Y-7595650D02*
X3974715Y-7605174D01*
X3974715Y-7605174D02*
X3984239Y-7624222D01*
X3984239Y-7624222D02*
X3984239Y-7728984D01*
X3984239Y-7624222D02*
X3993763Y-7605174D01*
X3993763Y-7605174D02*
X4012810Y-7595650D01*
X4012810Y-7595650D02*
X4041382Y-7595650D01*
X4041382Y-7595650D02*
X4060430Y-7605174D01*
X4060430Y-7605174D02*
X4069953Y-7624222D01*
X4069953Y-7624222D02*
X4069953Y-7728984D01*
X4165191Y-7728984D02*
X4165191Y-7595650D01*
X4165191Y-7614698D02*
X4174715Y-7605174D01*
X4174715Y-7605174D02*
X4193763Y-7595650D01*
X4193763Y-7595650D02*
X4222334Y-7595650D01*
X4222334Y-7595650D02*
X4241382Y-7605174D01*
X4241382Y-7605174D02*
X4250906Y-7624222D01*
X4250906Y-7624222D02*
X4250906Y-7728984D01*
X4250906Y-7624222D02*
X4260430Y-7605174D01*
X4260430Y-7605174D02*
X4279477Y-7595650D01*
X4279477Y-7595650D02*
X4308049Y-7595650D01*
X4308049Y-7595650D02*
X4327096Y-7605174D01*
X4327096Y-7605174D02*
X4336620Y-7624222D01*
X4336620Y-7624222D02*
X4336620Y-7728984D01*
X4727096Y-7519460D02*
X4555668Y-7776603D01*
X4984239Y-7528984D02*
X5003287Y-7528984D01*
X5003287Y-7528984D02*
X5022335Y-7538508D01*
X5022335Y-7538508D02*
X5031858Y-7548031D01*
X5031858Y-7548031D02*
X5041382Y-7567079D01*
X5041382Y-7567079D02*
X5050906Y-7605174D01*
X5050906Y-7605174D02*
X5050906Y-7652793D01*
X5050906Y-7652793D02*
X5041382Y-7690888D01*
X5041382Y-7690888D02*
X5031858Y-7709936D01*
X5031858Y-7709936D02*
X5022335Y-7719460D01*
X5022335Y-7719460D02*
X5003287Y-7728984D01*
X5003287Y-7728984D02*
X4984239Y-7728984D01*
X4984239Y-7728984D02*
X4965192Y-7719460D01*
X4965192Y-7719460D02*
X4955668Y-7709936D01*
X4955668Y-7709936D02*
X4946144Y-7690888D01*
X4946144Y-7690888D02*
X4936620Y-7652793D01*
X4936620Y-7652793D02*
X4936620Y-7605174D01*
X4936620Y-7605174D02*
X4946144Y-7567079D01*
X4946144Y-7567079D02*
X4955668Y-7548031D01*
X4955668Y-7548031D02*
X4965192Y-7538508D01*
X4965192Y-7538508D02*
X4984239Y-7528984D01*
X5136620Y-7709936D02*
X5146144Y-7719460D01*
X5146144Y-7719460D02*
X5136620Y-7728984D01*
X5136620Y-7728984D02*
X5127096Y-7719460D01*
X5127096Y-7719460D02*
X5136620Y-7709936D01*
X5136620Y-7709936D02*
X5136620Y-7728984D01*
X5269954Y-7528984D02*
X5289001Y-7528984D01*
X5289001Y-7528984D02*
X5308049Y-7538508D01*
X5308049Y-7538508D02*
X5317573Y-7548031D01*
X5317573Y-7548031D02*
X5327096Y-7567079D01*
X5327096Y-7567079D02*
X5336620Y-7605174D01*
X5336620Y-7605174D02*
X5336620Y-7652793D01*
X5336620Y-7652793D02*
X5327096Y-7690888D01*
X5327096Y-7690888D02*
X5317573Y-7709936D01*
X5317573Y-7709936D02*
X5308049Y-7719460D01*
X5308049Y-7719460D02*
X5289001Y-7728984D01*
X5289001Y-7728984D02*
X5269954Y-7728984D01*
X5269954Y-7728984D02*
X5250906Y-7719460D01*
X5250906Y-7719460D02*
X5241382Y-7709936D01*
X5241382Y-7709936D02*
X5231858Y-7690888D01*
X5231858Y-7690888D02*
X5222335Y-7652793D01*
X5222335Y-7652793D02*
X5222335Y-7605174D01*
X5222335Y-7605174D02*
X5231858Y-7567079D01*
X5231858Y-7567079D02*
X5241382Y-7548031D01*
X5241382Y-7548031D02*
X5250906Y-7538508D01*
X5250906Y-7538508D02*
X5269954Y-7528984D01*
X5412811Y-7548031D02*
X5422335Y-7538508D01*
X5422335Y-7538508D02*
X5441382Y-7528984D01*
X5441382Y-7528984D02*
X5489001Y-7528984D01*
X5489001Y-7528984D02*
X5508049Y-7538508D01*
X5508049Y-7538508D02*
X5517573Y-7548031D01*
X5517573Y-7548031D02*
X5527096Y-7567079D01*
X5527096Y-7567079D02*
X5527096Y-7586127D01*
X5527096Y-7586127D02*
X5517573Y-7614698D01*
X5517573Y-7614698D02*
X5403287Y-7728984D01*
X5403287Y-7728984D02*
X5527096Y-7728984D01*
X5593763Y-7528984D02*
X5717573Y-7528984D01*
X5717573Y-7528984D02*
X5650906Y-7605174D01*
X5650906Y-7605174D02*
X5679477Y-7605174D01*
X5679477Y-7605174D02*
X5698525Y-7614698D01*
X5698525Y-7614698D02*
X5708049Y-7624222D01*
X5708049Y-7624222D02*
X5717573Y-7643269D01*
X5717573Y-7643269D02*
X5717573Y-7690888D01*
X5717573Y-7690888D02*
X5708049Y-7709936D01*
X5708049Y-7709936D02*
X5698525Y-7719460D01*
X5698525Y-7719460D02*
X5679477Y-7728984D01*
X5679477Y-7728984D02*
X5622334Y-7728984D01*
X5622334Y-7728984D02*
X5603287Y-7719460D01*
X5603287Y-7719460D02*
X5593763Y-7709936D01*
X5889001Y-7528984D02*
X5850906Y-7528984D01*
X5850906Y-7528984D02*
X5831858Y-7538508D01*
X5831858Y-7538508D02*
X5822334Y-7548031D01*
X5822334Y-7548031D02*
X5803287Y-7576603D01*
X5803287Y-7576603D02*
X5793763Y-7614698D01*
X5793763Y-7614698D02*
X5793763Y-7690888D01*
X5793763Y-7690888D02*
X5803287Y-7709936D01*
X5803287Y-7709936D02*
X5812811Y-7719460D01*
X5812811Y-7719460D02*
X5831858Y-7728984D01*
X5831858Y-7728984D02*
X5869954Y-7728984D01*
X5869954Y-7728984D02*
X5889001Y-7719460D01*
X5889001Y-7719460D02*
X5898525Y-7709936D01*
X5898525Y-7709936D02*
X5908049Y-7690888D01*
X5908049Y-7690888D02*
X5908049Y-7643269D01*
X5908049Y-7643269D02*
X5898525Y-7624222D01*
X5898525Y-7624222D02*
X5889001Y-7614698D01*
X5889001Y-7614698D02*
X5869954Y-7605174D01*
X5869954Y-7605174D02*
X5831858Y-7605174D01*
X5831858Y-7605174D02*
X5812811Y-7614698D01*
X5812811Y-7614698D02*
X5803287Y-7624222D01*
X5803287Y-7624222D02*
X5793763Y-7643269D01*
X5984239Y-7528984D02*
X5984239Y-7567079D01*
X6060430Y-7528984D02*
X6060430Y-7567079D01*
X6355668Y-7805174D02*
X6346144Y-7795650D01*
X6346144Y-7795650D02*
X6327096Y-7767079D01*
X6327096Y-7767079D02*
X6317573Y-7748031D01*
X6317573Y-7748031D02*
X6308049Y-7719460D01*
X6308049Y-7719460D02*
X6298525Y-7671841D01*
X6298525Y-7671841D02*
X6298525Y-7633746D01*
X6298525Y-7633746D02*
X6308049Y-7586127D01*
X6308049Y-7586127D02*
X6317573Y-7557555D01*
X6317573Y-7557555D02*
X6327096Y-7538508D01*
X6327096Y-7538508D02*
X6346144Y-7509936D01*
X6346144Y-7509936D02*
X6355668Y-7500412D01*
X6460430Y-7614698D02*
X6441382Y-7605174D01*
X6441382Y-7605174D02*
X6431858Y-7595650D01*
X6431858Y-7595650D02*
X6422335Y-7576603D01*
X6422335Y-7576603D02*
X6422335Y-7567079D01*
X6422335Y-7567079D02*
X6431858Y-7548031D01*
X6431858Y-7548031D02*
X6441382Y-7538508D01*
X6441382Y-7538508D02*
X6460430Y-7528984D01*
X6460430Y-7528984D02*
X6498525Y-7528984D01*
X6498525Y-7528984D02*
X6517573Y-7538508D01*
X6517573Y-7538508D02*
X6527096Y-7548031D01*
X6527096Y-7548031D02*
X6536620Y-7567079D01*
X6536620Y-7567079D02*
X6536620Y-7576603D01*
X6536620Y-7576603D02*
X6527096Y-7595650D01*
X6527096Y-7595650D02*
X6517573Y-7605174D01*
X6517573Y-7605174D02*
X6498525Y-7614698D01*
X6498525Y-7614698D02*
X6460430Y-7614698D01*
X6460430Y-7614698D02*
X6441382Y-7624222D01*
X6441382Y-7624222D02*
X6431858Y-7633746D01*
X6431858Y-7633746D02*
X6422335Y-7652793D01*
X6422335Y-7652793D02*
X6422335Y-7690888D01*
X6422335Y-7690888D02*
X6431858Y-7709936D01*
X6431858Y-7709936D02*
X6441382Y-7719460D01*
X6441382Y-7719460D02*
X6460430Y-7728984D01*
X6460430Y-7728984D02*
X6498525Y-7728984D01*
X6498525Y-7728984D02*
X6517573Y-7719460D01*
X6517573Y-7719460D02*
X6527096Y-7709936D01*
X6527096Y-7709936D02*
X6536620Y-7690888D01*
X6536620Y-7690888D02*
X6536620Y-7652793D01*
X6536620Y-7652793D02*
X6527096Y-7633746D01*
X6527096Y-7633746D02*
X6517573Y-7624222D01*
X6517573Y-7624222D02*
X6498525Y-7614698D01*
X6774716Y-7728984D02*
X6774716Y-7528984D01*
X6860430Y-7728984D02*
X6860430Y-7624222D01*
X6860430Y-7624222D02*
X6850906Y-7605174D01*
X6850906Y-7605174D02*
X6831858Y-7595650D01*
X6831858Y-7595650D02*
X6803287Y-7595650D01*
X6803287Y-7595650D02*
X6784239Y-7605174D01*
X6784239Y-7605174D02*
X6774716Y-7614698D01*
X6984239Y-7728984D02*
X6965192Y-7719460D01*
X6965192Y-7719460D02*
X6955668Y-7709936D01*
X6955668Y-7709936D02*
X6946144Y-7690888D01*
X6946144Y-7690888D02*
X6946144Y-7633746D01*
X6946144Y-7633746D02*
X6955668Y-7614698D01*
X6955668Y-7614698D02*
X6965192Y-7605174D01*
X6965192Y-7605174D02*
X6984239Y-7595650D01*
X6984239Y-7595650D02*
X7012811Y-7595650D01*
X7012811Y-7595650D02*
X7031858Y-7605174D01*
X7031858Y-7605174D02*
X7041382Y-7614698D01*
X7041382Y-7614698D02*
X7050906Y-7633746D01*
X7050906Y-7633746D02*
X7050906Y-7690888D01*
X7050906Y-7690888D02*
X7041382Y-7709936D01*
X7041382Y-7709936D02*
X7031858Y-7719460D01*
X7031858Y-7719460D02*
X7012811Y-7728984D01*
X7012811Y-7728984D02*
X6984239Y-7728984D01*
X7165192Y-7728984D02*
X7146144Y-7719460D01*
X7146144Y-7719460D02*
X7136620Y-7700412D01*
X7136620Y-7700412D02*
X7136620Y-7528984D01*
X7317573Y-7719460D02*
X7298525Y-7728984D01*
X7298525Y-7728984D02*
X7260430Y-7728984D01*
X7260430Y-7728984D02*
X7241382Y-7719460D01*
X7241382Y-7719460D02*
X7231858Y-7700412D01*
X7231858Y-7700412D02*
X7231858Y-7624222D01*
X7231858Y-7624222D02*
X7241382Y-7605174D01*
X7241382Y-7605174D02*
X7260430Y-7595650D01*
X7260430Y-7595650D02*
X7298525Y-7595650D01*
X7298525Y-7595650D02*
X7317573Y-7605174D01*
X7317573Y-7605174D02*
X7327097Y-7624222D01*
X7327097Y-7624222D02*
X7327097Y-7643269D01*
X7327097Y-7643269D02*
X7231858Y-7662317D01*
X7403287Y-7719460D02*
X7422335Y-7728984D01*
X7422335Y-7728984D02*
X7460430Y-7728984D01*
X7460430Y-7728984D02*
X7479478Y-7719460D01*
X7479478Y-7719460D02*
X7489001Y-7700412D01*
X7489001Y-7700412D02*
X7489001Y-7690888D01*
X7489001Y-7690888D02*
X7479478Y-7671841D01*
X7479478Y-7671841D02*
X7460430Y-7662317D01*
X7460430Y-7662317D02*
X7431858Y-7662317D01*
X7431858Y-7662317D02*
X7412811Y-7652793D01*
X7412811Y-7652793D02*
X7403287Y-7633746D01*
X7403287Y-7633746D02*
X7403287Y-7624222D01*
X7403287Y-7624222D02*
X7412811Y-7605174D01*
X7412811Y-7605174D02*
X7431858Y-7595650D01*
X7431858Y-7595650D02*
X7460430Y-7595650D01*
X7460430Y-7595650D02*
X7479478Y-7605174D01*
X7555668Y-7805174D02*
X7565192Y-7795650D01*
X7565192Y-7795650D02*
X7584239Y-7767079D01*
X7584239Y-7767079D02*
X7593763Y-7748031D01*
X7593763Y-7748031D02*
X7603287Y-7719460D01*
X7603287Y-7719460D02*
X7612811Y-7671841D01*
X7612811Y-7671841D02*
X7612811Y-7633746D01*
X7612811Y-7633746D02*
X7603287Y-7586127D01*
X7603287Y-7586127D02*
X7593763Y-7557555D01*
X7593763Y-7557555D02*
X7584239Y-7538508D01*
X7584239Y-7538508D02*
X7565192Y-7509936D01*
X7565192Y-7509936D02*
X7555668Y-7500412D01*
D12*
X2745605Y-7866500D02*
X2745605Y-7936500D01*
X2710605Y-7901500D02*
X2780605Y-7901500D01*
D11*
X3079477Y-7792984D02*
X3098525Y-7792984D01*
X3098525Y-7792984D02*
X3117572Y-7802508D01*
X3117572Y-7802508D02*
X3127096Y-7812031D01*
X3127096Y-7812031D02*
X3136620Y-7831079D01*
X3136620Y-7831079D02*
X3146144Y-7869174D01*
X3146144Y-7869174D02*
X3146144Y-7916793D01*
X3146144Y-7916793D02*
X3136620Y-7954888D01*
X3136620Y-7954888D02*
X3127096Y-7973936D01*
X3127096Y-7973936D02*
X3117572Y-7983460D01*
X3117572Y-7983460D02*
X3098525Y-7992984D01*
X3098525Y-7992984D02*
X3079477Y-7992984D01*
X3079477Y-7992984D02*
X3060429Y-7983460D01*
X3060429Y-7983460D02*
X3050906Y-7973936D01*
X3050906Y-7973936D02*
X3041382Y-7954888D01*
X3041382Y-7954888D02*
X3031858Y-7916793D01*
X3031858Y-7916793D02*
X3031858Y-7869174D01*
X3031858Y-7869174D02*
X3041382Y-7831079D01*
X3041382Y-7831079D02*
X3050906Y-7812031D01*
X3050906Y-7812031D02*
X3060429Y-7802508D01*
X3060429Y-7802508D02*
X3079477Y-7792984D01*
X3231858Y-7973936D02*
X3241382Y-7983460D01*
X3241382Y-7983460D02*
X3231858Y-7992984D01*
X3231858Y-7992984D02*
X3222334Y-7983460D01*
X3222334Y-7983460D02*
X3231858Y-7973936D01*
X3231858Y-7973936D02*
X3231858Y-7992984D01*
X3308049Y-7792984D02*
X3441382Y-7792984D01*
X3441382Y-7792984D02*
X3355668Y-7992984D01*
X3555668Y-7792984D02*
X3574715Y-7792984D01*
X3574715Y-7792984D02*
X3593763Y-7802508D01*
X3593763Y-7802508D02*
X3603287Y-7812031D01*
X3603287Y-7812031D02*
X3612810Y-7831079D01*
X3612810Y-7831079D02*
X3622334Y-7869174D01*
X3622334Y-7869174D02*
X3622334Y-7916793D01*
X3622334Y-7916793D02*
X3612810Y-7954888D01*
X3612810Y-7954888D02*
X3603287Y-7973936D01*
X3603287Y-7973936D02*
X3593763Y-7983460D01*
X3593763Y-7983460D02*
X3574715Y-7992984D01*
X3574715Y-7992984D02*
X3555668Y-7992984D01*
X3555668Y-7992984D02*
X3536620Y-7983460D01*
X3536620Y-7983460D02*
X3527096Y-7973936D01*
X3527096Y-7973936D02*
X3517572Y-7954888D01*
X3517572Y-7954888D02*
X3508049Y-7916793D01*
X3508049Y-7916793D02*
X3508049Y-7869174D01*
X3508049Y-7869174D02*
X3517572Y-7831079D01*
X3517572Y-7831079D02*
X3527096Y-7812031D01*
X3527096Y-7812031D02*
X3536620Y-7802508D01*
X3536620Y-7802508D02*
X3555668Y-7792984D01*
X3746144Y-7792984D02*
X3765191Y-7792984D01*
X3765191Y-7792984D02*
X3784239Y-7802508D01*
X3784239Y-7802508D02*
X3793763Y-7812031D01*
X3793763Y-7812031D02*
X3803287Y-7831079D01*
X3803287Y-7831079D02*
X3812810Y-7869174D01*
X3812810Y-7869174D02*
X3812810Y-7916793D01*
X3812810Y-7916793D02*
X3803287Y-7954888D01*
X3803287Y-7954888D02*
X3793763Y-7973936D01*
X3793763Y-7973936D02*
X3784239Y-7983460D01*
X3784239Y-7983460D02*
X3765191Y-7992984D01*
X3765191Y-7992984D02*
X3746144Y-7992984D01*
X3746144Y-7992984D02*
X3727096Y-7983460D01*
X3727096Y-7983460D02*
X3717572Y-7973936D01*
X3717572Y-7973936D02*
X3708049Y-7954888D01*
X3708049Y-7954888D02*
X3698525Y-7916793D01*
X3698525Y-7916793D02*
X3698525Y-7869174D01*
X3698525Y-7869174D02*
X3708049Y-7831079D01*
X3708049Y-7831079D02*
X3717572Y-7812031D01*
X3717572Y-7812031D02*
X3727096Y-7802508D01*
X3727096Y-7802508D02*
X3746144Y-7792984D01*
X3898525Y-7992984D02*
X3898525Y-7859650D01*
X3898525Y-7878698D02*
X3908049Y-7869174D01*
X3908049Y-7869174D02*
X3927096Y-7859650D01*
X3927096Y-7859650D02*
X3955668Y-7859650D01*
X3955668Y-7859650D02*
X3974715Y-7869174D01*
X3974715Y-7869174D02*
X3984239Y-7888222D01*
X3984239Y-7888222D02*
X3984239Y-7992984D01*
X3984239Y-7888222D02*
X3993763Y-7869174D01*
X3993763Y-7869174D02*
X4012810Y-7859650D01*
X4012810Y-7859650D02*
X4041382Y-7859650D01*
X4041382Y-7859650D02*
X4060430Y-7869174D01*
X4060430Y-7869174D02*
X4069953Y-7888222D01*
X4069953Y-7888222D02*
X4069953Y-7992984D01*
X4165191Y-7992984D02*
X4165191Y-7859650D01*
X4165191Y-7878698D02*
X4174715Y-7869174D01*
X4174715Y-7869174D02*
X4193763Y-7859650D01*
X4193763Y-7859650D02*
X4222334Y-7859650D01*
X4222334Y-7859650D02*
X4241382Y-7869174D01*
X4241382Y-7869174D02*
X4250906Y-7888222D01*
X4250906Y-7888222D02*
X4250906Y-7992984D01*
X4250906Y-7888222D02*
X4260430Y-7869174D01*
X4260430Y-7869174D02*
X4279477Y-7859650D01*
X4279477Y-7859650D02*
X4308049Y-7859650D01*
X4308049Y-7859650D02*
X4327096Y-7869174D01*
X4327096Y-7869174D02*
X4336620Y-7888222D01*
X4336620Y-7888222D02*
X4336620Y-7992984D01*
X4727096Y-7783460D02*
X4555668Y-8040603D01*
X4984239Y-7792984D02*
X5003287Y-7792984D01*
X5003287Y-7792984D02*
X5022335Y-7802508D01*
X5022335Y-7802508D02*
X5031858Y-7812031D01*
X5031858Y-7812031D02*
X5041382Y-7831079D01*
X5041382Y-7831079D02*
X5050906Y-7869174D01*
X5050906Y-7869174D02*
X5050906Y-7916793D01*
X5050906Y-7916793D02*
X5041382Y-7954888D01*
X5041382Y-7954888D02*
X5031858Y-7973936D01*
X5031858Y-7973936D02*
X5022335Y-7983460D01*
X5022335Y-7983460D02*
X5003287Y-7992984D01*
X5003287Y-7992984D02*
X4984239Y-7992984D01*
X4984239Y-7992984D02*
X4965192Y-7983460D01*
X4965192Y-7983460D02*
X4955668Y-7973936D01*
X4955668Y-7973936D02*
X4946144Y-7954888D01*
X4946144Y-7954888D02*
X4936620Y-7916793D01*
X4936620Y-7916793D02*
X4936620Y-7869174D01*
X4936620Y-7869174D02*
X4946144Y-7831079D01*
X4946144Y-7831079D02*
X4955668Y-7812031D01*
X4955668Y-7812031D02*
X4965192Y-7802508D01*
X4965192Y-7802508D02*
X4984239Y-7792984D01*
X5136620Y-7973936D02*
X5146144Y-7983460D01*
X5146144Y-7983460D02*
X5136620Y-7992984D01*
X5136620Y-7992984D02*
X5127096Y-7983460D01*
X5127096Y-7983460D02*
X5136620Y-7973936D01*
X5136620Y-7973936D02*
X5136620Y-7992984D01*
X5269954Y-7792984D02*
X5289001Y-7792984D01*
X5289001Y-7792984D02*
X5308049Y-7802508D01*
X5308049Y-7802508D02*
X5317573Y-7812031D01*
X5317573Y-7812031D02*
X5327096Y-7831079D01*
X5327096Y-7831079D02*
X5336620Y-7869174D01*
X5336620Y-7869174D02*
X5336620Y-7916793D01*
X5336620Y-7916793D02*
X5327096Y-7954888D01*
X5327096Y-7954888D02*
X5317573Y-7973936D01*
X5317573Y-7973936D02*
X5308049Y-7983460D01*
X5308049Y-7983460D02*
X5289001Y-7992984D01*
X5289001Y-7992984D02*
X5269954Y-7992984D01*
X5269954Y-7992984D02*
X5250906Y-7983460D01*
X5250906Y-7983460D02*
X5241382Y-7973936D01*
X5241382Y-7973936D02*
X5231858Y-7954888D01*
X5231858Y-7954888D02*
X5222335Y-7916793D01*
X5222335Y-7916793D02*
X5222335Y-7869174D01*
X5222335Y-7869174D02*
X5231858Y-7831079D01*
X5231858Y-7831079D02*
X5241382Y-7812031D01*
X5241382Y-7812031D02*
X5250906Y-7802508D01*
X5250906Y-7802508D02*
X5269954Y-7792984D01*
X5412811Y-7812031D02*
X5422335Y-7802508D01*
X5422335Y-7802508D02*
X5441382Y-7792984D01*
X5441382Y-7792984D02*
X5489001Y-7792984D01*
X5489001Y-7792984D02*
X5508049Y-7802508D01*
X5508049Y-7802508D02*
X5517573Y-7812031D01*
X5517573Y-7812031D02*
X5527096Y-7831079D01*
X5527096Y-7831079D02*
X5527096Y-7850127D01*
X5527096Y-7850127D02*
X5517573Y-7878698D01*
X5517573Y-7878698D02*
X5403287Y-7992984D01*
X5403287Y-7992984D02*
X5527096Y-7992984D01*
X5593763Y-7792984D02*
X5727096Y-7792984D01*
X5727096Y-7792984D02*
X5641382Y-7992984D01*
X5889001Y-7792984D02*
X5850906Y-7792984D01*
X5850906Y-7792984D02*
X5831858Y-7802508D01*
X5831858Y-7802508D02*
X5822334Y-7812031D01*
X5822334Y-7812031D02*
X5803287Y-7840603D01*
X5803287Y-7840603D02*
X5793763Y-7878698D01*
X5793763Y-7878698D02*
X5793763Y-7954888D01*
X5793763Y-7954888D02*
X5803287Y-7973936D01*
X5803287Y-7973936D02*
X5812811Y-7983460D01*
X5812811Y-7983460D02*
X5831858Y-7992984D01*
X5831858Y-7992984D02*
X5869954Y-7992984D01*
X5869954Y-7992984D02*
X5889001Y-7983460D01*
X5889001Y-7983460D02*
X5898525Y-7973936D01*
X5898525Y-7973936D02*
X5908049Y-7954888D01*
X5908049Y-7954888D02*
X5908049Y-7907269D01*
X5908049Y-7907269D02*
X5898525Y-7888222D01*
X5898525Y-7888222D02*
X5889001Y-7878698D01*
X5889001Y-7878698D02*
X5869954Y-7869174D01*
X5869954Y-7869174D02*
X5831858Y-7869174D01*
X5831858Y-7869174D02*
X5812811Y-7878698D01*
X5812811Y-7878698D02*
X5803287Y-7888222D01*
X5803287Y-7888222D02*
X5793763Y-7907269D01*
X5984239Y-7792984D02*
X5984239Y-7831079D01*
X6060430Y-7792984D02*
X6060430Y-7831079D01*
X6355668Y-8069174D02*
X6346144Y-8059650D01*
X6346144Y-8059650D02*
X6327096Y-8031079D01*
X6327096Y-8031079D02*
X6317573Y-8012031D01*
X6317573Y-8012031D02*
X6308049Y-7983460D01*
X6308049Y-7983460D02*
X6298525Y-7935841D01*
X6298525Y-7935841D02*
X6298525Y-7897746D01*
X6298525Y-7897746D02*
X6308049Y-7850127D01*
X6308049Y-7850127D02*
X6317573Y-7821555D01*
X6317573Y-7821555D02*
X6327096Y-7802508D01*
X6327096Y-7802508D02*
X6346144Y-7773936D01*
X6346144Y-7773936D02*
X6355668Y-7764412D01*
X6422335Y-7812031D02*
X6431858Y-7802508D01*
X6431858Y-7802508D02*
X6450906Y-7792984D01*
X6450906Y-7792984D02*
X6498525Y-7792984D01*
X6498525Y-7792984D02*
X6517573Y-7802508D01*
X6517573Y-7802508D02*
X6527096Y-7812031D01*
X6527096Y-7812031D02*
X6536620Y-7831079D01*
X6536620Y-7831079D02*
X6536620Y-7850127D01*
X6536620Y-7850127D02*
X6527096Y-7878698D01*
X6527096Y-7878698D02*
X6412811Y-7992984D01*
X6412811Y-7992984D02*
X6536620Y-7992984D01*
X6774716Y-7992984D02*
X6774716Y-7792984D01*
X6860430Y-7992984D02*
X6860430Y-7888222D01*
X6860430Y-7888222D02*
X6850906Y-7869174D01*
X6850906Y-7869174D02*
X6831858Y-7859650D01*
X6831858Y-7859650D02*
X6803287Y-7859650D01*
X6803287Y-7859650D02*
X6784239Y-7869174D01*
X6784239Y-7869174D02*
X6774716Y-7878698D01*
X6984239Y-7992984D02*
X6965192Y-7983460D01*
X6965192Y-7983460D02*
X6955668Y-7973936D01*
X6955668Y-7973936D02*
X6946144Y-7954888D01*
X6946144Y-7954888D02*
X6946144Y-7897746D01*
X6946144Y-7897746D02*
X6955668Y-7878698D01*
X6955668Y-7878698D02*
X6965192Y-7869174D01*
X6965192Y-7869174D02*
X6984239Y-7859650D01*
X6984239Y-7859650D02*
X7012811Y-7859650D01*
X7012811Y-7859650D02*
X7031858Y-7869174D01*
X7031858Y-7869174D02*
X7041382Y-7878698D01*
X7041382Y-7878698D02*
X7050906Y-7897746D01*
X7050906Y-7897746D02*
X7050906Y-7954888D01*
X7050906Y-7954888D02*
X7041382Y-7973936D01*
X7041382Y-7973936D02*
X7031858Y-7983460D01*
X7031858Y-7983460D02*
X7012811Y-7992984D01*
X7012811Y-7992984D02*
X6984239Y-7992984D01*
X7165192Y-7992984D02*
X7146144Y-7983460D01*
X7146144Y-7983460D02*
X7136620Y-7964412D01*
X7136620Y-7964412D02*
X7136620Y-7792984D01*
X7317573Y-7983460D02*
X7298525Y-7992984D01*
X7298525Y-7992984D02*
X7260430Y-7992984D01*
X7260430Y-7992984D02*
X7241382Y-7983460D01*
X7241382Y-7983460D02*
X7231858Y-7964412D01*
X7231858Y-7964412D02*
X7231858Y-7888222D01*
X7231858Y-7888222D02*
X7241382Y-7869174D01*
X7241382Y-7869174D02*
X7260430Y-7859650D01*
X7260430Y-7859650D02*
X7298525Y-7859650D01*
X7298525Y-7859650D02*
X7317573Y-7869174D01*
X7317573Y-7869174D02*
X7327097Y-7888222D01*
X7327097Y-7888222D02*
X7327097Y-7907269D01*
X7327097Y-7907269D02*
X7231858Y-7926317D01*
X7403287Y-7983460D02*
X7422335Y-7992984D01*
X7422335Y-7992984D02*
X7460430Y-7992984D01*
X7460430Y-7992984D02*
X7479478Y-7983460D01*
X7479478Y-7983460D02*
X7489001Y-7964412D01*
X7489001Y-7964412D02*
X7489001Y-7954888D01*
X7489001Y-7954888D02*
X7479478Y-7935841D01*
X7479478Y-7935841D02*
X7460430Y-7926317D01*
X7460430Y-7926317D02*
X7431858Y-7926317D01*
X7431858Y-7926317D02*
X7412811Y-7916793D01*
X7412811Y-7916793D02*
X7403287Y-7897746D01*
X7403287Y-7897746D02*
X7403287Y-7888222D01*
X7403287Y-7888222D02*
X7412811Y-7869174D01*
X7412811Y-7869174D02*
X7431858Y-7859650D01*
X7431858Y-7859650D02*
X7460430Y-7859650D01*
X7460430Y-7859650D02*
X7479478Y-7869174D01*
X7555668Y-8069174D02*
X7565192Y-8059650D01*
X7565192Y-8059650D02*
X7584239Y-8031079D01*
X7584239Y-8031079D02*
X7593763Y-8012031D01*
X7593763Y-8012031D02*
X7603287Y-7983460D01*
X7603287Y-7983460D02*
X7612811Y-7935841D01*
X7612811Y-7935841D02*
X7612811Y-7897746D01*
X7612811Y-7897746D02*
X7603287Y-7850127D01*
X7603287Y-7850127D02*
X7593763Y-7821555D01*
X7593763Y-7821555D02*
X7584239Y-7802508D01*
X7584239Y-7802508D02*
X7565192Y-7773936D01*
X7565192Y-7773936D02*
X7555668Y-7764412D01*
D12*
X2769622Y-8192017D02*
X2769622Y-8138983D01*
X2716588Y-8138983D01*
X2716588Y-8192017D01*
X2769622Y-8192017D01*
D11*
X3079477Y-8056984D02*
X3098525Y-8056984D01*
X3098525Y-8056984D02*
X3117572Y-8066508D01*
X3117572Y-8066508D02*
X3127096Y-8076031D01*
X3127096Y-8076031D02*
X3136620Y-8095079D01*
X3136620Y-8095079D02*
X3146144Y-8133174D01*
X3146144Y-8133174D02*
X3146144Y-8180793D01*
X3146144Y-8180793D02*
X3136620Y-8218888D01*
X3136620Y-8218888D02*
X3127096Y-8237936D01*
X3127096Y-8237936D02*
X3117572Y-8247460D01*
X3117572Y-8247460D02*
X3098525Y-8256984D01*
X3098525Y-8256984D02*
X3079477Y-8256984D01*
X3079477Y-8256984D02*
X3060429Y-8247460D01*
X3060429Y-8247460D02*
X3050906Y-8237936D01*
X3050906Y-8237936D02*
X3041382Y-8218888D01*
X3041382Y-8218888D02*
X3031858Y-8180793D01*
X3031858Y-8180793D02*
X3031858Y-8133174D01*
X3031858Y-8133174D02*
X3041382Y-8095079D01*
X3041382Y-8095079D02*
X3050906Y-8076031D01*
X3050906Y-8076031D02*
X3060429Y-8066508D01*
X3060429Y-8066508D02*
X3079477Y-8056984D01*
X3231858Y-8237936D02*
X3241382Y-8247460D01*
X3241382Y-8247460D02*
X3231858Y-8256984D01*
X3231858Y-8256984D02*
X3222334Y-8247460D01*
X3222334Y-8247460D02*
X3231858Y-8237936D01*
X3231858Y-8237936D02*
X3231858Y-8256984D01*
X3308049Y-8056984D02*
X3441382Y-8056984D01*
X3441382Y-8056984D02*
X3355668Y-8256984D01*
X3612810Y-8056984D02*
X3517572Y-8056984D01*
X3517572Y-8056984D02*
X3508049Y-8152222D01*
X3508049Y-8152222D02*
X3517572Y-8142698D01*
X3517572Y-8142698D02*
X3536620Y-8133174D01*
X3536620Y-8133174D02*
X3584239Y-8133174D01*
X3584239Y-8133174D02*
X3603287Y-8142698D01*
X3603287Y-8142698D02*
X3612810Y-8152222D01*
X3612810Y-8152222D02*
X3622334Y-8171269D01*
X3622334Y-8171269D02*
X3622334Y-8218888D01*
X3622334Y-8218888D02*
X3612810Y-8237936D01*
X3612810Y-8237936D02*
X3603287Y-8247460D01*
X3603287Y-8247460D02*
X3584239Y-8256984D01*
X3584239Y-8256984D02*
X3536620Y-8256984D01*
X3536620Y-8256984D02*
X3517572Y-8247460D01*
X3517572Y-8247460D02*
X3508049Y-8237936D01*
X3746144Y-8056984D02*
X3765191Y-8056984D01*
X3765191Y-8056984D02*
X3784239Y-8066508D01*
X3784239Y-8066508D02*
X3793763Y-8076031D01*
X3793763Y-8076031D02*
X3803287Y-8095079D01*
X3803287Y-8095079D02*
X3812810Y-8133174D01*
X3812810Y-8133174D02*
X3812810Y-8180793D01*
X3812810Y-8180793D02*
X3803287Y-8218888D01*
X3803287Y-8218888D02*
X3793763Y-8237936D01*
X3793763Y-8237936D02*
X3784239Y-8247460D01*
X3784239Y-8247460D02*
X3765191Y-8256984D01*
X3765191Y-8256984D02*
X3746144Y-8256984D01*
X3746144Y-8256984D02*
X3727096Y-8247460D01*
X3727096Y-8247460D02*
X3717572Y-8237936D01*
X3717572Y-8237936D02*
X3708049Y-8218888D01*
X3708049Y-8218888D02*
X3698525Y-8180793D01*
X3698525Y-8180793D02*
X3698525Y-8133174D01*
X3698525Y-8133174D02*
X3708049Y-8095079D01*
X3708049Y-8095079D02*
X3717572Y-8076031D01*
X3717572Y-8076031D02*
X3727096Y-8066508D01*
X3727096Y-8066508D02*
X3746144Y-8056984D01*
X3898525Y-8256984D02*
X3898525Y-8123650D01*
X3898525Y-8142698D02*
X3908049Y-8133174D01*
X3908049Y-8133174D02*
X3927096Y-8123650D01*
X3927096Y-8123650D02*
X3955668Y-8123650D01*
X3955668Y-8123650D02*
X3974715Y-8133174D01*
X3974715Y-8133174D02*
X3984239Y-8152222D01*
X3984239Y-8152222D02*
X3984239Y-8256984D01*
X3984239Y-8152222D02*
X3993763Y-8133174D01*
X3993763Y-8133174D02*
X4012810Y-8123650D01*
X4012810Y-8123650D02*
X4041382Y-8123650D01*
X4041382Y-8123650D02*
X4060430Y-8133174D01*
X4060430Y-8133174D02*
X4069953Y-8152222D01*
X4069953Y-8152222D02*
X4069953Y-8256984D01*
X4165191Y-8256984D02*
X4165191Y-8123650D01*
X4165191Y-8142698D02*
X4174715Y-8133174D01*
X4174715Y-8133174D02*
X4193763Y-8123650D01*
X4193763Y-8123650D02*
X4222334Y-8123650D01*
X4222334Y-8123650D02*
X4241382Y-8133174D01*
X4241382Y-8133174D02*
X4250906Y-8152222D01*
X4250906Y-8152222D02*
X4250906Y-8256984D01*
X4250906Y-8152222D02*
X4260430Y-8133174D01*
X4260430Y-8133174D02*
X4279477Y-8123650D01*
X4279477Y-8123650D02*
X4308049Y-8123650D01*
X4308049Y-8123650D02*
X4327096Y-8133174D01*
X4327096Y-8133174D02*
X4336620Y-8152222D01*
X4336620Y-8152222D02*
X4336620Y-8256984D01*
X4727096Y-8047460D02*
X4555668Y-8304603D01*
X4984239Y-8056984D02*
X5003287Y-8056984D01*
X5003287Y-8056984D02*
X5022335Y-8066508D01*
X5022335Y-8066508D02*
X5031858Y-8076031D01*
X5031858Y-8076031D02*
X5041382Y-8095079D01*
X5041382Y-8095079D02*
X5050906Y-8133174D01*
X5050906Y-8133174D02*
X5050906Y-8180793D01*
X5050906Y-8180793D02*
X5041382Y-8218888D01*
X5041382Y-8218888D02*
X5031858Y-8237936D01*
X5031858Y-8237936D02*
X5022335Y-8247460D01*
X5022335Y-8247460D02*
X5003287Y-8256984D01*
X5003287Y-8256984D02*
X4984239Y-8256984D01*
X4984239Y-8256984D02*
X4965192Y-8247460D01*
X4965192Y-8247460D02*
X4955668Y-8237936D01*
X4955668Y-8237936D02*
X4946144Y-8218888D01*
X4946144Y-8218888D02*
X4936620Y-8180793D01*
X4936620Y-8180793D02*
X4936620Y-8133174D01*
X4936620Y-8133174D02*
X4946144Y-8095079D01*
X4946144Y-8095079D02*
X4955668Y-8076031D01*
X4955668Y-8076031D02*
X4965192Y-8066508D01*
X4965192Y-8066508D02*
X4984239Y-8056984D01*
X5136620Y-8237936D02*
X5146144Y-8247460D01*
X5146144Y-8247460D02*
X5136620Y-8256984D01*
X5136620Y-8256984D02*
X5127096Y-8247460D01*
X5127096Y-8247460D02*
X5136620Y-8237936D01*
X5136620Y-8237936D02*
X5136620Y-8256984D01*
X5269954Y-8056984D02*
X5289001Y-8056984D01*
X5289001Y-8056984D02*
X5308049Y-8066508D01*
X5308049Y-8066508D02*
X5317573Y-8076031D01*
X5317573Y-8076031D02*
X5327096Y-8095079D01*
X5327096Y-8095079D02*
X5336620Y-8133174D01*
X5336620Y-8133174D02*
X5336620Y-8180793D01*
X5336620Y-8180793D02*
X5327096Y-8218888D01*
X5327096Y-8218888D02*
X5317573Y-8237936D01*
X5317573Y-8237936D02*
X5308049Y-8247460D01*
X5308049Y-8247460D02*
X5289001Y-8256984D01*
X5289001Y-8256984D02*
X5269954Y-8256984D01*
X5269954Y-8256984D02*
X5250906Y-8247460D01*
X5250906Y-8247460D02*
X5241382Y-8237936D01*
X5241382Y-8237936D02*
X5231858Y-8218888D01*
X5231858Y-8218888D02*
X5222335Y-8180793D01*
X5222335Y-8180793D02*
X5222335Y-8133174D01*
X5222335Y-8133174D02*
X5231858Y-8095079D01*
X5231858Y-8095079D02*
X5241382Y-8076031D01*
X5241382Y-8076031D02*
X5250906Y-8066508D01*
X5250906Y-8066508D02*
X5269954Y-8056984D01*
X5412811Y-8076031D02*
X5422335Y-8066508D01*
X5422335Y-8066508D02*
X5441382Y-8056984D01*
X5441382Y-8056984D02*
X5489001Y-8056984D01*
X5489001Y-8056984D02*
X5508049Y-8066508D01*
X5508049Y-8066508D02*
X5517573Y-8076031D01*
X5517573Y-8076031D02*
X5527096Y-8095079D01*
X5527096Y-8095079D02*
X5527096Y-8114127D01*
X5527096Y-8114127D02*
X5517573Y-8142698D01*
X5517573Y-8142698D02*
X5403287Y-8256984D01*
X5403287Y-8256984D02*
X5527096Y-8256984D01*
X5622334Y-8256984D02*
X5660430Y-8256984D01*
X5660430Y-8256984D02*
X5679477Y-8247460D01*
X5679477Y-8247460D02*
X5689001Y-8237936D01*
X5689001Y-8237936D02*
X5708049Y-8209365D01*
X5708049Y-8209365D02*
X5717573Y-8171269D01*
X5717573Y-8171269D02*
X5717573Y-8095079D01*
X5717573Y-8095079D02*
X5708049Y-8076031D01*
X5708049Y-8076031D02*
X5698525Y-8066508D01*
X5698525Y-8066508D02*
X5679477Y-8056984D01*
X5679477Y-8056984D02*
X5641382Y-8056984D01*
X5641382Y-8056984D02*
X5622334Y-8066508D01*
X5622334Y-8066508D02*
X5612811Y-8076031D01*
X5612811Y-8076031D02*
X5603287Y-8095079D01*
X5603287Y-8095079D02*
X5603287Y-8142698D01*
X5603287Y-8142698D02*
X5612811Y-8161746D01*
X5612811Y-8161746D02*
X5622334Y-8171269D01*
X5622334Y-8171269D02*
X5641382Y-8180793D01*
X5641382Y-8180793D02*
X5679477Y-8180793D01*
X5679477Y-8180793D02*
X5698525Y-8171269D01*
X5698525Y-8171269D02*
X5708049Y-8161746D01*
X5708049Y-8161746D02*
X5717573Y-8142698D01*
X5898525Y-8056984D02*
X5803287Y-8056984D01*
X5803287Y-8056984D02*
X5793763Y-8152222D01*
X5793763Y-8152222D02*
X5803287Y-8142698D01*
X5803287Y-8142698D02*
X5822334Y-8133174D01*
X5822334Y-8133174D02*
X5869954Y-8133174D01*
X5869954Y-8133174D02*
X5889001Y-8142698D01*
X5889001Y-8142698D02*
X5898525Y-8152222D01*
X5898525Y-8152222D02*
X5908049Y-8171269D01*
X5908049Y-8171269D02*
X5908049Y-8218888D01*
X5908049Y-8218888D02*
X5898525Y-8237936D01*
X5898525Y-8237936D02*
X5889001Y-8247460D01*
X5889001Y-8247460D02*
X5869954Y-8256984D01*
X5869954Y-8256984D02*
X5822334Y-8256984D01*
X5822334Y-8256984D02*
X5803287Y-8247460D01*
X5803287Y-8247460D02*
X5793763Y-8237936D01*
X5984239Y-8056984D02*
X5984239Y-8095079D01*
X6060430Y-8056984D02*
X6060430Y-8095079D01*
X6355668Y-8333174D02*
X6346144Y-8323650D01*
X6346144Y-8323650D02*
X6327096Y-8295079D01*
X6327096Y-8295079D02*
X6317573Y-8276031D01*
X6317573Y-8276031D02*
X6308049Y-8247460D01*
X6308049Y-8247460D02*
X6298525Y-8199841D01*
X6298525Y-8199841D02*
X6298525Y-8161746D01*
X6298525Y-8161746D02*
X6308049Y-8114127D01*
X6308049Y-8114127D02*
X6317573Y-8085555D01*
X6317573Y-8085555D02*
X6327096Y-8066508D01*
X6327096Y-8066508D02*
X6346144Y-8037936D01*
X6346144Y-8037936D02*
X6355668Y-8028412D01*
X6517573Y-8056984D02*
X6479477Y-8056984D01*
X6479477Y-8056984D02*
X6460430Y-8066508D01*
X6460430Y-8066508D02*
X6450906Y-8076031D01*
X6450906Y-8076031D02*
X6431858Y-8104603D01*
X6431858Y-8104603D02*
X6422335Y-8142698D01*
X6422335Y-8142698D02*
X6422335Y-8218888D01*
X6422335Y-8218888D02*
X6431858Y-8237936D01*
X6431858Y-8237936D02*
X6441382Y-8247460D01*
X6441382Y-8247460D02*
X6460430Y-8256984D01*
X6460430Y-8256984D02*
X6498525Y-8256984D01*
X6498525Y-8256984D02*
X6517573Y-8247460D01*
X6517573Y-8247460D02*
X6527096Y-8237936D01*
X6527096Y-8237936D02*
X6536620Y-8218888D01*
X6536620Y-8218888D02*
X6536620Y-8171269D01*
X6536620Y-8171269D02*
X6527096Y-8152222D01*
X6527096Y-8152222D02*
X6517573Y-8142698D01*
X6517573Y-8142698D02*
X6498525Y-8133174D01*
X6498525Y-8133174D02*
X6460430Y-8133174D01*
X6460430Y-8133174D02*
X6441382Y-8142698D01*
X6441382Y-8142698D02*
X6431858Y-8152222D01*
X6431858Y-8152222D02*
X6422335Y-8171269D01*
X6774716Y-8256984D02*
X6774716Y-8056984D01*
X6860430Y-8256984D02*
X6860430Y-8152222D01*
X6860430Y-8152222D02*
X6850906Y-8133174D01*
X6850906Y-8133174D02*
X6831858Y-8123650D01*
X6831858Y-8123650D02*
X6803287Y-8123650D01*
X6803287Y-8123650D02*
X6784239Y-8133174D01*
X6784239Y-8133174D02*
X6774716Y-8142698D01*
X6984239Y-8256984D02*
X6965192Y-8247460D01*
X6965192Y-8247460D02*
X6955668Y-8237936D01*
X6955668Y-8237936D02*
X6946144Y-8218888D01*
X6946144Y-8218888D02*
X6946144Y-8161746D01*
X6946144Y-8161746D02*
X6955668Y-8142698D01*
X6955668Y-8142698D02*
X6965192Y-8133174D01*
X6965192Y-8133174D02*
X6984239Y-8123650D01*
X6984239Y-8123650D02*
X7012811Y-8123650D01*
X7012811Y-8123650D02*
X7031858Y-8133174D01*
X7031858Y-8133174D02*
X7041382Y-8142698D01*
X7041382Y-8142698D02*
X7050906Y-8161746D01*
X7050906Y-8161746D02*
X7050906Y-8218888D01*
X7050906Y-8218888D02*
X7041382Y-8237936D01*
X7041382Y-8237936D02*
X7031858Y-8247460D01*
X7031858Y-8247460D02*
X7012811Y-8256984D01*
X7012811Y-8256984D02*
X6984239Y-8256984D01*
X7165192Y-8256984D02*
X7146144Y-8247460D01*
X7146144Y-8247460D02*
X7136620Y-8228412D01*
X7136620Y-8228412D02*
X7136620Y-8056984D01*
X7317573Y-8247460D02*
X7298525Y-8256984D01*
X7298525Y-8256984D02*
X7260430Y-8256984D01*
X7260430Y-8256984D02*
X7241382Y-8247460D01*
X7241382Y-8247460D02*
X7231858Y-8228412D01*
X7231858Y-8228412D02*
X7231858Y-8152222D01*
X7231858Y-8152222D02*
X7241382Y-8133174D01*
X7241382Y-8133174D02*
X7260430Y-8123650D01*
X7260430Y-8123650D02*
X7298525Y-8123650D01*
X7298525Y-8123650D02*
X7317573Y-8133174D01*
X7317573Y-8133174D02*
X7327097Y-8152222D01*
X7327097Y-8152222D02*
X7327097Y-8171269D01*
X7327097Y-8171269D02*
X7231858Y-8190317D01*
X7403287Y-8247460D02*
X7422335Y-8256984D01*
X7422335Y-8256984D02*
X7460430Y-8256984D01*
X7460430Y-8256984D02*
X7479478Y-8247460D01*
X7479478Y-8247460D02*
X7489001Y-8228412D01*
X7489001Y-8228412D02*
X7489001Y-8218888D01*
X7489001Y-8218888D02*
X7479478Y-8199841D01*
X7479478Y-8199841D02*
X7460430Y-8190317D01*
X7460430Y-8190317D02*
X7431858Y-8190317D01*
X7431858Y-8190317D02*
X7412811Y-8180793D01*
X7412811Y-8180793D02*
X7403287Y-8161746D01*
X7403287Y-8161746D02*
X7403287Y-8152222D01*
X7403287Y-8152222D02*
X7412811Y-8133174D01*
X7412811Y-8133174D02*
X7431858Y-8123650D01*
X7431858Y-8123650D02*
X7460430Y-8123650D01*
X7460430Y-8123650D02*
X7479478Y-8133174D01*
X7555668Y-8333174D02*
X7565192Y-8323650D01*
X7565192Y-8323650D02*
X7584239Y-8295079D01*
X7584239Y-8295079D02*
X7593763Y-8276031D01*
X7593763Y-8276031D02*
X7603287Y-8247460D01*
X7603287Y-8247460D02*
X7612811Y-8199841D01*
X7612811Y-8199841D02*
X7612811Y-8161746D01*
X7612811Y-8161746D02*
X7603287Y-8114127D01*
X7603287Y-8114127D02*
X7593763Y-8085555D01*
X7593763Y-8085555D02*
X7584239Y-8066508D01*
X7584239Y-8066508D02*
X7565192Y-8037936D01*
X7565192Y-8037936D02*
X7555668Y-8028412D01*
D12*
X2740605Y-8469500D02*
X2780605Y-8429500D01*
X2740605Y-8389500D01*
X2700605Y-8429500D01*
X2740605Y-8469500D01*
D11*
X3079477Y-8320984D02*
X3098525Y-8320984D01*
X3098525Y-8320984D02*
X3117572Y-8330508D01*
X3117572Y-8330508D02*
X3127096Y-8340031D01*
X3127096Y-8340031D02*
X3136620Y-8359079D01*
X3136620Y-8359079D02*
X3146144Y-8397174D01*
X3146144Y-8397174D02*
X3146144Y-8444793D01*
X3146144Y-8444793D02*
X3136620Y-8482889D01*
X3136620Y-8482889D02*
X3127096Y-8501936D01*
X3127096Y-8501936D02*
X3117572Y-8511460D01*
X3117572Y-8511460D02*
X3098525Y-8520984D01*
X3098525Y-8520984D02*
X3079477Y-8520984D01*
X3079477Y-8520984D02*
X3060429Y-8511460D01*
X3060429Y-8511460D02*
X3050906Y-8501936D01*
X3050906Y-8501936D02*
X3041382Y-8482889D01*
X3041382Y-8482889D02*
X3031858Y-8444793D01*
X3031858Y-8444793D02*
X3031858Y-8397174D01*
X3031858Y-8397174D02*
X3041382Y-8359079D01*
X3041382Y-8359079D02*
X3050906Y-8340031D01*
X3050906Y-8340031D02*
X3060429Y-8330508D01*
X3060429Y-8330508D02*
X3079477Y-8320984D01*
X3231858Y-8501936D02*
X3241382Y-8511460D01*
X3241382Y-8511460D02*
X3231858Y-8520984D01*
X3231858Y-8520984D02*
X3222334Y-8511460D01*
X3222334Y-8511460D02*
X3231858Y-8501936D01*
X3231858Y-8501936D02*
X3231858Y-8520984D01*
X3355668Y-8406698D02*
X3336620Y-8397174D01*
X3336620Y-8397174D02*
X3327096Y-8387650D01*
X3327096Y-8387650D02*
X3317572Y-8368603D01*
X3317572Y-8368603D02*
X3317572Y-8359079D01*
X3317572Y-8359079D02*
X3327096Y-8340031D01*
X3327096Y-8340031D02*
X3336620Y-8330508D01*
X3336620Y-8330508D02*
X3355668Y-8320984D01*
X3355668Y-8320984D02*
X3393763Y-8320984D01*
X3393763Y-8320984D02*
X3412810Y-8330508D01*
X3412810Y-8330508D02*
X3422334Y-8340031D01*
X3422334Y-8340031D02*
X3431858Y-8359079D01*
X3431858Y-8359079D02*
X3431858Y-8368603D01*
X3431858Y-8368603D02*
X3422334Y-8387650D01*
X3422334Y-8387650D02*
X3412810Y-8397174D01*
X3412810Y-8397174D02*
X3393763Y-8406698D01*
X3393763Y-8406698D02*
X3355668Y-8406698D01*
X3355668Y-8406698D02*
X3336620Y-8416222D01*
X3336620Y-8416222D02*
X3327096Y-8425746D01*
X3327096Y-8425746D02*
X3317572Y-8444793D01*
X3317572Y-8444793D02*
X3317572Y-8482889D01*
X3317572Y-8482889D02*
X3327096Y-8501936D01*
X3327096Y-8501936D02*
X3336620Y-8511460D01*
X3336620Y-8511460D02*
X3355668Y-8520984D01*
X3355668Y-8520984D02*
X3393763Y-8520984D01*
X3393763Y-8520984D02*
X3412810Y-8511460D01*
X3412810Y-8511460D02*
X3422334Y-8501936D01*
X3422334Y-8501936D02*
X3431858Y-8482889D01*
X3431858Y-8482889D02*
X3431858Y-8444793D01*
X3431858Y-8444793D02*
X3422334Y-8425746D01*
X3422334Y-8425746D02*
X3412810Y-8416222D01*
X3412810Y-8416222D02*
X3393763Y-8406698D01*
X3555668Y-8320984D02*
X3574715Y-8320984D01*
X3574715Y-8320984D02*
X3593763Y-8330508D01*
X3593763Y-8330508D02*
X3603287Y-8340031D01*
X3603287Y-8340031D02*
X3612810Y-8359079D01*
X3612810Y-8359079D02*
X3622334Y-8397174D01*
X3622334Y-8397174D02*
X3622334Y-8444793D01*
X3622334Y-8444793D02*
X3612810Y-8482889D01*
X3612810Y-8482889D02*
X3603287Y-8501936D01*
X3603287Y-8501936D02*
X3593763Y-8511460D01*
X3593763Y-8511460D02*
X3574715Y-8520984D01*
X3574715Y-8520984D02*
X3555668Y-8520984D01*
X3555668Y-8520984D02*
X3536620Y-8511460D01*
X3536620Y-8511460D02*
X3527096Y-8501936D01*
X3527096Y-8501936D02*
X3517572Y-8482889D01*
X3517572Y-8482889D02*
X3508049Y-8444793D01*
X3508049Y-8444793D02*
X3508049Y-8397174D01*
X3508049Y-8397174D02*
X3517572Y-8359079D01*
X3517572Y-8359079D02*
X3527096Y-8340031D01*
X3527096Y-8340031D02*
X3536620Y-8330508D01*
X3536620Y-8330508D02*
X3555668Y-8320984D01*
X3746144Y-8320984D02*
X3765191Y-8320984D01*
X3765191Y-8320984D02*
X3784239Y-8330508D01*
X3784239Y-8330508D02*
X3793763Y-8340031D01*
X3793763Y-8340031D02*
X3803287Y-8359079D01*
X3803287Y-8359079D02*
X3812810Y-8397174D01*
X3812810Y-8397174D02*
X3812810Y-8444793D01*
X3812810Y-8444793D02*
X3803287Y-8482889D01*
X3803287Y-8482889D02*
X3793763Y-8501936D01*
X3793763Y-8501936D02*
X3784239Y-8511460D01*
X3784239Y-8511460D02*
X3765191Y-8520984D01*
X3765191Y-8520984D02*
X3746144Y-8520984D01*
X3746144Y-8520984D02*
X3727096Y-8511460D01*
X3727096Y-8511460D02*
X3717572Y-8501936D01*
X3717572Y-8501936D02*
X3708049Y-8482889D01*
X3708049Y-8482889D02*
X3698525Y-8444793D01*
X3698525Y-8444793D02*
X3698525Y-8397174D01*
X3698525Y-8397174D02*
X3708049Y-8359079D01*
X3708049Y-8359079D02*
X3717572Y-8340031D01*
X3717572Y-8340031D02*
X3727096Y-8330508D01*
X3727096Y-8330508D02*
X3746144Y-8320984D01*
X3898525Y-8520984D02*
X3898525Y-8387650D01*
X3898525Y-8406698D02*
X3908049Y-8397174D01*
X3908049Y-8397174D02*
X3927096Y-8387650D01*
X3927096Y-8387650D02*
X3955668Y-8387650D01*
X3955668Y-8387650D02*
X3974715Y-8397174D01*
X3974715Y-8397174D02*
X3984239Y-8416222D01*
X3984239Y-8416222D02*
X3984239Y-8520984D01*
X3984239Y-8416222D02*
X3993763Y-8397174D01*
X3993763Y-8397174D02*
X4012810Y-8387650D01*
X4012810Y-8387650D02*
X4041382Y-8387650D01*
X4041382Y-8387650D02*
X4060430Y-8397174D01*
X4060430Y-8397174D02*
X4069953Y-8416222D01*
X4069953Y-8416222D02*
X4069953Y-8520984D01*
X4165191Y-8520984D02*
X4165191Y-8387650D01*
X4165191Y-8406698D02*
X4174715Y-8397174D01*
X4174715Y-8397174D02*
X4193763Y-8387650D01*
X4193763Y-8387650D02*
X4222334Y-8387650D01*
X4222334Y-8387650D02*
X4241382Y-8397174D01*
X4241382Y-8397174D02*
X4250906Y-8416222D01*
X4250906Y-8416222D02*
X4250906Y-8520984D01*
X4250906Y-8416222D02*
X4260430Y-8397174D01*
X4260430Y-8397174D02*
X4279477Y-8387650D01*
X4279477Y-8387650D02*
X4308049Y-8387650D01*
X4308049Y-8387650D02*
X4327096Y-8397174D01*
X4327096Y-8397174D02*
X4336620Y-8416222D01*
X4336620Y-8416222D02*
X4336620Y-8520984D01*
X4727096Y-8311460D02*
X4555668Y-8568603D01*
X4984239Y-8320984D02*
X5003287Y-8320984D01*
X5003287Y-8320984D02*
X5022335Y-8330508D01*
X5022335Y-8330508D02*
X5031858Y-8340031D01*
X5031858Y-8340031D02*
X5041382Y-8359079D01*
X5041382Y-8359079D02*
X5050906Y-8397174D01*
X5050906Y-8397174D02*
X5050906Y-8444793D01*
X5050906Y-8444793D02*
X5041382Y-8482889D01*
X5041382Y-8482889D02*
X5031858Y-8501936D01*
X5031858Y-8501936D02*
X5022335Y-8511460D01*
X5022335Y-8511460D02*
X5003287Y-8520984D01*
X5003287Y-8520984D02*
X4984239Y-8520984D01*
X4984239Y-8520984D02*
X4965192Y-8511460D01*
X4965192Y-8511460D02*
X4955668Y-8501936D01*
X4955668Y-8501936D02*
X4946144Y-8482889D01*
X4946144Y-8482889D02*
X4936620Y-8444793D01*
X4936620Y-8444793D02*
X4936620Y-8397174D01*
X4936620Y-8397174D02*
X4946144Y-8359079D01*
X4946144Y-8359079D02*
X4955668Y-8340031D01*
X4955668Y-8340031D02*
X4965192Y-8330508D01*
X4965192Y-8330508D02*
X4984239Y-8320984D01*
X5136620Y-8501936D02*
X5146144Y-8511460D01*
X5146144Y-8511460D02*
X5136620Y-8520984D01*
X5136620Y-8520984D02*
X5127096Y-8511460D01*
X5127096Y-8511460D02*
X5136620Y-8501936D01*
X5136620Y-8501936D02*
X5136620Y-8520984D01*
X5269954Y-8320984D02*
X5289001Y-8320984D01*
X5289001Y-8320984D02*
X5308049Y-8330508D01*
X5308049Y-8330508D02*
X5317573Y-8340031D01*
X5317573Y-8340031D02*
X5327096Y-8359079D01*
X5327096Y-8359079D02*
X5336620Y-8397174D01*
X5336620Y-8397174D02*
X5336620Y-8444793D01*
X5336620Y-8444793D02*
X5327096Y-8482889D01*
X5327096Y-8482889D02*
X5317573Y-8501936D01*
X5317573Y-8501936D02*
X5308049Y-8511460D01*
X5308049Y-8511460D02*
X5289001Y-8520984D01*
X5289001Y-8520984D02*
X5269954Y-8520984D01*
X5269954Y-8520984D02*
X5250906Y-8511460D01*
X5250906Y-8511460D02*
X5241382Y-8501936D01*
X5241382Y-8501936D02*
X5231858Y-8482889D01*
X5231858Y-8482889D02*
X5222335Y-8444793D01*
X5222335Y-8444793D02*
X5222335Y-8397174D01*
X5222335Y-8397174D02*
X5231858Y-8359079D01*
X5231858Y-8359079D02*
X5241382Y-8340031D01*
X5241382Y-8340031D02*
X5250906Y-8330508D01*
X5250906Y-8330508D02*
X5269954Y-8320984D01*
X5403287Y-8320984D02*
X5527096Y-8320984D01*
X5527096Y-8320984D02*
X5460430Y-8397174D01*
X5460430Y-8397174D02*
X5489001Y-8397174D01*
X5489001Y-8397174D02*
X5508049Y-8406698D01*
X5508049Y-8406698D02*
X5517573Y-8416222D01*
X5517573Y-8416222D02*
X5527096Y-8435270D01*
X5527096Y-8435270D02*
X5527096Y-8482889D01*
X5527096Y-8482889D02*
X5517573Y-8501936D01*
X5517573Y-8501936D02*
X5508049Y-8511460D01*
X5508049Y-8511460D02*
X5489001Y-8520984D01*
X5489001Y-8520984D02*
X5431858Y-8520984D01*
X5431858Y-8520984D02*
X5412811Y-8511460D01*
X5412811Y-8511460D02*
X5403287Y-8501936D01*
X5717573Y-8520984D02*
X5603287Y-8520984D01*
X5660430Y-8520984D02*
X5660430Y-8320984D01*
X5660430Y-8320984D02*
X5641382Y-8349555D01*
X5641382Y-8349555D02*
X5622334Y-8368603D01*
X5622334Y-8368603D02*
X5603287Y-8378127D01*
X5898525Y-8320984D02*
X5803287Y-8320984D01*
X5803287Y-8320984D02*
X5793763Y-8416222D01*
X5793763Y-8416222D02*
X5803287Y-8406698D01*
X5803287Y-8406698D02*
X5822334Y-8397174D01*
X5822334Y-8397174D02*
X5869954Y-8397174D01*
X5869954Y-8397174D02*
X5889001Y-8406698D01*
X5889001Y-8406698D02*
X5898525Y-8416222D01*
X5898525Y-8416222D02*
X5908049Y-8435270D01*
X5908049Y-8435270D02*
X5908049Y-8482889D01*
X5908049Y-8482889D02*
X5898525Y-8501936D01*
X5898525Y-8501936D02*
X5889001Y-8511460D01*
X5889001Y-8511460D02*
X5869954Y-8520984D01*
X5869954Y-8520984D02*
X5822334Y-8520984D01*
X5822334Y-8520984D02*
X5803287Y-8511460D01*
X5803287Y-8511460D02*
X5793763Y-8501936D01*
X5984239Y-8320984D02*
X5984239Y-8359079D01*
X6060430Y-8320984D02*
X6060430Y-8359079D01*
X6355668Y-8597174D02*
X6346144Y-8587650D01*
X6346144Y-8587650D02*
X6327096Y-8559079D01*
X6327096Y-8559079D02*
X6317573Y-8540031D01*
X6317573Y-8540031D02*
X6308049Y-8511460D01*
X6308049Y-8511460D02*
X6298525Y-8463841D01*
X6298525Y-8463841D02*
X6298525Y-8425746D01*
X6298525Y-8425746D02*
X6308049Y-8378127D01*
X6308049Y-8378127D02*
X6317573Y-8349555D01*
X6317573Y-8349555D02*
X6327096Y-8330508D01*
X6327096Y-8330508D02*
X6346144Y-8301936D01*
X6346144Y-8301936D02*
X6355668Y-8292412D01*
X6517573Y-8387650D02*
X6517573Y-8520984D01*
X6469954Y-8311460D02*
X6422335Y-8454317D01*
X6422335Y-8454317D02*
X6546144Y-8454317D01*
X6708049Y-8387650D02*
X6708049Y-8520984D01*
X6660430Y-8311460D02*
X6612811Y-8454317D01*
X6612811Y-8454317D02*
X6736620Y-8454317D01*
X6965192Y-8520984D02*
X6965192Y-8320984D01*
X7050906Y-8520984D02*
X7050906Y-8416222D01*
X7050906Y-8416222D02*
X7041382Y-8397174D01*
X7041382Y-8397174D02*
X7022335Y-8387650D01*
X7022335Y-8387650D02*
X6993763Y-8387650D01*
X6993763Y-8387650D02*
X6974716Y-8397174D01*
X6974716Y-8397174D02*
X6965192Y-8406698D01*
X7174716Y-8520984D02*
X7155668Y-8511460D01*
X7155668Y-8511460D02*
X7146144Y-8501936D01*
X7146144Y-8501936D02*
X7136620Y-8482889D01*
X7136620Y-8482889D02*
X7136620Y-8425746D01*
X7136620Y-8425746D02*
X7146144Y-8406698D01*
X7146144Y-8406698D02*
X7155668Y-8397174D01*
X7155668Y-8397174D02*
X7174716Y-8387650D01*
X7174716Y-8387650D02*
X7203287Y-8387650D01*
X7203287Y-8387650D02*
X7222335Y-8397174D01*
X7222335Y-8397174D02*
X7231858Y-8406698D01*
X7231858Y-8406698D02*
X7241382Y-8425746D01*
X7241382Y-8425746D02*
X7241382Y-8482889D01*
X7241382Y-8482889D02*
X7231858Y-8501936D01*
X7231858Y-8501936D02*
X7222335Y-8511460D01*
X7222335Y-8511460D02*
X7203287Y-8520984D01*
X7203287Y-8520984D02*
X7174716Y-8520984D01*
X7355668Y-8520984D02*
X7336620Y-8511460D01*
X7336620Y-8511460D02*
X7327097Y-8492412D01*
X7327097Y-8492412D02*
X7327097Y-8320984D01*
X7508049Y-8511460D02*
X7489001Y-8520984D01*
X7489001Y-8520984D02*
X7450906Y-8520984D01*
X7450906Y-8520984D02*
X7431858Y-8511460D01*
X7431858Y-8511460D02*
X7422335Y-8492412D01*
X7422335Y-8492412D02*
X7422335Y-8416222D01*
X7422335Y-8416222D02*
X7431858Y-8397174D01*
X7431858Y-8397174D02*
X7450906Y-8387650D01*
X7450906Y-8387650D02*
X7489001Y-8387650D01*
X7489001Y-8387650D02*
X7508049Y-8397174D01*
X7508049Y-8397174D02*
X7517573Y-8416222D01*
X7517573Y-8416222D02*
X7517573Y-8435270D01*
X7517573Y-8435270D02*
X7422335Y-8454317D01*
X7593763Y-8511460D02*
X7612811Y-8520984D01*
X7612811Y-8520984D02*
X7650906Y-8520984D01*
X7650906Y-8520984D02*
X7669954Y-8511460D01*
X7669954Y-8511460D02*
X7679478Y-8492412D01*
X7679478Y-8492412D02*
X7679478Y-8482889D01*
X7679478Y-8482889D02*
X7669954Y-8463841D01*
X7669954Y-8463841D02*
X7650906Y-8454317D01*
X7650906Y-8454317D02*
X7622335Y-8454317D01*
X7622335Y-8454317D02*
X7603287Y-8444793D01*
X7603287Y-8444793D02*
X7593763Y-8425746D01*
X7593763Y-8425746D02*
X7593763Y-8416222D01*
X7593763Y-8416222D02*
X7603287Y-8397174D01*
X7603287Y-8397174D02*
X7622335Y-8387650D01*
X7622335Y-8387650D02*
X7650906Y-8387650D01*
X7650906Y-8387650D02*
X7669954Y-8397174D01*
X7746144Y-8597174D02*
X7755668Y-8587650D01*
X7755668Y-8587650D02*
X7774716Y-8559079D01*
X7774716Y-8559079D02*
X7784239Y-8540031D01*
X7784239Y-8540031D02*
X7793763Y-8511460D01*
X7793763Y-8511460D02*
X7803287Y-8463841D01*
X7803287Y-8463841D02*
X7803287Y-8425746D01*
X7803287Y-8425746D02*
X7793763Y-8378127D01*
X7793763Y-8378127D02*
X7784239Y-8349555D01*
X7784239Y-8349555D02*
X7774716Y-8330508D01*
X7774716Y-8330508D02*
X7755668Y-8301936D01*
X7755668Y-8301936D02*
X7746144Y-8292412D01*
D12*
X2680605Y-8643500D02*
X2780605Y-8743500D01*
X2780605Y-8643500D02*
X2680605Y-8743500D01*
X2780605Y-8693500D02*
G75*
G02*
X2680605Y-8693500I-50000J0D01*
G01*
X2680605Y-8693500D02*
G75*
G02*
X2780605Y-8693500I50000J0D01*
G01*
D11*
X3146144Y-8784984D02*
X3031858Y-8784984D01*
X3089001Y-8784984D02*
X3089001Y-8584984D01*
X3089001Y-8584984D02*
X3069953Y-8613555D01*
X3069953Y-8613555D02*
X3050906Y-8632603D01*
X3050906Y-8632603D02*
X3031858Y-8642127D01*
X3231858Y-8765936D02*
X3241382Y-8775460D01*
X3241382Y-8775460D02*
X3231858Y-8784984D01*
X3231858Y-8784984D02*
X3222334Y-8775460D01*
X3222334Y-8775460D02*
X3231858Y-8765936D01*
X3231858Y-8765936D02*
X3231858Y-8784984D01*
X3365191Y-8584984D02*
X3384239Y-8584984D01*
X3384239Y-8584984D02*
X3403287Y-8594508D01*
X3403287Y-8594508D02*
X3412810Y-8604031D01*
X3412810Y-8604031D02*
X3422334Y-8623079D01*
X3422334Y-8623079D02*
X3431858Y-8661174D01*
X3431858Y-8661174D02*
X3431858Y-8708793D01*
X3431858Y-8708793D02*
X3422334Y-8746889D01*
X3422334Y-8746889D02*
X3412810Y-8765936D01*
X3412810Y-8765936D02*
X3403287Y-8775460D01*
X3403287Y-8775460D02*
X3384239Y-8784984D01*
X3384239Y-8784984D02*
X3365191Y-8784984D01*
X3365191Y-8784984D02*
X3346144Y-8775460D01*
X3346144Y-8775460D02*
X3336620Y-8765936D01*
X3336620Y-8765936D02*
X3327096Y-8746889D01*
X3327096Y-8746889D02*
X3317572Y-8708793D01*
X3317572Y-8708793D02*
X3317572Y-8661174D01*
X3317572Y-8661174D02*
X3327096Y-8623079D01*
X3327096Y-8623079D02*
X3336620Y-8604031D01*
X3336620Y-8604031D02*
X3346144Y-8594508D01*
X3346144Y-8594508D02*
X3365191Y-8584984D01*
X3555668Y-8584984D02*
X3574715Y-8584984D01*
X3574715Y-8584984D02*
X3593763Y-8594508D01*
X3593763Y-8594508D02*
X3603287Y-8604031D01*
X3603287Y-8604031D02*
X3612810Y-8623079D01*
X3612810Y-8623079D02*
X3622334Y-8661174D01*
X3622334Y-8661174D02*
X3622334Y-8708793D01*
X3622334Y-8708793D02*
X3612810Y-8746889D01*
X3612810Y-8746889D02*
X3603287Y-8765936D01*
X3603287Y-8765936D02*
X3593763Y-8775460D01*
X3593763Y-8775460D02*
X3574715Y-8784984D01*
X3574715Y-8784984D02*
X3555668Y-8784984D01*
X3555668Y-8784984D02*
X3536620Y-8775460D01*
X3536620Y-8775460D02*
X3527096Y-8765936D01*
X3527096Y-8765936D02*
X3517572Y-8746889D01*
X3517572Y-8746889D02*
X3508049Y-8708793D01*
X3508049Y-8708793D02*
X3508049Y-8661174D01*
X3508049Y-8661174D02*
X3517572Y-8623079D01*
X3517572Y-8623079D02*
X3527096Y-8604031D01*
X3527096Y-8604031D02*
X3536620Y-8594508D01*
X3536620Y-8594508D02*
X3555668Y-8584984D01*
X3746144Y-8584984D02*
X3765191Y-8584984D01*
X3765191Y-8584984D02*
X3784239Y-8594508D01*
X3784239Y-8594508D02*
X3793763Y-8604031D01*
X3793763Y-8604031D02*
X3803287Y-8623079D01*
X3803287Y-8623079D02*
X3812810Y-8661174D01*
X3812810Y-8661174D02*
X3812810Y-8708793D01*
X3812810Y-8708793D02*
X3803287Y-8746889D01*
X3803287Y-8746889D02*
X3793763Y-8765936D01*
X3793763Y-8765936D02*
X3784239Y-8775460D01*
X3784239Y-8775460D02*
X3765191Y-8784984D01*
X3765191Y-8784984D02*
X3746144Y-8784984D01*
X3746144Y-8784984D02*
X3727096Y-8775460D01*
X3727096Y-8775460D02*
X3717572Y-8765936D01*
X3717572Y-8765936D02*
X3708049Y-8746889D01*
X3708049Y-8746889D02*
X3698525Y-8708793D01*
X3698525Y-8708793D02*
X3698525Y-8661174D01*
X3698525Y-8661174D02*
X3708049Y-8623079D01*
X3708049Y-8623079D02*
X3717572Y-8604031D01*
X3717572Y-8604031D02*
X3727096Y-8594508D01*
X3727096Y-8594508D02*
X3746144Y-8584984D01*
X3898525Y-8784984D02*
X3898525Y-8651650D01*
X3898525Y-8670698D02*
X3908049Y-8661174D01*
X3908049Y-8661174D02*
X3927096Y-8651650D01*
X3927096Y-8651650D02*
X3955668Y-8651650D01*
X3955668Y-8651650D02*
X3974715Y-8661174D01*
X3974715Y-8661174D02*
X3984239Y-8680222D01*
X3984239Y-8680222D02*
X3984239Y-8784984D01*
X3984239Y-8680222D02*
X3993763Y-8661174D01*
X3993763Y-8661174D02*
X4012810Y-8651650D01*
X4012810Y-8651650D02*
X4041382Y-8651650D01*
X4041382Y-8651650D02*
X4060430Y-8661174D01*
X4060430Y-8661174D02*
X4069953Y-8680222D01*
X4069953Y-8680222D02*
X4069953Y-8784984D01*
X4165191Y-8784984D02*
X4165191Y-8651650D01*
X4165191Y-8670698D02*
X4174715Y-8661174D01*
X4174715Y-8661174D02*
X4193763Y-8651650D01*
X4193763Y-8651650D02*
X4222334Y-8651650D01*
X4222334Y-8651650D02*
X4241382Y-8661174D01*
X4241382Y-8661174D02*
X4250906Y-8680222D01*
X4250906Y-8680222D02*
X4250906Y-8784984D01*
X4250906Y-8680222D02*
X4260430Y-8661174D01*
X4260430Y-8661174D02*
X4279477Y-8651650D01*
X4279477Y-8651650D02*
X4308049Y-8651650D01*
X4308049Y-8651650D02*
X4327096Y-8661174D01*
X4327096Y-8661174D02*
X4336620Y-8680222D01*
X4336620Y-8680222D02*
X4336620Y-8784984D01*
X4727096Y-8575460D02*
X4555668Y-8832603D01*
X4984239Y-8584984D02*
X5003287Y-8584984D01*
X5003287Y-8584984D02*
X5022335Y-8594508D01*
X5022335Y-8594508D02*
X5031858Y-8604031D01*
X5031858Y-8604031D02*
X5041382Y-8623079D01*
X5041382Y-8623079D02*
X5050906Y-8661174D01*
X5050906Y-8661174D02*
X5050906Y-8708793D01*
X5050906Y-8708793D02*
X5041382Y-8746889D01*
X5041382Y-8746889D02*
X5031858Y-8765936D01*
X5031858Y-8765936D02*
X5022335Y-8775460D01*
X5022335Y-8775460D02*
X5003287Y-8784984D01*
X5003287Y-8784984D02*
X4984239Y-8784984D01*
X4984239Y-8784984D02*
X4965192Y-8775460D01*
X4965192Y-8775460D02*
X4955668Y-8765936D01*
X4955668Y-8765936D02*
X4946144Y-8746889D01*
X4946144Y-8746889D02*
X4936620Y-8708793D01*
X4936620Y-8708793D02*
X4936620Y-8661174D01*
X4936620Y-8661174D02*
X4946144Y-8623079D01*
X4946144Y-8623079D02*
X4955668Y-8604031D01*
X4955668Y-8604031D02*
X4965192Y-8594508D01*
X4965192Y-8594508D02*
X4984239Y-8584984D01*
X5136620Y-8765936D02*
X5146144Y-8775460D01*
X5146144Y-8775460D02*
X5136620Y-8784984D01*
X5136620Y-8784984D02*
X5127096Y-8775460D01*
X5127096Y-8775460D02*
X5136620Y-8765936D01*
X5136620Y-8765936D02*
X5136620Y-8784984D01*
X5269954Y-8584984D02*
X5289001Y-8584984D01*
X5289001Y-8584984D02*
X5308049Y-8594508D01*
X5308049Y-8594508D02*
X5317573Y-8604031D01*
X5317573Y-8604031D02*
X5327096Y-8623079D01*
X5327096Y-8623079D02*
X5336620Y-8661174D01*
X5336620Y-8661174D02*
X5336620Y-8708793D01*
X5336620Y-8708793D02*
X5327096Y-8746889D01*
X5327096Y-8746889D02*
X5317573Y-8765936D01*
X5317573Y-8765936D02*
X5308049Y-8775460D01*
X5308049Y-8775460D02*
X5289001Y-8784984D01*
X5289001Y-8784984D02*
X5269954Y-8784984D01*
X5269954Y-8784984D02*
X5250906Y-8775460D01*
X5250906Y-8775460D02*
X5241382Y-8765936D01*
X5241382Y-8765936D02*
X5231858Y-8746889D01*
X5231858Y-8746889D02*
X5222335Y-8708793D01*
X5222335Y-8708793D02*
X5222335Y-8661174D01*
X5222335Y-8661174D02*
X5231858Y-8623079D01*
X5231858Y-8623079D02*
X5241382Y-8604031D01*
X5241382Y-8604031D02*
X5250906Y-8594508D01*
X5250906Y-8594508D02*
X5269954Y-8584984D01*
X5403287Y-8584984D02*
X5527096Y-8584984D01*
X5527096Y-8584984D02*
X5460430Y-8661174D01*
X5460430Y-8661174D02*
X5489001Y-8661174D01*
X5489001Y-8661174D02*
X5508049Y-8670698D01*
X5508049Y-8670698D02*
X5517573Y-8680222D01*
X5517573Y-8680222D02*
X5527096Y-8699270D01*
X5527096Y-8699270D02*
X5527096Y-8746889D01*
X5527096Y-8746889D02*
X5517573Y-8765936D01*
X5517573Y-8765936D02*
X5508049Y-8775460D01*
X5508049Y-8775460D02*
X5489001Y-8784984D01*
X5489001Y-8784984D02*
X5431858Y-8784984D01*
X5431858Y-8784984D02*
X5412811Y-8775460D01*
X5412811Y-8775460D02*
X5403287Y-8765936D01*
X5622334Y-8784984D02*
X5660430Y-8784984D01*
X5660430Y-8784984D02*
X5679477Y-8775460D01*
X5679477Y-8775460D02*
X5689001Y-8765936D01*
X5689001Y-8765936D02*
X5708049Y-8737365D01*
X5708049Y-8737365D02*
X5717573Y-8699270D01*
X5717573Y-8699270D02*
X5717573Y-8623079D01*
X5717573Y-8623079D02*
X5708049Y-8604031D01*
X5708049Y-8604031D02*
X5698525Y-8594508D01*
X5698525Y-8594508D02*
X5679477Y-8584984D01*
X5679477Y-8584984D02*
X5641382Y-8584984D01*
X5641382Y-8584984D02*
X5622334Y-8594508D01*
X5622334Y-8594508D02*
X5612811Y-8604031D01*
X5612811Y-8604031D02*
X5603287Y-8623079D01*
X5603287Y-8623079D02*
X5603287Y-8670698D01*
X5603287Y-8670698D02*
X5612811Y-8689746D01*
X5612811Y-8689746D02*
X5622334Y-8699270D01*
X5622334Y-8699270D02*
X5641382Y-8708793D01*
X5641382Y-8708793D02*
X5679477Y-8708793D01*
X5679477Y-8708793D02*
X5698525Y-8699270D01*
X5698525Y-8699270D02*
X5708049Y-8689746D01*
X5708049Y-8689746D02*
X5717573Y-8670698D01*
X5889001Y-8651650D02*
X5889001Y-8784984D01*
X5841382Y-8575460D02*
X5793763Y-8718317D01*
X5793763Y-8718317D02*
X5917573Y-8718317D01*
X5984239Y-8584984D02*
X5984239Y-8623079D01*
X6060430Y-8584984D02*
X6060430Y-8623079D01*
X6355668Y-8861174D02*
X6346144Y-8851650D01*
X6346144Y-8851650D02*
X6327096Y-8823079D01*
X6327096Y-8823079D02*
X6317573Y-8804031D01*
X6317573Y-8804031D02*
X6308049Y-8775460D01*
X6308049Y-8775460D02*
X6298525Y-8727841D01*
X6298525Y-8727841D02*
X6298525Y-8689746D01*
X6298525Y-8689746D02*
X6308049Y-8642127D01*
X6308049Y-8642127D02*
X6317573Y-8613555D01*
X6317573Y-8613555D02*
X6327096Y-8594508D01*
X6327096Y-8594508D02*
X6346144Y-8565936D01*
X6346144Y-8565936D02*
X6355668Y-8556412D01*
X6536620Y-8784984D02*
X6422335Y-8784984D01*
X6479477Y-8784984D02*
X6479477Y-8584984D01*
X6479477Y-8584984D02*
X6460430Y-8613555D01*
X6460430Y-8613555D02*
X6441382Y-8632603D01*
X6441382Y-8632603D02*
X6422335Y-8642127D01*
X6631858Y-8784984D02*
X6669954Y-8784984D01*
X6669954Y-8784984D02*
X6689001Y-8775460D01*
X6689001Y-8775460D02*
X6698525Y-8765936D01*
X6698525Y-8765936D02*
X6717573Y-8737365D01*
X6717573Y-8737365D02*
X6727096Y-8699270D01*
X6727096Y-8699270D02*
X6727096Y-8623079D01*
X6727096Y-8623079D02*
X6717573Y-8604031D01*
X6717573Y-8604031D02*
X6708049Y-8594508D01*
X6708049Y-8594508D02*
X6689001Y-8584984D01*
X6689001Y-8584984D02*
X6650906Y-8584984D01*
X6650906Y-8584984D02*
X6631858Y-8594508D01*
X6631858Y-8594508D02*
X6622335Y-8604031D01*
X6622335Y-8604031D02*
X6612811Y-8623079D01*
X6612811Y-8623079D02*
X6612811Y-8670698D01*
X6612811Y-8670698D02*
X6622335Y-8689746D01*
X6622335Y-8689746D02*
X6631858Y-8699270D01*
X6631858Y-8699270D02*
X6650906Y-8708793D01*
X6650906Y-8708793D02*
X6689001Y-8708793D01*
X6689001Y-8708793D02*
X6708049Y-8699270D01*
X6708049Y-8699270D02*
X6717573Y-8689746D01*
X6717573Y-8689746D02*
X6727096Y-8670698D01*
X6965192Y-8784984D02*
X6965192Y-8584984D01*
X7050906Y-8784984D02*
X7050906Y-8680222D01*
X7050906Y-8680222D02*
X7041382Y-8661174D01*
X7041382Y-8661174D02*
X7022335Y-8651650D01*
X7022335Y-8651650D02*
X6993763Y-8651650D01*
X6993763Y-8651650D02*
X6974716Y-8661174D01*
X6974716Y-8661174D02*
X6965192Y-8670698D01*
X7174716Y-8784984D02*
X7155668Y-8775460D01*
X7155668Y-8775460D02*
X7146144Y-8765936D01*
X7146144Y-8765936D02*
X7136620Y-8746889D01*
X7136620Y-8746889D02*
X7136620Y-8689746D01*
X7136620Y-8689746D02*
X7146144Y-8670698D01*
X7146144Y-8670698D02*
X7155668Y-8661174D01*
X7155668Y-8661174D02*
X7174716Y-8651650D01*
X7174716Y-8651650D02*
X7203287Y-8651650D01*
X7203287Y-8651650D02*
X7222335Y-8661174D01*
X7222335Y-8661174D02*
X7231858Y-8670698D01*
X7231858Y-8670698D02*
X7241382Y-8689746D01*
X7241382Y-8689746D02*
X7241382Y-8746889D01*
X7241382Y-8746889D02*
X7231858Y-8765936D01*
X7231858Y-8765936D02*
X7222335Y-8775460D01*
X7222335Y-8775460D02*
X7203287Y-8784984D01*
X7203287Y-8784984D02*
X7174716Y-8784984D01*
X7355668Y-8784984D02*
X7336620Y-8775460D01*
X7336620Y-8775460D02*
X7327097Y-8756412D01*
X7327097Y-8756412D02*
X7327097Y-8584984D01*
X7508049Y-8775460D02*
X7489001Y-8784984D01*
X7489001Y-8784984D02*
X7450906Y-8784984D01*
X7450906Y-8784984D02*
X7431858Y-8775460D01*
X7431858Y-8775460D02*
X7422335Y-8756412D01*
X7422335Y-8756412D02*
X7422335Y-8680222D01*
X7422335Y-8680222D02*
X7431858Y-8661174D01*
X7431858Y-8661174D02*
X7450906Y-8651650D01*
X7450906Y-8651650D02*
X7489001Y-8651650D01*
X7489001Y-8651650D02*
X7508049Y-8661174D01*
X7508049Y-8661174D02*
X7517573Y-8680222D01*
X7517573Y-8680222D02*
X7517573Y-8699270D01*
X7517573Y-8699270D02*
X7422335Y-8718317D01*
X7593763Y-8775460D02*
X7612811Y-8784984D01*
X7612811Y-8784984D02*
X7650906Y-8784984D01*
X7650906Y-8784984D02*
X7669954Y-8775460D01*
X7669954Y-8775460D02*
X7679478Y-8756412D01*
X7679478Y-8756412D02*
X7679478Y-8746889D01*
X7679478Y-8746889D02*
X7669954Y-8727841D01*
X7669954Y-8727841D02*
X7650906Y-8718317D01*
X7650906Y-8718317D02*
X7622335Y-8718317D01*
X7622335Y-8718317D02*
X7603287Y-8708793D01*
X7603287Y-8708793D02*
X7593763Y-8689746D01*
X7593763Y-8689746D02*
X7593763Y-8680222D01*
X7593763Y-8680222D02*
X7603287Y-8661174D01*
X7603287Y-8661174D02*
X7622335Y-8651650D01*
X7622335Y-8651650D02*
X7650906Y-8651650D01*
X7650906Y-8651650D02*
X7669954Y-8661174D01*
X7746144Y-8861174D02*
X7755668Y-8851650D01*
X7755668Y-8851650D02*
X7774716Y-8823079D01*
X7774716Y-8823079D02*
X7784239Y-8804031D01*
X7784239Y-8804031D02*
X7793763Y-8775460D01*
X7793763Y-8775460D02*
X7803287Y-8727841D01*
X7803287Y-8727841D02*
X7803287Y-8689746D01*
X7803287Y-8689746D02*
X7793763Y-8642127D01*
X7793763Y-8642127D02*
X7784239Y-8613555D01*
X7784239Y-8613555D02*
X7774716Y-8594508D01*
X7774716Y-8594508D02*
X7755668Y-8565936D01*
X7755668Y-8565936D02*
X7746144Y-8556412D01*
D13*
X2660605Y-8897500D02*
X2780605Y-9017500D01*
X2780605Y-8897500D02*
X2660605Y-9017500D01*
X2720605Y-8897500D02*
X2720605Y-9017500D01*
X2660605Y-8957500D02*
X2780605Y-8957500D01*
D11*
X3146144Y-9048984D02*
X3031858Y-9048984D01*
X3089001Y-9048984D02*
X3089001Y-8848984D01*
X3089001Y-8848984D02*
X3069953Y-8877555D01*
X3069953Y-8877555D02*
X3050906Y-8896603D01*
X3050906Y-8896603D02*
X3031858Y-8906127D01*
X3231858Y-9029936D02*
X3241382Y-9039460D01*
X3241382Y-9039460D02*
X3231858Y-9048984D01*
X3231858Y-9048984D02*
X3222334Y-9039460D01*
X3222334Y-9039460D02*
X3231858Y-9029936D01*
X3231858Y-9029936D02*
X3231858Y-9048984D01*
X3317572Y-8868031D02*
X3327096Y-8858508D01*
X3327096Y-8858508D02*
X3346144Y-8848984D01*
X3346144Y-8848984D02*
X3393763Y-8848984D01*
X3393763Y-8848984D02*
X3412810Y-8858508D01*
X3412810Y-8858508D02*
X3422334Y-8868031D01*
X3422334Y-8868031D02*
X3431858Y-8887079D01*
X3431858Y-8887079D02*
X3431858Y-8906127D01*
X3431858Y-8906127D02*
X3422334Y-8934698D01*
X3422334Y-8934698D02*
X3308049Y-9048984D01*
X3308049Y-9048984D02*
X3431858Y-9048984D01*
X3555668Y-8848984D02*
X3574715Y-8848984D01*
X3574715Y-8848984D02*
X3593763Y-8858508D01*
X3593763Y-8858508D02*
X3603287Y-8868031D01*
X3603287Y-8868031D02*
X3612810Y-8887079D01*
X3612810Y-8887079D02*
X3622334Y-8925174D01*
X3622334Y-8925174D02*
X3622334Y-8972793D01*
X3622334Y-8972793D02*
X3612810Y-9010889D01*
X3612810Y-9010889D02*
X3603287Y-9029936D01*
X3603287Y-9029936D02*
X3593763Y-9039460D01*
X3593763Y-9039460D02*
X3574715Y-9048984D01*
X3574715Y-9048984D02*
X3555668Y-9048984D01*
X3555668Y-9048984D02*
X3536620Y-9039460D01*
X3536620Y-9039460D02*
X3527096Y-9029936D01*
X3527096Y-9029936D02*
X3517572Y-9010889D01*
X3517572Y-9010889D02*
X3508049Y-8972793D01*
X3508049Y-8972793D02*
X3508049Y-8925174D01*
X3508049Y-8925174D02*
X3517572Y-8887079D01*
X3517572Y-8887079D02*
X3527096Y-8868031D01*
X3527096Y-8868031D02*
X3536620Y-8858508D01*
X3536620Y-8858508D02*
X3555668Y-8848984D01*
X3746144Y-8848984D02*
X3765191Y-8848984D01*
X3765191Y-8848984D02*
X3784239Y-8858508D01*
X3784239Y-8858508D02*
X3793763Y-8868031D01*
X3793763Y-8868031D02*
X3803287Y-8887079D01*
X3803287Y-8887079D02*
X3812810Y-8925174D01*
X3812810Y-8925174D02*
X3812810Y-8972793D01*
X3812810Y-8972793D02*
X3803287Y-9010889D01*
X3803287Y-9010889D02*
X3793763Y-9029936D01*
X3793763Y-9029936D02*
X3784239Y-9039460D01*
X3784239Y-9039460D02*
X3765191Y-9048984D01*
X3765191Y-9048984D02*
X3746144Y-9048984D01*
X3746144Y-9048984D02*
X3727096Y-9039460D01*
X3727096Y-9039460D02*
X3717572Y-9029936D01*
X3717572Y-9029936D02*
X3708049Y-9010889D01*
X3708049Y-9010889D02*
X3698525Y-8972793D01*
X3698525Y-8972793D02*
X3698525Y-8925174D01*
X3698525Y-8925174D02*
X3708049Y-8887079D01*
X3708049Y-8887079D02*
X3717572Y-8868031D01*
X3717572Y-8868031D02*
X3727096Y-8858508D01*
X3727096Y-8858508D02*
X3746144Y-8848984D01*
X3898525Y-9048984D02*
X3898525Y-8915650D01*
X3898525Y-8934698D02*
X3908049Y-8925174D01*
X3908049Y-8925174D02*
X3927096Y-8915650D01*
X3927096Y-8915650D02*
X3955668Y-8915650D01*
X3955668Y-8915650D02*
X3974715Y-8925174D01*
X3974715Y-8925174D02*
X3984239Y-8944222D01*
X3984239Y-8944222D02*
X3984239Y-9048984D01*
X3984239Y-8944222D02*
X3993763Y-8925174D01*
X3993763Y-8925174D02*
X4012810Y-8915650D01*
X4012810Y-8915650D02*
X4041382Y-8915650D01*
X4041382Y-8915650D02*
X4060430Y-8925174D01*
X4060430Y-8925174D02*
X4069953Y-8944222D01*
X4069953Y-8944222D02*
X4069953Y-9048984D01*
X4165191Y-9048984D02*
X4165191Y-8915650D01*
X4165191Y-8934698D02*
X4174715Y-8925174D01*
X4174715Y-8925174D02*
X4193763Y-8915650D01*
X4193763Y-8915650D02*
X4222334Y-8915650D01*
X4222334Y-8915650D02*
X4241382Y-8925174D01*
X4241382Y-8925174D02*
X4250906Y-8944222D01*
X4250906Y-8944222D02*
X4250906Y-9048984D01*
X4250906Y-8944222D02*
X4260430Y-8925174D01*
X4260430Y-8925174D02*
X4279477Y-8915650D01*
X4279477Y-8915650D02*
X4308049Y-8915650D01*
X4308049Y-8915650D02*
X4327096Y-8925174D01*
X4327096Y-8925174D02*
X4336620Y-8944222D01*
X4336620Y-8944222D02*
X4336620Y-9048984D01*
X4727096Y-8839460D02*
X4555668Y-9096603D01*
X4984239Y-8848984D02*
X5003287Y-8848984D01*
X5003287Y-8848984D02*
X5022335Y-8858508D01*
X5022335Y-8858508D02*
X5031858Y-8868031D01*
X5031858Y-8868031D02*
X5041382Y-8887079D01*
X5041382Y-8887079D02*
X5050906Y-8925174D01*
X5050906Y-8925174D02*
X5050906Y-8972793D01*
X5050906Y-8972793D02*
X5041382Y-9010889D01*
X5041382Y-9010889D02*
X5031858Y-9029936D01*
X5031858Y-9029936D02*
X5022335Y-9039460D01*
X5022335Y-9039460D02*
X5003287Y-9048984D01*
X5003287Y-9048984D02*
X4984239Y-9048984D01*
X4984239Y-9048984D02*
X4965192Y-9039460D01*
X4965192Y-9039460D02*
X4955668Y-9029936D01*
X4955668Y-9029936D02*
X4946144Y-9010889D01*
X4946144Y-9010889D02*
X4936620Y-8972793D01*
X4936620Y-8972793D02*
X4936620Y-8925174D01*
X4936620Y-8925174D02*
X4946144Y-8887079D01*
X4946144Y-8887079D02*
X4955668Y-8868031D01*
X4955668Y-8868031D02*
X4965192Y-8858508D01*
X4965192Y-8858508D02*
X4984239Y-8848984D01*
X5136620Y-9029936D02*
X5146144Y-9039460D01*
X5146144Y-9039460D02*
X5136620Y-9048984D01*
X5136620Y-9048984D02*
X5127096Y-9039460D01*
X5127096Y-9039460D02*
X5136620Y-9029936D01*
X5136620Y-9029936D02*
X5136620Y-9048984D01*
X5269954Y-8848984D02*
X5289001Y-8848984D01*
X5289001Y-8848984D02*
X5308049Y-8858508D01*
X5308049Y-8858508D02*
X5317573Y-8868031D01*
X5317573Y-8868031D02*
X5327096Y-8887079D01*
X5327096Y-8887079D02*
X5336620Y-8925174D01*
X5336620Y-8925174D02*
X5336620Y-8972793D01*
X5336620Y-8972793D02*
X5327096Y-9010889D01*
X5327096Y-9010889D02*
X5317573Y-9029936D01*
X5317573Y-9029936D02*
X5308049Y-9039460D01*
X5308049Y-9039460D02*
X5289001Y-9048984D01*
X5289001Y-9048984D02*
X5269954Y-9048984D01*
X5269954Y-9048984D02*
X5250906Y-9039460D01*
X5250906Y-9039460D02*
X5241382Y-9029936D01*
X5241382Y-9029936D02*
X5231858Y-9010889D01*
X5231858Y-9010889D02*
X5222335Y-8972793D01*
X5222335Y-8972793D02*
X5222335Y-8925174D01*
X5222335Y-8925174D02*
X5231858Y-8887079D01*
X5231858Y-8887079D02*
X5241382Y-8868031D01*
X5241382Y-8868031D02*
X5250906Y-8858508D01*
X5250906Y-8858508D02*
X5269954Y-8848984D01*
X5508049Y-8915650D02*
X5508049Y-9048984D01*
X5460430Y-8839460D02*
X5412811Y-8982317D01*
X5412811Y-8982317D02*
X5536620Y-8982317D01*
X5593763Y-8848984D02*
X5727096Y-8848984D01*
X5727096Y-8848984D02*
X5641382Y-9048984D01*
X5793763Y-8868031D02*
X5803287Y-8858508D01*
X5803287Y-8858508D02*
X5822334Y-8848984D01*
X5822334Y-8848984D02*
X5869954Y-8848984D01*
X5869954Y-8848984D02*
X5889001Y-8858508D01*
X5889001Y-8858508D02*
X5898525Y-8868031D01*
X5898525Y-8868031D02*
X5908049Y-8887079D01*
X5908049Y-8887079D02*
X5908049Y-8906127D01*
X5908049Y-8906127D02*
X5898525Y-8934698D01*
X5898525Y-8934698D02*
X5784239Y-9048984D01*
X5784239Y-9048984D02*
X5908049Y-9048984D01*
X5984239Y-8848984D02*
X5984239Y-8887079D01*
X6060430Y-8848984D02*
X6060430Y-8887079D01*
X6355668Y-9125174D02*
X6346144Y-9115650D01*
X6346144Y-9115650D02*
X6327096Y-9087079D01*
X6327096Y-9087079D02*
X6317573Y-9068031D01*
X6317573Y-9068031D02*
X6308049Y-9039460D01*
X6308049Y-9039460D02*
X6298525Y-8991841D01*
X6298525Y-8991841D02*
X6298525Y-8953746D01*
X6298525Y-8953746D02*
X6308049Y-8906127D01*
X6308049Y-8906127D02*
X6317573Y-8877555D01*
X6317573Y-8877555D02*
X6327096Y-8858508D01*
X6327096Y-8858508D02*
X6346144Y-8829936D01*
X6346144Y-8829936D02*
X6355668Y-8820412D01*
X6422335Y-8868031D02*
X6431858Y-8858508D01*
X6431858Y-8858508D02*
X6450906Y-8848984D01*
X6450906Y-8848984D02*
X6498525Y-8848984D01*
X6498525Y-8848984D02*
X6517573Y-8858508D01*
X6517573Y-8858508D02*
X6527096Y-8868031D01*
X6527096Y-8868031D02*
X6536620Y-8887079D01*
X6536620Y-8887079D02*
X6536620Y-8906127D01*
X6536620Y-8906127D02*
X6527096Y-8934698D01*
X6527096Y-8934698D02*
X6412811Y-9048984D01*
X6412811Y-9048984D02*
X6536620Y-9048984D01*
X6774716Y-9048984D02*
X6774716Y-8848984D01*
X6860430Y-9048984D02*
X6860430Y-8944222D01*
X6860430Y-8944222D02*
X6850906Y-8925174D01*
X6850906Y-8925174D02*
X6831858Y-8915650D01*
X6831858Y-8915650D02*
X6803287Y-8915650D01*
X6803287Y-8915650D02*
X6784239Y-8925174D01*
X6784239Y-8925174D02*
X6774716Y-8934698D01*
X6984239Y-9048984D02*
X6965192Y-9039460D01*
X6965192Y-9039460D02*
X6955668Y-9029936D01*
X6955668Y-9029936D02*
X6946144Y-9010889D01*
X6946144Y-9010889D02*
X6946144Y-8953746D01*
X6946144Y-8953746D02*
X6955668Y-8934698D01*
X6955668Y-8934698D02*
X6965192Y-8925174D01*
X6965192Y-8925174D02*
X6984239Y-8915650D01*
X6984239Y-8915650D02*
X7012811Y-8915650D01*
X7012811Y-8915650D02*
X7031858Y-8925174D01*
X7031858Y-8925174D02*
X7041382Y-8934698D01*
X7041382Y-8934698D02*
X7050906Y-8953746D01*
X7050906Y-8953746D02*
X7050906Y-9010889D01*
X7050906Y-9010889D02*
X7041382Y-9029936D01*
X7041382Y-9029936D02*
X7031858Y-9039460D01*
X7031858Y-9039460D02*
X7012811Y-9048984D01*
X7012811Y-9048984D02*
X6984239Y-9048984D01*
X7165192Y-9048984D02*
X7146144Y-9039460D01*
X7146144Y-9039460D02*
X7136620Y-9020412D01*
X7136620Y-9020412D02*
X7136620Y-8848984D01*
X7317573Y-9039460D02*
X7298525Y-9048984D01*
X7298525Y-9048984D02*
X7260430Y-9048984D01*
X7260430Y-9048984D02*
X7241382Y-9039460D01*
X7241382Y-9039460D02*
X7231858Y-9020412D01*
X7231858Y-9020412D02*
X7231858Y-8944222D01*
X7231858Y-8944222D02*
X7241382Y-8925174D01*
X7241382Y-8925174D02*
X7260430Y-8915650D01*
X7260430Y-8915650D02*
X7298525Y-8915650D01*
X7298525Y-8915650D02*
X7317573Y-8925174D01*
X7317573Y-8925174D02*
X7327097Y-8944222D01*
X7327097Y-8944222D02*
X7327097Y-8963270D01*
X7327097Y-8963270D02*
X7231858Y-8982317D01*
X7403287Y-9039460D02*
X7422335Y-9048984D01*
X7422335Y-9048984D02*
X7460430Y-9048984D01*
X7460430Y-9048984D02*
X7479478Y-9039460D01*
X7479478Y-9039460D02*
X7489001Y-9020412D01*
X7489001Y-9020412D02*
X7489001Y-9010889D01*
X7489001Y-9010889D02*
X7479478Y-8991841D01*
X7479478Y-8991841D02*
X7460430Y-8982317D01*
X7460430Y-8982317D02*
X7431858Y-8982317D01*
X7431858Y-8982317D02*
X7412811Y-8972793D01*
X7412811Y-8972793D02*
X7403287Y-8953746D01*
X7403287Y-8953746D02*
X7403287Y-8944222D01*
X7403287Y-8944222D02*
X7412811Y-8925174D01*
X7412811Y-8925174D02*
X7431858Y-8915650D01*
X7431858Y-8915650D02*
X7460430Y-8915650D01*
X7460430Y-8915650D02*
X7479478Y-8925174D01*
X7555668Y-9125174D02*
X7565192Y-9115650D01*
X7565192Y-9115650D02*
X7584239Y-9087079D01*
X7584239Y-9087079D02*
X7593763Y-9068031D01*
X7593763Y-9068031D02*
X7603287Y-9039460D01*
X7603287Y-9039460D02*
X7612811Y-8991841D01*
X7612811Y-8991841D02*
X7612811Y-8953746D01*
X7612811Y-8953746D02*
X7603287Y-8906127D01*
X7603287Y-8906127D02*
X7593763Y-8877555D01*
X7593763Y-8877555D02*
X7584239Y-8858508D01*
X7584239Y-8858508D02*
X7565192Y-8829936D01*
X7565192Y-8829936D02*
X7555668Y-8820412D01*
D14*
X2650605Y-9156500D02*
X2780605Y-9286500D01*
X2780605Y-9156500D02*
X2650605Y-9286500D01*
X2761568Y-9267462D02*
X2761568Y-9175538D01*
X2669643Y-9175538D01*
X2669643Y-9267462D01*
X2761568Y-9267462D01*
D11*
X3146144Y-9312984D02*
X3031858Y-9312984D01*
X3089001Y-9312984D02*
X3089001Y-9112984D01*
X3089001Y-9112984D02*
X3069953Y-9141555D01*
X3069953Y-9141555D02*
X3050906Y-9160603D01*
X3050906Y-9160603D02*
X3031858Y-9170127D01*
X3231858Y-9293936D02*
X3241382Y-9303460D01*
X3241382Y-9303460D02*
X3231858Y-9312984D01*
X3231858Y-9312984D02*
X3222334Y-9303460D01*
X3222334Y-9303460D02*
X3231858Y-9293936D01*
X3231858Y-9293936D02*
X3231858Y-9312984D01*
X3308049Y-9112984D02*
X3431858Y-9112984D01*
X3431858Y-9112984D02*
X3365191Y-9189174D01*
X3365191Y-9189174D02*
X3393763Y-9189174D01*
X3393763Y-9189174D02*
X3412810Y-9198698D01*
X3412810Y-9198698D02*
X3422334Y-9208222D01*
X3422334Y-9208222D02*
X3431858Y-9227270D01*
X3431858Y-9227270D02*
X3431858Y-9274889D01*
X3431858Y-9274889D02*
X3422334Y-9293936D01*
X3422334Y-9293936D02*
X3412810Y-9303460D01*
X3412810Y-9303460D02*
X3393763Y-9312984D01*
X3393763Y-9312984D02*
X3336620Y-9312984D01*
X3336620Y-9312984D02*
X3317572Y-9303460D01*
X3317572Y-9303460D02*
X3308049Y-9293936D01*
X3555668Y-9112984D02*
X3574715Y-9112984D01*
X3574715Y-9112984D02*
X3593763Y-9122508D01*
X3593763Y-9122508D02*
X3603287Y-9132031D01*
X3603287Y-9132031D02*
X3612810Y-9151079D01*
X3612810Y-9151079D02*
X3622334Y-9189174D01*
X3622334Y-9189174D02*
X3622334Y-9236793D01*
X3622334Y-9236793D02*
X3612810Y-9274889D01*
X3612810Y-9274889D02*
X3603287Y-9293936D01*
X3603287Y-9293936D02*
X3593763Y-9303460D01*
X3593763Y-9303460D02*
X3574715Y-9312984D01*
X3574715Y-9312984D02*
X3555668Y-9312984D01*
X3555668Y-9312984D02*
X3536620Y-9303460D01*
X3536620Y-9303460D02*
X3527096Y-9293936D01*
X3527096Y-9293936D02*
X3517572Y-9274889D01*
X3517572Y-9274889D02*
X3508049Y-9236793D01*
X3508049Y-9236793D02*
X3508049Y-9189174D01*
X3508049Y-9189174D02*
X3517572Y-9151079D01*
X3517572Y-9151079D02*
X3527096Y-9132031D01*
X3527096Y-9132031D02*
X3536620Y-9122508D01*
X3536620Y-9122508D02*
X3555668Y-9112984D01*
X3746144Y-9112984D02*
X3765191Y-9112984D01*
X3765191Y-9112984D02*
X3784239Y-9122508D01*
X3784239Y-9122508D02*
X3793763Y-9132031D01*
X3793763Y-9132031D02*
X3803287Y-9151079D01*
X3803287Y-9151079D02*
X3812810Y-9189174D01*
X3812810Y-9189174D02*
X3812810Y-9236793D01*
X3812810Y-9236793D02*
X3803287Y-9274889D01*
X3803287Y-9274889D02*
X3793763Y-9293936D01*
X3793763Y-9293936D02*
X3784239Y-9303460D01*
X3784239Y-9303460D02*
X3765191Y-9312984D01*
X3765191Y-9312984D02*
X3746144Y-9312984D01*
X3746144Y-9312984D02*
X3727096Y-9303460D01*
X3727096Y-9303460D02*
X3717572Y-9293936D01*
X3717572Y-9293936D02*
X3708049Y-9274889D01*
X3708049Y-9274889D02*
X3698525Y-9236793D01*
X3698525Y-9236793D02*
X3698525Y-9189174D01*
X3698525Y-9189174D02*
X3708049Y-9151079D01*
X3708049Y-9151079D02*
X3717572Y-9132031D01*
X3717572Y-9132031D02*
X3727096Y-9122508D01*
X3727096Y-9122508D02*
X3746144Y-9112984D01*
X3898525Y-9312984D02*
X3898525Y-9179650D01*
X3898525Y-9198698D02*
X3908049Y-9189174D01*
X3908049Y-9189174D02*
X3927096Y-9179650D01*
X3927096Y-9179650D02*
X3955668Y-9179650D01*
X3955668Y-9179650D02*
X3974715Y-9189174D01*
X3974715Y-9189174D02*
X3984239Y-9208222D01*
X3984239Y-9208222D02*
X3984239Y-9312984D01*
X3984239Y-9208222D02*
X3993763Y-9189174D01*
X3993763Y-9189174D02*
X4012810Y-9179650D01*
X4012810Y-9179650D02*
X4041382Y-9179650D01*
X4041382Y-9179650D02*
X4060430Y-9189174D01*
X4060430Y-9189174D02*
X4069953Y-9208222D01*
X4069953Y-9208222D02*
X4069953Y-9312984D01*
X4165191Y-9312984D02*
X4165191Y-9179650D01*
X4165191Y-9198698D02*
X4174715Y-9189174D01*
X4174715Y-9189174D02*
X4193763Y-9179650D01*
X4193763Y-9179650D02*
X4222334Y-9179650D01*
X4222334Y-9179650D02*
X4241382Y-9189174D01*
X4241382Y-9189174D02*
X4250906Y-9208222D01*
X4250906Y-9208222D02*
X4250906Y-9312984D01*
X4250906Y-9208222D02*
X4260430Y-9189174D01*
X4260430Y-9189174D02*
X4279477Y-9179650D01*
X4279477Y-9179650D02*
X4308049Y-9179650D01*
X4308049Y-9179650D02*
X4327096Y-9189174D01*
X4327096Y-9189174D02*
X4336620Y-9208222D01*
X4336620Y-9208222D02*
X4336620Y-9312984D01*
X4727096Y-9103460D02*
X4555668Y-9360603D01*
X4984239Y-9112984D02*
X5003287Y-9112984D01*
X5003287Y-9112984D02*
X5022335Y-9122508D01*
X5022335Y-9122508D02*
X5031858Y-9132031D01*
X5031858Y-9132031D02*
X5041382Y-9151079D01*
X5041382Y-9151079D02*
X5050906Y-9189174D01*
X5050906Y-9189174D02*
X5050906Y-9236793D01*
X5050906Y-9236793D02*
X5041382Y-9274889D01*
X5041382Y-9274889D02*
X5031858Y-9293936D01*
X5031858Y-9293936D02*
X5022335Y-9303460D01*
X5022335Y-9303460D02*
X5003287Y-9312984D01*
X5003287Y-9312984D02*
X4984239Y-9312984D01*
X4984239Y-9312984D02*
X4965192Y-9303460D01*
X4965192Y-9303460D02*
X4955668Y-9293936D01*
X4955668Y-9293936D02*
X4946144Y-9274889D01*
X4946144Y-9274889D02*
X4936620Y-9236793D01*
X4936620Y-9236793D02*
X4936620Y-9189174D01*
X4936620Y-9189174D02*
X4946144Y-9151079D01*
X4946144Y-9151079D02*
X4955668Y-9132031D01*
X4955668Y-9132031D02*
X4965192Y-9122508D01*
X4965192Y-9122508D02*
X4984239Y-9112984D01*
X5136620Y-9293936D02*
X5146144Y-9303460D01*
X5146144Y-9303460D02*
X5136620Y-9312984D01*
X5136620Y-9312984D02*
X5127096Y-9303460D01*
X5127096Y-9303460D02*
X5136620Y-9293936D01*
X5136620Y-9293936D02*
X5136620Y-9312984D01*
X5269954Y-9112984D02*
X5289001Y-9112984D01*
X5289001Y-9112984D02*
X5308049Y-9122508D01*
X5308049Y-9122508D02*
X5317573Y-9132031D01*
X5317573Y-9132031D02*
X5327096Y-9151079D01*
X5327096Y-9151079D02*
X5336620Y-9189174D01*
X5336620Y-9189174D02*
X5336620Y-9236793D01*
X5336620Y-9236793D02*
X5327096Y-9274889D01*
X5327096Y-9274889D02*
X5317573Y-9293936D01*
X5317573Y-9293936D02*
X5308049Y-9303460D01*
X5308049Y-9303460D02*
X5289001Y-9312984D01*
X5289001Y-9312984D02*
X5269954Y-9312984D01*
X5269954Y-9312984D02*
X5250906Y-9303460D01*
X5250906Y-9303460D02*
X5241382Y-9293936D01*
X5241382Y-9293936D02*
X5231858Y-9274889D01*
X5231858Y-9274889D02*
X5222335Y-9236793D01*
X5222335Y-9236793D02*
X5222335Y-9189174D01*
X5222335Y-9189174D02*
X5231858Y-9151079D01*
X5231858Y-9151079D02*
X5241382Y-9132031D01*
X5241382Y-9132031D02*
X5250906Y-9122508D01*
X5250906Y-9122508D02*
X5269954Y-9112984D01*
X5517573Y-9112984D02*
X5422335Y-9112984D01*
X5422335Y-9112984D02*
X5412811Y-9208222D01*
X5412811Y-9208222D02*
X5422335Y-9198698D01*
X5422335Y-9198698D02*
X5441382Y-9189174D01*
X5441382Y-9189174D02*
X5489001Y-9189174D01*
X5489001Y-9189174D02*
X5508049Y-9198698D01*
X5508049Y-9198698D02*
X5517573Y-9208222D01*
X5517573Y-9208222D02*
X5527096Y-9227270D01*
X5527096Y-9227270D02*
X5527096Y-9274889D01*
X5527096Y-9274889D02*
X5517573Y-9293936D01*
X5517573Y-9293936D02*
X5508049Y-9303460D01*
X5508049Y-9303460D02*
X5489001Y-9312984D01*
X5489001Y-9312984D02*
X5441382Y-9312984D01*
X5441382Y-9312984D02*
X5422335Y-9303460D01*
X5422335Y-9303460D02*
X5412811Y-9293936D01*
X5717573Y-9312984D02*
X5603287Y-9312984D01*
X5660430Y-9312984D02*
X5660430Y-9112984D01*
X5660430Y-9112984D02*
X5641382Y-9141555D01*
X5641382Y-9141555D02*
X5622334Y-9160603D01*
X5622334Y-9160603D02*
X5603287Y-9170127D01*
X5793763Y-9132031D02*
X5803287Y-9122508D01*
X5803287Y-9122508D02*
X5822334Y-9112984D01*
X5822334Y-9112984D02*
X5869954Y-9112984D01*
X5869954Y-9112984D02*
X5889001Y-9122508D01*
X5889001Y-9122508D02*
X5898525Y-9132031D01*
X5898525Y-9132031D02*
X5908049Y-9151079D01*
X5908049Y-9151079D02*
X5908049Y-9170127D01*
X5908049Y-9170127D02*
X5898525Y-9198698D01*
X5898525Y-9198698D02*
X5784239Y-9312984D01*
X5784239Y-9312984D02*
X5908049Y-9312984D01*
X5984239Y-9112984D02*
X5984239Y-9151079D01*
X6060430Y-9112984D02*
X6060430Y-9151079D01*
X6355668Y-9389174D02*
X6346144Y-9379650D01*
X6346144Y-9379650D02*
X6327096Y-9351079D01*
X6327096Y-9351079D02*
X6317573Y-9332031D01*
X6317573Y-9332031D02*
X6308049Y-9303460D01*
X6308049Y-9303460D02*
X6298525Y-9255841D01*
X6298525Y-9255841D02*
X6298525Y-9217746D01*
X6298525Y-9217746D02*
X6308049Y-9170127D01*
X6308049Y-9170127D02*
X6317573Y-9141555D01*
X6317573Y-9141555D02*
X6327096Y-9122508D01*
X6327096Y-9122508D02*
X6346144Y-9093936D01*
X6346144Y-9093936D02*
X6355668Y-9084412D01*
X6517573Y-9112984D02*
X6479477Y-9112984D01*
X6479477Y-9112984D02*
X6460430Y-9122508D01*
X6460430Y-9122508D02*
X6450906Y-9132031D01*
X6450906Y-9132031D02*
X6431858Y-9160603D01*
X6431858Y-9160603D02*
X6422335Y-9198698D01*
X6422335Y-9198698D02*
X6422335Y-9274889D01*
X6422335Y-9274889D02*
X6431858Y-9293936D01*
X6431858Y-9293936D02*
X6441382Y-9303460D01*
X6441382Y-9303460D02*
X6460430Y-9312984D01*
X6460430Y-9312984D02*
X6498525Y-9312984D01*
X6498525Y-9312984D02*
X6517573Y-9303460D01*
X6517573Y-9303460D02*
X6527096Y-9293936D01*
X6527096Y-9293936D02*
X6536620Y-9274889D01*
X6536620Y-9274889D02*
X6536620Y-9227270D01*
X6536620Y-9227270D02*
X6527096Y-9208222D01*
X6527096Y-9208222D02*
X6517573Y-9198698D01*
X6517573Y-9198698D02*
X6498525Y-9189174D01*
X6498525Y-9189174D02*
X6460430Y-9189174D01*
X6460430Y-9189174D02*
X6441382Y-9198698D01*
X6441382Y-9198698D02*
X6431858Y-9208222D01*
X6431858Y-9208222D02*
X6422335Y-9227270D01*
X6774716Y-9312984D02*
X6774716Y-9112984D01*
X6860430Y-9312984D02*
X6860430Y-9208222D01*
X6860430Y-9208222D02*
X6850906Y-9189174D01*
X6850906Y-9189174D02*
X6831858Y-9179650D01*
X6831858Y-9179650D02*
X6803287Y-9179650D01*
X6803287Y-9179650D02*
X6784239Y-9189174D01*
X6784239Y-9189174D02*
X6774716Y-9198698D01*
X6984239Y-9312984D02*
X6965192Y-9303460D01*
X6965192Y-9303460D02*
X6955668Y-9293936D01*
X6955668Y-9293936D02*
X6946144Y-9274889D01*
X6946144Y-9274889D02*
X6946144Y-9217746D01*
X6946144Y-9217746D02*
X6955668Y-9198698D01*
X6955668Y-9198698D02*
X6965192Y-9189174D01*
X6965192Y-9189174D02*
X6984239Y-9179650D01*
X6984239Y-9179650D02*
X7012811Y-9179650D01*
X7012811Y-9179650D02*
X7031858Y-9189174D01*
X7031858Y-9189174D02*
X7041382Y-9198698D01*
X7041382Y-9198698D02*
X7050906Y-9217746D01*
X7050906Y-9217746D02*
X7050906Y-9274889D01*
X7050906Y-9274889D02*
X7041382Y-9293936D01*
X7041382Y-9293936D02*
X7031858Y-9303460D01*
X7031858Y-9303460D02*
X7012811Y-9312984D01*
X7012811Y-9312984D02*
X6984239Y-9312984D01*
X7165192Y-9312984D02*
X7146144Y-9303460D01*
X7146144Y-9303460D02*
X7136620Y-9284412D01*
X7136620Y-9284412D02*
X7136620Y-9112984D01*
X7317573Y-9303460D02*
X7298525Y-9312984D01*
X7298525Y-9312984D02*
X7260430Y-9312984D01*
X7260430Y-9312984D02*
X7241382Y-9303460D01*
X7241382Y-9303460D02*
X7231858Y-9284412D01*
X7231858Y-9284412D02*
X7231858Y-9208222D01*
X7231858Y-9208222D02*
X7241382Y-9189174D01*
X7241382Y-9189174D02*
X7260430Y-9179650D01*
X7260430Y-9179650D02*
X7298525Y-9179650D01*
X7298525Y-9179650D02*
X7317573Y-9189174D01*
X7317573Y-9189174D02*
X7327097Y-9208222D01*
X7327097Y-9208222D02*
X7327097Y-9227270D01*
X7327097Y-9227270D02*
X7231858Y-9246317D01*
X7403287Y-9303460D02*
X7422335Y-9312984D01*
X7422335Y-9312984D02*
X7460430Y-9312984D01*
X7460430Y-9312984D02*
X7479478Y-9303460D01*
X7479478Y-9303460D02*
X7489001Y-9284412D01*
X7489001Y-9284412D02*
X7489001Y-9274889D01*
X7489001Y-9274889D02*
X7479478Y-9255841D01*
X7479478Y-9255841D02*
X7460430Y-9246317D01*
X7460430Y-9246317D02*
X7431858Y-9246317D01*
X7431858Y-9246317D02*
X7412811Y-9236793D01*
X7412811Y-9236793D02*
X7403287Y-9217746D01*
X7403287Y-9217746D02*
X7403287Y-9208222D01*
X7403287Y-9208222D02*
X7412811Y-9189174D01*
X7412811Y-9189174D02*
X7431858Y-9179650D01*
X7431858Y-9179650D02*
X7460430Y-9179650D01*
X7460430Y-9179650D02*
X7479478Y-9189174D01*
X7555668Y-9389174D02*
X7565192Y-9379650D01*
X7565192Y-9379650D02*
X7584239Y-9351079D01*
X7584239Y-9351079D02*
X7593763Y-9332031D01*
X7593763Y-9332031D02*
X7603287Y-9303460D01*
X7603287Y-9303460D02*
X7612811Y-9255841D01*
X7612811Y-9255841D02*
X7612811Y-9217746D01*
X7612811Y-9217746D02*
X7603287Y-9170127D01*
X7603287Y-9170127D02*
X7593763Y-9141555D01*
X7593763Y-9141555D02*
X7584239Y-9122508D01*
X7584239Y-9122508D02*
X7565192Y-9093936D01*
X7565192Y-9093936D02*
X7555668Y-9084412D01*
X2580605Y-9385500D02*
X2780605Y-9585500D01*
X2780605Y-9385500D02*
X2580605Y-9585500D01*
X2680605Y-9585500D02*
X2780605Y-9485500D01*
X2680605Y-9385500D01*
X2580605Y-9485500D01*
X2680605Y-9585500D01*
X3022334Y-9376984D02*
X3146144Y-9376984D01*
X3146144Y-9376984D02*
X3079477Y-9453174D01*
X3079477Y-9453174D02*
X3108049Y-9453174D01*
X3108049Y-9453174D02*
X3127096Y-9462698D01*
X3127096Y-9462698D02*
X3136620Y-9472222D01*
X3136620Y-9472222D02*
X3146144Y-9491270D01*
X3146144Y-9491270D02*
X3146144Y-9538889D01*
X3146144Y-9538889D02*
X3136620Y-9557936D01*
X3136620Y-9557936D02*
X3127096Y-9567460D01*
X3127096Y-9567460D02*
X3108049Y-9576984D01*
X3108049Y-9576984D02*
X3050906Y-9576984D01*
X3050906Y-9576984D02*
X3031858Y-9567460D01*
X3031858Y-9567460D02*
X3022334Y-9557936D01*
X3231858Y-9557936D02*
X3241382Y-9567460D01*
X3241382Y-9567460D02*
X3231858Y-9576984D01*
X3231858Y-9576984D02*
X3222334Y-9567460D01*
X3222334Y-9567460D02*
X3231858Y-9557936D01*
X3231858Y-9557936D02*
X3231858Y-9576984D01*
X3317572Y-9396031D02*
X3327096Y-9386508D01*
X3327096Y-9386508D02*
X3346144Y-9376984D01*
X3346144Y-9376984D02*
X3393763Y-9376984D01*
X3393763Y-9376984D02*
X3412810Y-9386508D01*
X3412810Y-9386508D02*
X3422334Y-9396031D01*
X3422334Y-9396031D02*
X3431858Y-9415079D01*
X3431858Y-9415079D02*
X3431858Y-9434127D01*
X3431858Y-9434127D02*
X3422334Y-9462698D01*
X3422334Y-9462698D02*
X3308049Y-9576984D01*
X3308049Y-9576984D02*
X3431858Y-9576984D01*
X3555668Y-9376984D02*
X3574715Y-9376984D01*
X3574715Y-9376984D02*
X3593763Y-9386508D01*
X3593763Y-9386508D02*
X3603287Y-9396031D01*
X3603287Y-9396031D02*
X3612810Y-9415079D01*
X3612810Y-9415079D02*
X3622334Y-9453174D01*
X3622334Y-9453174D02*
X3622334Y-9500793D01*
X3622334Y-9500793D02*
X3612810Y-9538889D01*
X3612810Y-9538889D02*
X3603287Y-9557936D01*
X3603287Y-9557936D02*
X3593763Y-9567460D01*
X3593763Y-9567460D02*
X3574715Y-9576984D01*
X3574715Y-9576984D02*
X3555668Y-9576984D01*
X3555668Y-9576984D02*
X3536620Y-9567460D01*
X3536620Y-9567460D02*
X3527096Y-9557936D01*
X3527096Y-9557936D02*
X3517572Y-9538889D01*
X3517572Y-9538889D02*
X3508049Y-9500793D01*
X3508049Y-9500793D02*
X3508049Y-9453174D01*
X3508049Y-9453174D02*
X3517572Y-9415079D01*
X3517572Y-9415079D02*
X3527096Y-9396031D01*
X3527096Y-9396031D02*
X3536620Y-9386508D01*
X3536620Y-9386508D02*
X3555668Y-9376984D01*
X3746144Y-9376984D02*
X3765191Y-9376984D01*
X3765191Y-9376984D02*
X3784239Y-9386508D01*
X3784239Y-9386508D02*
X3793763Y-9396031D01*
X3793763Y-9396031D02*
X3803287Y-9415079D01*
X3803287Y-9415079D02*
X3812810Y-9453174D01*
X3812810Y-9453174D02*
X3812810Y-9500793D01*
X3812810Y-9500793D02*
X3803287Y-9538889D01*
X3803287Y-9538889D02*
X3793763Y-9557936D01*
X3793763Y-9557936D02*
X3784239Y-9567460D01*
X3784239Y-9567460D02*
X3765191Y-9576984D01*
X3765191Y-9576984D02*
X3746144Y-9576984D01*
X3746144Y-9576984D02*
X3727096Y-9567460D01*
X3727096Y-9567460D02*
X3717572Y-9557936D01*
X3717572Y-9557936D02*
X3708049Y-9538889D01*
X3708049Y-9538889D02*
X3698525Y-9500793D01*
X3698525Y-9500793D02*
X3698525Y-9453174D01*
X3698525Y-9453174D02*
X3708049Y-9415079D01*
X3708049Y-9415079D02*
X3717572Y-9396031D01*
X3717572Y-9396031D02*
X3727096Y-9386508D01*
X3727096Y-9386508D02*
X3746144Y-9376984D01*
X3898525Y-9576984D02*
X3898525Y-9443650D01*
X3898525Y-9462698D02*
X3908049Y-9453174D01*
X3908049Y-9453174D02*
X3927096Y-9443650D01*
X3927096Y-9443650D02*
X3955668Y-9443650D01*
X3955668Y-9443650D02*
X3974715Y-9453174D01*
X3974715Y-9453174D02*
X3984239Y-9472222D01*
X3984239Y-9472222D02*
X3984239Y-9576984D01*
X3984239Y-9472222D02*
X3993763Y-9453174D01*
X3993763Y-9453174D02*
X4012810Y-9443650D01*
X4012810Y-9443650D02*
X4041382Y-9443650D01*
X4041382Y-9443650D02*
X4060430Y-9453174D01*
X4060430Y-9453174D02*
X4069953Y-9472222D01*
X4069953Y-9472222D02*
X4069953Y-9576984D01*
X4165191Y-9576984D02*
X4165191Y-9443650D01*
X4165191Y-9462698D02*
X4174715Y-9453174D01*
X4174715Y-9453174D02*
X4193763Y-9443650D01*
X4193763Y-9443650D02*
X4222334Y-9443650D01*
X4222334Y-9443650D02*
X4241382Y-9453174D01*
X4241382Y-9453174D02*
X4250906Y-9472222D01*
X4250906Y-9472222D02*
X4250906Y-9576984D01*
X4250906Y-9472222D02*
X4260430Y-9453174D01*
X4260430Y-9453174D02*
X4279477Y-9443650D01*
X4279477Y-9443650D02*
X4308049Y-9443650D01*
X4308049Y-9443650D02*
X4327096Y-9453174D01*
X4327096Y-9453174D02*
X4336620Y-9472222D01*
X4336620Y-9472222D02*
X4336620Y-9576984D01*
X4727096Y-9367460D02*
X4555668Y-9624603D01*
X4984239Y-9376984D02*
X5003287Y-9376984D01*
X5003287Y-9376984D02*
X5022335Y-9386508D01*
X5022335Y-9386508D02*
X5031858Y-9396031D01*
X5031858Y-9396031D02*
X5041382Y-9415079D01*
X5041382Y-9415079D02*
X5050906Y-9453174D01*
X5050906Y-9453174D02*
X5050906Y-9500793D01*
X5050906Y-9500793D02*
X5041382Y-9538889D01*
X5041382Y-9538889D02*
X5031858Y-9557936D01*
X5031858Y-9557936D02*
X5022335Y-9567460D01*
X5022335Y-9567460D02*
X5003287Y-9576984D01*
X5003287Y-9576984D02*
X4984239Y-9576984D01*
X4984239Y-9576984D02*
X4965192Y-9567460D01*
X4965192Y-9567460D02*
X4955668Y-9557936D01*
X4955668Y-9557936D02*
X4946144Y-9538889D01*
X4946144Y-9538889D02*
X4936620Y-9500793D01*
X4936620Y-9500793D02*
X4936620Y-9453174D01*
X4936620Y-9453174D02*
X4946144Y-9415079D01*
X4946144Y-9415079D02*
X4955668Y-9396031D01*
X4955668Y-9396031D02*
X4965192Y-9386508D01*
X4965192Y-9386508D02*
X4984239Y-9376984D01*
X5136620Y-9557936D02*
X5146144Y-9567460D01*
X5146144Y-9567460D02*
X5136620Y-9576984D01*
X5136620Y-9576984D02*
X5127096Y-9567460D01*
X5127096Y-9567460D02*
X5136620Y-9557936D01*
X5136620Y-9557936D02*
X5136620Y-9576984D01*
X5336620Y-9576984D02*
X5222335Y-9576984D01*
X5279477Y-9576984D02*
X5279477Y-9376984D01*
X5279477Y-9376984D02*
X5260430Y-9405555D01*
X5260430Y-9405555D02*
X5241382Y-9424603D01*
X5241382Y-9424603D02*
X5222335Y-9434127D01*
X5412811Y-9396031D02*
X5422335Y-9386508D01*
X5422335Y-9386508D02*
X5441382Y-9376984D01*
X5441382Y-9376984D02*
X5489001Y-9376984D01*
X5489001Y-9376984D02*
X5508049Y-9386508D01*
X5508049Y-9386508D02*
X5517573Y-9396031D01*
X5517573Y-9396031D02*
X5527096Y-9415079D01*
X5527096Y-9415079D02*
X5527096Y-9434127D01*
X5527096Y-9434127D02*
X5517573Y-9462698D01*
X5517573Y-9462698D02*
X5403287Y-9576984D01*
X5403287Y-9576984D02*
X5527096Y-9576984D01*
X5698525Y-9376984D02*
X5660430Y-9376984D01*
X5660430Y-9376984D02*
X5641382Y-9386508D01*
X5641382Y-9386508D02*
X5631858Y-9396031D01*
X5631858Y-9396031D02*
X5612811Y-9424603D01*
X5612811Y-9424603D02*
X5603287Y-9462698D01*
X5603287Y-9462698D02*
X5603287Y-9538889D01*
X5603287Y-9538889D02*
X5612811Y-9557936D01*
X5612811Y-9557936D02*
X5622334Y-9567460D01*
X5622334Y-9567460D02*
X5641382Y-9576984D01*
X5641382Y-9576984D02*
X5679477Y-9576984D01*
X5679477Y-9576984D02*
X5698525Y-9567460D01*
X5698525Y-9567460D02*
X5708049Y-9557936D01*
X5708049Y-9557936D02*
X5717573Y-9538889D01*
X5717573Y-9538889D02*
X5717573Y-9491270D01*
X5717573Y-9491270D02*
X5708049Y-9472222D01*
X5708049Y-9472222D02*
X5698525Y-9462698D01*
X5698525Y-9462698D02*
X5679477Y-9453174D01*
X5679477Y-9453174D02*
X5641382Y-9453174D01*
X5641382Y-9453174D02*
X5622334Y-9462698D01*
X5622334Y-9462698D02*
X5612811Y-9472222D01*
X5612811Y-9472222D02*
X5603287Y-9491270D01*
X5841382Y-9376984D02*
X5860430Y-9376984D01*
X5860430Y-9376984D02*
X5879477Y-9386508D01*
X5879477Y-9386508D02*
X5889001Y-9396031D01*
X5889001Y-9396031D02*
X5898525Y-9415079D01*
X5898525Y-9415079D02*
X5908049Y-9453174D01*
X5908049Y-9453174D02*
X5908049Y-9500793D01*
X5908049Y-9500793D02*
X5898525Y-9538889D01*
X5898525Y-9538889D02*
X5889001Y-9557936D01*
X5889001Y-9557936D02*
X5879477Y-9567460D01*
X5879477Y-9567460D02*
X5860430Y-9576984D01*
X5860430Y-9576984D02*
X5841382Y-9576984D01*
X5841382Y-9576984D02*
X5822334Y-9567460D01*
X5822334Y-9567460D02*
X5812811Y-9557936D01*
X5812811Y-9557936D02*
X5803287Y-9538889D01*
X5803287Y-9538889D02*
X5793763Y-9500793D01*
X5793763Y-9500793D02*
X5793763Y-9453174D01*
X5793763Y-9453174D02*
X5803287Y-9415079D01*
X5803287Y-9415079D02*
X5812811Y-9396031D01*
X5812811Y-9396031D02*
X5822334Y-9386508D01*
X5822334Y-9386508D02*
X5841382Y-9376984D01*
X5984239Y-9376984D02*
X5984239Y-9415079D01*
X6060430Y-9376984D02*
X6060430Y-9415079D01*
X6355668Y-9653174D02*
X6346144Y-9643650D01*
X6346144Y-9643650D02*
X6327096Y-9615079D01*
X6327096Y-9615079D02*
X6317573Y-9596031D01*
X6317573Y-9596031D02*
X6308049Y-9567460D01*
X6308049Y-9567460D02*
X6298525Y-9519841D01*
X6298525Y-9519841D02*
X6298525Y-9481746D01*
X6298525Y-9481746D02*
X6308049Y-9434127D01*
X6308049Y-9434127D02*
X6317573Y-9405555D01*
X6317573Y-9405555D02*
X6327096Y-9386508D01*
X6327096Y-9386508D02*
X6346144Y-9357936D01*
X6346144Y-9357936D02*
X6355668Y-9348412D01*
X6422335Y-9396031D02*
X6431858Y-9386508D01*
X6431858Y-9386508D02*
X6450906Y-9376984D01*
X6450906Y-9376984D02*
X6498525Y-9376984D01*
X6498525Y-9376984D02*
X6517573Y-9386508D01*
X6517573Y-9386508D02*
X6527096Y-9396031D01*
X6527096Y-9396031D02*
X6536620Y-9415079D01*
X6536620Y-9415079D02*
X6536620Y-9434127D01*
X6536620Y-9434127D02*
X6527096Y-9462698D01*
X6527096Y-9462698D02*
X6412811Y-9576984D01*
X6412811Y-9576984D02*
X6536620Y-9576984D01*
X6774716Y-9576984D02*
X6774716Y-9376984D01*
X6860430Y-9576984D02*
X6860430Y-9472222D01*
X6860430Y-9472222D02*
X6850906Y-9453174D01*
X6850906Y-9453174D02*
X6831858Y-9443650D01*
X6831858Y-9443650D02*
X6803287Y-9443650D01*
X6803287Y-9443650D02*
X6784239Y-9453174D01*
X6784239Y-9453174D02*
X6774716Y-9462698D01*
X6984239Y-9576984D02*
X6965192Y-9567460D01*
X6965192Y-9567460D02*
X6955668Y-9557936D01*
X6955668Y-9557936D02*
X6946144Y-9538889D01*
X6946144Y-9538889D02*
X6946144Y-9481746D01*
X6946144Y-9481746D02*
X6955668Y-9462698D01*
X6955668Y-9462698D02*
X6965192Y-9453174D01*
X6965192Y-9453174D02*
X6984239Y-9443650D01*
X6984239Y-9443650D02*
X7012811Y-9443650D01*
X7012811Y-9443650D02*
X7031858Y-9453174D01*
X7031858Y-9453174D02*
X7041382Y-9462698D01*
X7041382Y-9462698D02*
X7050906Y-9481746D01*
X7050906Y-9481746D02*
X7050906Y-9538889D01*
X7050906Y-9538889D02*
X7041382Y-9557936D01*
X7041382Y-9557936D02*
X7031858Y-9567460D01*
X7031858Y-9567460D02*
X7012811Y-9576984D01*
X7012811Y-9576984D02*
X6984239Y-9576984D01*
X7165192Y-9576984D02*
X7146144Y-9567460D01*
X7146144Y-9567460D02*
X7136620Y-9548412D01*
X7136620Y-9548412D02*
X7136620Y-9376984D01*
X7317573Y-9567460D02*
X7298525Y-9576984D01*
X7298525Y-9576984D02*
X7260430Y-9576984D01*
X7260430Y-9576984D02*
X7241382Y-9567460D01*
X7241382Y-9567460D02*
X7231858Y-9548412D01*
X7231858Y-9548412D02*
X7231858Y-9472222D01*
X7231858Y-9472222D02*
X7241382Y-9453174D01*
X7241382Y-9453174D02*
X7260430Y-9443650D01*
X7260430Y-9443650D02*
X7298525Y-9443650D01*
X7298525Y-9443650D02*
X7317573Y-9453174D01*
X7317573Y-9453174D02*
X7327097Y-9472222D01*
X7327097Y-9472222D02*
X7327097Y-9491270D01*
X7327097Y-9491270D02*
X7231858Y-9510317D01*
X7403287Y-9567460D02*
X7422335Y-9576984D01*
X7422335Y-9576984D02*
X7460430Y-9576984D01*
X7460430Y-9576984D02*
X7479478Y-9567460D01*
X7479478Y-9567460D02*
X7489001Y-9548412D01*
X7489001Y-9548412D02*
X7489001Y-9538889D01*
X7489001Y-9538889D02*
X7479478Y-9519841D01*
X7479478Y-9519841D02*
X7460430Y-9510317D01*
X7460430Y-9510317D02*
X7431858Y-9510317D01*
X7431858Y-9510317D02*
X7412811Y-9500793D01*
X7412811Y-9500793D02*
X7403287Y-9481746D01*
X7403287Y-9481746D02*
X7403287Y-9472222D01*
X7403287Y-9472222D02*
X7412811Y-9453174D01*
X7412811Y-9453174D02*
X7431858Y-9443650D01*
X7431858Y-9443650D02*
X7460430Y-9443650D01*
X7460430Y-9443650D02*
X7479478Y-9453174D01*
X7555668Y-9653174D02*
X7565192Y-9643650D01*
X7565192Y-9643650D02*
X7584239Y-9615079D01*
X7584239Y-9615079D02*
X7593763Y-9596031D01*
X7593763Y-9596031D02*
X7603287Y-9567460D01*
X7603287Y-9567460D02*
X7612811Y-9519841D01*
X7612811Y-9519841D02*
X7612811Y-9481746D01*
X7612811Y-9481746D02*
X7603287Y-9434127D01*
X7603287Y-9434127D02*
X7593763Y-9405555D01*
X7593763Y-9405555D02*
X7584239Y-9386508D01*
X7584239Y-9386508D02*
X7565192Y-9357936D01*
X7565192Y-9357936D02*
X7555668Y-9348412D01*
M02*
