%TF.GenerationSoftware,KiCad,Pcbnew,8.0.9*%
%TF.CreationDate,2025-03-02T13:58:53+01:00*%
%TF.ProjectId,cjss202,636a7373-3230-4322-9e6b-696361645f70,rev?*%
%TF.SameCoordinates,Original*%
%TF.FileFunction,Drillmap*%
%TF.FilePolarity,Positive*%
%FSLAX45Y45*%
G04 Gerber Fmt 4.5, Leading zero omitted, Abs format (unit mm)*
G04 Created by KiCad (PCBNEW 8.0.9) date 2025-03-02 13:58:53*
%MOMM*%
%LPD*%
G01*
G04 APERTURE LIST*
%ADD10C,0.050000*%
%ADD11C,0.200000*%
%ADD12C,0.320000*%
G04 APERTURE END LIST*
D10*
X2783105Y-6477000D02*
X2783105Y-2794000D01*
X3037105Y-6731000D02*
G75*
G02*
X2783105Y-6477000I0J254000D01*
G01*
X9525000Y-6477000D02*
G75*
G02*
X9271000Y-6731000I-254000J0D01*
G01*
X2783105Y-2794000D02*
G75*
G02*
X3037105Y-2540000I254000J0D01*
G01*
X9271000Y-6731000D02*
X3037105Y-6731000D01*
X9271000Y-2540000D02*
G75*
G02*
X9525000Y-2794000I0J-254000D01*
G01*
X9525000Y-2794000D02*
X9525000Y-6477000D01*
X3037105Y-2540000D02*
X9271000Y-2540000D01*
D11*
D12*
X4539000Y-6317000D02*
X4859000Y-6637000D01*
X4859000Y-6317000D02*
X4539000Y-6637000D01*
X7714000Y-6317000D02*
X8034000Y-6637000D01*
X8034000Y-6317000D02*
X7714000Y-6637000D01*
D11*
X3041382Y-7044984D02*
X3041382Y-6844984D01*
X3041382Y-6844984D02*
X3089001Y-6844984D01*
X3089001Y-6844984D02*
X3117572Y-6854508D01*
X3117572Y-6854508D02*
X3136620Y-6873555D01*
X3136620Y-6873555D02*
X3146144Y-6892603D01*
X3146144Y-6892603D02*
X3155668Y-6930698D01*
X3155668Y-6930698D02*
X3155668Y-6959269D01*
X3155668Y-6959269D02*
X3146144Y-6997365D01*
X3146144Y-6997365D02*
X3136620Y-7016412D01*
X3136620Y-7016412D02*
X3117572Y-7035460D01*
X3117572Y-7035460D02*
X3089001Y-7044984D01*
X3089001Y-7044984D02*
X3041382Y-7044984D01*
X3241382Y-7044984D02*
X3241382Y-6911650D01*
X3241382Y-6949746D02*
X3250906Y-6930698D01*
X3250906Y-6930698D02*
X3260429Y-6921174D01*
X3260429Y-6921174D02*
X3279477Y-6911650D01*
X3279477Y-6911650D02*
X3298525Y-6911650D01*
X3365191Y-7044984D02*
X3365191Y-6911650D01*
X3365191Y-6844984D02*
X3355668Y-6854508D01*
X3355668Y-6854508D02*
X3365191Y-6864031D01*
X3365191Y-6864031D02*
X3374715Y-6854508D01*
X3374715Y-6854508D02*
X3365191Y-6844984D01*
X3365191Y-6844984D02*
X3365191Y-6864031D01*
X3489001Y-7044984D02*
X3469953Y-7035460D01*
X3469953Y-7035460D02*
X3460429Y-7016412D01*
X3460429Y-7016412D02*
X3460429Y-6844984D01*
X3593763Y-7044984D02*
X3574715Y-7035460D01*
X3574715Y-7035460D02*
X3565191Y-7016412D01*
X3565191Y-7016412D02*
X3565191Y-6844984D01*
X3822334Y-7044984D02*
X3822334Y-6844984D01*
X3822334Y-6844984D02*
X3889001Y-6987841D01*
X3889001Y-6987841D02*
X3955668Y-6844984D01*
X3955668Y-6844984D02*
X3955668Y-7044984D01*
X4136620Y-7044984D02*
X4136620Y-6940222D01*
X4136620Y-6940222D02*
X4127096Y-6921174D01*
X4127096Y-6921174D02*
X4108049Y-6911650D01*
X4108049Y-6911650D02*
X4069953Y-6911650D01*
X4069953Y-6911650D02*
X4050906Y-6921174D01*
X4136620Y-7035460D02*
X4117572Y-7044984D01*
X4117572Y-7044984D02*
X4069953Y-7044984D01*
X4069953Y-7044984D02*
X4050906Y-7035460D01*
X4050906Y-7035460D02*
X4041382Y-7016412D01*
X4041382Y-7016412D02*
X4041382Y-6997365D01*
X4041382Y-6997365D02*
X4050906Y-6978317D01*
X4050906Y-6978317D02*
X4069953Y-6968793D01*
X4069953Y-6968793D02*
X4117572Y-6968793D01*
X4117572Y-6968793D02*
X4136620Y-6959269D01*
X4231858Y-6911650D02*
X4231858Y-7111650D01*
X4231858Y-6921174D02*
X4250906Y-6911650D01*
X4250906Y-6911650D02*
X4289001Y-6911650D01*
X4289001Y-6911650D02*
X4308049Y-6921174D01*
X4308049Y-6921174D02*
X4317572Y-6930698D01*
X4317572Y-6930698D02*
X4327096Y-6949746D01*
X4327096Y-6949746D02*
X4327096Y-7006888D01*
X4327096Y-7006888D02*
X4317572Y-7025936D01*
X4317572Y-7025936D02*
X4308049Y-7035460D01*
X4308049Y-7035460D02*
X4289001Y-7044984D01*
X4289001Y-7044984D02*
X4250906Y-7044984D01*
X4250906Y-7044984D02*
X4231858Y-7035460D01*
X4412811Y-7025936D02*
X4422334Y-7035460D01*
X4422334Y-7035460D02*
X4412811Y-7044984D01*
X4412811Y-7044984D02*
X4403287Y-7035460D01*
X4403287Y-7035460D02*
X4412811Y-7025936D01*
X4412811Y-7025936D02*
X4412811Y-7044984D01*
X4412811Y-6921174D02*
X4422334Y-6930698D01*
X4422334Y-6930698D02*
X4412811Y-6940222D01*
X4412811Y-6940222D02*
X4403287Y-6930698D01*
X4403287Y-6930698D02*
X4412811Y-6921174D01*
X4412811Y-6921174D02*
X4412811Y-6940222D01*
X2580605Y-7273500D02*
X2780605Y-7473500D01*
X2780605Y-7273500D02*
X2580605Y-7473500D01*
X3022334Y-7264984D02*
X3146144Y-7264984D01*
X3146144Y-7264984D02*
X3079477Y-7341174D01*
X3079477Y-7341174D02*
X3108049Y-7341174D01*
X3108049Y-7341174D02*
X3127096Y-7350698D01*
X3127096Y-7350698D02*
X3136620Y-7360222D01*
X3136620Y-7360222D02*
X3146144Y-7379269D01*
X3146144Y-7379269D02*
X3146144Y-7426888D01*
X3146144Y-7426888D02*
X3136620Y-7445936D01*
X3136620Y-7445936D02*
X3127096Y-7455460D01*
X3127096Y-7455460D02*
X3108049Y-7464984D01*
X3108049Y-7464984D02*
X3050906Y-7464984D01*
X3050906Y-7464984D02*
X3031858Y-7455460D01*
X3031858Y-7455460D02*
X3022334Y-7445936D01*
X3231858Y-7445936D02*
X3241382Y-7455460D01*
X3241382Y-7455460D02*
X3231858Y-7464984D01*
X3231858Y-7464984D02*
X3222334Y-7455460D01*
X3222334Y-7455460D02*
X3231858Y-7445936D01*
X3231858Y-7445936D02*
X3231858Y-7464984D01*
X3317572Y-7284031D02*
X3327096Y-7274508D01*
X3327096Y-7274508D02*
X3346144Y-7264984D01*
X3346144Y-7264984D02*
X3393763Y-7264984D01*
X3393763Y-7264984D02*
X3412810Y-7274508D01*
X3412810Y-7274508D02*
X3422334Y-7284031D01*
X3422334Y-7284031D02*
X3431858Y-7303079D01*
X3431858Y-7303079D02*
X3431858Y-7322127D01*
X3431858Y-7322127D02*
X3422334Y-7350698D01*
X3422334Y-7350698D02*
X3308049Y-7464984D01*
X3308049Y-7464984D02*
X3431858Y-7464984D01*
X3555668Y-7264984D02*
X3574715Y-7264984D01*
X3574715Y-7264984D02*
X3593763Y-7274508D01*
X3593763Y-7274508D02*
X3603287Y-7284031D01*
X3603287Y-7284031D02*
X3612810Y-7303079D01*
X3612810Y-7303079D02*
X3622334Y-7341174D01*
X3622334Y-7341174D02*
X3622334Y-7388793D01*
X3622334Y-7388793D02*
X3612810Y-7426888D01*
X3612810Y-7426888D02*
X3603287Y-7445936D01*
X3603287Y-7445936D02*
X3593763Y-7455460D01*
X3593763Y-7455460D02*
X3574715Y-7464984D01*
X3574715Y-7464984D02*
X3555668Y-7464984D01*
X3555668Y-7464984D02*
X3536620Y-7455460D01*
X3536620Y-7455460D02*
X3527096Y-7445936D01*
X3527096Y-7445936D02*
X3517572Y-7426888D01*
X3517572Y-7426888D02*
X3508049Y-7388793D01*
X3508049Y-7388793D02*
X3508049Y-7341174D01*
X3508049Y-7341174D02*
X3517572Y-7303079D01*
X3517572Y-7303079D02*
X3527096Y-7284031D01*
X3527096Y-7284031D02*
X3536620Y-7274508D01*
X3536620Y-7274508D02*
X3555668Y-7264984D01*
X3746144Y-7264984D02*
X3765191Y-7264984D01*
X3765191Y-7264984D02*
X3784239Y-7274508D01*
X3784239Y-7274508D02*
X3793763Y-7284031D01*
X3793763Y-7284031D02*
X3803287Y-7303079D01*
X3803287Y-7303079D02*
X3812810Y-7341174D01*
X3812810Y-7341174D02*
X3812810Y-7388793D01*
X3812810Y-7388793D02*
X3803287Y-7426888D01*
X3803287Y-7426888D02*
X3793763Y-7445936D01*
X3793763Y-7445936D02*
X3784239Y-7455460D01*
X3784239Y-7455460D02*
X3765191Y-7464984D01*
X3765191Y-7464984D02*
X3746144Y-7464984D01*
X3746144Y-7464984D02*
X3727096Y-7455460D01*
X3727096Y-7455460D02*
X3717572Y-7445936D01*
X3717572Y-7445936D02*
X3708049Y-7426888D01*
X3708049Y-7426888D02*
X3698525Y-7388793D01*
X3698525Y-7388793D02*
X3698525Y-7341174D01*
X3698525Y-7341174D02*
X3708049Y-7303079D01*
X3708049Y-7303079D02*
X3717572Y-7284031D01*
X3717572Y-7284031D02*
X3727096Y-7274508D01*
X3727096Y-7274508D02*
X3746144Y-7264984D01*
X3898525Y-7464984D02*
X3898525Y-7331650D01*
X3898525Y-7350698D02*
X3908049Y-7341174D01*
X3908049Y-7341174D02*
X3927096Y-7331650D01*
X3927096Y-7331650D02*
X3955668Y-7331650D01*
X3955668Y-7331650D02*
X3974715Y-7341174D01*
X3974715Y-7341174D02*
X3984239Y-7360222D01*
X3984239Y-7360222D02*
X3984239Y-7464984D01*
X3984239Y-7360222D02*
X3993763Y-7341174D01*
X3993763Y-7341174D02*
X4012810Y-7331650D01*
X4012810Y-7331650D02*
X4041382Y-7331650D01*
X4041382Y-7331650D02*
X4060430Y-7341174D01*
X4060430Y-7341174D02*
X4069953Y-7360222D01*
X4069953Y-7360222D02*
X4069953Y-7464984D01*
X4165191Y-7464984D02*
X4165191Y-7331650D01*
X4165191Y-7350698D02*
X4174715Y-7341174D01*
X4174715Y-7341174D02*
X4193763Y-7331650D01*
X4193763Y-7331650D02*
X4222334Y-7331650D01*
X4222334Y-7331650D02*
X4241382Y-7341174D01*
X4241382Y-7341174D02*
X4250906Y-7360222D01*
X4250906Y-7360222D02*
X4250906Y-7464984D01*
X4250906Y-7360222D02*
X4260430Y-7341174D01*
X4260430Y-7341174D02*
X4279477Y-7331650D01*
X4279477Y-7331650D02*
X4308049Y-7331650D01*
X4308049Y-7331650D02*
X4327096Y-7341174D01*
X4327096Y-7341174D02*
X4336620Y-7360222D01*
X4336620Y-7360222D02*
X4336620Y-7464984D01*
X4727096Y-7255460D02*
X4555668Y-7512603D01*
X4984239Y-7264984D02*
X5003287Y-7264984D01*
X5003287Y-7264984D02*
X5022335Y-7274508D01*
X5022335Y-7274508D02*
X5031858Y-7284031D01*
X5031858Y-7284031D02*
X5041382Y-7303079D01*
X5041382Y-7303079D02*
X5050906Y-7341174D01*
X5050906Y-7341174D02*
X5050906Y-7388793D01*
X5050906Y-7388793D02*
X5041382Y-7426888D01*
X5041382Y-7426888D02*
X5031858Y-7445936D01*
X5031858Y-7445936D02*
X5022335Y-7455460D01*
X5022335Y-7455460D02*
X5003287Y-7464984D01*
X5003287Y-7464984D02*
X4984239Y-7464984D01*
X4984239Y-7464984D02*
X4965192Y-7455460D01*
X4965192Y-7455460D02*
X4955668Y-7445936D01*
X4955668Y-7445936D02*
X4946144Y-7426888D01*
X4946144Y-7426888D02*
X4936620Y-7388793D01*
X4936620Y-7388793D02*
X4936620Y-7341174D01*
X4936620Y-7341174D02*
X4946144Y-7303079D01*
X4946144Y-7303079D02*
X4955668Y-7284031D01*
X4955668Y-7284031D02*
X4965192Y-7274508D01*
X4965192Y-7274508D02*
X4984239Y-7264984D01*
X5136620Y-7445936D02*
X5146144Y-7455460D01*
X5146144Y-7455460D02*
X5136620Y-7464984D01*
X5136620Y-7464984D02*
X5127096Y-7455460D01*
X5127096Y-7455460D02*
X5136620Y-7445936D01*
X5136620Y-7445936D02*
X5136620Y-7464984D01*
X5336620Y-7464984D02*
X5222335Y-7464984D01*
X5279477Y-7464984D02*
X5279477Y-7264984D01*
X5279477Y-7264984D02*
X5260430Y-7293555D01*
X5260430Y-7293555D02*
X5241382Y-7312603D01*
X5241382Y-7312603D02*
X5222335Y-7322127D01*
X5412811Y-7284031D02*
X5422335Y-7274508D01*
X5422335Y-7274508D02*
X5441382Y-7264984D01*
X5441382Y-7264984D02*
X5489001Y-7264984D01*
X5489001Y-7264984D02*
X5508049Y-7274508D01*
X5508049Y-7274508D02*
X5517573Y-7284031D01*
X5517573Y-7284031D02*
X5527096Y-7303079D01*
X5527096Y-7303079D02*
X5527096Y-7322127D01*
X5527096Y-7322127D02*
X5517573Y-7350698D01*
X5517573Y-7350698D02*
X5403287Y-7464984D01*
X5403287Y-7464984D02*
X5527096Y-7464984D01*
X5698525Y-7264984D02*
X5660430Y-7264984D01*
X5660430Y-7264984D02*
X5641382Y-7274508D01*
X5641382Y-7274508D02*
X5631858Y-7284031D01*
X5631858Y-7284031D02*
X5612811Y-7312603D01*
X5612811Y-7312603D02*
X5603287Y-7350698D01*
X5603287Y-7350698D02*
X5603287Y-7426888D01*
X5603287Y-7426888D02*
X5612811Y-7445936D01*
X5612811Y-7445936D02*
X5622334Y-7455460D01*
X5622334Y-7455460D02*
X5641382Y-7464984D01*
X5641382Y-7464984D02*
X5679477Y-7464984D01*
X5679477Y-7464984D02*
X5698525Y-7455460D01*
X5698525Y-7455460D02*
X5708049Y-7445936D01*
X5708049Y-7445936D02*
X5717573Y-7426888D01*
X5717573Y-7426888D02*
X5717573Y-7379269D01*
X5717573Y-7379269D02*
X5708049Y-7360222D01*
X5708049Y-7360222D02*
X5698525Y-7350698D01*
X5698525Y-7350698D02*
X5679477Y-7341174D01*
X5679477Y-7341174D02*
X5641382Y-7341174D01*
X5641382Y-7341174D02*
X5622334Y-7350698D01*
X5622334Y-7350698D02*
X5612811Y-7360222D01*
X5612811Y-7360222D02*
X5603287Y-7379269D01*
X5841382Y-7264984D02*
X5860430Y-7264984D01*
X5860430Y-7264984D02*
X5879477Y-7274508D01*
X5879477Y-7274508D02*
X5889001Y-7284031D01*
X5889001Y-7284031D02*
X5898525Y-7303079D01*
X5898525Y-7303079D02*
X5908049Y-7341174D01*
X5908049Y-7341174D02*
X5908049Y-7388793D01*
X5908049Y-7388793D02*
X5898525Y-7426888D01*
X5898525Y-7426888D02*
X5889001Y-7445936D01*
X5889001Y-7445936D02*
X5879477Y-7455460D01*
X5879477Y-7455460D02*
X5860430Y-7464984D01*
X5860430Y-7464984D02*
X5841382Y-7464984D01*
X5841382Y-7464984D02*
X5822334Y-7455460D01*
X5822334Y-7455460D02*
X5812811Y-7445936D01*
X5812811Y-7445936D02*
X5803287Y-7426888D01*
X5803287Y-7426888D02*
X5793763Y-7388793D01*
X5793763Y-7388793D02*
X5793763Y-7341174D01*
X5793763Y-7341174D02*
X5803287Y-7303079D01*
X5803287Y-7303079D02*
X5812811Y-7284031D01*
X5812811Y-7284031D02*
X5822334Y-7274508D01*
X5822334Y-7274508D02*
X5841382Y-7264984D01*
X5984239Y-7264984D02*
X5984239Y-7303079D01*
X6060430Y-7264984D02*
X6060430Y-7303079D01*
X6355668Y-7541174D02*
X6346144Y-7531650D01*
X6346144Y-7531650D02*
X6327096Y-7503079D01*
X6327096Y-7503079D02*
X6317573Y-7484031D01*
X6317573Y-7484031D02*
X6308049Y-7455460D01*
X6308049Y-7455460D02*
X6298525Y-7407841D01*
X6298525Y-7407841D02*
X6298525Y-7369746D01*
X6298525Y-7369746D02*
X6308049Y-7322127D01*
X6308049Y-7322127D02*
X6317573Y-7293555D01*
X6317573Y-7293555D02*
X6327096Y-7274508D01*
X6327096Y-7274508D02*
X6346144Y-7245936D01*
X6346144Y-7245936D02*
X6355668Y-7236412D01*
X6422335Y-7284031D02*
X6431858Y-7274508D01*
X6431858Y-7274508D02*
X6450906Y-7264984D01*
X6450906Y-7264984D02*
X6498525Y-7264984D01*
X6498525Y-7264984D02*
X6517573Y-7274508D01*
X6517573Y-7274508D02*
X6527096Y-7284031D01*
X6527096Y-7284031D02*
X6536620Y-7303079D01*
X6536620Y-7303079D02*
X6536620Y-7322127D01*
X6536620Y-7322127D02*
X6527096Y-7350698D01*
X6527096Y-7350698D02*
X6412811Y-7464984D01*
X6412811Y-7464984D02*
X6536620Y-7464984D01*
X6774716Y-7464984D02*
X6774716Y-7264984D01*
X6860430Y-7464984D02*
X6860430Y-7360222D01*
X6860430Y-7360222D02*
X6850906Y-7341174D01*
X6850906Y-7341174D02*
X6831858Y-7331650D01*
X6831858Y-7331650D02*
X6803287Y-7331650D01*
X6803287Y-7331650D02*
X6784239Y-7341174D01*
X6784239Y-7341174D02*
X6774716Y-7350698D01*
X6984239Y-7464984D02*
X6965192Y-7455460D01*
X6965192Y-7455460D02*
X6955668Y-7445936D01*
X6955668Y-7445936D02*
X6946144Y-7426888D01*
X6946144Y-7426888D02*
X6946144Y-7369746D01*
X6946144Y-7369746D02*
X6955668Y-7350698D01*
X6955668Y-7350698D02*
X6965192Y-7341174D01*
X6965192Y-7341174D02*
X6984239Y-7331650D01*
X6984239Y-7331650D02*
X7012811Y-7331650D01*
X7012811Y-7331650D02*
X7031858Y-7341174D01*
X7031858Y-7341174D02*
X7041382Y-7350698D01*
X7041382Y-7350698D02*
X7050906Y-7369746D01*
X7050906Y-7369746D02*
X7050906Y-7426888D01*
X7050906Y-7426888D02*
X7041382Y-7445936D01*
X7041382Y-7445936D02*
X7031858Y-7455460D01*
X7031858Y-7455460D02*
X7012811Y-7464984D01*
X7012811Y-7464984D02*
X6984239Y-7464984D01*
X7165192Y-7464984D02*
X7146144Y-7455460D01*
X7146144Y-7455460D02*
X7136620Y-7436412D01*
X7136620Y-7436412D02*
X7136620Y-7264984D01*
X7317573Y-7455460D02*
X7298525Y-7464984D01*
X7298525Y-7464984D02*
X7260430Y-7464984D01*
X7260430Y-7464984D02*
X7241382Y-7455460D01*
X7241382Y-7455460D02*
X7231858Y-7436412D01*
X7231858Y-7436412D02*
X7231858Y-7360222D01*
X7231858Y-7360222D02*
X7241382Y-7341174D01*
X7241382Y-7341174D02*
X7260430Y-7331650D01*
X7260430Y-7331650D02*
X7298525Y-7331650D01*
X7298525Y-7331650D02*
X7317573Y-7341174D01*
X7317573Y-7341174D02*
X7327097Y-7360222D01*
X7327097Y-7360222D02*
X7327097Y-7379269D01*
X7327097Y-7379269D02*
X7231858Y-7398317D01*
X7403287Y-7455460D02*
X7422335Y-7464984D01*
X7422335Y-7464984D02*
X7460430Y-7464984D01*
X7460430Y-7464984D02*
X7479478Y-7455460D01*
X7479478Y-7455460D02*
X7489001Y-7436412D01*
X7489001Y-7436412D02*
X7489001Y-7426888D01*
X7489001Y-7426888D02*
X7479478Y-7407841D01*
X7479478Y-7407841D02*
X7460430Y-7398317D01*
X7460430Y-7398317D02*
X7431858Y-7398317D01*
X7431858Y-7398317D02*
X7412811Y-7388793D01*
X7412811Y-7388793D02*
X7403287Y-7369746D01*
X7403287Y-7369746D02*
X7403287Y-7360222D01*
X7403287Y-7360222D02*
X7412811Y-7341174D01*
X7412811Y-7341174D02*
X7431858Y-7331650D01*
X7431858Y-7331650D02*
X7460430Y-7331650D01*
X7460430Y-7331650D02*
X7479478Y-7341174D01*
X7555668Y-7541174D02*
X7565192Y-7531650D01*
X7565192Y-7531650D02*
X7584239Y-7503079D01*
X7584239Y-7503079D02*
X7593763Y-7484031D01*
X7593763Y-7484031D02*
X7603287Y-7455460D01*
X7603287Y-7455460D02*
X7612811Y-7407841D01*
X7612811Y-7407841D02*
X7612811Y-7369746D01*
X7612811Y-7369746D02*
X7603287Y-7322127D01*
X7603287Y-7322127D02*
X7593763Y-7293555D01*
X7593763Y-7293555D02*
X7584239Y-7274508D01*
X7584239Y-7274508D02*
X7565192Y-7245936D01*
X7565192Y-7245936D02*
X7555668Y-7236412D01*
X7917573Y-7541174D02*
X7908049Y-7531650D01*
X7908049Y-7531650D02*
X7889001Y-7503079D01*
X7889001Y-7503079D02*
X7879478Y-7484031D01*
X7879478Y-7484031D02*
X7869954Y-7455460D01*
X7869954Y-7455460D02*
X7860430Y-7407841D01*
X7860430Y-7407841D02*
X7860430Y-7369746D01*
X7860430Y-7369746D02*
X7869954Y-7322127D01*
X7869954Y-7322127D02*
X7879478Y-7293555D01*
X7879478Y-7293555D02*
X7889001Y-7274508D01*
X7889001Y-7274508D02*
X7908049Y-7245936D01*
X7908049Y-7245936D02*
X7917573Y-7236412D01*
X7993763Y-7331650D02*
X7993763Y-7464984D01*
X7993763Y-7350698D02*
X8003287Y-7341174D01*
X8003287Y-7341174D02*
X8022335Y-7331650D01*
X8022335Y-7331650D02*
X8050906Y-7331650D01*
X8050906Y-7331650D02*
X8069954Y-7341174D01*
X8069954Y-7341174D02*
X8079478Y-7360222D01*
X8079478Y-7360222D02*
X8079478Y-7464984D01*
X8203287Y-7464984D02*
X8184239Y-7455460D01*
X8184239Y-7455460D02*
X8174716Y-7445936D01*
X8174716Y-7445936D02*
X8165192Y-7426888D01*
X8165192Y-7426888D02*
X8165192Y-7369746D01*
X8165192Y-7369746D02*
X8174716Y-7350698D01*
X8174716Y-7350698D02*
X8184239Y-7341174D01*
X8184239Y-7341174D02*
X8203287Y-7331650D01*
X8203287Y-7331650D02*
X8231859Y-7331650D01*
X8231859Y-7331650D02*
X8250906Y-7341174D01*
X8250906Y-7341174D02*
X8260430Y-7350698D01*
X8260430Y-7350698D02*
X8269954Y-7369746D01*
X8269954Y-7369746D02*
X8269954Y-7426888D01*
X8269954Y-7426888D02*
X8260430Y-7445936D01*
X8260430Y-7445936D02*
X8250906Y-7455460D01*
X8250906Y-7455460D02*
X8231859Y-7464984D01*
X8231859Y-7464984D02*
X8203287Y-7464984D01*
X8327097Y-7331650D02*
X8403287Y-7331650D01*
X8355668Y-7264984D02*
X8355668Y-7436412D01*
X8355668Y-7436412D02*
X8365192Y-7455460D01*
X8365192Y-7455460D02*
X8384239Y-7464984D01*
X8384239Y-7464984D02*
X8403287Y-7464984D01*
X8622335Y-7331650D02*
X8622335Y-7531650D01*
X8622335Y-7341174D02*
X8641382Y-7331650D01*
X8641382Y-7331650D02*
X8679478Y-7331650D01*
X8679478Y-7331650D02*
X8698525Y-7341174D01*
X8698525Y-7341174D02*
X8708049Y-7350698D01*
X8708049Y-7350698D02*
X8717573Y-7369746D01*
X8717573Y-7369746D02*
X8717573Y-7426888D01*
X8717573Y-7426888D02*
X8708049Y-7445936D01*
X8708049Y-7445936D02*
X8698525Y-7455460D01*
X8698525Y-7455460D02*
X8679478Y-7464984D01*
X8679478Y-7464984D02*
X8641382Y-7464984D01*
X8641382Y-7464984D02*
X8622335Y-7455460D01*
X8831859Y-7464984D02*
X8812811Y-7455460D01*
X8812811Y-7455460D02*
X8803287Y-7436412D01*
X8803287Y-7436412D02*
X8803287Y-7264984D01*
X8993763Y-7464984D02*
X8993763Y-7360222D01*
X8993763Y-7360222D02*
X8984240Y-7341174D01*
X8984240Y-7341174D02*
X8965192Y-7331650D01*
X8965192Y-7331650D02*
X8927097Y-7331650D01*
X8927097Y-7331650D02*
X8908049Y-7341174D01*
X8993763Y-7455460D02*
X8974716Y-7464984D01*
X8974716Y-7464984D02*
X8927097Y-7464984D01*
X8927097Y-7464984D02*
X8908049Y-7455460D01*
X8908049Y-7455460D02*
X8898525Y-7436412D01*
X8898525Y-7436412D02*
X8898525Y-7417365D01*
X8898525Y-7417365D02*
X8908049Y-7398317D01*
X8908049Y-7398317D02*
X8927097Y-7388793D01*
X8927097Y-7388793D02*
X8974716Y-7388793D01*
X8974716Y-7388793D02*
X8993763Y-7379269D01*
X9060430Y-7331650D02*
X9136621Y-7331650D01*
X9089002Y-7264984D02*
X9089002Y-7436412D01*
X9089002Y-7436412D02*
X9098525Y-7455460D01*
X9098525Y-7455460D02*
X9117573Y-7464984D01*
X9117573Y-7464984D02*
X9136621Y-7464984D01*
X9279478Y-7455460D02*
X9260430Y-7464984D01*
X9260430Y-7464984D02*
X9222335Y-7464984D01*
X9222335Y-7464984D02*
X9203287Y-7455460D01*
X9203287Y-7455460D02*
X9193763Y-7436412D01*
X9193763Y-7436412D02*
X9193763Y-7360222D01*
X9193763Y-7360222D02*
X9203287Y-7341174D01*
X9203287Y-7341174D02*
X9222335Y-7331650D01*
X9222335Y-7331650D02*
X9260430Y-7331650D01*
X9260430Y-7331650D02*
X9279478Y-7341174D01*
X9279478Y-7341174D02*
X9289002Y-7360222D01*
X9289002Y-7360222D02*
X9289002Y-7379269D01*
X9289002Y-7379269D02*
X9193763Y-7398317D01*
X9460430Y-7464984D02*
X9460430Y-7264984D01*
X9460430Y-7455460D02*
X9441383Y-7464984D01*
X9441383Y-7464984D02*
X9403287Y-7464984D01*
X9403287Y-7464984D02*
X9384240Y-7455460D01*
X9384240Y-7455460D02*
X9374716Y-7445936D01*
X9374716Y-7445936D02*
X9365192Y-7426888D01*
X9365192Y-7426888D02*
X9365192Y-7369746D01*
X9365192Y-7369746D02*
X9374716Y-7350698D01*
X9374716Y-7350698D02*
X9384240Y-7341174D01*
X9384240Y-7341174D02*
X9403287Y-7331650D01*
X9403287Y-7331650D02*
X9441383Y-7331650D01*
X9441383Y-7331650D02*
X9460430Y-7341174D01*
X9536621Y-7541174D02*
X9546144Y-7531650D01*
X9546144Y-7531650D02*
X9565192Y-7503079D01*
X9565192Y-7503079D02*
X9574716Y-7484031D01*
X9574716Y-7484031D02*
X9584240Y-7455460D01*
X9584240Y-7455460D02*
X9593763Y-7407841D01*
X9593763Y-7407841D02*
X9593763Y-7369746D01*
X9593763Y-7369746D02*
X9584240Y-7322127D01*
X9584240Y-7322127D02*
X9574716Y-7293555D01*
X9574716Y-7293555D02*
X9565192Y-7274508D01*
X9565192Y-7274508D02*
X9546144Y-7245936D01*
X9546144Y-7245936D02*
X9536621Y-7236412D01*
M02*
